<?xml version="1.0" encoding="UTF-8"?>
<svg width="123px" height="101px" viewBox="0 0 123 101" version="1.1" xmlns="http://www.w3.org/2000/svg" xmlns:xlink="http://www.w3.org/1999/xlink">
    <!-- Generator: Sketch 50.2 (55047) - http://www.bohemiancoding.com/sketch -->
    <title>Combined Shape</title>
    <desc>Created with Sketch.</desc>
    <defs></defs>
    <g id="Page-1" stroke="none" stroke-width="1" fill="none" fill-rule="evenodd">
        <g id="Планування_фільтр_після" transform="translate(-1240.000000, -166.000000)" fill="#FFFFFF" fill-rule="nonzero">
            <g id="Group-18" transform="translate(1240.000000, 166.000000)">
                <path d="M108.271907,68.2127467 C101.121359,87.084247 82.8773878,100.5 61.5,100.5 C37.4873936,100.5 17.4283398,83.5728288 12.6043523,61 L0.199951172,61 L16.3332845,29 L16.339641,29.0126079 C24.3763808,12.1518424 41.5774736,0.5 61.5,0.5 C85.1566794,0.5 104.976141,16.9290839 110.171132,39 L123,39 L108.271907,68.2127467 Z M99.9221962,57.2258436 L90.7333333,39 L98.7767932,39 C93.8693166,23.0740904 79.0362952,11.5 61.5,11.5 C42.612239,11.5 26.8604724,24.9267881 23.2687543,42.7563102 L32.4666178,61 L23.9297493,61 C28.5144078,77.439107 43.5987176,89.5 61.5,89.5 C80.7455296,89.5 96.7351367,75.5597388 99.9221966,57.2258413 Z" id="Combined-Shape"></path>
            </g>
        </g>
    </g>
</svg>