<?xml version="1.0" encoding="UTF-8"?>
<svg width="41px" height="59px" viewBox="0 0 41 59" version="1.1" xmlns="http://www.w3.org/2000/svg" xmlns:xlink="http://www.w3.org/1999/xlink">
    <!-- Generator: Sketch 50.2 (55047) - http://www.bohemiancoding.com/sketch -->
    <title>Group 62</title>
    <desc>Created with Sketch.</desc>
    <defs></defs>
    <g id="Page-1" stroke="none" stroke-width="1" fill="none" fill-rule="evenodd">
        <g id="Group-62">
            <g id="Пин-Copy">
                <g id="Group-25-Copy-4">
                    <g id="Group-24" transform="translate(12.000000, 41.000000)">
                        <polygon id="Path-2" fill="#DB44B0" points="0.599975586 0 8.55149683 17.8284943 11.5883126 6.68103832"></polygon>
                        <polygon id="Path-2-Copy" fill="#B4288C" transform="translate(12.515739, 8.914247) scale(-1, 1) translate(-12.515739, -8.914247) " points="8.53997803 0 16.4914993 17.8284943 16.4914993 5.4805496"></polygon>
                    </g>
                    <g id="Group-23">
                        <g id="Group-22">
                            <g id="Page-1">
                                <polygon id="Fill-1" fill="#F679D2" points="20.4756299 0.0760131788 0.0410873267 12.2689596 20.4756299 24.450022 40.9101724 12.2689596"></polygon>
                                <polygon id="Fill-2" fill="#EB53C0" points="0.0445391075 39.232484 20.4790816 51.4254304 20.4790816 24.4488336 0.0445391075 12.2677712"></polygon>
                                <polygon id="Fill-3" fill="#CC39A2" points="20.4756299 24.4512104 20.4756299 51.4278072 40.9101724 39.2348608 40.9101724 12.270148"></polygon>
                            </g>
                        </g>
                    </g>
                </g>
            </g>
            <path d="M16.5789474,38.2622427 L18,32.5819005 C18,32.529269 18,32.4240058 17.9473684,32.3400419 C17.8947368,32.2560779 17.8421053,32.172114 17.7368421,32.1094493 L6,25.122334 L5.1923017,21.9572888 L2,20.0568645 L2,21.109496 L4.47368421,22.5821168 C4.47368421,22.5821168 7.42105263,35.0209392 7.47368421,35.1049031 C7.36842105,35.2527647 7.31578947,35.4319587 7.31578947,35.642485 C7.31578947,36.4319587 7.94736842,37.4395259 8.73684211,37.9095112 C9.52631579,38.3794966 10.1578947,38.1239059 10.1578947,37.3344322 C10.1578947,37.1765375 10.1578947,37.0712743 10.1052632,36.8820472 L14.6842105,39.6079621 C14.6315789,39.681893 14.6315789,39.8397877 14.6315789,39.9976824 C14.6315789,40.7871561 15.2631579,41.7947233 16.0526316,42.2647087 C16.8421053,42.734694 17.4736842,42.4791033 17.4736842,41.6896296 C17.4736842,41.0054191 16.9473684,40.1131482 16.3157895,39.5792652 C16.2631579,39.4953012 8.31578947,34.7641155 8.31578947,34.7641155 L7.94736842,33.2816312 L16.3157895,38.2634757 C16.4210526,38.378772 16.5263158,38.3361735 16.5789474,38.2622427 Z" id="Shape" fill="#FFFFFF" fill-rule="nonzero"></path>
        </g>
    </g>
</svg>