<?xml version="1.0" encoding="UTF-8"?>
<svg width="41px" height="59px" viewBox="0 0 41 59" version="1.1" xmlns="http://www.w3.org/2000/svg" xmlns:xlink="http://www.w3.org/1999/xlink">
    <!-- Generator: Sketch 50.2 (55047) - http://www.bohemiancoding.com/sketch -->
    <title>Group 63</title>
    <desc>Created with Sketch.</desc>
    <defs></defs>
    <g id="Page-1" stroke="none" stroke-width="1" fill="none" fill-rule="evenodd">
        <g id="Group-63">
            <g id="Пин">
                <g id="Group-25-Copy-4">
                    <g id="Group-24" transform="translate(12.000000, 41.000000)">
                        <polygon id="Path-2" fill="#DB44B0" points="0.599975586 0 8.55149683 17.8284943 11.5883126 6.68103832"></polygon>
                        <polygon id="Path-2-Copy" fill="#B4288C" transform="translate(12.515739, 8.914247) scale(-1, 1) translate(-12.515739, -8.914247) " points="8.53997803 0 16.4914993 17.8284943 16.4914993 5.4805496"></polygon>
                    </g>
                    <g id="Group-23">
                        <g id="Group-22">
                            <g id="Page-1">
                                <polygon id="Fill-1" fill="#F679D2" points="20.4756299 0.0760131788 0.0410873267 12.2689596 20.4756299 24.450022 40.9101724 12.2689596"></polygon>
                                <polygon id="Fill-2" fill="#EB53C0" points="0.0445391075 39.232484 20.4790816 51.4254304 20.4790816 24.4488336 0.0445391075 12.2677712"></polygon>
                                <polygon id="Fill-3" fill="#CC39A2" points="20.4756299 24.4512104 20.4756299 51.4278072 40.9101724 39.2348608 40.9101724 12.270148"></polygon>
                            </g>
                        </g>
                        <polygon id="Shape" fill="#FFFFFF" fill-rule="nonzero" points="10.25 31.3925398 15.5368421 33.2527375 19.21875 34.5577614 10.25 26.5899066 1.28125 23.4731964 4.96315789 26.7186782"></polygon>
                        <path d="M15.375,39.7740273 L15.375,34.3334881 L15.1934896,34.2176865 L10.0204427,32.3617337 C9.9750651,32.3327833 9.9296875,32.3038329 9.8843099,32.2748825 C9.83893229,32.2459321 9.79355469,32.2169817 9.74817708,32.1880314 L4.57513021,27.4432966 L4.484375,27.3853958 L4.484375,32.825935 L4.5297526,32.8548854 L8.97675781,36.6549504 C9.61204427,37.2046949 10.2473307,37.6100002 10.8826172,37.8708665 L15.375,39.7740273 Z" id="Shape" fill="#FFFFFF" fill-rule="nonzero"></path>
                    </g>
                </g>
            </g>
        </g>
    </g>
</svg>