<?xml version="1.0" encoding="UTF-8"?>
<svg width="41px" height="59px" viewBox="0 0 41 59" version="1.1" xmlns="http://www.w3.org/2000/svg" xmlns:xlink="http://www.w3.org/1999/xlink">
    <!-- Generator: Sketch 50.2 (55047) - http://www.bohemiancoding.com/sketch -->
    <title>Group 61</title>
    <desc>Created with Sketch.</desc>
    <defs></defs>
    <g id="Page-1" stroke="none" stroke-width="1" fill="none" fill-rule="evenodd">
        <g id="Group-61">
            <g id="Пин-Copy-3">
                <g id="Group-25-Copy-4">
                    <g id="Group-24" transform="translate(12.000000, 41.000000)">
                        <polygon id="Path-2" fill="#DB44B0" points="0.599975586 0 8.55149683 17.8284943 11.5883126 6.68103832"></polygon>
                        <polygon id="Path-2-Copy" fill="#B4288C" transform="translate(12.515739, 8.914247) scale(-1, 1) translate(-12.515739, -8.914247) " points="8.53997803 0 16.4914993 17.8284943 16.4914993 5.4805496"></polygon>
                    </g>
                    <g id="Group-23">
                        <g id="Group-22">
                            <g id="Page-1">
                                <polygon id="Fill-1" fill="#F679D2" points="20.4756299 0.0760131788 0.0410873267 12.2689596 20.4756299 24.450022 40.9101724 12.2689596"></polygon>
                                <polygon id="Fill-2" fill="#EB53C0" points="0.0445391075 39.232484 20.4790816 51.4254304 20.4790816 24.4488336 0.0445391075 12.2677712"></polygon>
                                <path d="M6.09113189,27.6636107 L17,34.1654089 L17,42.1125106 L3.37649864,33.9927629 L3.37649864,26.4688918 L2.80239288,22.9867174 L16.2034993,28.5237344 L16.7906788,32.0844285 L6.09113189,27.6636107 Z M9.67773572,26.6929925 L8.42308726,27.761458 L9.91505172,28.3778419 L11.1698423,27.3094611 L9.67773572,26.6929925 Z M6.84387009,27.1091285 L8.09866066,26.0406056 L6.6066962,25.4242217 L5.35190563,26.4926025 L6.84387009,27.1091285 Z M12.7490595,27.9619328 L11.4942689,29.0303135 L12.9862333,29.6468396 L14.2410239,28.5784588 L12.7490595,27.9619328 Z M5.02762114,24.7716927 L3.79286743,24.2614301 L4.01867289,25.630624 L5.02762114,24.7716927 Z M14.5653084,30.2993686 L15.8000621,30.8094891 L15.5742567,29.4402951 L14.5653084,30.2993686 Z" id="Combined-Shape" fill="#FFFFFF" fill-rule="nonzero"></path>
                                <polygon id="Fill-3" fill="#CC39A2" points="20.4756299 24.4512104 20.4756299 51.4278072 40.9101724 39.2348608 40.9101724 12.270148"></polygon>
                            </g>
                        </g>
                    </g>
                </g>
            </g>
        </g>
    </g>
</svg>