<?xml version="1.0" encoding="UTF-8"?>
<svg width="41px" height="59px" viewBox="0 0 41 59" version="1.1" xmlns="http://www.w3.org/2000/svg" xmlns:xlink="http://www.w3.org/1999/xlink">
    <!-- Generator: Sketch 50.2 (55047) - http://www.bohemiancoding.com/sketch -->
    <title>Group 60</title>
    <desc>Created with Sketch.</desc>
    <defs></defs>
    <g id="Page-1" stroke="none" stroke-width="1" fill="none" fill-rule="evenodd">
        <g id="Group-60">
            <g id="Пин-Copy-5">
                <g id="Group-25-Copy-4">
                    <g id="Group-24" transform="translate(12.000000, 41.000000)">
                        <polygon id="Path-2" fill="#DB44B0" points="0.599975586 0 8.55149683 17.8284943 11.5883126 6.68103832"></polygon>
                        <polygon id="Path-2-Copy" fill="#B4288C" transform="translate(12.515739, 8.914247) scale(-1, 1) translate(-12.515739, -8.914247) " points="8.53997803 0 16.4914993 17.8284943 16.4914993 5.4805496"></polygon>
                    </g>
                    <g id="Group-23">
                        <g id="Group-22">
                            <g id="Page-1">
                                <polygon id="Fill-1" fill="#F679D2" points="20.4756299 0.0760131788 0.0410873267 12.2689596 20.4756299 24.450022 40.9101724 12.2689596"></polygon>
                                <polygon id="Fill-2" fill="#EB53C0" points="0.0445391075 39.232484 20.4790816 51.4254304 20.4790816 24.4488336 0.0445391075 12.2677712"></polygon>
                                <polygon id="Fill-3" fill="#CC39A2" points="20.4756299 24.4512104 20.4756299 51.4278072 40.9101724 39.2348608 40.9101724 12.270148"></polygon>
                            </g>
                        </g>
                    </g>
                </g>
            </g>
            <path d="M12.1649212,34.4372641 L4.9700562,28.0972884 L10.2780376,27.7667438 L12.2271049,34.3244254 L13.7452419,31.5696124 L17,41.4444448 L10.4643761,37.523075 L11.036604,36.4847096 L3,31.6627527 L4.77021634,28.4813343 L11.9657787,34.7986282 L12.1649212,34.4372641 Z M10.0721985,27.2027617 C10.0104467,27.1786483 9.948695,27.1674726 9.90752718,27.1686473 L5.29673112,27.3907683 L8.32256604,22 L10.0721985,27.2027617 Z M7.01927946,34.9984157 L9.69518789,36.6039589 L9.69518789,39.8973846 L7.01927946,38.2918414 L7.01927946,34.9984157 Z M12.7611073,39.591874 L14.4511547,40.6059013 L14.4511547,42.6859596 L12.7611073,41.6719323 L12.7611073,39.591874 Z" id="Combined-Shape" fill="#FFFFFF" fill-rule="nonzero"></path>
        </g>
    </g>
</svg>