<?xml version="1.0" encoding="UTF-8"?>
<svg width="536px" height="423px" viewBox="0 0 536 423" version="1.1" xmlns="http://www.w3.org/2000/svg" xmlns:xlink="http://www.w3.org/1999/xlink">
    <!-- Generator: Sketch 50.2 (55047) - http://www.bohemiancoding.com/sketch -->
    <title>Flat</title>
    <desc>Created with Sketch.</desc>
    <defs></defs>
    <g id="Page-1" stroke="none" stroke-width="1" fill="none" fill-rule="evenodd">
        <g id="Форма" transform="translate(-717.000000, -167.000000)">
            <g id="Flat" transform="translate(717.000000, 167.000000)">
                <g id="All_images-02">
                    <path d="M464.040225,269.991088 C477.171221,277.571829 490.303307,285.151479 503.434302,292.73222 L388.613903,292.73222 L349.224189,269.991088 L464.040225,269.991088 M226.364627,236.562748 L226.385352,236.562748 L221.28152,239.504511 L335.447442,305.415509 L338.019538,305.415509 L338.162432,305.333702 L338.304236,305.252986 L338.444948,305.172271 L338.583479,305.091555 L338.72201,305.01193 L338.85945,304.932305 L338.997982,304.851589 L339.135422,304.773055 L381.571727,304.773055 L382.322195,304.913762 L383.071571,305.053378 L383.819857,305.194086 L384.568142,305.336975 L385.315337,305.478773 L386.061441,305.620571 L386.808636,305.763459 L387.555831,305.907439 L387.803442,305.763459 L388.048871,305.620571 L388.296481,305.478773 L388.54191,305.336975 L388.787339,305.194086 L389.032768,305.053378 L389.277106,304.913762 L389.520354,304.773055 L390.26973,304.913762 L391.019107,305.053378 L391.767392,305.194086 L392.513496,305.336975 L393.25851,305.478773 L394.003523,305.620571 L394.746355,305.763459 L395.489186,305.907439 L395.735706,305.763459 L395.983317,305.620571 L396.230927,305.478773 L396.476356,305.336975 L396.722876,305.194086 L396.966123,305.053378 L397.211552,304.913762 L397.453709,304.773055 L397.919478,304.860315 L398.384157,304.948666 L398.848836,305.035926 L399.312424,305.124277 L399.774921,305.213719 L400.235237,305.30207 L400.694462,305.391512 L401.151505,305.483136 L401.398025,305.339156 L401.646726,305.196267 L401.893246,305.053378 L402.140857,304.91158 L402.388467,304.768692 L402.634987,304.625803 L402.881507,304.482914 L403.129117,304.340025 L403.442176,304.397835 L403.751962,304.456736 L404.060657,304.514546 L404.368261,304.574537 L404.674775,304.63562 L404.980197,304.695611 L405.284529,304.755603 L405.588861,304.815594 L405.837562,304.673796 L406.084082,304.530907 L406.329511,304.388018 L406.577122,304.24622 L406.824732,304.102241 L407.071252,303.960443 L407.319953,303.816463 L407.566473,303.673575 L402.393921,300.688181 L526.157753,300.688181 L532.189852,297.205403 C494.162541,275.249614 456.130868,253.298188 418.102466,231.341308 L421.121788,229.597192 L339.945883,182.734033 L157.25401,182.734033 L145.189812,189.698498 L226.364627,236.562748 M296.054456,239.295087 L410.868311,239.295087 C424.001488,246.873646 437.132483,254.457659 450.263479,262.039491 L335.449624,262.039491 L296.054456,239.295087" id="Fill-1" fill="#E0BF19"></path>
                    <polyline id="Fill-2" fill="#F7EFE2" points="521.280806 303.503417 535.206992 295.463468 421.120697 229.598283 407.196694 237.638231 521.280806 303.503417"></polyline>
                    <polyline id="Fill-3" fill="#FBF7C9" points="409.0565 53.8767076 421.120697 46.9122428 421.120697 229.597192 409.0565 236.562748 409.0565 53.8767076"></polyline>
                    <polyline id="Fill-4" fill="#F9FAE6" points="409.0565 53.8767076 414.342494 50.8258684 414.342494 233.511908 409.0565 236.562748 409.0565 53.8767076"></polyline>
                    <g id="Group-8" transform="translate(0.000000, 196.335737)">
                        <polyline id="Fill-5" fill="#FFEABD" points="521.280806 107.16768 526.158844 104.351353 412.07364 38.4872581 407.196694 41.3024945 521.280806 107.16768"></polyline>
                        <polygon id="Fill-7" fill="#F4F4F4" points="326.014243 225.786097 162.892331 131.610389 118.828559 131.610389 116.277188 133.082907 112.569575 133.082907 110.017113 131.610389 89.9464773 120.022217 12.0641975 93.8325389 0 86.8658925 143.321279 0.328316982 157.35109 0.38394544 226.364627 40.2270109 221.28152 43.1687747 256.265511 63.3662682 211.993397 88.570323 214.510953 90.0242982 253.920301 112.777429 199.058745 144.448564 339.944792 225.786097"></polygon>
                    </g>
                    <polyline id="Fill-9" fill="#B9A53D" points="256.265511 259.702005 221.28152 239.504511 226.385352 236.562748 226.364627 236.562748 157.35109 196.719682 341.308286 197.451578 353.373575 204.416043 256.265511 259.702005"></polyline>
                    <polyline id="Fill-10" fill="#FFE029" points="156.748971 302.427933 339.944792 408.191813 521.279716 303.501235 338.083895 197.737356 156.748971 302.427933"></polyline>
                    <path d="M249.062989,237.727673 L269.368146,237.727673 C270.903986,238.019995 272.436553,238.312317 273.971303,238.60573 C275.087186,238.312317 276.201979,238.019995 277.316772,237.727673 C278.103236,237.872743 278.888608,238.019995 279.651074,238.173791 C280.763686,237.880378 281.879569,237.588056 282.982364,237.294644 C283.36196,237.36118 283.729558,237.43426 284.086249,237.507341 C285.201042,237.213928 286.315834,236.921606 287.418629,236.629284 C289.421329,237.002321 291.408758,237.382995 293.39946,237.763668 L407.566473,303.673575 L407.318863,303.816463 L407.071252,303.960443 L406.823642,304.102241 L406.577122,304.24622 L406.32842,304.388018 L406.082991,304.530907 L405.836472,304.673796 L405.588861,304.815594 L405.284529,304.755603 L404.979106,304.695611 L404.673684,304.63562 L404.368261,304.575628 L404.060657,304.514546 L403.750871,304.456736 L403.441085,304.397835 L403.129117,304.340025 L402.880416,304.482914 L402.633896,304.625803 L402.387377,304.768692 L402.139766,304.91158 L401.893246,305.053378 L401.398025,305.339156 L401.150415,305.483136 L400.693371,305.391512 L400.235237,305.30207 L399.773831,305.213719 L399.311333,305.124277 L398.847745,305.035926 L398.384157,304.948666 L397.918388,304.860315 L397.452618,304.773055 L397.210461,304.913762 L396.965032,305.053378 L396.721785,305.194086 L396.475265,305.336975 L396.229836,305.478773 L395.982226,305.620571 L395.735706,305.763459 L395.488095,305.907439 L394.745264,305.763459 L394.003523,305.620571 L393.25851,305.478773 L392.512405,305.336975 L391.766301,305.194086 L391.019107,305.053378 L390.26973,304.913762 L389.519263,304.773055 L389.276015,304.913762 L389.031677,305.053378 L388.786248,305.194086 L388.540819,305.336975 L388.29539,305.478773 L388.04778,305.620571 L387.802351,305.763459 L387.55474,305.907439 L386.807545,305.763459 L386.06035,305.620571 L385.315337,305.478773 L384.567052,305.336975 L383.818766,305.194086 L383.071571,305.053378 L382.321104,304.913762 L381.570636,304.773055 L339.134331,304.773055 L338.996891,304.851589 L338.85836,304.932305 L338.583479,305.091555 L338.443857,305.172271 L338.303145,305.252986 L338.162432,305.333702 L338.019538,305.4166 L335.447442,305.4166 L221.28152,239.504511 C225.99921,236.789624 230.710356,234.061648 235.424773,231.339126 C236.285411,231.339126 237.149321,231.339126 237.99796,231.339126 L249.062989,237.727673" id="Fill-11" fill="#E0BF19"></path>
                    <path d="M328.009308,279.627901 C335.576156,283.993098 343.143004,288.364841 350.708761,292.73222 C381.120138,292.73222 473.022926,292.73222 503.433212,292.73222 C490.302216,285.151479 477.17013,277.571829 464.039134,269.991088 C433.628849,269.991088 341.727152,269.991088 311.314684,269.991088 L328.009308,279.627901 Z M258.147133,239.295087 L274.840666,248.93299 C282.406424,253.302551 289.974362,257.66993 297.540119,262.039491 C327.950405,262.039491 419.852102,262.039491 450.262388,262.039491 C437.131393,254.457659 424.001488,246.873646 410.86722,239.295087 C380.458025,239.295087 288.556328,239.295087 258.147133,239.295087 Z M229.391584,234.822995 L235.424773,231.340217 C275.81911,231.340217 377.703767,231.340217 418.099194,231.340217 C456.128686,253.297097 494.16036,275.248523 532.189852,297.205403 L526.156662,300.688181 C485.759053,300.688181 383.868942,300.688181 343.472424,300.688181 C305.446205,278.731301 267.417804,256.778784 229.391584,234.822995 Z" id="Fill-12" fill="#E0BF19"></path>
                    <polyline id="Fill-13" fill="#E6D94C" points="412.072549 52.1369549 412.07364 52.1358641 421.120697 55.64482 421.120697 229.598283 409.0565 236.562748 403.727964 132.634607 409.0565 59.9085778 412.072549 52.1369549"></polyline>
                    <polyline id="Fill-14" fill="#FBF7C9" points="339.945883 13.9769229 156.748971 119.741893 156.748971 302.427933 339.945883 196.664054 339.945883 13.9769229"></polyline>
                    <polyline id="Fill-15" fill="#F9FAE6" points="339.945883 13.9769229 156.748971 119.741893 156.748971 302.427933 339.945883 196.664054 339.945883 13.9769229"></polyline>
                    <polyline id="Fill-16" fill="#FBF7C9" points="535.205901 295.463468 523.141703 302.429024 523.141703 316.357954 535.205901 309.393489 535.205901 295.463468"></polyline>
                    <polyline id="Fill-17" fill="#FAF4EA" points="421.120697 46.9122428 409.0565 53.8767076 327.880594 7.01245806 339.945883 0.0479931801 421.120697 46.9122428"></polyline>
                    <polyline id="Fill-18" fill="#FAF4EA" points="144.685865 112.776338 156.748971 119.741893 352.008989 7.01245806 339.945883 0.0479931801 144.685865 112.776338"></polyline>
                    <polyline id="Fill-19" fill="#FBF7C9" points="339.946974 422.121834 339.945883 408.192904 535.205901 295.463468 535.205901 309.393489 339.946974 422.121834"></polyline>
                    <polyline id="Fill-20" fill="#E0BF19" points="339.946974 412.489384 339.945883 408.192904 526.156662 300.68709 526.157753 304.98357 339.946974 412.489384"></polyline>
                    <polyline id="Fill-21" fill="#DDD69E" points="339.944792 422.121834 339.945883 408.192904 144.685865 295.463468 144.685865 309.393489 339.944792 422.121834"></polyline>
                    <polyline id="Fill-22" fill="#DDD69E" points="144.685865 112.776338 156.750062 119.741893 156.748971 316.357954 144.685865 309.393489 144.685865 112.776338"></polyline>
                    <polyline id="Fill-23" fill="#E6D94C" points="339.945883 13.9769229 409.0565 53.8767076 409.0565 236.562748 339.945883 196.664054 332.77063 118.546427 339.945883 13.9769229"></polyline>
                    <path d="M339.945883,196.664054 L339.945883,13.9791044 L290.877541,140.448769 L290.874269,140.448769 L220.453606,178.136505 L207.494956,211.531032 L207.494956,215.788245 L277.27205,175.503424 L270.835266,192.093794 L270.835266,198.135481 L251.619813,247.656807 C273.430268,235.064051 301.352449,218.944887 339.945883,196.664054" id="Fill-24" fill="#E6D94C"></path>
                    <polyline id="Fill-25" fill="#DDCD83" points="407.195603 237.63714 339.944792 198.81393 339.945883 189.676683 407.196694 228.502075 407.195603 237.63714"></polyline>
                    <polyline id="Fill-26" fill="#DDCD83" points="158.608777 303.501235 339.946974 198.812839 339.945883 189.675592 158.607687 294.36617 158.608777 303.501235"></polyline>
                    <polyline id="Fill-27" fill="#DDCD83" points="158.608777 303.501235 253.481801 248.730109 258.048962 236.95651 158.607687 294.36617 158.608777 303.501235"></polyline>
                    <path d="M209.328584,274.219942 L253.481801,248.730109 L258.048962,236.95651 L213.899016,262.445251 C209.688546,273.298255 210.758616,270.538647 213.899016,262.446342 L213.896835,262.446342 L209.328584,274.219942" id="Fill-28" fill="#DDCD83"></path>
                    <polyline id="Fill-29" fill="#F4ECB8" points="156.74788 293.292868 338.084986 188.603381 339.945883 189.676683 158.607687 294.36617 156.74788 293.292868"></polyline>
                    <polyline id="Fill-30" fill="#F4ECB8" points="409.0565 227.427682 339.944792 187.528988 338.083895 188.601199 407.196694 228.502075 409.0565 227.427682"></polyline>
                    <polyline id="Fill-31" fill="#FBF7C9" points="479.022301 92.766454 472.989111 96.2492318 472.989111 261.045814 479.02121 257.563036 479.022301 92.766454"></polyline>
                    <polyline id="Fill-32" fill="#DDCD83" points="479.022301 92.766454 472.989111 96.2492318 472.989111 108.319517 479.022301 92.766454"></polyline>
                    <polyline id="Fill-33" fill="#F4ECB8" points="524.444113 283.786946 518.408742 287.269724 472.989111 261.045814 479.02121 257.563036 524.444113 283.786946"></polyline>
                    <polyline id="Fill-34" fill="#DDCD83" points="524.444113 283.786946 518.408742 287.269724 512.376643 283.786946 524.444113 283.786946"></polyline>
                    <polyline id="Fill-35" fill="#FBF7C9" points="425.852568 62.0704524 419.820469 65.5532302 419.820469 230.350903 425.851477 226.868125 425.852568 62.0704524"></polyline>
                    <polyline id="Fill-36" fill="#DDCD83" points="425.852568 62.0704524 419.820469 65.5532302 419.820469 77.623515 425.852568 62.0704524"></polyline>
                    <polyline id="Fill-37" fill="#F4ECB8" points="471.274381 253.090944 465.241191 256.573722 419.820469 230.350903 425.851477 226.868125 471.274381 253.090944"></polyline>
                    <polyline id="Fill-38" fill="#DDCD83" points="471.274381 253.090944 465.241191 256.573722 459.208001 253.090944 471.274381 253.090944"></polyline>
                    <polyline id="Fill-39" fill="#F4ECB8" points="526.157753 117.999959 532.189852 114.517181 418.104648 48.6530863 412.072549 52.1358641 526.157753 117.999959"></polyline>
                    <path d="M518.409833,122.472051 L518.409833,287.269724 L472.989111,261.045814 L472.989111,96.2492318 L518.409833,122.472051 Z M419.820469,65.5532302 L465.242282,91.7771401 L465.242282,256.573722 L419.820469,230.350903 L419.820469,65.5532302 Z M412.07364,52.1358641 L412.07364,234.822995 L526.157753,300.688181 L526.157753,117.999959 L412.07364,52.1358641 Z" id="Fill-40" fill="#DDCD83"></path>
                    <polyline id="Fill-41" fill="#FBF7C9" points="532.189852 114.517181 526.157753 117.999959 526.157753 300.688181 532.189852 297.204312 532.189852 114.517181"></polyline>
                    <polyline id="Fill-42" fill="#E0BF19" points="339.944792 412.489384 339.945883 408.192904 153.029359 300.279148 153.029359 304.575628 339.944792 412.489384"></polyline>
                    <polyline id="Fill-43" fill="#E6D94C" points="156.750062 302.429024 153.028268 300.280239 153.028268 117.594199 156.750062 119.741893 156.750062 302.429024"></polyline>
                    <polyline id="Fill-44" fill="#FCFCF0" points="339.945883 13.9769229 336.224089 11.8281374 153.028268 117.594199 156.750062 119.741893 339.945883 13.9769229"></polyline>
                    <polyline id="Fill-45" fill="#DDCD83" points="407.195603 237.63714 409.0565 236.562748 409.0565 227.427682 407.196694 228.502075 407.195603 237.63714"></polyline>
                    <polyline id="Fill-46" fill="#DDCD83" points="158.608777 303.501235 156.74788 302.429024 156.74788 293.292868 158.607687 294.36617 158.608777 303.501235"></polyline>
                    <polyline id="Fill-47" fill="#EFE9A6" points="392.51895 114.896764 395.533909 113.15592 395.533909 76.2317127 392.517859 77.973647 392.51895 114.896764"></polyline>
                    <polyline id="Fill-48" fill="#F7F1C4" points="365.471587 62.360593 368.486545 60.6197494 395.533909 76.2317127 392.517859 77.973647 365.471587 62.360593"></polyline>
                    <polyline id="Fill-49" fill="#E3D79A" points="365.472677 99.282619 392.517859 114.896764 392.517859 77.973647 365.471587 62.360593 365.472677 99.282619"></polyline>
                    <polyline id="Fill-50" fill="#F2ECD1" points="367.022698 98.3871099 367.021607 65.043848 390.96893 78.8680654 390.96893 112.212418 367.022698 98.3871099"></polyline>
                    <polyline id="Fill-51" fill="#E0BF19" points="371.977091 94.7778046 371.976 70.8717471 389.14512 80.7834296 389.14512 104.689487 371.977091 94.7778046"></polyline>
                    <polyline id="Fill-52" fill="#DDCD83" points="367.022698 98.3871099 368.530177 97.5155974 390.96893 110.469393 390.96893 112.211327 367.022698 98.3871099"></polyline>
                    <polyline id="Fill-53" fill="#DDCD83" points="367.022698 98.3871099 368.530177 97.5155974 368.530177 65.9153605 367.021607 65.043848 367.022698 98.3871099"></polyline>
                    <polyline id="Fill-54" fill="#EFE9A6" points="370.649593 143.133115 373.665642 141.392271 373.665642 111.514335 370.650683 113.25627 370.649593 143.133115"></polyline>
                    <polyline id="Fill-55" fill="#F7F1C4" points="349.138016 100.836944 352.151884 99.0971908 373.665642 111.514335 370.650683 113.25627 349.138016 100.836944"></polyline>
                    <polyline id="Fill-56" fill="#E3D79A" points="349.138016 130.713789 370.650683 143.133115 370.649593 113.25627 349.138016 100.836944 349.138016 130.713789"></polyline>
                    <polyline id="Fill-57" fill="#F2ECD1" points="350.686945 129.819371 350.686945 103.521289 369.101754 114.149597 369.101754 140.448769 350.686945 129.819371"></polyline>
                    <polyline id="Fill-58" fill="#E0BF19" points="355.642429 126.208975 355.641338 109.349188 367.276853 116.066052 367.276853 132.925838 355.642429 126.208975"></polyline>
                    <polyline id="Fill-59" fill="#DDCD83" points="350.686945 129.819371 352.195515 128.946767 369.101754 138.705744 369.101754 140.447678 350.686945 129.819371"></polyline>
                    <polyline id="Fill-60" fill="#DDCD83" points="350.686945 129.819371 352.195515 128.946767 352.195515 104.391711 350.686945 103.521289 350.686945 129.819371"></polyline>
                    <polyline id="Fill-61" fill="#EFE9A6" points="395.928777 169.780237 398.944826 168.039394 398.944826 138.161458 395.929868 139.902301 395.928777 169.780237"></polyline>
                    <polyline id="Fill-62" fill="#F7F1C4" points="377.964467 129.532502 380.978335 127.791659 398.944826 138.161458 395.929868 139.902301 377.964467 129.532502"></polyline>
                    <polyline id="Fill-63" fill="#E3D79A" points="377.965558 159.408257 395.928777 169.779147 395.928777 139.902301 377.963376 129.532502 377.965558 159.408257"></polyline>
                    <polyline id="Fill-64" fill="#F2ECD1" points="379.514487 158.513838 379.513396 132.216848 394.378756 140.79781 394.378756 167.095892 379.514487 158.513838"></polyline>
                    <polyline id="Fill-65" fill="#E0BF19" points="384.46888 154.903442 384.467789 138.044747 392.554946 142.712084 392.554946 159.572961 384.46888 154.903442"></polyline>
                    <polyline id="Fill-66" fill="#DDCD83" points="379.514487 158.513838 381.020876 157.642326 394.378756 165.351776 394.378756 167.094801 379.514487 158.513838"></polyline>
                    <polyline id="Fill-67" fill="#DDCD83" points="379.514487 158.513838 381.020876 157.642326 381.020876 133.08727 379.513396 132.216848 379.514487 158.513838"></polyline>
                    <polyline id="Fill-68" fill="#FCFCF0" points="336.224089 11.8281374 339.946974 9.68044257 412.778294 51.7301036 409.0565 53.8777984 336.224089 11.8281374"></polyline>
                    <polyline id="Fill-69" fill="#000000" points="332.412849 178.300118 333.011696 177.264992 332.412849 177.60967 332.412849 178.300118"></polyline>
                    <polyline id="Fill-70" fill="#DDCD83" points="296.967452 219.654968 296.368605 219.998556 295.770849 219.654968 296.132993 218.323158 296.967452 219.654968"></polyline>
                    <polyline id="Fill-71" fill="#F2ECD1" points="241.898644 213.693997 242.497491 212.658872 241.898644 213.00355 241.898644 213.693997"></polyline>
                    <polyline id="Fill-72" fill="#DDCD83" points="405.068552 101.192529 461.126711 138.662114 519.151574 167.056624 519.151574 122.044475 405.067461 56.1792895 405.068552 101.192529"></polyline>
                    <path d="M509.679106,116.575434 L519.151574,122.044475 L519.151574,167.056624 L509.679106,161.587583 L509.679106,116.575434 Z M405.068552,101.191439 L405.067461,56.1792895 L414.541019,61.6494213 L414.541019,106.662661 L405.068552,101.191439 Z M425.990008,113.270449 C425.990008,89.156058 425.990008,92.3716011 425.990008,68.2583003 C429.14677,70.0809504 432.304623,71.9046913 435.462476,73.7273414 C435.462476,97.8406421 435.462476,94.625099 435.462476,118.73949 C432.305714,116.91575 429.147861,115.0931 425.990008,113.270449 Z M446.912555,125.34946 C446.912555,101.235069 446.912555,104.450612 446.912555,80.3362204 C450.070408,82.1599612 453.228261,83.9826113 456.386114,85.8063522 C456.386114,109.919653 456.386114,106.70411 456.386114,130.818501 C453.229352,128.995851 450.070408,127.17211 446.912555,125.34946 Z M467.835103,137.428471 C467.835103,113.31517 467.835103,116.530713 467.834012,92.4174127 C470.991865,94.2400628 474.149717,96.0627129 477.30757,97.885363 C477.30757,121.999754 477.30757,118.784211 477.30757,142.898603 C474.149717,141.074862 470.992955,139.251121 467.835103,137.428471 Z M488.75765,149.506391 C488.75765,125.394181 488.75765,128.609724 488.75765,104.495333 C491.914412,106.319074 495.072265,108.141724 498.230117,109.965465 C498.230117,134.078765 498.230117,130.863222 498.230117,154.977614 C495.073355,153.153873 491.915503,151.330132 488.75765,149.506391 Z" id="Fill-73" fill="#E0BF19"></path>
                    <polyline id="Fill-74" fill="#E2E2AA" points="521.119369 165.920059 519.151574 167.056624 519.151574 122.044475 521.120459 120.90791 521.119369 165.920059"></polyline>
                    <polyline id="Fill-75" fill="#FBF7C9" points="532.189852 117.098996 518.032418 125.272017 518.032418 122.691293 532.189852 114.517181 532.189852 117.098996"></polyline>
                    <polyline id="Fill-76" fill="#DDCD83" points="406.966536 116.244936 521.050649 182.109031 519.082854 191.184105 404.99765 125.32001 406.966536 116.244936"></polyline>
                    <path d="M509.610386,185.715064 L519.082854,191.184105 L521.050649,182.109031 L511.578181,176.638899 L509.610386,185.715064 Z M406.966536,116.243845 L404.99765,125.32001 L414.471208,130.78796 L416.439003,121.713977 L406.966536,116.243845 Z M427.889083,128.322856 L425.920197,137.396839 L435.393756,142.866971 L437.361551,133.791897 L427.889083,128.322856 Z M448.81163,140.400776 L446.843835,149.47585 L456.316303,154.945982 L458.284098,145.870908 L448.81163,140.400776 Z M469.733087,152.480878 L467.765292,161.555952 L477.23885,167.024993 L479.205554,157.951009 L469.733087,152.480878 Z M490.656725,164.558798 L488.687839,173.634962 L498.161397,179.105094 L500.129192,170.028929 L490.656725,164.558798 Z" id="Fill-77" fill="#E0BF19"></path>
                    <polyline id="Fill-78" fill="#E2E2AA" points="523.018444 180.972465 521.501147 180.031144 519.082854 191.184105 521.050649 190.047539 523.018444 180.972465"></polyline>
                    <polyline id="Fill-79" fill="#DDCD83" points="405.813565 113.628217 519.897678 179.493403 517.929883 188.568477 403.844679 122.703291 405.813565 113.628217"></polyline>
                    <path d="M508.456325,183.098345 L517.929883,188.568477 L519.897678,179.493403 L510.424119,174.023271 L508.456325,183.098345 Z M405.813565,113.627126 L403.844679,122.703291 L413.318238,128.172332 L415.286033,119.098349 L405.813565,113.627126 Z M426.735021,125.706137 L424.767226,134.781211 L434.239694,140.251343 L436.207489,131.176269 L426.735021,125.706137 Z M447.658659,137.784057 L445.689774,146.861312 L455.162241,152.329263 L457.131127,143.255279 L447.658659,137.784057 Z M468.580116,149.864158 L466.61123,158.940323 L476.084788,164.409364 L478.052583,155.33429 L468.580116,149.864158 Z M489.502663,161.943169 L487.534868,171.019334 L497.007336,176.488375 L498.975131,167.413301 L489.502663,161.943169 Z" id="Fill-80" fill="#E0BF19"></path>
                    <polyline id="Fill-81" fill="#E2E2AA" points="521.863291 178.355746 520.348176 177.414425 517.929883 188.568477 519.897678 187.43082 521.863291 178.355746"></polyline>
                    <polyline id="Fill-82" fill="#DDCD83" points="405.068552 109.131038 519.151574 174.995133 517.183779 184.070207 403.099666 118.205021 405.068552 109.131038"></polyline>
                    <path d="M507.711311,178.601166 L517.183779,184.070207 L519.151574,174.995133 L509.679106,169.525001 L507.711311,178.601166 Z M405.068552,109.129947 L403.099666,118.205021 L412.573224,123.674062 L414.541019,114.600079 L405.068552,109.129947 Z M425.990008,121.207867 L424.022213,130.284032 L433.494681,135.753073 L435.462476,126.677999 L425.990008,121.207867 Z M446.912555,133.286878 L444.94367,142.361952 L454.417228,147.832084 L456.386114,138.7581 L446.912555,133.286878 Z M467.835103,145.366979 L465.866217,154.442053 L475.339775,159.911094 L477.30757,150.837111 L467.835103,145.366979 Z M488.75765,157.444899 L486.789855,166.521064 L496.262322,171.990105 L498.230117,162.915031 L488.75765,157.444899 Z" id="Fill-83" fill="#E0BF19"></path>
                    <polyline id="Fill-84" fill="#E2E2AA" points="521.119369 173.858567 519.603163 172.916155 517.183779 184.070207 519.151574 182.933641 521.119369 173.858567"></polyline>
                    <polyline id="Fill-85" fill="#E5D389" points="405.068552 101.192529 519.151574 167.056624 517.183779 176.132789 403.099666 110.266513 405.068552 101.192529"></polyline>
                    <path d="M508.695209,166.12403 L507.711311,170.662658 L512.448636,173.397178 L517.183779,176.132789 L519.151574,167.056624 L514.416431,162.774324 L509.679106,161.587583 L508.695209,166.12403 Z M405.068552,101.191439 L403.099666,110.266513 L407.8359,113.002124 L412.573224,115.736644 L414.541019,106.662661 L409.804785,102.377088 L405.068552,101.191439 Z M425.990008,113.270449 L424.022213,122.345524 L433.494681,127.814565 L435.462476,118.73949 L430.727333,114.456099 L425.990008,113.270449 Z M446.912555,125.34946 L444.94367,134.423444 L454.417228,139.893575 L456.386114,130.818501 L451.64988,126.53511 L446.912555,125.34946 Z M467.835103,137.428471 L465.866217,146.503545 L475.339775,151.973677 L477.30757,142.898603 L472.571336,138.615212 L467.835103,137.428471 Z M488.75765,149.506391 L486.789855,158.583647 L496.262322,164.052688 L498.230117,154.977614 L493.494974,150.693132 L488.75765,149.506391 Z" id="Fill-86" fill="#E5C335"></path>
                    <polyline id="Fill-87" fill="#E2E2AA" points="521.119369 165.920059 519.151574 167.056624 517.183779 176.132789 519.151574 174.995133 521.119369 165.920059"></polyline>
                    <polyline id="Fill-88" fill="#FAF4EA" points="403.948305 56.8261067 418.104648 48.654177 532.189852 114.517181 518.032418 122.691293 403.948305 56.8261067"></polyline>
                    <polyline id="Fill-89" fill="#F2ECD1" points="403.948305 59.4079216 518.032418 125.272017 518.032418 122.691293 403.948305 56.8261067 403.948305 59.4079216"></polyline>
                    <polyline id="Fill-90" fill="#E0BF19" points="303.048636 286.711258 303.777288 286.290227 319.50983 277.215153 341.015953 273.876354 352.80527 272.058067 388.613903 292.73222 432.439882 292.73222 437.021222 295.372936 439.482057 300.688181 402.393921 300.688181 407.566473 303.673575 407.318863 303.816463 407.071252 303.960443 406.823642 304.102241 406.577122 304.24622 406.32842 304.388018 406.082991 304.530907 405.836472 304.673796 405.588861 304.815594 405.284529 304.755603 404.979106 304.695611 404.673684 304.63562 404.368261 304.575628 404.060657 304.514546 403.750871 304.456736 403.441085 304.397835 403.129117 304.340025 402.880416 304.482914 402.633896 304.625803 402.387377 304.768692 402.139766 304.91158 401.893246 305.053378 401.398025 305.339156 401.150415 305.483136 400.693371 305.391512 400.235237 305.30207 399.773831 305.213719 399.311333 305.124277 398.847745 305.035926 398.384157 304.948666 397.918388 304.860315 397.452618 304.773055 397.210461 304.913762 396.965032 305.053378 396.721785 305.194086 396.475265 305.336975 396.229836 305.478773 395.982226 305.620571 395.735706 305.763459 395.488095 305.907439 394.745264 305.763459 394.003523 305.620571 393.25851 305.478773 392.512405 305.336975 391.766301 305.194086 391.019107 305.053378 390.26973 304.913762 389.519263 304.773055 389.276015 304.913762 389.031677 305.053378 388.786248 305.194086 388.540819 305.336975 388.29539 305.478773 388.04778 305.620571 387.802351 305.763459 387.55474 305.907439 386.807545 305.763459 386.06035 305.620571 385.315337 305.478773 384.567052 305.336975 383.818766 305.194086 383.071571 305.053378 382.321104 304.913762 381.570636 304.773055 339.134331 304.773055 338.996891 304.851589 338.85836 304.932305 338.583479 305.091555 338.443857 305.172271 338.303145 305.252986 338.162432 305.333702 338.019538 305.4166 335.447442 305.4166 303.048636 286.711258"></polyline>
                    <polyline id="Fill-91" fill="#E6D94C" points="284.546564 148.461449 284.546564 126.351863 275.968549 148.461449 284.546564 148.461449"></polyline>
                    <polyline id="Fill-92" fill="#FBF7C9" points="233.410074 189.8752 233.410074 185.617987 334.382826 127.323725 334.381735 131.580938 233.410074 189.8752"></polyline>
                    <polyline id="Fill-93" fill="#F4ECB8" points="220.453606 178.136505 233.410074 185.617987 334.382826 127.323725 321.425267 119.842243 220.453606 178.136505"></polyline>
                    <polyline id="Fill-94" fill="#EADEAC" points="233.410074 189.8752 233.410074 185.617987 220.453606 178.136505 220.452515 182.393718 233.410074 189.8752"></polyline>
                    <polyline id="Fill-95" fill="#E3D79A" points="292.358841 136.623495 305.314219 144.104977 334.382826 127.323725 321.425267 119.842243 292.358841 136.623495"></polyline>
                    <polyline id="Fill-96" fill="#E3D79A" points="305.314219 144.106068 334.382826 127.323725 334.381735 131.580938 303.186077 149.590379 305.314219 144.106068"></polyline>
                    <polyline id="Fill-97" fill="#EFDD85" points="287.490621 139.435459 277.045164 145.466238 280.253193 147.318338 295.119644 147.318338 298.132421 145.576404 287.490621 139.435459"></polyline>
                    <polyline id="Fill-98" fill="#FBF7C9" points="314.119119 136.426068 317.134078 134.685225 317.132987 116.825217 314.118028 118.567151 314.119119 136.426068"></polyline>
                    <polyline id="Fill-99" fill="#F4ECB8" points="303.408599 112.384757 306.424648 110.643914 317.132987 116.825217 314.118028 118.567151 303.408599 112.384757"></polyline>
                    <polyline id="Fill-100" fill="#EADEAC" points="303.40969 130.244765 314.118028 136.426068 314.119119 118.567151 303.40969 112.384757 303.40969 130.244765"></polyline>
                    <polyline id="Fill-101" fill="#FFE132" points="311.105251 138.166912 314.119119 136.426068 314.118028 121.283129 311.104161 123.023973 311.105251 138.166912"></polyline>
                    <polyline id="Fill-102" fill="#F9EC62" points="300.394731 116.842669 303.408599 115.101826 314.118028 121.283129 311.104161 123.023973 300.394731 116.842669"></polyline>
                    <polyline id="Fill-103" fill="#F9FAE6" points="302.635225 115.549035 312.57019 121.283129 311.104161 122.129554 301.170287 116.39546 302.635225 115.549035"></polyline>
                    <polyline id="Fill-105" fill="#F4ECB8" points="297.379773 115.867535 300.394731 114.126691 311.10307 120.306904 308.089202 122.048838 297.379773 115.867535"></polyline>
                    <polyline id="Fill-106" fill="#FBF7C9" points="308.090293 139.907755 311.104161 138.166912 311.10307 120.306904 308.089202 122.048838 308.090293 139.907755"></polyline>
                    <polyline id="Fill-107" fill="#E2DEB7" points="308.090293 139.907755 311.104161 138.166912 311.10307 122.096832 308.089202 129.865182 308.090293 139.907755"></polyline>
                    <polyline id="Fill-108" fill="#FFE132" points="305.829074 141.213388 308.089202 139.907755 308.088111 122.047748 305.827983 123.35338 305.829074 141.213388"></polyline>
                    <polyline id="Fill-109" fill="#DBBF30" points="305.829074 141.213388 308.089202 139.907755 308.088111 129.867364 305.827983 135.691991 305.829074 141.213388"></polyline>
                    <polyline id="Fill-110" fill="#F9EC62" points="295.118554 117.124084 297.379773 115.819542 308.088111 121.999754 305.827983 123.305387 295.118554 117.124084"></polyline>
                    <polyline id="Fill-111" fill="#F9FAE6" points="296.604217 116.314744 306.539182 122.047748 305.827983 122.458962 295.894109 116.724868 296.604217 116.314744"></polyline>
                    <polyline id="Fill-112" fill="#F9FAE6" points="299.620266 114.573901 309.55414 120.306904 308.089202 121.153329 298.155328 115.419235 299.620266 114.573901"></polyline>
                    <polyline id="Fill-114" fill="#D9D996" points="304.30087 142.096899 305.827983 141.213388 305.827983 121.252588 304.299779 122.136099 304.30087 142.096899"></polyline>
                    <polyline id="Fill-115" fill="#AAA65E" points="304.30087 142.096899 305.827983 141.213388 305.827983 135.693081 304.30087 139.630704 304.30087 142.096899"></polyline>
                    <polyline id="Fill-116" fill="#EDEDA3" points="293.589258 115.953705 295.117463 115.071284 305.827983 121.252588 304.299779 122.136099 293.589258 115.953705"></polyline>
                    <polyline id="Fill-117" fill="#B3A923" points="293.589258 135.914504 304.299779 142.096899 304.30087 122.136099 293.590349 115.953705 293.589258 135.914504"></polyline>
                    <polyline id="Fill-118" fill="#D2D3B2" points="301.28482 143.836651 304.299779 142.096899 304.299779 126.951778 301.28482 128.692622 301.28482 143.836651"></polyline>
                    <polyline id="Fill-119" fill="#C6C6AF" points="303.068271 142.80698 304.299779 142.096899 304.299779 139.631794 303.068271 142.80698"></polyline>
                    <polyline id="Fill-120" fill="#F9EC62" points="290.5743 122.512409 293.589258 120.771565 304.299779 126.951778 301.28482 128.692622 290.5743 122.512409"></polyline>
                    <polyline id="Fill-121" fill="#F9EC62" points="291.181873 122.160095 293.589258 120.771565 304.299779 126.951778 299.482826 126.951778 291.181873 122.160095"></polyline>
                    <polyline id="Fill-123" fill="#F9FAE6" points="292.814794 121.217684 302.749758 126.951778 301.28482 127.798203 291.350946 122.064109 292.814794 121.217684"></polyline>
                    <polyline id="Fill-124" fill="#F9FAE6" points="292.814794 121.217684 302.749758 126.951778 299.818791 126.951778 291.350946 122.064109 292.814794 121.217684"></polyline>
                    <polyline id="Fill-125" fill="#DFCF41" points="298.269862 145.576404 301.28482 143.836651 301.28482 127.565873 298.269862 129.306716 298.269862 145.576404"></polyline>
                    <polyline id="Fill-126" fill="#F7E96F" points="287.560432 123.125413 290.576481 121.384569 301.28482 127.565873 298.269862 129.306716 287.560432 123.125413"></polyline>
                    <polyline id="Fill-127" fill="#B3A923" points="287.561523 139.395101 298.269862 145.576404 298.269862 129.306716 287.561523 123.125413 287.561523 139.395101"></polyline>
                    <polyline id="Fill-128" fill="#F9FAE6" points="289.800926 121.831778 299.735891 127.565873 298.269862 128.412298 288.335988 122.678204 289.800926 121.831778"></polyline>
                    <polyline id="Fill-129" fill="#FBF7C9" points="295.257085 147.317248 298.269862 145.576404 298.269862 130.792323 295.255994 132.532076 295.257085 147.317248"></polyline>
                    <polyline id="Fill-130" fill="#F4ECB8" points="284.546564 126.351863 287.561523 124.61102 298.269862 130.792323 295.255994 132.532076 284.546564 126.351863"></polyline>
                    <polyline id="Fill-131" fill="#EFDD85" points="242.736375 172.456948 243.900254 173.129943 246.942482 173.856386 251.111503 173.856386 254.153731 173.129943 256.481489 171.785043 257.741357 170.028929 257.741357 168.128836 256.482579 166.37054 254.153731 165.026731 251.112593 164.300289 246.942482 164.300289 243.900254 165.026731 242.737466 165.699726 242.366596 165.485939 228.524402 173.476803 235.238247 173.856386 238.530268 173.856386 241.572497 173.129943 242.736375 172.456948"></polyline>
                    <polyline id="Fill-132" fill="#EFDD85" points="287.561523 124.61102 298.269862 130.792323 296.785289 130.792323 286.8176 125.039686 287.561523 124.61102"></polyline>
                    <polyline id="Fill-133" fill="#EADEAC" points="284.546564 141.135944 295.255994 147.318338 295.258175 132.533167 284.546564 126.351863 284.546564 141.135944"></polyline>
                    <polyline id="Fill-134" fill="#E6D94C" points="242.365505 165.485939 228.524402 173.476803 229.243236 164.987464 230.294763 160.794605 232.234197 155.792407 234.770296 150.742216 237.516919 146.411922 240.051928 143.462523 241.993544 142.340137 243.04398 143.221466 244.419473 155.118321 244.419473 158.411308 243.160695 163.439684 242.365505 165.485939"></polyline>
                    <polyline id="Fill-135" fill="#F7F2EE" points="242.448405 159.205377 244.776163 160.549186 247.819482 161.276719 251.111503 161.276719 254.153731 160.549186 256.481489 159.205377 257.741357 157.449262 257.741357 155.548078 256.482579 153.791964 254.153731 152.448155 251.112593 151.719531 247.819482 151.719531 244.777254 152.448155 242.448405 153.791964 241.187446 155.548078 241.187446 157.449262 242.448405 159.205377"></polyline>
                    <polyline id="Fill-136" fill="#FBF7C9" points="256.364773 141.363912 256.364773 142.947687 256.913444 153.416745 257.741357 157.448172 257.741357 155.546987 256.364773 141.363912"></polyline>
                    <polyline id="Fill-137" fill="#F9EC62" points="242.448405 170.909168 244.776163 172.252977 247.819482 172.98051 251.111503 172.98051 254.153731 172.252977 256.481489 170.909168 257.741357 169.153054 257.741357 167.251869 256.482579 165.495755 254.153731 164.150856 251.112593 163.424413 247.819482 163.424413 244.777254 164.150856 242.448405 165.495755 241.187446 167.251869 241.187446 169.153054 242.448405 170.909168"></polyline>
                    <polygon id="Fill-138" fill="#EAC927" points="247.819482 173.856386 251.111503 173.856386 251.111503 172.98051 247.819482 172.98051"></polygon>
                    <polyline id="Fill-139" fill="#EAC927" points="251.111503 172.98051 254.153731 172.252977 254.153731 173.129943 251.111503 173.856386 251.111503 172.98051"></polyline>
                    <polyline id="Fill-140" fill="#EAC927" points="256.481489 170.909168 254.153731 172.252977 254.153731 173.129943 256.481489 171.785043 256.481489 170.909168"></polyline>
                    <polyline id="Fill-141" fill="#EAC927" points="256.481489 170.909168 257.741357 169.153054 257.741357 170.028929 256.481489 171.785043 256.481489 170.909168"></polyline>
                    <polyline id="Fill-142" fill="#EAC927" points="247.819482 172.98051 244.776163 172.252977 244.776163 173.129943 247.819482 173.856386 247.819482 172.98051"></polyline>
                    <polyline id="Fill-143" fill="#DFCF58" points="246.037122 168.72766 249.646564 168.72766 249.979257 168.648035 250.235594 168.499692 250.374125 168.306629 250.374125 168.097204 250.235594 167.90414 249.979257 167.756889 249.646564 167.677264 246.037122 167.677264 246.037122 167.251869 244.777254 165.495755 243.613375 164.82276 242.448405 165.495755 241.188537 167.251869 241.188537 169.153054 242.448405 170.909168 243.613375 171.581072 244.777254 170.909168 246.037122 169.153054 246.037122 168.72766"></polyline>
                    <polyline id="Fill-144" fill="#EAC927" points="242.448405 170.909168 244.776163 172.252977 244.776163 173.129943 242.448405 171.785043 242.448405 170.909168"></polyline>
                    <polyline id="Fill-145" fill="#EAC927" points="242.448405 170.909168 241.187446 169.153054 241.187446 170.028929 242.448405 171.785043 242.448405 170.909168"></polyline>
                    <polyline id="Fill-146" fill="#000000" points="248.693209 168.499692 248.949546 168.648035 249.283329 168.72766 249.646564 168.72766 249.980348 168.648035 250.236685 168.499692 250.374125 168.306629 250.374125 139.398373 250.236685 139.204219 249.980348 139.055876 249.646564 138.976251 249.283329 138.976251 248.949546 139.055876 248.693209 139.204219 248.554678 139.398373 248.554678 168.306629 248.693209 168.499692"></polyline>
                    <polyline id="Fill-147" fill="#F7F2EE" points="248.693209 156.795901 248.949546 156.943153 249.283329 157.023868 249.646564 157.023868 249.980348 156.943153 250.236685 156.795901 250.374125 156.602837 250.374125 156.393412 250.236685 156.20144 249.980348 156.052006 249.646564 155.973472 249.283329 155.973472 248.949546 156.052006 248.693209 156.20144 248.554678 156.393412 248.554678 156.602837 248.693209 156.795901"></polyline>
                    <polygon id="Fill-148" fill="#E6D94C" points="249.283329 168.72766 249.646564 168.72766 249.646564 140.027738 249.283329 140.027738"></polygon>
                    <polyline id="Fill-149" fill="#E6D94C" points="249.646564 140.027738 249.980348 139.947022 249.980348 168.648035 249.646564 168.72766 249.646564 140.027738"></polyline>
                    <polyline id="Fill-150" fill="#E6D94C" points="250.236685 139.79868 249.980348 139.947022 249.980348 168.648035 250.236685 168.499692 250.236685 139.79868"></polyline>
                    <polyline id="Fill-151" fill="#E6D94C" points="250.236685 139.79868 250.374125 139.605616 250.374125 168.306629 250.236685 168.499692 250.236685 139.79868"></polyline>
                    <polyline id="Fill-152" fill="#E6D94C" points="249.283329 140.027738 248.949546 139.947022 248.949546 168.648035 249.283329 168.72766 249.283329 140.027738"></polyline>
                    <polyline id="Fill-153" fill="#E6D94C" points="248.693209 139.79868 248.949546 139.947022 248.949546 168.648035 248.693209 168.499692 248.693209 139.79868"></polyline>
                    <polyline id="Fill-154" fill="#E6D94C" points="248.693209 139.79868 248.554678 139.605616 248.554678 168.306629 248.693209 168.499692 248.693209 139.79868"></polyline>
                    <polyline id="Fill-155" fill="#F9EC62" points="243.615556 144.41366 245.556081 145.533865 248.092181 146.140324 250.837713 146.140324 253.373812 145.533865 255.315428 144.41366 256.364773 142.948778 256.364773 141.363912 255.315428 139.90012 253.373812 138.779915 250.837713 138.172365 248.092181 138.172365 245.556081 138.779915 243.615556 139.90012 242.56512 141.363912 242.56512 142.948778 243.615556 144.41366"></polyline>
                    <polyline id="Fill-156" fill="#F9D84B" points="250.837713 146.141415 248.092181 146.141415 247.819482 151.719531 247.819482 161.276719 251.111503 161.276719 251.720166 152.521235 250.837713 146.141415"></polyline>
                    <polyline id="Fill-157" fill="#F9DE68" points="250.837713 146.140324 253.373812 145.533865 254.153731 152.448155 254.153731 160.549186 251.111503 161.276719 250.837713 146.140324"></polyline>
                    <polyline id="Fill-158" fill="#F9DE68" points="255.315428 144.41366 253.373812 145.533865 254.153731 160.549186 256.481489 159.205377 255.315428 144.41366"></polyline>
                    <polyline id="Fill-159" fill="#FFEA95" points="255.315428 144.41366 256.364773 142.948778 257.740266 157.449262 256.481489 159.205377 255.188896 151.349766 255.315428 144.41366"></polyline>
                    <polyline id="Fill-160" fill="#F9D84B" points="248.092181 146.141415 245.556081 145.533865 244.52528 151.925684 244.776163 160.549186 247.819482 161.276719 248.092181 146.141415"></polyline>
                    <polyline id="Fill-161" fill="#EAC927" points="243.614466 144.41366 245.556081 145.533865 244.776163 160.549186 242.448405 159.205377 242.269515 151.80461 243.614466 144.41366"></polyline>
                    <polyline id="Fill-162" fill="#EAC927" points="243.614466 144.41366 242.56512 142.948778 242.56512 141.365003 241.188537 155.548078 241.188537 157.449262 242.448405 159.205377 243.614466 144.41366"></polyline>
                    <polyline id="Fill-163" fill="#EFDD85" points="272.330746 153.248768 274.517791 154.510771 270.728368 156.698824 266.353187 156.698824 262.564855 154.510771 263.022989 154.245718 262.428505 153.903221 267.811581 150.796753 268.999457 150.796753 272.789971 152.982624 272.330746 153.248768"></polyline>
                    <polyline id="Fill-164" fill="#EFDD85" points="276.412503 149.04173 280.203017 151.228692 276.412503 153.416745 272.038413 153.416745 268.24899 151.228692 272.038413 149.04173 276.412503 149.04173"></polyline>
                    <polyline id="Fill-165" fill="#EFDD85" points="285.179226 148.736319 288.96974 150.924371 285.179226 153.112424 280.804045 153.112424 277.014622 150.924371 280.804045 148.736319 285.179226 148.736319"></polyline>
                    <polyline id="Fill-166" fill="#E6D94C" points="204.762514 159.304635 183.41892 171.626884 183.41892 139.214036 186.397882 131.537308 207.741476 119.215059 207.740385 151.628999 204.762514 159.304635"></polyline>
                    <polyline id="Fill-167" fill="#E0BF19" points="189.41175 165.691 186.396791 163.950157 186.396791 131.536217 189.41175 133.278152 189.41175 165.691"></polyline>
                    <polyline id="Fill-168" fill="#F4ECB8" points="210.756435 120.956994 207.742567 119.21615 186.396791 131.536217 189.41175 133.278152 210.756435 120.956994"></polyline>
                    <polyline id="Fill-169" fill="#FBF7C9" points="210.756435 153.369842 189.41175 165.691 189.41175 133.278152 210.756435 120.956994 210.756435 153.369842"></polyline>
                    <polyline id="Fill-170" fill="#EADEAC" points="209.206414 152.474333 209.207505 123.641339 190.96177 134.173661 190.96177 163.007745 209.206414 152.474333"></polyline>
                    <polyline id="Fill-171" fill="#FBF7C9" points="190.96177 135.447662 190.96177 161.265811 206.189274 152.474333 206.189274 126.657274 190.96177 135.447662"></polyline>
                    <polyline id="Fill-172" fill="#EADEAC" points="209.206414 152.474333 207.698935 151.602821 190.96177 161.26363 190.96177 163.006655 209.206414 152.474333"></polyline>
                    <polyline id="Fill-173" fill="#F4ECB8" points="206.189274 152.474333 190.96177 161.26363 190.96177 163.006655 209.206414 152.474333 206.189274 152.474333"></polyline>
                    <polyline id="Fill-174" fill="#EADEAC" points="209.206414 152.474333 207.698935 151.602821 207.698935 124.51067 209.207505 123.641339 209.206414 152.474333"></polyline>
                    <polyline id="Fill-175" fill="#DFCF41" points="204.295653 147.396873 204.296744 131.002839 192.940473 137.55718 192.940473 153.953396 204.295653 147.396873"></polyline>
                    <polyline id="Fill-176" fill="#E6D94C" points="181.08789 202.553035 163.596985 212.650146 163.596985 189.666866 166.574857 181.990139 184.065761 194.877398 181.08789 202.553035"></polyline>
                    <polyline id="Fill-177" fill="#E0BF19" points="169.588724 206.714262 166.574857 204.974509 166.574857 181.989048 169.589815 183.729892 169.588724 206.714262"></polyline>
                    <polyline id="Fill-178" fill="#F4ECB8" points="187.081811 173.634962 184.067943 171.893028 166.574857 181.989048 169.589815 183.729892 187.081811 173.634962"></polyline>
                    <polyline id="Fill-179" fill="#FBF7C9" points="187.08072 196.618242 169.589815 206.714262 169.589815 183.729892 187.079629 173.634962 187.08072 196.618242"></polyline>
                    <polyline id="Fill-180" fill="#EADEAC" points="185.5307 195.722733 185.53179 176.318217 171.139835 184.625401 171.139835 204.032097 185.5307 195.722733"></polyline>
                    <polyline id="Fill-181" fill="#FBF7C9" points="171.139835 185.899401 171.139835 202.289072 182.513559 195.722733 182.513559 179.334153 171.139835 185.899401"></polyline>
                    <polyline id="Fill-182" fill="#EADEAC" points="185.5307 195.722733 184.024311 194.852311 171.139835 202.286891 171.139835 204.029916 185.5307 195.722733"></polyline>
                    <polyline id="Fill-183" fill="#F4ECB8" points="182.513559 195.722733 171.139835 202.286891 171.139835 204.029916 185.5307 195.722733 182.513559 195.722733"></polyline>
                    <polyline id="Fill-184" fill="#EADEAC" points="185.5307 195.722733 184.024311 194.852311 184.024311 177.188639 185.53179 176.318217 185.5307 195.722733"></polyline>
                    <polyline id="Fill-185" fill="#DFCF41" points="181.069346 193.903355 181.070437 183.005631 172.669131 187.854033 172.669131 198.751757 181.069346 193.903355"></polyline>
                    <polyline id="Fill-186" fill="#E6D94C" points="303.023548 96.0398071 285.531553 106.136918 285.531553 83.1536382 288.510515 75.4758202 306.00142 88.3630798 303.023548 96.0398071"></polyline>
                    <polyline id="Fill-187" fill="#E0BF19" points="291.524383 100.201034 288.510515 98.4601904 288.510515 75.4747294 291.525473 77.2177544 291.524383 100.201034"></polyline>
                    <polyline id="Fill-188" fill="#F4ECB8" points="309.017469 67.1217346 306.00251 65.3798003 288.510515 75.4747294 291.525473 77.2177544 309.017469 67.1217346"></polyline>
                    <polyline id="Fill-189" fill="#FBF7C9" points="309.017469 90.105014 291.525473 100.201034 291.525473 77.2177544 309.016378 67.1217346 309.017469 90.105014"></polyline>
                    <polyline id="Fill-190" fill="#EADEAC" points="307.467449 89.2095049 307.467449 69.8038989 293.075494 78.1121728 293.075494 97.5177789 307.467449 89.2095049"></polyline>
                    <polyline id="Fill-191" fill="#FBF7C9" points="293.075494 79.3861736 293.075494 95.7758446 304.450309 89.2095049 304.450309 72.8209247 293.075494 79.3861736"></polyline>
                    <polyline id="Fill-192" fill="#EADEAC" points="307.467449 89.2095049 305.959969 88.3379924 293.075494 95.7736631 293.075494 97.5166881 307.467449 89.2095049"></polyline>
                    <polyline id="Fill-193" fill="#F4ECB8" points="304.450309 89.2095049 293.075494 95.7736631 293.075494 97.5166881 307.467449 89.2095049 304.450309 89.2095049"></polyline>
                    <polyline id="Fill-194" fill="#EADEAC" points="307.467449 89.2095049 305.959969 88.3379924 305.959969 70.6754114 307.467449 69.8038989 307.467449 89.2095049"></polyline>
                    <polyline id="Fill-195" fill="#E0BF19" points="303.003914 87.3890364 303.005005 76.492403 294.60588 81.3408049 294.60588 92.2385291 303.003914 87.3890364"></polyline>
                    <polyline id="Fill-196" fill="#E6D94C" points="262.428505 153.90213 264.022157 149.796532 267.811581 147.60957 267.811581 150.795662 262.428505 153.90213"></polyline>
                    <polyline id="Fill-197" fill="#F9EC62" points="272.62417 146.852586 276.413593 144.665624 280.203017 146.852586 276.413593 149.040639 272.62417 146.852586"></polyline>
                    <polyline id="Fill-198" fill="#FFE132" points="280.203017 146.852586 280.201926 151.227601 276.413593 153.416745 276.413593 149.040639 280.203017 146.852586"></polyline>
                    <polyline id="Fill-199" fill="#E0BD12" points="272.62417 146.852586 272.62417 151.227601 276.412503 153.416745 276.412503 149.040639 272.62417 146.852586"></polyline>
                    <polyline id="Fill-200" fill="#F9EC62" points="266.938944 150.134666 270.728368 147.947704 274.517791 150.134666 270.728368 152.322718 266.938944 150.134666"></polyline>
                    <polyline id="Fill-201" fill="#E0CF54" points="267.398169 149.869612 270.728368 147.947704 274.517791 150.134666 273.374637 150.795662 268.999457 150.795662 267.398169 149.869612"></polyline>
                    <polyline id="Fill-202" fill="#FFE132" points="274.517791 150.134666 274.517791 154.50968 270.728368 156.698824 270.728368 152.322718 274.517791 150.134666"></polyline>
                    <polyline id="Fill-203" fill="#E0BD12" points="266.937854 150.134666 266.938944 154.50968 270.727277 156.698824 270.727277 152.322718 266.937854 150.134666"></polyline>
                    <polyline id="Fill-204" fill="#F9EC62" points="269.586305 144.230414 273.374637 142.043452 277.164061 144.230414 273.374637 146.418466 269.586305 144.230414"></polyline>
                    <polyline id="Fill-205" fill="#FFE132" points="277.164061 144.230414 277.16297 148.606519 273.374637 150.795662 273.375728 146.418466 277.164061 144.230414"></polyline>
                    <polyline id="Fill-206" fill="#E0BD12" points="269.585214 144.230414 269.586305 148.606519 273.373547 150.795662 273.373547 146.418466 269.585214 144.230414"></polyline>
                    <polyline id="Fill-207" fill="#F9EC62" points="281.389802 146.548266 285.179226 144.360213 288.96974 146.548266 285.179226 148.735228 281.389802 146.548266"></polyline>
                    <polyline id="Fill-208" fill="#FFE132" points="288.96974 146.548266 288.968649 150.923281 285.179226 153.112424 285.180316 148.735228 288.96974 146.548266"></polyline>
                    <polyline id="Fill-209" fill="#E0BD12" points="281.389802 146.548266 281.389802 150.923281 285.179226 153.112424 285.179226 148.735228 281.389802 146.548266"></polyline>
                    <polyline id="Fill-210" fill="#E0C22A" points="278.873337 151.99331 280.201926 148.569433 280.203017 151.22542 278.873337 151.99331"></polyline>
                    <polyline id="Fill-211" fill="#E6D94C" points="262.989174 113.595494 222.490121 136.976899 222.490121 104.56405 225.467993 96.8862322 265.968136 73.5059183 265.967046 105.919858 262.989174 113.595494"></polyline>
                    <polyline id="Fill-212" fill="#E0BF19" points="228.482951 131.042106 225.467993 129.301262 225.467993 96.8862322 228.482951 98.6281665 228.482951 131.042106"></polyline>
                    <polyline id="Fill-213" fill="#F4ECB8" points="268.983095 75.2478526 265.969227 73.507009 225.467993 96.8862322 228.482951 98.6281665 268.983095 75.2478526"></polyline>
                    <polyline id="Fill-214" fill="#FBF7C9" points="268.982004 107.660701 228.482951 131.042106 228.482951 98.6281665 268.982004 75.2478526 268.982004 107.660701"></polyline>
                    <polyline id="Fill-215" fill="#EADEAC" points="267.433075 106.766283 267.434165 77.9321984 230.031881 99.5225849 230.031881 128.35776 267.433075 106.766283"></polyline>
                    <polyline id="Fill-216" fill="#FBF7C9" points="230.031881 100.797676 230.031881 126.615826 264.415935 106.766283 264.415935 80.9481334 230.031881 100.797676"></polyline>
                    <polyline id="Fill-217" fill="#EADEAC" points="267.433075 106.766283 265.925595 105.89477 230.031881 126.614735 230.031881 128.355579 267.433075 106.766283"></polyline>
                    <polyline id="Fill-218" fill="#F4ECB8" points="264.415935 106.766283 230.031881 126.614735 230.031881 128.355579 267.433075 106.766283 264.415935 106.766283"></polyline>
                    <polyline id="Fill-219" fill="#EADEAC" points="267.433075 106.766283 265.925595 105.89477 265.925595 78.8026201 267.434165 77.9321984 267.433075 106.766283"></polyline>
                    <polyline id="Fill-220" fill="#DFCF41" points="262.522314 104.011038 262.522314 84.5192623 232.011675 102.132759 232.011675 121.626717 262.522314 104.011038"></polyline>
                </g>
            </g>
        </g>
    </g>
</svg>