<?xml version="1.0" encoding="UTF-8"?>
<svg width="621px" height="560px" viewBox="0 0 621 560" version="1.1" xmlns="http://www.w3.org/2000/svg" xmlns:xlink="http://www.w3.org/1999/xlink">
    <!-- Generator: Sketch 50.2 (55047) - http://www.bohemiancoding.com/sketch -->
    <title>Group 4</title>
    <desc>Created with Sketch.</desc>
    <defs></defs>
    <g id="Page-1" stroke="none" stroke-width="1" fill="none" fill-rule="evenodd">
        <g id="404" transform="translate(-717.000000, -116.000000)">
            <g id="Group-4" transform="translate(717.000000, 116.000000)">
                <g id="Group">
                    <g id="shutterstock_789546886-[преобразованный]-02">
                        <polyline id="Fill-1" fill="#E4E4E3" points="229.443554 208.018055 229.456907 245.790214 262.206716 226.895247 262.206716 189.118644 229.443554 208.018055"></polyline>
                        <path d="M196.702647,75.788834 L262.162207,113.520999 L229.407947,132.415967 L163.854917,94.6349197 L196.702647,75.788834 Z M196.644785,0.213408685 L229.412398,19.1039322 L196.644785,37.9900119 L163.877172,19.1039322 L196.644785,0.213408685 Z M262.135502,37.9544616 L294.903115,56.8405413 L262.135502,75.7310648 L229.363438,56.8405413 L262.135502,37.9544616 Z" id="Combined-Shape" fill="#FFFFFF"></path>
                        <polyline id="Fill-3" fill="#E4E4E3" points="229.403496 132.42041 229.416849 170.188126 262.171109 151.293159 262.171109 113.516556 229.403496 132.42041"></polyline>
                        <path d="M229.390141,170.172734 L163.939484,132.451517 L163.854917,94.6349197 L163.877172,94.6477483 L163.877172,19.1039322 L196.644785,37.9900119 L196.644785,113.536645 L229.381243,132.407583 L229.363438,56.8405413 L262.135502,75.7310648 L262.17556,264.627412 L229.407947,245.741333 L229.390141,170.172734 Z" id="Combined-Shape" fill="#B2C1C8"></path>
                        <path d="M196.644785,37.9900119 L229.412398,19.1039322 L229.412398,94.6571386 L196.644785,113.543218 L196.644785,37.9900119 Z M262.135502,75.7310648 L294.903115,56.8405413 L294.943173,245.741333 L262.17556,264.627412 L262.135502,75.7310648 Z" id="Combined-Shape" fill="#D9E5EC"></path>
                        <path d="M98.3686511,359.057811 L65.5965871,340.171731 L229.407947,245.75022 L229.456907,245.776883 L229.456907,245.790214 L229.465809,245.78577 L262.242324,264.609637 L98.3686511,359.057811 Z M32.8289741,321.30787 L0.0747138046,302.412903 L65.5743326,264.614081 L98.3419456,283.504604 L32.8289741,321.30787 Z M131.105108,302.390684 L98.3419456,283.504604 L98.3508474,283.495717 L65.5876853,264.609637 L65.5743326,264.614081 L65.5698817,264.614081 L98.4131602,245.767995 L163.894975,283.509048 L131.105108,302.390684 Z" id="Combined-Shape" fill="#C82C9C"></path>
                        <polyline id="Fill-9" fill="#6F706F" points="229.456907 245.790214 229.456907 245.776883 229.465809 245.78577 229.456907 245.790214"></polyline>
                        <polyline id="Fill-15" fill="#434443" points="98.3419456 283.504604 65.5743326 264.614081 65.5876853 264.609637 98.3508474 283.495717 98.3419456 283.504604"></polyline>
                    </g>
                </g>
                <g id="Group-2" transform="translate(163.000000, 100.000000)">
                    <g id="shutterstock_789546886-[преобразованный]-03">
                        <path d="M230.085305,56.9339143 L230.085305,208.071434 L197.324164,226.957513 L197.324164,75.8199941 L230.085305,56.9339143 Z M295.625388,245.888031 L262.868697,264.774111 L262.855347,75.8910946 L295.598688,57.0627841 L295.625388,245.888031 Z" id="Combined-Shape" fill="#D9E5EC"></path>
                        <path d="M197.297463,0.360107079 L295.598688,57.0627841 L262.855347,75.8910946 L164.540772,19.2506306 L197.297463,0.360107079 Z M230.080855,170.401481 L230.098655,208.182528 L197.315264,189.292005 L230.080855,170.401481 Z" id="Combined-Shape" fill="#FFFFFF"></path>
                        <path d="M197.315264,189.292005 L197.324164,75.8910946 L230.071955,94.7860619 L230.098655,208.23141 L197.315264,189.292005 M164.540772,19.2506306 L164.567472,208.071434 L262.868697,264.774111 L262.855347,75.8910946 L164.540772,19.2506306" id="Fill-4" fill="#B2C1C8"></path>
                        <path d="M99.0585393,359.208953 L0.775114804,302.54627 L164.616422,208.13809 L262.850897,264.769667 L99.0585393,359.208953 M164.656473,245.856924 L66.324098,302.506276 L99.1074896,321.405687 L197.439864,264.782998 L164.656473,245.856924" id="Fill-6" fill="#C82C9C"></path>
                    </g>
                </g>
                <g id="Group" transform="translate(326.000000, 200.000000)">
                    <g id="shutterstock_789546886-[преобразованный]-02">
                        <polyline id="Fill-1" fill="#E4E4E3" points="229.443554 208.018055 229.456907 245.790214 262.206716 226.895247 262.206716 189.118644 229.443554 208.018055"></polyline>
                        <path d="M196.702647,75.788834 L262.162207,113.520999 L229.407947,132.415967 L163.854917,94.6349197 L196.702647,75.788834 Z M196.644785,0.213408685 L229.412398,19.1039322 L196.644785,37.9900119 L163.877172,19.1039322 L196.644785,0.213408685 Z M262.135502,37.9544616 L294.903115,56.8405413 L262.135502,75.7310648 L229.363438,56.8405413 L262.135502,37.9544616 Z" id="Combined-Shape" fill="#FFFFFF"></path>
                        <polyline id="Fill-3" fill="#E4E4E3" points="229.403496 132.42041 229.416849 170.188126 262.171109 151.293159 262.171109 113.516556 229.403496 132.42041"></polyline>
                        <path d="M229.390141,170.172734 L163.939484,132.451517 L163.854917,94.6349197 L163.877172,94.6477483 L163.877172,19.1039322 L196.644785,37.9900119 L196.644785,113.536645 L229.381243,132.407583 L229.363438,56.8405413 L262.135502,75.7310648 L262.17556,264.627412 L229.407947,245.741333 L229.390141,170.172734 Z" id="Combined-Shape" fill="#B2C1C8"></path>
                        <path d="M196.644785,37.9900119 L229.412398,19.1039322 L229.412398,94.6571386 L196.644785,113.543218 L196.644785,37.9900119 Z M262.135502,75.7310648 L294.903115,56.8405413 L294.943173,245.741333 L262.17556,264.627412 L262.135502,75.7310648 Z" id="Combined-Shape" fill="#D9E5EC"></path>
                        <path d="M98.3686511,359.057811 L65.5965871,340.171731 L229.407947,245.75022 L229.456907,245.776883 L229.456907,245.790214 L229.465809,245.78577 L262.242324,264.609637 L98.3686511,359.057811 Z M32.8289741,321.30787 L0.0747138046,302.412903 L65.5743326,264.614081 L98.3419456,283.504604 L32.8289741,321.30787 Z M131.105108,302.390684 L98.3419456,283.504604 L98.3508474,283.495717 L65.5876853,264.609637 L65.5743326,264.614081 L65.5698817,264.614081 L98.4131602,245.767995 L163.894975,283.509048 L131.105108,302.390684 Z" id="Combined-Shape" fill="#C82C9C"></path>
                        <polyline id="Fill-9" fill="#6F706F" points="229.456907 245.790214 229.456907 245.776883 229.465809 245.78577 229.456907 245.790214"></polyline>
                        <polyline id="Fill-15" fill="#434443" points="98.3419456 283.504604 65.5743326 264.614081 65.5876853 264.609637 98.3508474 283.495717 98.3419456 283.504604"></polyline>
                    </g>
                </g>
            </g>
        </g>
    </g>
</svg>