<?xml version="1.0" encoding="UTF-8"?>
<svg width="251px" height="38px" viewBox="0 0 251 38" version="1.1" xmlns="http://www.w3.org/2000/svg" xmlns:xlink="http://www.w3.org/1999/xlink">
    <!-- Generator: Sketch 50.2 (55047) - http://www.bohemiancoding.com/sketch -->
    <title>fundlogoMEGAwhite</title>
    <desc>Created with Sketch.</desc>
    <defs></defs>
    <g id="Symbols" stroke="none" stroke-width="1" fill="none" fill-rule="evenodd">
        <g id="Footer" transform="translate(-80.000000, -54.000000)" fill="#29475D" fill-rule="nonzero">
            <g id="Group-9" transform="translate(-150.000000, 0.000000)">
                <g id="Group-34">
                    <g id="fundlogoMEGAwhite" transform="translate(230.000000, 54.000000)">
                        <g id="Group">
                            <path d="M67.3673997,23.0935435 L67.3673997,13.996087 L83.7645537,13.996087 L83.7645537,0.333240166 L77.1345408,0.333240166 L77.1345408,8.78087838 L60.7535576,8.78087838 L60.7535576,23.0768815 L67.3673997,23.0768815 L67.3673997,23.0935435 Z M83.7807245,23.0935435 L83.7807245,15.4623437 L77.1507115,15.4623437 L77.1507115,23.0935435 L83.7807245,23.0935435 Z M67.3673997,0.333240166 L60.7373868,0.333240166 L60.7373868,7.33128366 L67.3673997,7.33128366 L67.3673997,0.333240166 Z" id="Shape"></path>
                            <path d="M111.254851,16.4287402 L104.624838,16.4287402 L104.624838,0.333240166 L111.254851,0.333240166 L111.254851,16.4287402 Z M94.534282,23.0935435 L88.2600259,23.0935435 L92.6099612,6.99804349 L98.8842173,6.99804349 L94.534282,23.0935435 Z M111.254851,5.53178676 L91.2839586,5.53178676 L91.2839586,0.333240166 L111.254851,0.333240166 L111.254851,5.53178676 Z M113.906856,23.0935435 L86.4327296,23.0935435 L86.4327296,17.8949969 L113.906856,17.8949969 L113.906856,23.0935435 Z" id="Shape"></path>
                            <path d="M122.105433,23.0935435 L123.560802,18.1782511 L133.408797,18.1782511 L134.864166,23.0935435 L141.558862,23.0935435 L138.56727,13.3129446 L125,13.3129446 L126.859638,7.0147055 L120.682406,7.0147055 L115.734153,23.1102055 L122.105433,23.0935435 Z M134.52458,0.333240166 L122.687581,0.333240166 L121.086675,5.53178676 L129.705692,5.53178676 L131.56533,11.8300259 L138.001294,11.8300259 L134.52458,0.333240166 Z" id="Shape"></path>
                            <path d="M149.951488,23.0935435 L149.951488,6.99804349 L143.483182,6.99804349 L143.483182,23.0935435 L149.951488,23.0935435 Z M157.875162,18.1782511 L160.769728,18.1782511 L164.747736,5.53178676 L172.25097,5.53178676 L172.25097,0.333240166 L160.834411,0.333240166 L157.21216,12.2632381 L157.875162,12.2632381 L158.538163,12.2632381 L154.915912,0.333240166 L143.499353,0.333240166 L143.499353,5.53178676 L151.002587,5.53178676 L154.980595,18.1782511 L157.875162,18.1782511 Z M172.267141,23.0935435 L172.267141,6.99804349 L165.798836,6.99804349 L165.798836,23.0935435 L172.267141,23.0935435 Z" id="Shape"></path>
                            <path d="M207.972186,23.0935435 L207.972186,13.996087 L224.36934,13.996087 L224.36934,0.333240166 L217.739327,0.333240166 L217.739327,8.78087838 L201.342173,8.78087838 L201.342173,23.0768815 L207.972186,23.0768815 L207.972186,23.0935435 Z M224.36934,23.0935435 L224.36934,15.4623437 L217.739327,15.4623437 L217.739327,23.0935435 L224.36934,23.0935435 Z M207.972186,0.333240166 L201.342173,0.333240166 L201.342173,7.33128366 L207.972186,7.33128366 L207.972186,0.333240166 Z" id="Shape"></path>
                            <path d="M249.919146,5.53178676 L249.919146,0.333240166 L227.021345,0.333240166 L227.021345,5.53178676 L249.919146,5.53178676 Z M241.785252,23.0935435 L241.785252,6.99804349 L235.155239,6.99804349 L235.155239,23.0935435 L241.785252,23.0935435 Z" id="Shape"></path>
                            <rect id="Rectangle-path" x="1.16429495" y="28.158794" width="122.396507" height="5.19854659"></rect>
                            <path d="M177.247736,0.333240166 L177.247736,13.996087 L193.111255,13.996087 L193.111255,9.11411855 L183.861578,9.11411855 L183.861578,5.53178676 L197.105433,5.53178676 L197.105433,0.333240166 L177.247736,0.333240166 Z M183.861578,17.8949969 L183.861578,15.4623437 L177.231565,15.4623437 L177.231565,23.0935435 L197.121604,23.0935435 L197.121604,17.8949969 L183.861578,17.8949969 Z" id="Shape"></path>
                            <path d="M22.4450194,7.33128366 C24.7089263,7.33128366 26.0996119,8.79754039 26.3906856,10.6803473 L33.3602846,10.6803473 C33.0368693,6.09829504 29.8027167,2.44931522 24.2076326,2.44931522 L20.0517464,2.44931522 L20.0517464,0.0166620083 L13.4217335,0.0166620083 L13.4217335,2.44931522 L9.24967658,2.44931522 C3.67076326,2.44931522 0.388098318,6.08163303 0.0970245796,10.6803473 L7.06662354,10.6803473 C7.35769728,8.79754039 8.73221216,7.33128366 11.0122898,7.33128366 L13.4217335,7.33128366 L13.4217335,15.4623437 L11.0284605,15.4623437 C8.76455369,15.4623437 7.37386805,14.029411 7.08279431,12.1466041 L0.113195343,12.1466041 C0.436610608,16.7286563 3.62225097,20.3443121 9.26584735,20.3443121 L13.4217335,20.3443121 L13.4217335,23.1102055 L20.0517464,23.1102055 L20.0517464,20.3276501 L24.2238034,20.3276501 C29.8350582,20.3276501 33.0530401,16.7119943 33.3764554,12.1299421 L26.4068564,12.1299421 C26.0834411,14.012749 24.7412678,15.4456817 22.4611902,15.4456817 L20.0517464,15.4456817 L20.0517464,7.33128366 L22.4450194,7.33128366 Z" id="Shape"></path>
                            <path d="M38.3570505,14.4792852 L53.5899094,14.4792852 L58.1338939,0.333240166 L51.6979301,0.333240166 L48.9165589,9.26407662 L42.8040103,9.26407662 L39.3919793,0.333240166 L32.7619664,0.333240166 L38.3570505,14.4792852 Z M38.9877102,17.8949969 L38.9877102,23.0935435 L46.5556274,23.0935435 C48.9165589,23.0935435 50.9702458,22.4770492 52.2315653,18.6447873 L53.1209573,15.945542 L46.8790427,15.945542 L46.587969,16.9286004 C46.3939198,17.6450668 45.8279431,17.9116589 45.0355757,17.9116589 L38.9877102,17.8949969 Z" id="Shape"></path>
                        </g>
                        <g id="Group" transform="translate(130.000000, 27.000000)">
                            <path d="M0.0163214332,0.152370084 L4.83114423,0.152370084 L4.83114423,1.15124064 L1.17514319,1.15124064 L1.17514319,3.36907186 L2.31764351,3.36907186 C4.04771543,3.36907186 5.33710866,4.13092228 5.33710866,5.80699321 C5.33710866,7.53385417 4.14564403,8.43114466 2.18707205,8.43114466 L0.0163214332,8.43114466 L0.0163214332,0.152370084 Z M2.18707205,7.44920412 C3.55807244,7.44920412 4.16196547,6.95823385 4.16196547,5.85778324 C4.16196547,4.85891269 3.62335817,4.3340824 2.20339348,4.3340824 L1.17514319,4.3340824 L1.17514319,7.44920412 L2.18707205,7.44920412 Z" id="Shape"></path>
                            <path d="M7.5241807,8.39728464 L7.68739504,7.4153441 C7.8179665,7.44920412 7.98118083,7.46613413 8.1607166,7.46613413 C8.94414539,7.46613413 9.33585979,6.85665379 9.77653848,5.87471325 L9.79285992,5.82392322 L7.05085914,0.135440075 L8.2096809,0.135440075 L10.3477886,4.68961259 L10.3641101,4.68961259 L12.469575,0.135440075 L13.6283967,0.135440075 L10.6415744,6.46726358 C10.0376814,7.75394429 9.30321692,8.48193469 8.14439517,8.48193469 C7.88325223,8.48193469 7.65475217,8.44807467 7.5241807,8.39728464 Z" id="Shape"></path>
                            <path d="M13.9058611,7.4153441 L14.5587184,7.4153441 C15.03204,7.02595389 15.3258258,6.11173338 15.4563972,4.67268258 L15.8807545,0.135440075 L20.8587916,0.135440075 L20.8587916,7.39841409 L21.8707205,7.39841409 L21.5442918,10.7505559 L20.7118987,10.7505559 L20.5976487,8.41421465 L15.0973257,8.41421465 L14.8688256,10.7505559 L14.0364325,10.7505559 L13.9058611,7.4153441 Z M19.6999699,7.4153441 L19.6999699,1.16817065 L16.9253262,1.16817065 L16.5662547,4.84198268 C16.4520047,5.92550328 16.1745403,6.90744382 15.7338616,7.4153441 L19.6999699,7.4153441 Z" id="Shape"></path>
                            <polygon id="Shape" points="24.563757 0.152370084 25.7389002 0.152370084 25.7389002 8.44807467 24.563757 8.44807467"></polygon>
                            <path d="M28.9868654,0.152370084 L31.3208303,0.152370084 C32.9040093,0.152370084 34.1117954,0.711060393 34.1117954,2.21783123 C34.1117954,3.19977177 33.5405452,3.82618212 32.626545,4.06320225 L32.626545,4.08013226 C33.6384738,4.24943235 34.4708669,4.96049274 34.4708669,6.11173338 C34.4708669,7.78780431 33.1977951,8.43114466 31.2881874,8.43114466 L28.9705439,8.43114466 L28.9868654,0.152370084 Z M31.1902588,3.65688202 C32.4143663,3.65688202 32.9203308,3.21670178 32.9203308,2.30248127 C32.9203308,1.4390508 32.3327592,1.11738062 31.2229017,1.11738062 L30.1293657,1.11738062 L30.1293657,3.65688202 L31.1902588,3.65688202 Z M31.2555446,7.44920412 C32.6428664,7.44920412 33.2630809,7.12753394 33.2630809,6.11173338 C33.2630809,5.16365286 32.7244736,4.60496255 31.3208303,4.60496255 L30.1130442,4.60496255 L30.1130442,7.44920412 L31.2555446,7.44920412 Z" id="Shape"></path>
                            <polygon id="Shape" points="36.8211533 0.152370084 41.6196547 0.152370084 41.6196547 1.15124064 37.9962965 1.15124064 37.9962965 3.57223198 41.2279403 3.57223198 41.2279403 4.55417252 37.9962965 4.55417252 37.9962965 7.4153441 41.7012618 7.4153441 41.7012618 8.41421465 36.8374747 8.41421465"></polygon>
                            <path d="M43.4476552,7.63543422 C44.2963697,7.6015742 44.720727,6.63656367 44.8839413,4.67268258 L45.2266914,0.135440075 L50.4169071,0.135440075 L50.4169071,8.43114466 L49.241764,8.43114466 L49.241764,1.16817065 L46.2386202,1.16817065 L45.9611559,4.84198268 C45.7816201,7.229114 45.0634771,8.56658474 43.6435124,8.56658474 L43.4476552,7.63543422 Z" id="Shape"></path>
                            <path d="M53.2241937,0.152370084 L54.3993368,0.152370084 L54.3993368,3.36907186 L55.5418372,3.36907186 C57.2719091,3.36907186 58.5613023,4.13092228 58.5613023,5.80699321 C58.5613023,7.53385417 57.3698377,8.43114466 55.4112657,8.43114466 L53.2405151,8.43114466 L53.2241937,0.152370084 Z M55.3949443,7.44920412 C56.7659447,7.44920412 57.3698377,6.95823385 57.3698377,5.85778324 C57.3698377,4.85891269 56.8312304,4.3340824 55.4112657,4.3340824 L54.3830154,4.3340824 L54.3830154,7.44920412 L55.3949443,7.44920412 Z" id="Shape"></path>
                            <polygon id="Shape" points="60.5525172 0.152370084 61.7276603 0.152370084 61.7276603 3.58916199 66.2486973 3.58916199 66.2486973 0.152370084 67.4075191 0.152370084 67.4075191 8.44807467 66.2486973 8.44807467 66.2486973 4.60496255 61.7276603 4.60496255 61.7276603 8.44807467 60.5525172 8.44807467"></polygon>
                            <path d="M72.4998063,0.152370084 L73.6423066,0.152370084 L76.8902718,8.44807467 L75.6661643,8.44807467 L74.9480212,6.55191362 L71.1288059,6.55191362 L70.4269842,8.44807467 L69.2844839,8.44807467 L72.4998063,0.152370084 Z M74.5726283,5.51918305 L73.544378,2.77652154 C73.2832351,2.06546114 73.0384136,1.28668071 73.0384136,1.28668071 L73.0057707,1.28668071 C73.0057707,1.28668071 72.7609492,2.09932116 72.4998063,2.77652154 L71.4878774,5.51918305 L74.5726283,5.51918305 Z" id="Shape"></path>
                            <polygon id="Shape" points="82.5701305 0.152370084 87.2870247 0.152370084 87.2870247 1.15124064 83.7289523 1.15124064 83.7289523 8.43114466 82.5538091 8.43114466"></polygon>
                            <path d="M89.1313467,0.152370084 L91.4489902,0.152370084 C93.1790621,0.152370084 94.4684553,0.914220506 94.4684553,2.59029143 C94.4684553,4.31715239 93.2769907,5.21444288 91.3184187,5.21444288 L90.3228113,5.21444288 L90.3228113,8.43114466 L89.1476681,8.43114466 L89.1313467,0.152370084 Z M91.3020973,4.23250234 C92.6730977,4.23250234 93.2769907,3.74153207 93.2769907,2.64108146 C93.2769907,1.64221091 92.7383834,1.11738062 91.3184187,1.11738062 L90.2901684,1.11738062 L90.2901684,4.23250234 L91.3020973,4.23250234 Z" id="Shape"></path>
                            <path d="M96.0516344,8.39728464 L96.2148487,7.4153441 C96.3454202,7.44920412 96.5086345,7.46613413 96.6881703,7.46613413 C97.471599,7.46613413 97.8633134,6.85665379 98.3039921,5.87471325 L98.3203136,5.82392322 L95.5783128,0.135440075 L96.7371346,0.135440075 L98.8752423,4.68961259 L98.8915637,4.68961259 L100.997029,0.135440075 L102.15585,0.135440075 L99.1690281,6.46726358 C98.5651351,7.75394429 97.8306706,8.48193469 96.6718488,8.48193469 C96.4107059,8.48193469 96.1822058,8.44807467 96.0516344,8.39728464 Z" id="Shape"></path>
                            <polygon id="Shape" points="103.951208 0.152370084 110.610353 0.152370084 110.610353 8.44807467 109.451531 8.44807467 109.451531 1.18510066 105.11003 1.18510066 105.11003 8.44807467 103.934887 8.44807467"></polygon>
                            <path d="M115.70264,0.152370084 L116.84514,0.152370084 L120.093105,8.44807467 L118.868998,8.44807467 L118.150855,6.55191362 L114.33164,6.55191362 L113.629818,8.44807467 L112.487318,8.44807467 L115.70264,0.152370084 Z M117.791783,5.51918305 L116.763533,2.77652154 C116.50239,2.06546114 116.257569,1.28668071 116.257569,1.28668071 L116.224926,1.28668071 C116.224926,1.28668071 115.980104,2.09932116 115.718961,2.77652154 L114.707033,5.51918305 L117.791783,5.51918305 Z" id="Shape"></path>
                        </g>
                    </g>
                </g>
            </g>
        </g>
    </g>
</svg>