<?xml version="1.0" encoding="UTF-8"?>
<svg width="262px" height="179px" viewBox="0 0 262 179" version="1.1" xmlns="http://www.w3.org/2000/svg" xmlns:xlink="http://www.w3.org/1999/xlink">
    <!-- Generator: Sketch 50.2 (55047) - http://www.bohemiancoding.com/sketch -->
    <title>Phome</title>
    <desc>Created with Sketch.</desc>
    <defs>
        <path d="M0.434635659,5.20529278 L0.448175711,0.275646388 C0.447498708,0.546528517 0.624873385,0.818091255 0.981653747,1.0249962 L0.968113695,5.95464259 C0.610656331,5.74773764 0.433958656,5.4754943 0.434635659,5.20529278" id="path-1"></path>
    </defs>
    <g id="Page-1" stroke="none" stroke-width="1" fill="none" fill-rule="evenodd">
        <g id="Group-66" transform="translate(-426.000000, -263.000000)">
            <g id="Thank-you" transform="translate(426.000000, 263.000000)">
                <g id="Phome">
                    <g id="phone-02">
                        <path d="M89.7671576,177.067753 C88.1890646,177.067753 86.6089406,176.71724 85.401168,176.016213 L1.97684755,127.595011 C-0.438697674,126.192958 -0.451560724,123.919046 1.94841344,122.516992 L153.510336,33.9698441 C154.709984,33.2688175 156.286724,32.9183042 157.864817,32.9183042 C159.44291,32.9183042 161.023034,33.2688175 162.230806,33.9698441 L245.653773,82.3910456 C248.069995,83.7930989 248.082858,86.0670114 245.682207,87.4690646 L94.1209612,176.016213 C92.9213127,176.71724 91.3452506,177.067753 89.7671576,177.067753" id="Fill-1" fill="#F4F4F4"></path>
                        <path d="M245.714026,54.8121141 L94.1487183,143.361304 C91.7487442,144.763357 87.8478553,144.76608 85.4323101,143.364027 L2.00460465,94.9401027 C0.789385013,94.2349924 0.182113695,93.3086844 0.184144703,92.3837376 L0.156387597,102.24235 C0.153679587,103.167297 0.761627907,104.093605 1.97684755,104.799395 L85.404553,153.222639 C87.8200982,154.624692 91.7209871,154.62265 94.1209612,153.220597 L245.686269,64.6714068 C246.879147,63.9744639 247.475587,63.0638099 247.478295,62.1517947 L247.506052,52.2931825 C247.503344,53.2045171 246.906904,54.1158517 245.714026,54.8121141" id="Fill-2" fill="#D3D2DC"></path>
                        <path d="M62.869168,121.379696 C64.9929251,122.612958 68.4192351,122.610236 70.5253902,121.379696 C72.6356072,120.147114 72.6240982,118.154293 70.5010181,116.921711 L47.4578811,103.547076 C45.337509,102.316536 41.911199,102.314494 39.8009819,103.547076 C37.6948269,104.777616 37.7063359,106.774521 39.826031,108.005061 L62.869168,121.379696 Z M73.0458708,115.434582 C76.5744083,117.483213 76.5940413,120.818194 73.087168,122.866825 C69.5802946,124.915456 63.8575917,124.913414 60.3277003,122.864783 L37.2845633,109.490148 C33.7553488,107.441517 33.7370698,104.11062 37.2439432,102.062669 C40.7494625,100.013357 46.4728424,100.011316 50.0020568,102.059947 L73.0458708,115.434582 Z" id="Fill-3" fill="#FFFFFF"></path>
                        <path d="M229.149127,60.0174068 L110.664196,129.240042 C109.664264,129.824004 108.041488,129.824004 107.038848,129.242084 L26.1844289,82.3120951 C25.1777261,81.7281331 25.1729871,80.7827681 26.1722429,80.1988061 L144.65785,10.9761711 C145.653044,10.394251 147.276496,10.394251 148.282522,10.9788935 L229.136941,57.9088821 C230.138904,58.4901217 230.14432,59.4361673 229.149127,60.0174068 Z M73.086491,122.866825 C69.5796176,124.916137 63.8575917,124.913414 60.3277003,122.864783 L37.2845633,109.490148 C33.7546718,107.441517 33.7370698,104.1113 37.2432661,102.062669 C40.7494625,100.014038 46.4728424,100.011316 50.0013798,102.060627 L73.0451938,115.434582 C76.5744083,117.483213 76.5940413,120.818194 73.086491,122.866825 Z M180.989871,23.2965437 C182.045995,22.6792319 183.757457,22.6819544 184.816966,23.2965437 L207.860103,36.6711787 C208.924351,37.2891711 208.929767,38.2835399 207.872966,38.9008517 C206.820227,39.5161217 205.108765,39.5181635 204.045194,38.9008517 L181.00138,25.5255361 C179.941871,24.9109468 179.936455,23.9124943 180.989871,23.2965437 Z M245.685592,49.7388593 L162.258563,1.31561597 C159.842341,-0.0864372624 155.941452,-0.0891596958 153.542155,1.31289354 L1.97617054,89.8620837 C-0.423803618,91.2641369 -0.410940568,93.53873 2.00460465,94.9407833 L85.4316331,143.364027 C87.8478553,144.76608 91.7487442,144.764038 94.1487183,143.361985 L245.714026,54.8121141 C248.114,53.4100608 248.101814,51.1409125 245.685592,49.7388593 Z" id="Fill-4" fill="#FFFFFF"></path>
                        <path d="M207.86078,36.6711787 C208.925028,37.2891711 208.929767,38.2835399 207.873643,38.9008517 C206.820227,39.5161217 205.109442,39.5181635 204.045871,38.9008517 L181.002057,25.5255361 C179.941871,24.9109468 179.936455,23.9118137 180.989871,23.2965437 C182.045995,22.6792319 183.758134,22.6812738 184.817643,23.2965437 L207.86078,36.6711787" id="Fill-5" fill="#4FC3EE"></path>
                        <path d="M70.5010181,116.921711 C72.6240982,118.154293 72.6356072,120.147114 70.5253902,121.380376 C68.4199121,122.610236 64.9929251,122.612958 62.869168,121.380376 L39.826031,108.005061 C37.7063359,106.774521 37.6955039,104.777616 39.8009819,103.547076 C41.911199,102.314494 45.337509,102.316536 47.4578811,103.547076 L70.5010181,116.921711" id="Fill-6" fill="#4FC3EE"></path>
                        <path d="M229.13491,57.9082015 L148.283876,10.9809354 C147.279204,10.394251 145.655075,10.394251 144.656496,10.9748099 L26.1742739,80.1981255 C25.1756951,80.7848099 25.1756951,81.7288137 26.1864599,82.3148175 L107.036817,129.242084 C108.042165,129.822643 109.665618,129.822643 110.664873,129.242084 L117.660341,125.153669 L229.147096,60.0187681 C230.144997,59.4382091 230.138904,58.4887605 229.13491,57.9082015" id="Fill-7" fill="#4FC3EE"></path>
                        <path d="M85.9211059,84.3566426 C85.8121085,84.293346 85.7545633,84.1987414 85.8635607,84.1524601 C85.938031,84.1089011 86.0558295,84.1320418 86.1567028,84.1898935 L86.2149251,84.2293688 C86.3239225,84.293346 86.3814677,84.3927148 86.2731473,84.4342319 C86.187845,84.4832357 86.0876486,84.4607757 85.9955762,84.4070076 L85.9211059,84.3566426" id="Fill-8" fill="#2850CB"></path>
                        <path d="M167.065959,178.789692 C166.546698,178.789692 166.027437,178.654251 165.562336,178.384049 L150.936372,169.895502 C148.934475,168.733703 148.930413,165.830228 150.928925,164.662304 L242.617416,111.095703 C243.084548,110.822779 243.606517,110.685977 244.128486,110.685977 C244.647747,110.685977 245.167008,110.821418 245.632109,111.09162 L260.257395,119.580167 C262.259292,120.741966 262.263354,123.645441 260.264842,124.813365 L168.577028,178.379966 C168.109897,178.65289 167.587928,178.789692 167.065959,178.789692" id="Fill-9" fill="#F4F4F4"></path>
                        <polyline id="Fill-10" fill="#0A447E" points="248.881721 110.690061 248.868181 115.619707 241.613421 111.408783 241.626961 106.479137 248.881721 110.690061"></polyline>
                        <path d="M252.406873,107.141369 C253.113664,107.551095 253.117049,108.216049 252.415674,108.626456 L248.881721,110.690061 L241.626961,106.479137 L245.160238,104.415532 C245.862289,104.005125 247.003716,104.005125 247.710506,104.415532 L252.406873,107.141369" id="Fill-11" fill="#FFFFFF"></path>
                        <path d="M252.907855,108.075163 L252.903116,108.094901 L252.817137,108.263692 L252.796827,108.292958 L252.653302,108.45154 L252.526703,108.546144 L252.415674,108.626456 L248.881721,110.690061 L248.868181,115.619707 L252.401457,113.555422 L252.423121,113.54249 L252.512486,113.475791 L252.639762,113.381186 L252.651948,113.372338 L252.763654,113.25119 L252.783287,113.222605 L252.80292,113.193338 L252.836093,113.142973 L252.88416,113.040202 L252.888899,113.023867 L252.913271,112.93811 L252.925457,112.833977 L252.925457,112.818323 L252.938997,107.888677 C252.938997,107.951293 252.927488,108.013909 252.907855,108.075163" id="Fill-12" fill="#D3D2DC"></path>
                        <polyline id="Fill-13" fill="#152B6D" points="244.010687 113.457414 243.99647 118.387061 236.784362 114.204722 236.797902 109.275757 244.010687 113.457414"></polyline>
                        <polyline id="Fill-14" fill="#3BA9D1" points="248.881721 110.690061 248.868181 115.619707 244.064171 118.425856 244.077711 113.49689 248.881721 110.690061"></polyline>
                        <polyline id="Fill-15" fill="#152B6D" points="244.077711 113.49689 244.064171 118.425856 243.99647 118.387061 244.010687 113.457414 244.077711 113.49689"></polyline>
                        <polyline id="Fill-16" fill="#4FC3EE" points="248.881721 110.690061 244.077711 113.49689 244.010687 113.457414 236.797902 109.275757 236.777592 109.263506 241.584987 106.454635 248.881721 110.690061"></polyline>
                        <path d="M244.508284,114.389848 L244.502191,114.410266 L244.416212,114.579738 L244.396579,114.609684 L244.252377,114.768266 L244.124424,114.864232 L244.014072,114.943183 L238.07676,118.411563 L238.06322,123.34189 L243.999855,119.872829 L244.021519,119.859897 L244.112238,119.792517 L244.238837,119.698593 L244.250346,119.689065 L244.362729,119.567916 L244.383039,119.53865 L244.402672,119.508703 L244.436522,119.459019 L244.483912,119.355567 L244.488651,119.339232 L244.494744,119.319494 L244.5137,119.252795 L244.525209,119.148662 L244.525209,119.132327 L244.539426,114.202681 C244.539426,114.265977 244.52724,114.327913 244.508284,114.389848" id="Fill-18" fill="#D3D2DC"></path>
                        <polyline id="Fill-21" fill="#FFFFFF" points="230.841633 117.008148 185.192026 143.677787 180.352811 140.868916 226.002419 114.199278 230.841633 117.008148"></polyline>
                        <g id="Group-25" transform="translate(163.834625, 150.414449)">
                            <mask id="mask-2" fill="white">
                                <use xlink:href="#path-1"></use>
                            </mask>
                            <g id="Clip-24"></g>
                            <path d="M0.981653747,1.0249962 L0.968113695,5.95464259 C0.610656331,5.74773764 0.433958656,5.4754943 0.434635659,5.20529278 L0.448175711,0.275646388 C0.447498708,0.546528517 0.624873385,0.818091255 0.981653747,1.0249962" id="Fill-23" fill="#3BA9D1" mask="url(#mask-2)"></path>
                        </g>
                        <polyline id="Fill-26" fill="#D3D2DC" points="235.676109 119.814297 235.662568 124.743943 180.406295 157.026559 180.419835 152.096913 235.676109 119.814297"></polyline>
                        <polyline id="Fill-27" fill="#0A447E" points="180.419835 152.096913 180.406295 157.026559 170.727866 151.413582 170.741406 146.483935 180.419835 152.096913"></polyline>
                        <path d="M244.010687,113.457414 C244.716124,113.867821 244.715447,114.533456 244.014072,114.943183 L180.419835,152.096913 L170.741406,146.483935 L180.352811,140.868916 L185.192026,143.677787 L230.841633,117.008148 L226.002419,114.199278 L234.339705,109.328163 C235.009938,108.936814 236.084341,108.917076 236.797902,109.275757 L244.010687,113.457414" id="Fill-28" fill="#FFFFFF"></path>
                        <polyline id="Fill-29" fill="#152B6D" points="171.928868 155.568015 171.916005 160.497662 164.802739 156.369091 164.816279 151.439445 171.928868 155.568015"></polyline>
                        <path d="M180.419158,152.096913 L174.483199,155.565973 C173.78047,155.9757 172.635659,155.977741 171.928868,155.568015 L164.816279,151.439445 C164.106103,151.026996 164.106103,150.360681 164.808155,149.950274 L170.741406,146.483935 L180.419158,152.096913" id="Fill-30" fill="#4FC3EE"></path>
                        <path d="M174.483199,155.565973 C174.374202,155.62927 174.253018,155.678954 174.126419,155.722513 L173.991018,155.764711 C173.931442,155.781726 173.871189,155.79738 173.808904,155.810312 C173.737819,155.825285 173.66538,155.838217 173.592264,155.847745 L173.536072,155.855913 C173.436553,155.866122 173.335003,155.872247 173.233452,155.872928 L173.185385,155.872928 C173.084512,155.872247 172.984315,155.866802 172.885473,155.857274 L172.840114,155.851829 C172.741271,155.839578 172.64446,155.823243 172.549003,155.802144 L172.499581,155.789894 C172.413602,155.768795 172.330331,155.742932 172.249767,155.713665 L172.203731,155.698011 C172.10692,155.660578 172.014848,155.6177 171.928868,155.568015 L171.916005,160.497662 C171.996568,160.543943 172.083225,160.586141 172.173943,160.622213 L172.190191,160.626977 L172.23555,160.643312 L172.392615,160.696399 L172.484687,160.718859 L172.53614,160.731791 L172.580145,160.742 L172.758873,160.773308 L172.826574,160.781475 L172.871256,160.78624 L172.93354,160.793726 L173.111592,160.802574 L173.219235,160.802574 L173.297767,160.801894 C173.364114,160.799852 173.431814,160.795087 173.497483,160.788962 L173.522532,160.785559 L173.578724,160.777392 L173.729018,160.756293 L173.795364,160.739278 C173.857649,160.727027 173.917902,160.710692 173.977478,160.694357 L174.072258,160.670536 L174.112879,160.65216 C174.238801,160.608601 174.360661,160.558916 174.468982,160.494939 L180.405618,157.026559 L180.419835,152.096913 L174.483199,155.565973" id="Fill-31" fill="#3BA9D1"></path>
                        <path d="M171.775189,155.809631 C171.587659,155.979783 171.390651,156.14449 171.182134,156.303753 L171.109018,156.360243 C170.880191,156.530395 170.635793,156.6917 170.383948,156.84824 C170.314894,156.890437 170.246517,156.932635 170.176786,156.973471 C170.048832,157.049019 169.918171,157.121844 169.784801,157.193308 C169.704238,157.237548 169.622997,157.281106 169.540403,157.323985 C169.395525,157.39749 169.246584,157.468954 169.095612,157.538376 C169.020465,157.573768 168.946672,157.610521 168.870171,157.644551 C168.663685,157.735072 168.45246,157.82219 168.23785,157.905905 L168.166088,157.935171 C167.926429,158.026373 167.680677,158.11281 167.430186,158.194483 L167.285307,158.239403 C166.986072,158.333327 166.680067,158.419764 166.368646,158.500076 C166.306362,158.516411 166.244755,158.533426 166.181793,158.54908 C165.843292,158.632114 165.497344,158.70562 165.146656,158.770958 C165.083695,158.782529 165.020057,158.793418 164.957096,158.804308 C164.497411,158.8853 164.028925,158.950639 163.552315,159.001004 C163.481907,159.00781 163.412176,159.014616 163.341767,159.020741 C162.942336,159.058856 162.538165,159.087441 162.129256,159.101734 C161.879442,159.111262 161.628274,159.116707 161.375752,159.116707 L161.253891,159.116707 L161.239674,164.046354 L161.362212,164.046354 C161.603225,164.046354 161.843561,164.04227 162.082543,164.033422 L162.115716,164.03138 C162.523948,164.017087 162.928119,163.988502 163.328227,163.950388 L163.45415,163.94154 L163.538775,163.93065 C164.014708,163.880966 164.483194,163.814947 164.942202,163.733954 L165.043075,163.719662 L165.133793,163.700605 C165.484481,163.634586 165.829075,163.56176 166.166899,163.478726 C166.230537,163.462392 166.292822,163.445376 166.35646,163.429722 C166.667204,163.349411 166.972532,163.262293 167.27109,163.168369 L167.37061,163.140464 L167.415969,163.123449 C167.66646,163.042456 167.912212,162.956019 168.152548,162.864137 L168.227695,162.83419 C168.441628,162.750475 168.650145,162.664719 168.855276,162.574198 C168.933132,162.539487 169.008279,162.502734 169.084103,162.466662 C169.233721,162.39792 169.381984,162.327137 169.526186,162.253631 C169.60878,162.211433 169.690021,162.167194 169.771261,162.123635 C169.903953,162.05149 170.034615,161.978665 170.162568,161.903118 L170.289845,161.831654 L170.369731,161.777886 C170.622253,161.621346 170.866651,161.460042 171.095478,161.28989 L171.167917,161.232719 C171.377788,161.074817 171.574119,160.908749 171.761649,160.739278 L171.845597,160.669856 L171.984382,160.537817 L171.998599,155.60749 C171.927514,155.676913 171.850336,155.742932 171.775189,155.809631" id="Fill-32" fill="#D3D2DC"></path>
                        <polyline id="Fill-33" fill="#0D58A3" points="161.253891 159.116707 161.239674 164.046354 158.747628 164.044312 158.761845 159.114665 161.253891 159.116707"></polyline>
                        <path d="M171.998599,155.60749 C169.767876,157.784076 165.736326,159.114665 161.375752,159.116707 L161.253891,159.116707 L158.761845,159.114665 L158.753721,157.763658 L158.753044,157.594186 C158.738827,155.052795 161.01491,152.703335 164.74384,151.397247 L164.816279,151.439445 L171.928868,155.568015 L171.998599,155.60749" id="Fill-34" fill="#FFFFFF"></path>
                        <path d="M161.253891,159.116707 L159.116594,160.365624 C158.784863,160.558916 158.348873,160.656924 157.912884,160.656924 C157.483664,160.656924 157.044289,160.561639 156.713235,160.369027 L156.627933,160.315939 C156.048419,159.930715 156.155385,159.282095 156.77755,158.91865 L158.753721,157.763658 L158.761845,159.114665 L161.253891,159.116707" id="Fill-35" fill="#4FC3EE"></path>
                        <path d="M159.116594,160.365624 C159.012336,160.425517 158.895214,160.474521 158.773354,160.516038 L158.644724,160.556194 L158.481566,160.59635 C158.413189,160.610643 158.346165,160.623574 158.276434,160.631741 L158.222951,160.639909 C158.120724,160.650798 158.016465,160.656924 157.912884,160.656924 C157.812687,160.656924 157.712491,160.650798 157.612972,160.640589 L157.569643,160.635144 C157.476894,160.624255 157.386853,160.608601 157.297488,160.588863 L157.248744,160.576612 C157.168181,160.556875 157.089649,160.533053 157.013824,160.505829 L156.970496,160.490856 C156.880455,160.455464 156.793798,160.415308 156.713235,160.369027 L156.627933,160.315939 C156.368641,160.143065 156.246103,159.917103 156.24678,159.687738 L156.232563,164.618065 C156.232563,164.84743 156.354424,165.072711 156.614393,165.245586 L156.699018,165.298673 C156.774842,165.342232 156.856083,165.381707 156.941385,165.415738 L156.956956,165.420502 L157.000284,165.435475 L157.146517,165.484479 L157.234527,165.506259 L157.283948,165.51851 L157.325922,165.528719 L157.494496,165.557985 L157.556103,165.564791 L157.598755,165.569555 L157.660362,165.577042 L157.826227,165.58589 L157.898667,165.58657 L157.998186,165.585209 C158.061147,165.583167 158.123432,165.578403 158.185039,165.572278 L158.208734,165.568875 L158.262894,165.561388 L158.403034,165.54165 L158.466672,165.525996 L158.630506,165.48516 L158.719194,165.46338 L158.759814,165.445684 C158.881674,165.403487 158.998119,165.355844 159.103054,165.294589 L161.239674,164.046354 L161.253891,159.116707 L159.116594,160.365624" id="Fill-36" fill="#3BA9D1"></path>
                        <polyline id="Fill-37" fill="#1F3E9D" points="241.702109 120.516004 241.687891 125.44565 239.291979 126.849745 239.306196 121.920779 241.702109 120.516004"></polyline>
                        <polyline id="Fill-38" fill="#B6B5C3" points="239.306196 121.920779 239.291979 126.849745 235.662568 124.743943 235.676109 119.814297 239.306196 121.920779"></polyline>
                        <polyline id="Fill-39" fill="#FFFFFF" points="241.702109 120.516004 239.306196 121.920779 235.676109 119.814297 238.07676 118.411563 241.702109 120.516004"></polyline>
                        <path d="M249.618977,119.94157 L249.614915,119.955863 L249.558047,120.067483 L249.544506,120.087901 L249.449726,120.194076 L249.368486,120.25397 L249.291984,120.309099 L217.35168,138.969338 C217.243359,139.032635 217.115406,139.078236 216.982713,139.112266 L216.924491,139.12724 C216.790444,139.156506 216.649628,139.173521 216.508134,139.174202 L216.491886,139.174202 C216.343623,139.174202 216.194682,139.157186 216.054543,139.125878 L216.037618,139.121114 C215.896124,139.087764 215.762755,139.03808 215.648341,138.97138 L213.727685,137.857224 C213.491411,137.719741 213.373612,137.53938 213.374289,137.3597 L213.360072,142.289346 C213.359395,142.469027 213.477194,142.648707 213.714145,142.78619 L215.634801,143.901027 L215.806083,143.98338 L215.950284,144.033065 L216.024078,144.05076 L216.040326,144.054844 L216.07553,144.063692 L216.195359,144.084791 L216.312481,144.097722 L216.431633,144.104529 L216.478346,144.103848 L216.555525,144.103848 L216.689571,144.094319 L216.844605,144.073221 L216.910274,144.056886 L216.968496,144.041913 L217.074109,144.015369 C217.168212,143.984741 217.257576,143.945947 217.337463,143.898985 L249.277767,125.238745 L249.291984,125.229897 L249.353592,125.184297 L249.435509,125.123042 L249.442956,125.118278 L249.517426,125.037285 L249.530966,125.017548 L249.544506,124.997129 L249.565494,124.965141 L249.59799,124.896399 L249.601375,124.884829 L249.60476,124.871217 L249.617623,124.827658 L249.625747,124.757555 L249.625747,124.747346 L249.639287,119.8177 L249.618977,119.94157" id="Fill-40" fill="#D3D2DC"></path>
                        <path d="M249.286568,119.318814 C249.755054,119.591057 249.757085,120.036856 249.291984,120.309099 L217.35168,138.969338 C216.882517,139.243624 216.116827,139.243624 215.648341,138.97138 L213.727685,137.857224 C213.255814,137.582939 213.257168,137.139183 213.726331,136.864897 L245.666636,118.204658 C246.132413,117.932414 246.894041,117.930373 247.365912,118.204658 L249.286568,119.318814" id="Fill-41" fill="#FFFFFF"></path>
                        <polygon id="Path-4" fill="#92E2FF" points="104.204585 78.9931661 104.024198 57 111.645759 57 111.645759 72.4007039 155.518985 72.4007039 155.518985 78.9931661"></polygon>
                    </g>
                </g>
            </g>
        </g>
    </g>
</svg>