<?xml version="1.0" encoding="UTF-8"?>
<svg width="76px" height="110px" viewBox="0 0 76 110" version="1.1" xmlns="http://www.w3.org/2000/svg" xmlns:xlink="http://www.w3.org/1999/xlink">
    <!-- Generator: Sketch 49.3 (51167) - http://www.bohemiancoding.com/sketch -->
    <title>Group</title>
    <desc>Created with Sketch.</desc>
    <defs></defs>
    <g id="Page-1" stroke="none" stroke-width="1" fill="none" fill-rule="evenodd">
        <g id="Дизайнерський-ремонт" transform="translate(-328.000000, -908.000000)" fill="#8FCFE6" fill-rule="nonzero">
            <g id="Group-9" transform="translate(327.000000, 659.000000)">
                <g id="Group-4" transform="translate(0.000000, 94.000000)">
                    <g id="Group" transform="translate(1.000000, 155.000000)">
                        <path d="M41.9466765,21.4792334 C41.9222028,21.0627188 41.6730414,20.7153056 41.2034469,20.4334667 C40.7390259,20.1548847 40.0540237,19.8689721 39.1525424,19.5762712 L39.164248,23.3050847 C41.0813746,23.0647879 42.0035321,22.4477532 41.9466765,21.4792334 Z" id="Shape"></path>
                        <path d="M37.7542373,46.1080372 C21.2103342,46.1080372 7.14359398,40.7168781 0,32.6271186 L0,43.5782154 C0,54.8228413 17.2892793,64.3220339 37.7542373,64.3220339 C58.2191953,64.3220339 75.5084746,54.8228413 75.5084746,43.5782154 L75.5084746,32.6271186 C68.3648783,40.7168783 54.2981404,46.1080372 37.7542373,46.1080372 Z" id="Shape"></path>
                        <path d="M37.7542373,69.4123276 C21.2103342,69.4123276 7.14359398,64.0214536 0,55.9322034 L0,66.8825669 C0,78.1269212 17.2892793,87.6271186 37.7542373,87.6271186 C58.2191953,87.6271186 75.5084746,78.1269214 75.5084746,66.8825669 L75.5084746,55.9322034 C68.3648783,64.0214536 54.2981404,69.4123276 37.7542373,69.4123276 Z" id="Shape"></path>
                        <path d="M37.7542373,91.7860052 C21.2103342,91.7860052 7.14359398,86.3948365 0,78.3050847 L0,89.256183 C0,100.500802 17.2892793,110 37.7542373,110 C58.2191953,110 75.5084746,100.500802 75.5084746,89.256183 L75.5084746,78.3050847 C68.3648783,86.3948365 54.2981404,91.7860052 37.7542373,91.7860052 Z" id="Shape"></path>
                        <path d="M36.3559322,12.1186441 C35.1686685,12.2497516 34.546679,12.6392007 34.495249,13.2990577 C34.4679972,13.6482805 34.5902573,13.941037 34.8644869,14.1753915 C35.1414169,14.4118329 35.6010038,14.658404 36.2470485,14.9152542 L36.3559322,12.1186441 Z" id="Shape"></path>
                        <path d="M37.7542373,41.0169492 C58.2191996,41.0169492 75.5084746,31.6248661 75.5084746,20.5084745 C75.5084746,9.39208286 58.2191996,0 37.7542373,0 C17.2892749,0 0,9.39208538 0,20.5084747 C0,31.624864 17.2892793,41.0169492 37.7542373,41.0169492 Z M27.5159207,22.0341854 C28.6415123,22.5315113 30.0474644,22.9798364 31.7346967,23.3758029 C33.4425196,23.7766558 34.9927203,24.0176861 36.3700991,24.0952297 L36.6152808,18.939872 L35.3236222,18.5414611 C32.8314069,17.7606699 31.1498559,16.9417182 30.2508578,16.089641 C29.3802789,15.2645804 29.0745707,14.2838232 29.3050059,13.1676647 C29.5411223,12.0244884 30.367303,11.1295172 31.7583545,10.4581748 C33.107468,9.80728602 34.8732033,9.43040001 37.073229,9.3128614 L37.1448186,7.80592695 L39.2789405,7.8257702 L39.2830858,9.29149062 C41.7430443,9.38078902 43.9972993,9.71554512 46.0808796,10.3053746 L44.8566608,12.9222077 C43.0098128,12.4064116 41.1621948,12.0913479 39.2906154,11.9695351 L39.3009085,15.6144493 C41.7281393,16.3047188 43.5018664,16.9150048 44.5915092,17.4391944 C45.702504,17.9736139 46.5592558,18.5719909 47.155314,19.2379919 C47.7662682,19.920631 48.1541672,20.7372937 48.3107068,21.6992769 C48.6076577,23.5253973 48.0268126,25.0781247 46.5071788,26.3057151 C44.9214914,27.5867311 42.5223674,28.377597 39.3374691,28.6383199 L39.3506799,33.2911614 L35.932583,33.2911614 L36.1502651,28.7175448 C32.3637815,28.6403053 29.126956,28.0323104 26.5103081,26.9213425 L27.5159207,22.0341854 Z" id="Shape"></path>
                    </g>
                </g>
            </g>
        </g>
    </g>
</svg>