<?xml version="1.0" encoding="UTF-8"?>
<svg width="114px" height="110px" viewBox="0 0 114 110" version="1.1" xmlns="http://www.w3.org/2000/svg" xmlns:xlink="http://www.w3.org/1999/xlink">
    <!-- Generator: Sketch 49.3 (51167) - http://www.bohemiancoding.com/sketch -->
    <title>Shape</title>
    <desc>Created with Sketch.</desc>
    <defs></defs>
    <g id="Page-1" stroke="none" stroke-width="1" fill="none" fill-rule="evenodd">
        <g id="Дизайнерський-ремонт" transform="translate(-913.000000, -753.000000)" fill="#8FCFE6" fill-rule="nonzero">
            <g id="Group-9" transform="translate(327.000000, 659.000000)">
                <g id="Group-4" transform="translate(0.000000, 94.000000)">
                    <path d="M609.657598,104.15129 C606.842698,104.15129 604.429927,101.738519 604.429927,98.5214908 C604.429927,95.7065911 606.842698,93.2938199 609.657598,93.2938199 C612.472498,93.2938199 614.885269,95.7065911 614.885269,98.5214908 C614.885269,101.738519 612.472498,104.15129 609.657598,104.15129 Z M673.193906,54.2873521 C692.898205,55.0916092 699.332261,36.1915681 699.73439,34.5830539 C699.73439,33.3766683 699.73439,33.3766683 698.125876,32.1702827 C696.517361,30.5617686 696.115233,31.7681542 695.713104,31.7681542 L683.24712,40.6149819 C671.987521,36.5936966 673.193906,24.9319691 673.193906,24.9319691 L685.257762,16.8893984 C685.257762,16.0851414 685.257762,15.6830128 684.855634,14.8787558 C684.855634,14.8787558 684.453505,14.0744987 684.453505,14.0744987 C653.08748,5.22767094 654.695994,39.8107249 654.695994,39.8107249 C654.695994,39.8107249 650.27258,44.2341387 643.838523,50.2660668 C643.034266,49.4618097 641.023624,47.8532956 641.023624,47.8532956 C641.023624,47.8532956 639.012981,46.2447814 637.404467,47.451167 C636.60021,47.8532956 622.525711,34.1809254 628.959768,25.7362262 C628.959768,25.7362262 631.372539,22.5191979 634.187439,23.7255835 C634.187439,23.7255835 636.60021,24.127712 637.806595,22.9213264 C639.41511,21.7149408 644.240652,16.8893984 644.240652,16.8893984 C644.240652,16.8893984 638.610852,2.4127712 627.753382,0 C627.753382,0 621.319326,4.42341387 620.11294,6.83618508 C618.504426,8.84682775 620.11294,13.2702416 616.895912,15.6830128 C614.081012,17.6936555 574.270287,37.8000822 589.551171,72.7852647 C589.551171,72.7852647 594.376714,73.5895217 595.985228,71.5788791 C597.191613,69.5682364 589.9533,55.4937377 603.223541,49.0596812 C603.223541,49.0596812 617.700169,43.0277531 626.546996,55.4937377 C626.546996,55.4937377 624.536354,57.1022518 625.340611,58.710766 C625.742739,59.515023 626.546996,60.7214086 629.361896,64.3405654 C616.895912,76.0022929 604.429927,87.6640204 604.429927,88.066149 C601.212899,91.6853058 599.604385,93.6959484 599.604385,93.6959484 C599.604385,93.6959484 594.778842,100.130005 602.419284,106.96619 C609.25547,112.998118 614.885269,108.172576 614.885269,108.172576 C614.885269,108.172576 629.361896,93.6959484 643.436395,80.0235783 C653.891737,92.0874343 665.955593,104.955547 670.781135,108.574704 C670.781135,108.574704 674.802421,110.987475 679.225834,106.564062 C682.040734,104.15129 686.06202,98.9236194 686.06202,98.9236194 C686.06202,98.9236194 688.474791,95.3044626 686.06202,92.8916914 C685.257762,92.0874343 670.781135,77.6108071 658.717279,65.1448225 C664.347079,59.9171516 668.368364,55.8958662 668.770493,55.4937377 C670.379007,54.6894806 673.193906,54.2873521 673.193906,54.2873521 Z" id="Shape"></path>
                </g>
            </g>
        </g>
    </g>
</svg>