<?xml version="1.0" encoding="UTF-8"?>
<svg width="104px" height="112px" viewBox="0 0 104 112" version="1.1" xmlns="http://www.w3.org/2000/svg" xmlns:xlink="http://www.w3.org/1999/xlink">
    <!-- Generator: Sketch 49.3 (51167) - http://www.bohemiancoding.com/sketch -->
    <title>Group</title>
    <desc>Created with Sketch.</desc>
    <defs></defs>
    <g id="Page-1" stroke="none" stroke-width="1" fill="none" fill-rule="evenodd">
        <g id="Дизайнерський-ремонт" transform="translate(-910.000000, -895.000000)" fill="#8FCFE6" fill-rule="nonzero" stroke="#8FCFE6" stroke-width="3">
            <g id="Group-9" transform="translate(327.000000, 659.000000)">
                <g id="Group-4" transform="translate(0.000000, 94.000000)">
                    <g id="Group" transform="translate(631.500000, 199.000000) rotate(40.000000) translate(-631.500000, -199.000000) translate(592.000000, 139.000000)">
                        <path d="M22,108 C22.4204545,114.62069 28.3068182,120 35.0340909,120 L45.9659091,120 C52.6931818,120 58.1590909,114.62069 59,108 L22,108 Z" id="Shape"></path>
                        <path d="M48.8062827,44.5633803 C42.1884817,50.8732394 35.9842932,52.056338 31.0209424,50.4788732 C27.2984293,55.6056338 28.1256545,61.5211268 28.539267,64.2816901 C28.539267,64.6760563 28.539267,65.0704225 28.1256545,65.0704225 C28.1256545,65.4647887 27.7120419,65.8591549 27.2984293,65.4647887 L20.6806283,65.0704225 C20.2670157,65.0704225 19.8534031,64.6760563 19.8534031,64.2816901 C19.4397906,64.2816901 19.4397906,63.8873239 19.8534031,63.4929577 C21.921466,57.971831 26.8848168,51.6619718 26.8848168,51.6619718 L33.0890052,44.9577465 L45.4973822,30.7605634 C45.9109948,30.3661972 45.9109948,29.971831 45.4973822,29.5774648 C45.0837696,29.1830986 44.2565445,28.7887324 43.8429319,29.1830986 L24.8167539,44.5633803 C24.8167539,44.9577465 24.8167539,44.9577465 24.4031414,44.9577465 C24.4031414,44.9577465 24.4031414,44.5633803 24.4031414,44.5633803 C21.5078534,39.8309859 22.3350785,33.1267606 29.7801047,26.4225352 C38.4659686,18.1408451 55.4240838,14.1971831 58.3193717,16.9577465 C62.0418848,20.5070423 57.4921466,36.2816901 48.8062827,44.5633803 Z M39.7068063,0 C17.7853403,0 0,16.9577465 0,37.4647887 C0,46.1408451 3.30890052,54.4225352 8.68586387,60.7323944 C13.2356021,66.2535211 17.7853403,72.5633803 21.5078534,78.4788732 L21.5078534,84 L57.9057592,84 L57.9057592,78.4788732 C61.6282723,72.5633803 66.1780105,66.2535211 70.7277487,60.7323944 C76.104712,54.4225352 79,46.1408451 79,37.4647887 C79,16.9577465 61.6282723,0 39.7068063,0 Z" id="Shape"></path>
                        <polygon id="Shape" points="22 102 59 102 59 93 22 93"></polygon>
                    </g>
                </g>
            </g>
        </g>
    </g>
</svg>