<?xml version="1.0" encoding="UTF-8"?>
<svg width="134px" height="110px" viewBox="0 0 134 110" version="1.1" xmlns="http://www.w3.org/2000/svg" xmlns:xlink="http://www.w3.org/1999/xlink">
    <!-- Generator: Sketch 49.3 (51167) - http://www.bohemiancoding.com/sketch -->
    <title>Shape</title>
    <desc>Created with Sketch.</desc>
    <defs></defs>
    <g id="Page-1" stroke="none" stroke-width="1" fill="none" fill-rule="evenodd">
        <g id="Дизайнерський-ремонт" transform="translate(-327.000000, -753.000000)" fill="#8FCFE6" fill-rule="nonzero">
            <g id="Group-9" transform="translate(327.000000, 659.000000)">
                <g id="Group-4" transform="translate(0.000000, 94.000000)">
                    <g id="Group-2">
                        <path d="M56.215308,65.7479632 L50.852183,63.5158828 C50.4052559,63.0694667 44.5952038,60.8373862 45.0421309,53.6947288 C45.0421309,49.676984 45.489058,47.4449036 45.489058,46.1056553 C45.489058,44.319991 45.489058,43.8735749 45.489058,42.0879105 C45.0421309,39.409414 44.1482767,36.7309175 42.8074955,34.498837 C45.0421309,30.9275083 44.1482767,25.5705153 40.5728601,22.8920187 L14.2041622,1.9104626 C10.6287455,-1.21445001 4.81869343,-0.321617837 1.69020385,3.24971087 C-0.991358647,7.26745566 -0.544431564,12.6244487 3.47791218,15.7493613 L29.399683,36.7309175 C31.6343184,38.5165818 34.762808,38.9629979 37.4443705,38.5165818 C38.3382246,39.8558301 38.7851517,41.1950783 39.2320788,42.9807427 C39.2320788,43.8735749 39.2320788,44.319991 39.2320788,45.6592392 C39.2320788,46.9984875 38.7851517,49.2305679 38.7851517,53.6947288 C38.3382246,63.0694667 45.0421309,67.9800436 48.6175476,69.3192919 L49.5114017,69.765708 C35.6566622,77.8011976 24.036558,87.1759354 25.3773392,91.6400963 C28.5058288,102.800498 127.723641,115.746565 133.533693,107.264659 C138.896818,100.122002 96.4387454,56.8196414 86.1594225,55.0339771 C80.7962975,54.587561 68.2823392,59.498138 56.215308,65.7479632 Z" id="Shape"></path>
                    </g>
                </g>
            </g>
        </g>
    </g>
</svg>