<?xml version="1.0" encoding="UTF-8"?>
<svg width="457px" height="364px" viewBox="0 0 457 364" version="1.1" xmlns="http://www.w3.org/2000/svg" xmlns:xlink="http://www.w3.org/1999/xlink">
    <!-- Generator: Sketch 49.3 (51167) - http://www.bohemiancoding.com/sketch -->
    <title>Group 18</title>
    <desc>Created with Sketch.</desc>
    <defs></defs>
    <g id="Page-1" stroke="none" stroke-width="1" fill="none" fill-rule="evenodd">
        <g id="Дизайнерський-ремонт" transform="translate(-913.000000, -210.000000)">
            <g id="Group-18" transform="translate(913.000000, 210.000000)">
                <g id="Group-17">
                    <g id="All_images-19">
                        <path d="M108.117631,298.550039 L27.8455813,298.550039 L113.237459,249.142661 L153.373484,272.364901 L108.117631,298.550039 Z M195.991591,356.24494 L127.541559,356.24494 L161.772288,336.437903 L195.991591,356.24494 Z M226.052194,363.483282 L225.559491,363.763827 L107.652063,363.763827 L100.581416,359.700221 L151.282709,330.366111 L109.302975,306.070357 L7.95465625,306.070357 L0.8854375,302.006752 L109.9542,238.901343 L116.789206,238.901343 L116.849188,238.866991 L164.054431,266.18719 L200.785806,244.937351 L200.794375,244.944508 L217.3492,244.944508 L217.357769,244.937351 L217.387759,244.95739 L349.666409,236.642671 L370.05575,246.405917 L404.807744,266.516401 L440.180972,287.047701 L456.4516,298.428374 L456.447316,298.428374 L456.2231,298.560058 L455.998884,298.687448 L455.773241,298.819133 L455.549025,298.947954 L455.323381,299.079639 L455.099166,299.207029 L454.873522,299.338713 L454.649306,299.470397 L454.425091,299.597788 L454.198019,299.729472 L453.973803,299.858294 L453.748159,299.988547 L453.523944,300.120231 L453.299728,300.249052 L453.075513,300.380737 L452.849869,300.509558 L452.624225,300.639811 L452.400009,300.771496 L452.175794,300.898886 L451.951578,301.03057 L451.724506,301.159392 L451.500291,301.291076 L451.276075,301.418466 L451.051859,301.550151 L450.826216,301.681835 L450.600572,301.810657 L450.376356,301.942341 L450.152141,302.0683 L449.927925,302.199984 L449.702281,302.328806 L449.25385,302.592174 L449.029634,302.720996 L448.803991,302.851249 L448.579775,302.978639 L448.355559,303.110323 L448.129916,303.239145 L447.9057,303.372261 L447.680056,303.502514 L447.455841,303.629904 L447.231625,303.761588 L447.007409,303.89041 L446.781766,304.022094 L446.55755,304.149484 L446.336191,304.279737 L446.110547,304.40999 L445.886331,304.540243 L445.660688,304.669065 L445.436472,304.800749 L445.212256,304.928139 L444.988041,305.059824 L444.762397,305.187214 L442.076094,306.745955 L309.738891,315.060674 L226.052194,363.483282 Z" id="Fill-1" fill="#9AD8EF"></path>
                        <polyline id="Fill-2" fill="#F1F2F5" points="106.333903 242.233529 198.972088 295.834766 198.972088 302.738172 106.333903 249.135504 106.333903 242.233529"></polyline>
                        <polyline id="Fill-3" fill="#E2E4EA" points="146.482781 265.464358 198.972088 295.834766 198.972088 302.738172 149.921706 274.361636 146.482781 265.464358"></polyline>
                        <polyline id="Fill-4" fill="#FFFFFF" points="6.85642813 291.628025 109.9542 231.963585 216.722253 293.755012 113.621625 353.405139 106.54955 349.321494 198.972087 295.831903 106.338187 242.236392 13.9213625 295.708807 6.85642813 291.628025"></polyline>
                        <polyline id="Fill-5" fill="#F1F2F5" points="20.9748719 291.628025 13.9213625 295.708807 6.85642813 291.628025 20.9748719 291.628025"></polyline>
                        <polyline id="Fill-6" fill="#F1F2F5" points="157.163728 259.288077 216.722253 293.755012 154.881584 329.533065 147.813794 325.443695 198.972088 295.831903 146.485637 265.464358 157.163728 259.288077"></polyline>
                        <polyline id="Fill-7" fill="#F1F2F5" points="7.95465625 306.070357 7.95465625 194.80571 0.892578125 190.717771 0.8854375 301.991007 7.95465625 306.070357"></polyline>
                        <path d="M7.9575125,187.886558 L13.9213625,184.438433 L13.9213625,295.708807 L117.023419,236.044367 L117.023419,242.949204 L7.9518,306.070357 C7.9518,266.693888 7.9575125,227.27591 7.9575125,187.886558" id="Fill-8" fill="#E2E4EA"></path>
                        <polyline id="Fill-9" fill="#FFFFFF" points="206.215537 188.559293 107.663487 245.604361 0.88258125 183.802913 99.4517687 126.780748 206.215537 188.559293"></polyline>
                        <path d="M107.654919,245.595773 L113.618769,242.149079 L113.618769,353.419453 L216.722253,293.755012 L216.722253,300.658419 L107.649206,363.779572 C107.649206,324.404534 107.654919,284.983693 107.654919,245.595773" id="Fill-10" fill="#E2E4EA"></path>
                        <polyline id="Fill-11" fill="#FFFFFF" points="99.431775 8.52681213 119.895378 18.3244105 189.277975 58.4666527 206.209825 70.3110832 220.585331 61.9949332 204.317559 50.6156918 168.945759 30.08296 134.192337 9.97247676 113.802997 0.209230773 99.431775 8.52681213"></polyline>
                        <polyline id="Fill-12" fill="#F1F2F5" points="85.0576969 135.094035 105.525584 144.891633 174.905325 185.033875 191.837175 196.879737 206.209825 70.3110832 189.946338 58.9389986 154.574538 38.39911 119.813975 18.2929208 99.42035 8.52681213 85.0576969 135.094035"></polyline>
                        <polyline id="Fill-13" fill="#F1F2F5" points="107.652062 363.779572 107.652062 252.514924 100.588556 248.426985 100.581416 359.700221 107.652062 363.779572"></polyline>
                        <polyline id="Fill-14" fill="#E2E4EA" points="206.215538 205.165829 206.215538 188.559293 206.209825 188.563587 220.578191 62.00209 206.209825 70.3110832 191.837175 196.879737 107.652062 245.597204 107.654919 262.202308 206.215538 205.165829"></polyline>
                        <polyline id="Fill-15" fill="#F1F2F5" points="107.654919 262.202308 107.654919 245.591479 0.88258125 183.815796 0.8854375 200.4209 107.654919 262.202308"></polyline>
                    </g>
                </g>
                <g id="Group-6-Copy-7" transform="translate(51.000000, 175.000000)">
                    <g id="Page-1" transform="translate(23.000000, 18.500000) scale(-1, 1) translate(-23.000000, -18.500000) ">
                        <polygon id="Fill-1" fill="#D5DEE5" points="16.8793108 18.1398109 0 27.4978858 16.8793108 36.8619865 28.8398709 36.8619865 41.4099708 29.8901303 41.4099708 25.1056413 28.8398709 18.1398109"></polygon>
                        <polygon id="Fill-5" fill="#FDED87" points="12.1498232 9.36048521 29.0291341 18.7245859 45.9084449 9.36651101 29.0354066 0.00241032193"></polygon>
                        <polygon id="Fill-6" fill="#FFDD00" points="29.026625 18.7233807 29.026625 36.8254504 45.9059359 27.4673755 45.9059359 9.36530585"></polygon>
                        <polygon id="Fill-7" fill="#DDC001" points="12.1485687 9.36108779 29.0278796 18.7251885 29.0278796 36.8272581 12.1485687 27.4631574"></polygon>
                    </g>
                </g>
                <g id="Group-6-Copy-5" transform="translate(77.000000, 171.000000)">
                    <g id="Page-1" transform="translate(34.500000, 28.000000) scale(-1, 1) translate(-34.500000, -28.000000) ">
                        <polygon id="Fill-1" fill="#D5DEE5" points="25.3189662 27.454849 0 41.6184218 25.3189662 55.7911147 43.2598063 55.7911147 62.1149562 45.2391161 62.1149562 37.9977274 43.2598063 27.454849"></polygon>
                        <polygon id="Fill-5" fill="#FDED87" points="18.2247348 14.1672209 43.5437011 28.3399138 68.8626673 14.176341 43.5531098 0.00364805481"></polygon>
                        <polygon id="Fill-6" fill="#FFDD00" points="43.5399376 28.3380898 43.5399376 55.7358168 68.8589038 41.572244 68.8589038 14.174517"></polygon>
                        <polygon id="Fill-7" fill="#DDC001" points="18.2228531 14.1681329 43.5418193 28.3408258 43.5418193 55.7385528 18.2228531 41.5658599"></polygon>
                    </g>
                </g>
            </g>
        </g>
    </g>
</svg>