<?xml version="1.0" encoding="UTF-8"?>
<svg width="812px" height="389px" viewBox="0 0 812 389" version="1.1" xmlns="http://www.w3.org/2000/svg" xmlns:xlink="http://www.w3.org/1999/xlink">
    <!-- Generator: Sketch 50.2 (55047) - http://www.bohemiancoding.com/sketch -->
    <title>Group 2</title>
    <desc>Created with Sketch.</desc>
    <defs>
        <linearGradient x1="30.6533784%" y1="89.7487896%" x2="30.6533784%" y2="18.5887353%" id="linearGradient-1">
            <stop stop-color="#FFFFFF" offset="0%"></stop>
            <stop stop-color="#FFFFFF" stop-opacity="0" offset="100%"></stop>
        </linearGradient>
        <linearGradient x1="30.6533784%" y1="100%" x2="30.6533784%" y2="0%" id="linearGradient-2">
            <stop stop-color="#FFFFFF" offset="0%"></stop>
            <stop stop-color="#FFFFFF" stop-opacity="0" offset="100%"></stop>
        </linearGradient>
    </defs>
    <g id="Page-1" stroke="none" stroke-width="1" fill="none" fill-rule="evenodd">
        <g id="Про-комплекс" transform="translate(-229.000000, -447.000000)">
            <g id="Group-2" transform="translate(229.000000, 447.000000)">
                <g id="Group-9" transform="translate(1.000000, 51.000000)">
                    <g id="Car_mezhdu">
                        <path d="M20.3015267,328.131809 C15.1942061,331.082947 10.0868856,334.034084 4.97956507,336.985222 C3.37465305,336.058952 1.76974104,335.128375 0.160526316,334.197797 C5.26784685,331.250968 10.3751674,328.295522 15.4824879,325.344384 C17.0873999,326.270654 18.6923119,327.201232 20.3015267,328.131809 Z M51.543527,310.071709 C46.4362065,313.018539 41.3331886,315.973984 36.2258681,318.920814 C34.6166534,317.994544 33.0117414,317.068275 31.4068294,316.137697 C36.5141499,313.18656 41.6171677,310.235422 46.728791,307.279976 L51.543527,310.071709 Z M82.7855273,292.007301 C77.6825095,294.958439 72.5708863,297.909576 67.4678684,300.860714 C65.8629564,299.934444 64.2580444,299.003867 62.6531324,298.073289 C67.7561502,295.12646 72.8634708,292.171014 77.9664886,289.224185 C79.5714006,290.150454 81.1806153,291.076724 82.7855273,292.007301 Z M114.027528,273.947201 C108.92451,276.894031 103.817189,279.849476 98.7141715,282.804922 C97.1092595,281.874344 95.5000447,280.943767 93.8951327,280.013189 C98.9981506,277.062052 104.105471,274.110914 109.212792,271.159777 C110.817704,272.086046 112.422616,273.016624 114.027528,273.947201 Z M176.520134,237.822693 C171.412813,240.773831 166.305493,243.724968 161.198172,246.676106 C159.59326,245.749836 157.988348,244.819259 156.383436,243.888681 C161.486454,240.941852 166.593774,237.986406 171.701095,235.035269 C173.306007,235.961538 174.915222,236.892116 176.520134,237.822693 Z M207.762134,219.762593 C202.654814,222.709423 197.547493,225.664868 192.444475,228.611698 C190.839563,227.689737 189.234651,226.759159 187.625436,225.828581 C192.728454,222.877444 197.840078,219.926306 202.943095,216.97086 C204.548007,217.901438 206.152919,218.832016 207.762134,219.762593 Z M239.090189,201.525856 C233.978565,204.481302 228.875548,207.428131 223.768227,210.383577 C222.163315,209.452999 220.5541,208.52673 218.949188,207.596152 C224.056509,204.645015 229.163829,201.693877 234.27115,198.74274 C235.876062,199.673317 237.480974,200.599587 239.090189,201.525856 Z M269.734112,183.814723 C264.626791,186.76586 260.117548,189.368031 255.01453,192.323477 C253.405315,191.392899 251.800403,190.46663 250.195491,189.536052 C255.298509,186.584915 259.807753,183.978436 264.915073,181.02299 C266.519985,181.953568 268.1292,182.884145 269.734112,183.814723 Z M301.574189,165.405656 C296.471172,168.356794 291.363851,171.307931 286.260833,174.259069 C284.651618,173.328491 283.042404,172.40653 281.437492,171.475952 C286.544812,168.520507 291.64783,165.573677 296.755151,162.618232 C298.364365,163.548809 299.969277,164.479387 301.574189,165.405656 Z M332.820492,147.341248 C327.713172,150.296694 322.605851,153.243523 317.498531,156.198969 C315.893619,155.268391 314.288707,154.342122 312.683795,153.411544 C317.791115,150.460407 322.894133,147.509269 328.001454,144.558132 C329.606366,145.484401 331.21558,146.414979 332.820492,147.341248 Z M364.066795,129.281148 C358.955172,132.232286 353.852154,135.183423 348.744834,138.134561 C347.139922,137.208292 345.530707,136.282022 343.925795,135.351444 C349.028813,132.395999 354.140436,129.449169 359.243454,126.493724 C360.848366,127.424301 362.457581,128.354879 364.066795,129.281148 Z M395.304493,111.21674 C390.201475,114.172186 385.094155,117.119015 379.986834,120.074461 C378.381922,119.143883 376.77701,118.217614 375.172098,117.291345 C380.275116,114.335899 385.382436,111.384761 390.485454,108.433624 C392.094669,109.364201 393.699581,110.294779 395.304493,111.21674 Z M426.550796,93.1566405 C421.443476,96.1120862 416.336155,99.0632237 411.228834,102.014361 C409.623922,101.083784 408.01901,100.157514 406.409796,99.2269364 C411.521419,96.2757989 416.624437,93.3246614 421.731757,90.3692157 C423.336669,91.2997934 424.941581,92.230371 426.550796,93.1566405 Z M457.792796,75.0965406 C452.685476,78.0476781 447.582458,81.0031238 442.475138,83.9499531 C440.870226,83.0193754 439.261011,82.0974142 437.656099,81.1668366 C442.763419,78.2113908 447.866437,75.2645616 452.97806,72.3091158 C454.582972,73.2396935 456.187884,74.1702712 457.792796,75.0965406 Z M489.034797,57.0321325 C483.931779,59.9875782 478.824458,62.9344075 473.721441,65.8898532 C472.112226,64.9592756 470.507314,64.0330061 468.902402,63.1024285 C474.00542,60.151291 479.11274,57.2001535 484.220061,54.249016 C485.824973,55.1795936 487.429885,56.1058631 489.034797,57.0321325 Z M520.2811,38.9720326 C515.173779,41.9231701 510.066459,44.8743076 504.963441,47.8254451 C503.358529,46.8991757 501.753617,45.9729063 500.144402,45.0423286 C505.251723,42.0868829 510.359043,39.1400536 515.462061,36.1846078 C517.066973,37.1151855 518.676188,38.0457632 520.2811,38.9720326 Z M551.5231,20.9076245 C546.41578,23.8630702 541.312762,26.8142077 536.205441,29.7653453 C534.600529,28.8347676 532.991315,27.9084982 531.386402,26.9822287 C536.493723,24.026783 541.596741,21.0799537 546.708364,18.124508 C548.313276,19.0550856 549.918188,19.9856633 551.5231,20.9076245 Z M582.769403,2.84752464 C577.662083,5.80297037 572.559065,8.75410788 567.447442,11.7052454 C565.84253,10.7789759 564.237618,9.84839828 562.632706,8.91782061 C567.735723,5.96668311 572.843044,3.01554561 577.950364,0.0644081032 C579.559579,0.990677539 581.164491,1.9212552 582.769403,2.84752464 Z M145.273831,255.882793 C140.16651,258.833931 135.063492,261.789376 129.956172,264.736206 C128.346957,263.809936 126.742045,262.879359 125.137133,261.953089 C130.244454,259.001952 135.347471,256.050814 140.459095,253.095368 L145.273831,255.882793 Z" id="Fill-1" fill="#EDEDF3"></path>
                        <path d="M111.365431,327.121924 C106.25414,330.076356 101.142848,333.030789 96.0315572,335.985222 C94.4253975,335.057918 92.8192377,334.126301 91.2087719,333.194685 C96.3200631,330.244565 101.431354,327.285819 106.542646,324.331386 C108.148805,325.25869 109.754965,326.190307 111.365431,327.121924 Z M142.63172,309.041658 C137.520429,311.991778 132.413444,314.950523 127.302153,317.900643 C125.691687,316.973339 124.085527,316.046036 122.479367,315.114419 C127.590658,312.159986 132.697644,309.205554 137.813241,306.246808 L142.63172,309.041658 Z M173.898009,290.95708 C168.791024,293.911512 163.675427,296.865945 158.568442,299.820378 C156.962282,298.893074 155.356122,297.961457 153.749963,297.02984 C158.856948,294.079721 163.968239,291.120975 169.075224,288.170855 C170.681384,289.098159 172.29185,290.025463 173.898009,290.95708 Z M205.164299,272.876814 C200.057314,275.826934 194.946022,278.785679 189.839037,281.744425 C188.232877,280.812808 186.622412,279.881192 185.016252,278.949575 C190.123237,275.995142 195.234528,273.04071 200.345819,270.086277 C201.951979,271.013581 203.558139,271.945197 205.164299,272.876814 Z M267.705489,236.71197 C262.594198,239.666403 257.482907,242.620835 252.371616,245.575268 C250.765456,244.647964 249.159296,243.716348 247.553136,242.784731 C252.660122,239.834611 257.771413,236.875865 262.882704,233.921433 C264.488864,234.848736 266.09933,235.780353 267.705489,236.71197 Z M298.971779,218.631704 C293.860487,221.581824 288.749196,224.54057 283.642211,227.49069 C282.036051,226.567699 280.429892,225.636082 278.819426,224.704465 C283.926411,221.750033 289.042008,218.7956 294.148993,215.836854 C295.755153,216.768471 297.361313,217.700088 298.971779,218.631704 Z M330.324189,200.374604 C325.208592,203.33335 320.101607,206.28347 314.990315,209.242215 C313.384156,208.310599 311.77369,207.383295 310.16753,206.451678 C315.278821,203.497246 320.390113,200.542813 325.501404,197.58838 C327.107563,198.519997 328.713723,199.447301 330.324189,200.374604 Z M360.991936,182.643695 C355.880645,185.598128 351.367896,188.203204 346.260911,191.16195 C344.650445,190.230333 343.044285,189.303029 341.438125,188.371413 C346.545111,185.41698 351.05786,182.807591 356.169151,179.848845 C357.775311,180.780462 359.385776,181.712078 360.991936,182.643695 Z M392.856768,164.214073 C387.749782,167.168506 382.638491,170.122939 377.531506,173.077371 C375.92104,172.145755 374.310575,171.222764 372.704415,170.291147 C377.815706,167.332401 382.922691,164.382282 388.033982,161.423536 C389.644448,162.355153 391.250608,163.28677 392.856768,164.214073 Z M424.127363,146.129495 C419.016072,149.08824 413.904781,152.03836 408.793489,154.997106 C407.18733,154.065489 405.58117,153.138185 403.97501,152.206569 C409.086301,149.252136 414.193286,146.297703 419.304578,143.343271 C420.910737,144.270574 422.521203,145.202191 424.127363,146.129495 Z M455.397958,128.049229 C450.282361,131.003662 445.175376,133.958095 440.064085,136.912527 C438.457925,135.985224 436.847459,135.05792 435.241299,134.126303 C440.348285,131.167557 445.463882,128.217438 450.570867,125.258692 C452.177027,126.190309 453.787492,127.121926 455.397958,128.049229 Z M486.659941,109.964651 C481.552956,112.923396 476.441665,115.873516 471.330374,118.832262 C469.724214,117.900645 468.118054,116.973341 466.511895,116.046038 C471.61888,113.087292 476.730171,110.132859 481.837156,107.178427 C483.447622,108.110043 485.053782,109.04166 486.659941,109.964651 Z M517.930537,91.8843851 C512.819246,94.8431309 507.707954,97.7975636 502.596663,100.751996 C500.990503,99.8203795 499.384344,98.8930759 497.773878,97.9614591 C502.889475,95.0070264 507.99646,92.0525937 513.107752,89.093848 C514.713911,90.0254647 516.320071,90.9570815 517.930537,91.8843851 Z M549.196826,73.8041196 C544.085535,76.7585523 538.97855,79.7172981 533.867259,82.6674177 C532.261099,81.735801 530.650633,80.8128103 529.044473,79.8811936 C534.155764,76.9224479 539.26275,73.9723282 544.378347,71.0135825 C545.984507,71.9451992 547.590666,72.8768159 549.196826,73.8041196 Z M580.463115,55.7195411 C575.35613,58.6782868 570.244839,61.6284065 565.137854,64.5871522 C563.527388,63.6555355 561.921228,62.7282318 560.315069,61.7966151 C565.422054,58.8421824 570.533345,55.8877497 575.644636,52.933317 C577.250796,53.8649337 578.856956,54.7922374 580.463115,55.7195411 Z M611.733711,37.6392756 C606.62242,40.5937083 601.511128,43.548141 596.404143,46.5025737 C594.797983,45.57527 593.191824,44.6479663 591.581358,43.7163496 C596.692649,40.7576038 601.80394,37.8074842 606.910925,34.8487384 C608.517085,35.7803551 610.127551,36.7119719 611.733711,37.6392756 Z M643,19.554697 C637.888709,22.5134428 632.781724,25.4678755 627.670432,28.4223082 C626.064273,27.4906914 624.453807,26.5633877 622.847647,25.636084 C627.958938,22.6773383 633.065924,19.7272186 638.181521,16.7684729 C639.787681,17.7000896 641.39384,18.6317064 643,19.554697 Z M236.434894,254.792235 C231.323603,257.746668 226.216618,260.705414 221.105326,263.655534 C219.494861,262.72823 217.888701,261.796613 216.282541,260.869309 C221.393832,257.914877 226.500817,254.960444 231.616415,252.001698 L236.434894,254.792235 Z" id="Fill-1" fill="#E6E6EF"></path>
                        <g id="Car" transform="translate(0.000000, 28.586207)">
                            <rect id="Rectangle-2" fill="url(#linearGradient-1)" x="0" y="67.8144997" width="556.264912" height="241.1855"></rect>
                            <rect id="Rectangle-2" fill="url(#linearGradient-2)" transform="translate(470.076920, 103.814500) scale(1, -1) translate(-470.076920, -103.814500) " x="236.15998" y="-2.27373675e-13" width="467.83388" height="207.628999"></rect>
                        </g>
                        <path d="M425,156.595361 C399.207024,171.434708 373.41491,186.280069 347.679687,201.08677 C321.946187,215.89433 296.146316,230.739691 270.405921,245.546392 C267.942387,246.121993 265.445236,246.687285 262.941189,247.244845 L263.881607,247.786082 L255.954855,252.34622 L257.539171,253.258591 L256.249651,254 L243.788893,254 L240.169447,251.916667 L241.458966,251.175258 L253.919724,251.175258 L259.381218,248.033505 L259.379494,248.033505 C247.991899,249.004296 236.487937,249.975086 224.985699,250.951031 C221.992911,250.951031 219.000984,250.951031 216.003024,250.951031 C215.532384,251.221649 215.054848,251.497423 214.584207,251.768041 C213.146428,251.768041 211.707786,251.768041 210.270006,251.768041 L171,229.170962 L319.364563,143.795533 L319.411109,143.787801 C326.478469,140.542096 333.481181,137.270619 340.476996,134 C355.566788,134 370.648822,134 385.730856,134 L425,156.595361" id="Fill-1" fill="#EBEBF2"></path>
                    </g>
                </g>
                <path d="M170.986862,79 C258.869141,87.6355379 326.473316,80.0627583 373.799388,56.2816612 C444.788495,20.6100154 455.018192,1.45714927 510.273981,0.303942837 C565.52977,-0.8492636 585.883074,21.6225138 634.868712,56.2816612 C683.854351,90.9408086 767.14448,79 812.320934,79 C842.43857,79 628.660546,79 170.986862,79 Z" id="Path-14" fill="#FFFFFF"></path>
                <g id="Group-9-Copy-3" transform="translate(439.000000, 213.000000)">
                    <g id="All_images-22">
                        <polyline id="Fill-1" fill="#F4F4F4" points="116.4558 101.130705 45.9858 90.222377 33.7122 97.2432787 19.0218 97.2432787 14.7504 99.735623 19.0218 102.228574 33.7122 102.228574 48.1308 110.645164 116.4558 101.130705"></polyline>
                        <polyline id="Fill-2" fill="#9C9C9C" points="19.0218 102.228574 19.0218 71.9680328 23.292 69.4756885 23.292 99.735623 19.0218 102.228574"></polyline>
                        <polyline id="Fill-3" fill="#B8B8B8" points="19.0218 102.228574 19.0218 85.5894918 14.7504 83.0971475 14.7504 99.7362295 19.0218 102.228574"></polyline>
                        <polyline id="Fill-4" fill="#9C9C9C" points="19.0218 88.5798197 19.0218 71.9680328 14.7504 69.4756885 14.7504 86.0862623 19.0218 88.5798197"></polyline>
                        <polyline id="Fill-5" fill="#2DFC9D" points="19.0218 0.596245902 19.0218 82.2892131 0.3324 71.3796721 19.0218 0.596245902"></polyline>
                        <polyline id="Fill-6" fill="#1CAC7A" points="19.0212 0.596245902 19.0212 82.2898197 37.1472 71.7090328 19.0212 0.596245902"></polyline>
                    </g>
                </g>
                <g id="Group-5-Copy" transform="translate(0.000000, 52.000000)">
                    <g id="Group-6-Copy-2">
                        <g id="Page-1" transform="translate(49.000000, 50.000000) scale(-1, 1) translate(-49.000000, -50.000000) ">
                            <polygon id="Fill-1" fill="#F4F4F4" points="18.1917895 78.4013951 0 88.9578669 18.1917895 99.5211361 61.0823626 99.5211361 74.6298713 91.6564627 78.9902222 91.6564627 83.6345029 88.9578669 78.9902222 86.259271 74.6298713 86.259271 61.0823626 78.4013951"></polygon>
                            <polygon id="Fill-2" fill="#AAAAAA" points="74.3445895 88.9605858 78.9888702 91.6591817 78.9888702 73.6526822 74.3445895 70.9540864"></polygon>
                            <polygon id="Fill-3" fill="#D2D2D2" points="78.9868421 73.6540417 78.9868421 91.6605411 83.637883 88.9619453 83.637883 70.9554459"></polygon>
                            <polygon id="Fill-5" fill="#2DFC9D" points="60.7977567 10.5591907 78.9895462 21.12246 97.1813357 10.5659882 78.9963064 0.00271898822"></polygon>
                            <polygon id="Fill-6" fill="#2DC689" points="78.9868421 21.1211005 78.9868421 81.5193948 97.1786316 70.9629231 97.1786316 10.5646287"></polygon>
                            <polygon id="Fill-7" fill="#1CAC7A" points="60.7964047 10.5598705 78.9881942 21.1231397 78.9881942 81.5214341 60.7964047 70.9581648"></polygon>
                        </g>
                    </g>
                </g>
                <g id="Group-6-Copy-3" transform="translate(129.000000, 31.000000)">
                    <g id="Page-1" transform="translate(38.500000, 39.500000) scale(-1, 1) translate(-38.500000, -39.500000) ">
                        <polygon id="Fill-1" fill="#F4F4F4" points="20.5995263 54.6244316 0 66.538164 20.5995263 78.4595679 35.1962047 78.4595679 50.5367661 69.5837222 55.4742222 69.5837222 60.7331871 66.538164 55.4742222 63.4926059 50.5367661 63.4926059 35.1962047 54.6244316"></polygon>
                        <polygon id="Fill-2" fill="#AAAAAA" points="50.2137263 66.5412326 55.4726912 69.5867907 55.4726912 49.2651699 50.2137263 46.2196118"></polygon>
                        <polygon id="Fill-3" fill="#D2D2D2" points="55.4703947 49.2667042 55.4703947 69.588325 60.7370146 66.5427669 60.7370146 46.221146"></polygon>
                        <polygon id="Fill-5" fill="#2DFC9D" points="34.8739304 11.916801 55.4734567 23.8382048 76.072983 11.9244724 55.4811117 0.00306857242"></polygon>
                        <polygon id="Fill-6" fill="#2DC689" points="55.4703947 23.8366705 55.4703947 58.143317 76.0699211 46.2295846 76.0699211 11.9229381"></polygon>
                        <polygon id="Fill-7" fill="#1CAC7A" points="34.8723994 11.9175681 55.4719257 23.838972 55.4719257 58.1456185 34.8723994 46.2242146"></polygon>
                    </g>
                </g>
                <g id="Group-31" transform="translate(181.000000, 133.000000)">
                    <g id="All_images-24">
                        <polyline id="Fill-2" fill="#212A28" points="125.435447 57.2629846 153.638458 73.5014333 153.638458 89.0521957 125.435447 72.8113648 125.435447 57.2629846"></polyline>
                        <polyline id="Fill-3" fill="#FFDD00" points="11.2030199 88.6742065 10.0127338 87.9881084 3.37818302 91.8077054 4.56767287 92.4945975 11.2030199 88.6742065"></polyline>
                        <polyline id="Fill-4" fill="#EFC700" points="3.37738684 104.659339 4.56846905 103.974035 4.56846905 93.8667937 11.203816 90.0464027 11.2030199 88.6742065 4.56846905 92.4945975 4.56846905 92.4938035 3.37738684 93.1806956 3.37738684 104.659339"></polyline>
                        <path d="M145.539736,94.0303773 C146.339099,94.4885701 147.445786,94.421072 148.669511,93.7182979 C149.890052,93.0155239 150.999924,91.8053231 151.798491,90.4228037 C152.597057,89.0418725 153.094668,87.4798876 153.094668,86.0727513 C153.094668,84.6640267 152.59865,83.6737903 151.798491,83.2140093 C150.622536,82.5390285 149.835912,82.0816298 148.654384,81.4050609 C147.853429,80.9405153 146.747538,81.0088075 145.525405,81.7123756 C144.303272,82.4151497 143.194992,83.6253505 142.395629,85.0110463 C141.596267,86.3927716 141.097859,87.9539623 141.097859,89.3610987 C141.097859,90.768235 141.594674,91.7592656 142.395629,92.2198407 C143.585119,92.9043506 144.359004,93.3530142 145.539736,94.0303773" id="Fill-5" fill="#090D05"></path>
                        <path d="M148.669511,83.5221181 C146.223653,84.9292545 144.241966,88.3565685 144.241966,91.1716353 C144.241966,93.985908 146.223653,95.1278166 148.669511,93.719092 C151.112982,92.3119557 153.095465,88.8878181 153.095465,86.0727513 C153.095465,83.2584786 151.112982,82.1149818 148.669511,83.5221181" id="Fill-6" fill="#282828"></path>
                        <path d="M148.669511,86.0131941 C147.418716,86.7326442 146.405181,88.4852119 146.405181,89.924112 C146.405181,91.3646004 147.418716,91.946672 148.669511,91.228016 C149.919511,90.5077719 150.933045,88.7567924 150.933045,87.3170981 C150.933045,85.878198 149.919511,85.2945382 148.669511,86.0131941" id="Fill-7" fill="#EFC700"></path>
                        <path d="M148.669511,86.596854 C147.698971,87.1551028 146.911551,88.5153875 146.911551,89.6326792 C146.911551,90.7507649 147.698971,91.202605 148.669511,90.6443562 C149.639256,90.0861074 150.426676,88.7258227 150.426676,87.608531 C150.426676,86.4912393 149.639256,86.0378111 148.669511,86.596854" id="Fill-8" fill="#000000"></path>
                        <path d="M148.669511,87.2059248 C147.990372,87.5958255 147.441009,88.5463572 147.441009,89.3277467 C147.441009,90.1083421 147.990372,90.425186 148.669511,90.0352853 C149.347059,89.6437965 149.897218,88.6940589 149.897218,87.9134635 C149.897218,87.132074 149.347059,86.8152301 148.669511,87.2059248" id="Fill-9" fill="#EFC700"></path>
                        <polyline id="Fill-10" fill="#000000" points="193.591463 53.8197887 192.684617 54.340715 188.208504 51.7638767 189.116943 51.2429504 193.591463 53.8197887"></polyline>
                        <polyline id="Fill-11" fill="#212A28" points="48.4729056 101.583809 76.6751208 117.822258 76.6751208 133.373814 48.4729056 117.132983 48.4729056 101.583809"></polyline>
                        <polyline id="Fill-12" fill="#000000" points="26.9323113 116.643027 57.9490155 134.504605 57.9490155 144.150477 26.9323113 126.289693 26.9323113 116.643027"></polyline>
                        <path d="M68.5708255,138.351202 C69.3709843,138.810188 70.4784679,138.743485 71.700601,138.039916 C72.9227341,137.337142 74.0302177,136.127736 74.8303765,134.744422 C75.6297392,133.362697 76.1265542,131.801506 76.1265542,130.39437 C76.1265542,128.984851 75.6297392,127.994615 74.8303765,127.534834 C73.6544217,126.859853 72.8677979,126.403248 71.6862698,125.726679 C70.8853148,125.262134 69.7802198,125.329632 68.5572905,126.033994 C67.3351573,126.736768 66.2260815,127.946175 65.4267188,129.331076 C64.62656,130.71439 64.1305411,132.274787 64.1305411,133.682717 C64.1305411,135.089853 64.6257638,136.080884 65.4267188,136.540665 C66.6170048,137.225175 67.3900936,137.673044 68.5708255,138.351202" id="Fill-13" fill="#090D05"></path>
                        <path d="M71.700601,127.843737 C69.2571309,129.250873 67.2730555,132.678187 67.2730555,135.493254 C67.2730555,138.30832 69.2571309,139.448641 71.700601,138.04071 C74.1448673,136.63278 76.1273504,133.209436 76.1273504,130.39437 C76.1273504,127.579303 74.1448673,126.4366 71.700601,127.843737" id="Fill-14" fill="#282828"></path>
                        <polyline id="Fill-15" fill="#FFE164" points="4.96655802 120.662735 41.2404252 141.549816 41.2404252 153.771732 4.96655802 132.884652 4.96655802 120.662735"></polyline>
                        <path d="M12.411618,132.593219 L7.42834023,129.725742 L6.65843615,127.751622 L6.65843615,123.300719 L11.5230834,126.100698 L12.411618,128.382927 L12.411618,132.593219 Z M40.3343747,144.256886 L40.3343747,148.672848 L35.4561924,145.86334 L34.6862883,143.890014 L34.6862883,139.439906 L39.5501394,142.239091 L40.3343747,144.256886 Z" id="Fill-16" fill="#EFC700"></path>
                        <polyline id="Fill-17" fill="#FFE97D" points="4.96655802 120.662735 41.2404252 141.549816 45.8845311 111.850663 49.9991788 103.338759 13.7269039 82.450884 9.61146015 90.9627883 4.96655802 120.662735"></polyline>
                        <polyline id="Fill-18" fill="#EFC700" points="10.3009503 91.3669826 10.5310457 89.0609308 9.61146015 90.9627883 10.3009503 91.3669826"></polyline>
                        <path d="M192.685413,21.089575 L49.9991788,103.338759 L45.8845311,111.850663 L41.2404252,141.549816 L41.2404252,149.757582 L39.9203622,150.518325 L39.9203622,154.538828 L66.7197118,139.10718 L66.7197118,135.34317 C66.7197118,132.185054 68.9482138,128.332105 71.6934354,126.749474 L71.6942316,126.750268 L71.6950278,126.74868 C74.4402493,125.169225 76.6695476,126.454864 76.6695476,129.61298 L76.6751208,133.373814 L143.68703,94.7831793 L143.68703,91.0207572 C143.68703,87.8618473 145.916328,84.0096925 148.66155,82.4270611 L148.662346,82.4286493 L148.663142,82.426267 C151.408364,80.8468121 153.636866,82.1324519 153.636866,85.2905677 L153.638458,89.0521957 L176.972045,75.6153142 L192.685413,62.7946504 L192.685413,21.089575" id="Fill-19" fill="#EFC700"></path>
                        <polyline id="Fill-20" fill="#2D3836" points="4.96655802 120.662735 41.2404252 141.549816 46.6671741 124.72612 45.8845311 111.850663 9.61146015 90.9627883 4.96655802 120.662735"></polyline>
                        <path d="M33.2682954,141.844425 L33.2682954,143.636698 L12.939484,131.930943 L12.939484,130.138671 L33.2682954,141.844425 Z M33.2682954,139.468493 L12.939484,127.761945 L12.939484,129.554217 L33.2682954,141.260766 L33.2682954,139.468493 Z" id="Fill-21" fill="#EFC700"></path>
                        <path d="M33.2682954,141.844425 L33.2682954,143.181681 L13.3343882,131.703038 L13.3343882,130.365782 L33.2682954,141.844425 Z M33.2682954,139.468493 L13.3343882,127.990644 L13.3343882,129.327106 L33.2682954,140.805749 L33.2682954,139.468493 Z" id="Fill-22" fill="#000000"></path>
                        <polyline id="Fill-23" fill="#FFDD00" points="41.2428137 149.7552 39.9203622 150.518325 3.64729117 129.632038 4.96894655 128.868119 41.2428137 149.7552"></polyline>
                        <polyline id="Fill-24" fill="#FFE164" points="3.64649499 129.632038 39.9203622 150.518325 39.9203622 154.538828 3.64649499 133.650953 3.64649499 129.632038"></polyline>
                        <path d="M33.3662253,147.642113 L38.228484,150.442092 L38.6735475,151.583207 L38.6735475,153.809055 L33.8096964,151.00987 L33.3662253,149.867961 L33.3662253,147.642113 Z M10.6472877,135.44402 L10.6472877,137.669868 L5.78423277,134.870683 L5.3391693,133.728775 L5.3391693,131.502132 L10.2030204,134.302905 L10.6472877,135.44402 Z" id="Fill-25" fill="#EFC700"></path>
                        <polyline id="Fill-26" fill="#FFE164" points="33.7818302 139.961626 38.6440889 142.761605 38.6440889 147.212508 33.7818302 144.411735 33.7818302 139.961626"></polyline>
                        <polyline id="Fill-27" fill="#EFC700" points="39.5501394 142.239091 38.6440889 142.761605 38.6440889 147.212508 39.5501394 146.689993 39.5501394 142.239091"></polyline>
                        <polyline id="Fill-28" fill="#FFDD00" points="34.6862883 139.4407 39.5501394 142.239091 38.6440889 142.761605 33.7802378 139.961626 34.6862883 139.4407"></polyline>
                        <polyline id="Fill-29" fill="#FFE164" points="5.75477419 123.823234 10.6178291 126.622418 10.6178291 131.073321 5.75477419 128.272548 5.75477419 123.823234"></polyline>
                        <polyline id="Fill-30" fill="#EFC700" points="11.5230834 126.100698 10.6178291 126.622418 10.6178291 131.073321 11.5230834 130.550806 11.5230834 126.100698"></polyline>
                        <polyline id="Fill-31" fill="#FFDD00" points="6.66002851 123.300719 11.5230834 126.100698 10.6178291 126.622418 5.75397801 123.823234 6.66002851 123.300719"></polyline>
                        <polyline id="Fill-32" fill="#FFE164" points="32.9124039 147.90337 37.7762549 150.703349 37.7762549 152.929198 32.9124039 150.128425 32.9124039 147.90337"></polyline>
                        <polyline id="Fill-33" fill="#EFC700" points="38.228484 150.442092 37.7762549 150.703349 37.7762549 152.929198 38.228484 152.66794 38.228484 150.442092"></polyline>
                        <polyline id="Fill-34" fill="#FFDD00" points="33.364633 147.642907 38.228484 150.442092 37.7762549 150.703349 32.9100154 147.90337 33.364633 147.642907"></polyline>
                        <path d="M71.700601,130.334813 C70.4506016,131.054263 69.4370671,132.805242 69.4370671,134.24573 C69.4370671,135.685425 70.4506016,136.267496 71.700601,135.54884 C72.9506004,134.82939 73.9649311,133.078411 73.9649311,131.638717 C73.9649311,130.199816 72.9506004,129.615362 71.700601,130.334813" id="Fill-35" fill="#EFC700"></path>
                        <path d="M71.700601,130.917678 C70.7300601,131.475927 69.9434363,132.836212 69.9434363,133.954298 C69.9434363,135.072383 70.7300601,135.525017 71.700601,134.966769 C72.6711419,134.407726 73.4585619,133.047441 73.4585619,131.929355 C73.4585619,130.812858 72.6711419,130.358635 71.700601,130.917678" id="Fill-36" fill="#000000"></path>
                        <path d="M71.700601,131.527543 C71.0222574,131.917444 70.4728946,132.867976 70.4728946,133.649365 C70.4728946,134.42996 71.0222574,134.74601 71.700601,134.35611 C72.3789446,133.965415 72.9291036,133.015677 72.9291036,132.234288 C72.9291036,131.453692 72.3789446,131.136848 71.700601,131.527543" id="Fill-37" fill="#EFC700"></path>
                        <polyline id="Fill-38" fill="#FFDD00" points="12.939484 129.554217 13.7284963 129.554217 33.2682954 140.805749 33.2682954 141.260766 12.939484 129.554217"></polyline>
                        <polyline id="Fill-39" fill="#FFDD00" points="12.939484 131.930943 13.7284963 131.930943 33.2682954 143.181681 33.2682954 143.636698 12.939484 131.930943"></polyline>
                        <polyline id="Fill-40" fill="#212A28" points="45.8845311 111.850663 41.2404252 141.549816 50.2300704 136.327053 56.9338887 129.086495 188.35739 53.454505 188.35739 29.8095322 45.8845311 111.850663"></polyline>
                        <polyline id="Fill-41" fill="#FFDD00" points="156.412342 0.202494225 192.684617 21.089575 49.9991788 103.338759 13.7269039 82.450884 156.412342 0.202494225"></polyline>
                        <polyline id="Fill-42" fill="#7F7F7F" points="6.26990132 120.041753 40.3303938 139.654311 44.581984 112.47244 10.5206954 92.857499 6.26990132 120.041753"></polyline>
                        <polyline id="Fill-43" fill="#605F5F" points="174.17348 39.3489955 187.165511 31.8678265 187.165511 52.2625684 174.17348 59.7453256 174.17348 39.3489955"></polyline>
                        <polyline id="Fill-44" fill="#605F5F" points="137.038944 60.7315916 153.595464 51.197687 153.595464 71.5956053 137.038944 81.1295099 137.038944 60.7315916"></polyline>
                        <polyline id="Fill-45" fill="#605F5F" points="99.9044085 82.1149818 116.460929 72.5810772 116.460929 92.9789955 99.9044085 102.5129 99.9044085 82.1149818"></polyline>
                        <polyline id="Fill-46" fill="#605F5F" points="81.9187487 92.473157 97.3128493 83.6094686 97.3128493 104.00421 81.9187487 112.868693 81.9187487 92.473157"></polyline>
                        <polyline id="Fill-47" fill="#605F5F" points="119.053284 71.0881786 134.446589 62.2244902 134.446589 82.6192321 119.053284 91.4837146 119.053284 71.0881786"></polyline>
                        <polyline id="Fill-48" fill="#605F5F" points="156.18782 49.7039943 171.581124 40.8395118 171.581124 61.2342537 156.18782 70.0987362 156.18782 49.7039943"></polyline>
                        <polyline id="Fill-49" fill="#605F5F" points="57.5246527 106.519903 79.3263934 93.9652615 79.3263934 114.361592 57.5246527 126.916234 57.5246527 106.519903"></polyline>
                        <polyline id="Fill-50" fill="#605F5F" points="46.9744987 112.595524 42.8088957 139.227882 49.4776822 135.388433 54.9322973 129.497836 54.9322973 108.012802 46.9744987 112.595524"></polyline>
                        <polyline id="Fill-51" fill="#FFDD00" points="48.6663769 110.248974 47.4760909 109.562876 40.84154 113.382472 42.0310299 114.069365 48.6663769 110.248974"></polyline>
                        <polyline id="Fill-52" fill="#EFC700" points="42.0326222 115.441561 42.0318261 114.069365 48.6663769 110.248974 48.6663769 111.62117 42.0326222 115.441561"></polyline>
                        <polyline id="Fill-53" fill="#EFC700" points="47.7842117 109.739959 47.4760909 109.562876 46.7746581 109.965482 47.7842117 109.739959"></polyline>
                        <polyline id="Fill-54" fill="#EFC700" points="42.9928128 127.472894 44.1838951 126.78759 44.1838951 115.308153 42.9928128 115.992663 42.9928128 127.472894"></polyline>
                        <polyline id="Fill-55" fill="#FFDD00" points="39.6504578 114.067776 40.84154 113.382472 44.1838951 115.308153 42.9928128 115.992663 39.6504578 114.067776"></polyline>
                        <polyline id="Fill-56" fill="#FFE164" points="39.6504578 114.067776 39.6504578 125.547214 42.9928128 127.472894 42.9928128 115.992663 39.6504578 114.067776"></polyline>
                        <polyline id="Fill-57" fill="#FFDD00" points="0.0342356516 91.2550153 1.22531786 90.5697113 4.56846905 92.4938035 3.37738684 93.1806956 0.0342356516 91.2550153"></polyline>
                        <polyline id="Fill-58" fill="#FFE164" points="0.0342356516 91.2550153 0.0342356516 102.734453 3.37738684 104.659339 3.37738684 93.1806956 0.0342356516 91.2550153"></polyline>
                        <polyline id="Fill-59" fill="#000000" points="193.591463 53.8189946 192.685413 54.3415091 192.685413 59.4959798 193.591463 58.9726712 193.591463 53.8189946"></polyline>
                        <polyline id="Fill-60" fill="#EFC700" points="46.1647858 75.4175845 62.1393001 85.3024791 63.3303823 85.3024791 72.8630208 79.8144886 55.6966281 69.9287999 46.1647858 75.4175845"></polyline>
                        <path d="M44.9744997,74.2296184 C48.8550711,76.4649959 58.2794294,81.8926352 62.1393001,84.114513 L71.6719386,78.6257284 L54.5063421,68.7408338 L44.9744997,74.2296184" id="Fill-61" fill="#FFE97D"></path>
                        <polyline id="Fill-62" fill="#EFC700" points="62.1393001 85.3024791 62.1393001 84.114513 71.6719386 78.6257284 71.6719386 79.8129004 62.1393001 85.3024791"></polyline>
                        <polyline id="Fill-63" fill="#FFE164" points="62.1393001 85.3024791 62.1393001 84.114513 44.9744997 74.2296184 44.9744997 75.4175845 62.1393001 85.3024791"></polyline>
                        <polyline id="Fill-64" fill="#EFC700" points="65.2300628 64.4400153 81.203781 74.3249098 82.3956593 74.3249098 91.9275017 68.8353311 74.7627014 58.9512306 65.2300628 64.4400153"></polyline>
                        <path d="M64.0381845,63.2528432 C67.9195519,65.4874266 77.3447065,70.9150659 81.203781,73.1361496 L90.7364195,67.647365 L73.5716192,57.7632645 L64.0381845,63.2528432" id="Fill-65" fill="#FFE97D"></path>
                        <polyline id="Fill-66" fill="#EFC700" points="81.203781 74.3249098 81.203781 73.1361496 90.7364195 67.647365 90.7364195 68.8353311 81.203781 74.3249098"></polyline>
                        <polyline id="Fill-67" fill="#FFE164" points="81.203781 74.3249098 81.203781 73.1361496 64.0381845 63.2528432 64.0381845 64.4400153 81.203781 74.3249098"></polyline>
                        <polyline id="Fill-68" fill="#EFC700" points="84.2945437 53.46324 100.269058 63.3465464 101.46014 63.3465464 110.991983 57.8577618 93.8271823 47.9736613 84.2945437 53.46324"></polyline>
                        <path d="M83.1034615,52.2752739 C86.9840328,54.5098573 96.4091873,59.9367025 100.269058,62.1593744 L109.8009,56.6697957 L92.6361001,46.7856952 L83.1034615,52.2752739" id="Fill-69" fill="#FFE97D"></path>
                        <polyline id="Fill-70" fill="#EFC700" points="100.269058 63.3465464 100.269058 62.1593744 109.8009 56.6697957 109.8009 57.8577618 100.269058 63.3465464"></polyline>
                        <polyline id="Fill-71" fill="#FFE164" points="100.269058 63.3465464 100.269058 62.1593744 83.1034615 52.2752739 83.1034615 53.462446 100.269058 63.3465464"></polyline>
                        <polyline id="Fill-72" fill="#EFC700" points="103.359821 42.4856708 119.333539 52.3697712 120.524621 52.3697712 130.05726 46.8801925 112.891663 36.996092 103.359821 42.4856708"></polyline>
                        <path d="M102.167942,41.2977046 C106.04931,43.532288 115.473668,48.9591332 119.333539,51.1818051 L128.866177,45.6930205 L111.700581,35.8081259 L102.167942,41.2977046" id="Fill-73" fill="#FFE97D"></path>
                        <polyline id="Fill-74" fill="#EFC700" points="119.333539 52.3697712 119.333539 51.1818051 128.866177 45.6930205 128.866177 46.8801925 119.333539 52.3697712"></polyline>
                        <polyline id="Fill-75" fill="#FFE164" points="119.333539 52.3697712 119.333539 51.1818051 102.167942 41.2977046 102.167942 42.4848767 119.333539 52.3697712"></polyline>
                        <polyline id="Fill-76" fill="#EFC700" points="122.424302 31.5081015 138.398816 41.3922019 139.589102 41.3922019 149.122537 35.9034173 131.95694 26.0177286 122.424302 31.5081015"></polyline>
                        <path d="M121.233219,30.3193412 C125.113791,32.5539246 134.538945,37.9815639 138.398816,40.2042358 L147.930658,34.7146571 L130.765062,24.8297625 L121.233219,30.3193412" id="Fill-77" fill="#FFE97D"></path>
                        <polyline id="Fill-78" fill="#EFC700" points="138.398816 41.3922019 138.398816 40.2042358 147.930658 34.7146571 147.930658 35.9026232 138.398816 41.3922019"></polyline>
                        <polyline id="Fill-79" fill="#FFE164" points="138.398816 41.3922019 138.398816 40.2042358 121.233219 30.3193412 121.233219 31.5073074 138.398816 41.3922019"></polyline>
                        <polyline id="Fill-80" fill="#EFC700" points="141.488783 20.5297381 157.463297 30.4146326 158.654379 30.4146326 168.187018 24.9250539 151.021421 15.0401593 141.488783 20.5297381"></polyline>
                        <path d="M140.298497,19.3417719 C144.179068,21.5771494 153.604222,27.0039946 157.463297,29.2258724 L166.995935,23.7370878 L149.830339,13.8521932 L140.298497,19.3417719" id="Fill-81" fill="#FFE97D"></path>
                        <polyline id="Fill-82" fill="#EFC700" points="157.463297 30.4146326 157.463297 29.2258724 166.995935 23.7370878 166.995935 24.9250539 157.463297 30.4146326"></polyline>
                        <polyline id="Fill-83" fill="#FFE164" points="157.463297 30.4146326 157.463297 29.2258724 140.298497 19.3417719 140.298497 20.528944 157.463297 30.4146326"></polyline>
                        <path d="M7.0501557,110.788958 C8.16321247,111.430587 9.27786159,112.072216 10.3909184,112.71305 C10.8821602,111.292414 11.3718096,109.871778 11.8638476,108.44876 C12.3527008,107.032095 12.8463311,105.609076 13.3415538,104.187646 C12.8327961,102.052325 12.3216499,99.9098567 11.8160769,97.7777116 C11.3120962,95.6447724 10.8049309,93.5038923 10.3009503,91.3669826 C10.071651,91.235957 9.84314793,91.1041372 9.61384868,90.9731115 C9.47770226,91.8458219 9.34235201,92.7161501 9.20700175,93.5856841 C9.76353014,95.9433521 10.3200585,98.3002261 10.8805678,100.656306 C10.3909184,100.375196 9.90524981,100.094881 9.41878509,99.8145653 C8.69107845,101.909388 7.96576034,103.999446 7.24601548,106.091886 C7.07244868,107.199649 6.89967807,108.307411 6.72690746,109.411997 C6.82961441,109.871778 6.93948697,110.329971 7.0501557,110.788958" id="Fill-84" fill="#212A28"></path>
                        <path d="M7.66162036,111.141536 L10.3909184,112.71305 C10.8821602,111.292414 11.3718096,109.871778 11.8638476,108.44876 C12.3527008,107.032095 12.8463311,105.609076 13.3415538,104.187646 C12.8327961,102.052325 12.3216499,99.9098567 11.8160769,97.7777116 L10.6727654,92.9456435 L10.5206954,92.857499 L9.92913515,96.644538 L10.8805678,100.656306 L9.43152393,99.8225062 L7.66162036,111.141536" id="Fill-85" fill="#605F5F"></path>
                        <path d="M175.061218,73.9723316 L175.061218,75.3532629 L177.909943,73.7126626 L177.909943,72.3325255 L175.061218,73.9723316 Z M44.4729076,149.175511 L44.4729076,150.555648 L47.3208362,148.915047 L47.3208362,147.53491 L44.4729076,149.175511 Z" id="Fill-86" fill="#B25019"></path>
                        <polyline id="Fill-87" fill="#B25019" points="50.9426496 103.993887 50.9426496 105.374024 53.7913743 103.734218 53.7913743 102.353287 50.9426496 103.993887"></polyline>
                        <polyline id="Fill-88" fill="#B25019" points="78.662381 88.0301955 78.662381 89.4119208 81.5111056 87.7705264 81.5111056 86.3903893 78.662381 88.0301955"></polyline>
                        <polyline id="Fill-89" fill="#B25019" points="106.382908 72.0680918 106.382908 73.4482289 109.232429 71.8084228 109.232429 70.4274916 106.382908 72.0680918"></polyline>
                        <polyline id="Fill-90" fill="#B25019" points="134.103436 56.1051941 134.103436 57.4853312 136.952161 55.8455251 136.952161 54.4645938 134.103436 56.1051941"></polyline>
                        <polyline id="Fill-91" fill="#B25019" points="161.823963 40.1422964 161.823963 41.5232276 164.672688 39.8818332 164.672688 38.5016961 161.823963 40.1422964"></polyline>
                        <polyline id="Fill-92" fill="#B25019" points="189.545287 24.1793987 189.545287 25.5595358 192.394012 23.9197296 192.394012 22.5387984 189.545287 24.1793987"></polyline>
                        <polyline id="Fill-93" fill="#FFE164" points="5.75477419 123.823234 10.6178291 126.622418 10.6178291 131.073321 5.75477419 128.272548 5.75477419 123.823234"></polyline>
                        <polyline id="Fill-94" fill="#FFE164" points="4.8877364 131.764184 9.74999511 134.563368 9.74999511 136.790011 4.8877364 133.989238 4.8877364 131.764184"></polyline>
                        <polyline id="Fill-95" fill="#EFC700" points="10.2038165 134.302111 9.74999511 134.563368 9.74999511 136.790011 10.2038165 136.528754 10.2038165 134.302111"></polyline>
                        <polyline id="Fill-96" fill="#FFDD00" points="5.3391693 131.502132 10.2038165 134.302111 9.74999511 134.563368 4.88614405 131.764184 5.3391693 131.502132"></polyline>
                    </g>
                </g>
            </g>
        </g>
    </g>
</svg>