<?xml version="1.0" encoding="UTF-8"?>
<svg width="320px" height="438px" viewBox="0 0 320 438" version="1.1" xmlns="http://www.w3.org/2000/svg" xmlns:xlink="http://www.w3.org/1999/xlink">
    <!-- Generator: Sketch 50.2 (55047) - http://www.bohemiancoding.com/sketch -->
    <title>Group 26</title>
    <desc>Created with Sketch.</desc>
    <defs>
        <linearGradient x1="32.9191608%" y1="89.1655376%" x2="31.6096542%" y2="42.1274701%" id="linearGradient-1">
            <stop stop-color="#FFFFFF" offset="0%"></stop>
            <stop stop-color="#FFFFFF" stop-opacity="0" offset="100%"></stop>
        </linearGradient>
        <linearGradient x1="33.0314588%" y1="78.3946963%" x2="33.0314577%" y2="7.5705589%" id="linearGradient-2">
            <stop stop-color="#FFFFFF" offset="0%"></stop>
            <stop stop-color="#FFFFFF" stop-opacity="0" offset="100%"></stop>
        </linearGradient>
    </defs>
    <g id="Page-1" stroke="none" stroke-width="1" fill="none" fill-rule="evenodd">
        <g id="Mobile-Про-комплекс" transform="translate(0.000000, -408.000000)">
            <g id="Group-26" transform="translate(-141.000000, 408.000000)">
                <g id="Group-3" transform="translate(0.000000, 81.000000)">
                    <polygon id="Path-18" fill="#E8E8F0" points="23 357 23 314.860245 565 0 565 42.7580216"></polygon>
                    <path d="M392,156.557216 C376.564833,165.460825 361.130182,174.368041 345.729576,183.252062 C330.330002,192.136598 314.890709,201.043814 299.487008,209.927835 C298.012767,210.273196 296.518409,210.612371 295.019924,210.946907 L295.582694,211.271649 L290.839126,214.007732 L291.78722,214.555155 L291.015539,215 L283.558708,215 L281.39274,213.75 L282.164421,213.305155 L289.621252,213.305155 L292.889548,211.420103 L292.888516,211.420103 C286.073893,212.002577 279.189632,212.585052 272.306403,213.170619 C270.515443,213.170619 268.724998,213.170619 266.930943,213.170619 C266.6493,213.33299 266.363531,213.498454 266.081888,213.660825 C265.221484,213.660825 264.360565,213.660825 263.500161,213.660825 L240,200.102577 L328.785093,148.87732 L328.812947,148.87268 C333.042234,146.925258 337.232833,144.962371 341.419305,143 C350.449416,143 359.474886,143 368.500355,143 L392,156.557216" id="Fill-1" fill="#EBEBF2"></path>
                    <rect id="Rectangle-2" fill="url(#linearGradient-1)" transform="translate(355.500000, 124.500000) scale(1, -1) translate(-355.500000, -124.500000) " x="166" y="42" width="379" height="165"></rect>
                    <rect id="Rectangle-2" fill="url(#linearGradient-2)" x="0" y="123" width="466" height="234"></rect>
                    <g id="Group-31" transform="translate(245.000000, 112.000000)">
                        <g id="All_images-24">
                            <polyline id="Fill-2" fill="#212A28" points="75.0026382 34.3577908 91.8662945 44.10086 91.8662945 53.4313174 75.0026382 43.6868189 75.0026382 34.3577908"></polyline>
                            <polyline id="Fill-3" fill="#FFDD00" points="6.69871291 53.2045239 5.98699549 52.792865 2.01994449 55.0846232 2.73118584 55.4967585 6.69871291 53.2045239"></polyline>
                            <polyline id="Fill-4" fill="#EFC700" points="2.01946842 62.7956033 2.7316619 62.3844209 2.7316619 56.3200762 6.69918897 54.0278416 6.69871291 53.2045239 2.7316619 55.4967585 2.7316619 55.4962821 2.01946842 55.9084174 2.01946842 62.7956033"></polyline>
                            <path d="M87.0237596,56.4182264 C87.5017291,56.6931421 88.1634596,56.6526432 88.8951718,56.2309788 C89.6249797,55.8093143 90.2886145,55.0831939 90.7661079,54.2536822 C91.2436013,53.4251235 91.541142,52.4879326 91.541142,51.6436508 C91.541142,50.798416 91.2445534,50.2042742 90.7661079,49.9284056 C90.0629596,49.5234171 89.5926073,49.2489779 88.8861266,48.8430365 C88.407205,48.5643092 87.7459505,48.6052845 87.0151905,49.0274254 C86.2844305,49.4490898 85.6217477,50.1752103 85.1437783,51.0066278 C84.6658089,51.8356629 84.3677921,52.7723774 84.3677921,53.6166592 C84.3677921,54.460941 84.6648568,55.0555593 85.1437783,55.3319044 C85.8550197,55.7426103 86.317755,56.0118085 87.0237596,56.4182264" id="Fill-5" fill="#090D05"></path>
                            <path d="M88.8951718,50.1132709 C87.4326996,50.9575527 86.2477734,53.0139411 86.2477734,54.7029812 C86.2477734,56.3915448 87.4326996,57.0766899 88.8951718,56.2314552 C90.3562158,55.3871734 91.541618,53.3326908 91.541618,51.6436508 C91.541618,49.9550872 90.3562158,49.2689891 88.8951718,50.1132709" id="Fill-6" fill="#282828"></path>
                            <path d="M88.8951718,51.6079165 C88.1472734,52.0395865 87.5412425,53.0911271 87.5412425,53.9544672 C87.5412425,54.8187602 88.1472734,55.1680032 88.8951718,54.7368096 C89.6425941,54.3046631 90.2486251,53.2540754 90.2486251,52.3902589 C90.2486251,51.5269188 89.6425941,51.1767229 88.8951718,51.6079165" id="Fill-7" fill="#EFC700"></path>
                            <path d="M88.8951718,51.9581124 C88.3148484,52.2930617 87.8440199,53.1092325 87.8440199,53.7796075 C87.8440199,54.450459 88.3148484,54.721563 88.8951718,54.3866137 C89.4750192,54.0516644 89.9458476,53.2354936 89.9458476,52.5651186 C89.9458476,51.8947436 89.4750192,51.6226867 88.8951718,51.9581124" id="Fill-8" fill="#000000"></path>
                            <path d="M88.8951718,52.3235549 C88.4890882,52.5574953 88.1606033,53.1278143 88.1606033,53.596648 C88.1606033,54.0650052 88.4890882,54.2551116 88.8951718,54.0211712 C89.3003033,53.7862779 89.6292643,53.2164353 89.6292643,52.7480781 C89.6292643,52.2792444 89.3003033,52.0891381 88.8951718,52.3235549" id="Fill-9" fill="#EFC700"></path>
                            <polyline id="Fill-10" fill="#000000" points="115.75572 32.2918732 115.213482 32.604429 112.537044 31.058326 113.080234 30.7457703 115.75572 32.2918732"></polyline>
                            <polyline id="Fill-11" fill="#212A28" points="28.9837992 60.9502854 45.8469794 70.6933546 45.8469794 80.0242885 28.9837992 70.2797899 28.9837992 60.9502854"></polyline>
                            <polyline id="Fill-12" fill="#000000" points="16.1038563 69.9858159 34.6499268 80.7027632 34.6499268 86.4902864 16.1038563 75.7738156 16.1038563 69.9858159"></polyline>
                            <path d="M41.0011122,83.0107209 C41.4795576,83.2861131 42.1417643,83.2460907 42.8725243,82.8239498 C43.6032843,82.4022854 44.265491,81.6766413 44.7439365,80.8466533 C45.2219059,80.0176181 45.5189706,79.0809036 45.5189706,78.2366218 C45.5189706,77.3909106 45.2219059,76.7967687 44.7439365,76.5209001 C44.0407882,76.1159117 43.5704358,75.8419489 42.8639551,75.4360076 C42.3850336,75.1572802 41.7242551,75.1977791 40.993019,75.6203964 C40.262259,76.0420609 39.5991003,76.7677049 39.1211308,77.5986459 C38.6426853,78.428634 38.3460967,79.364872 38.3460967,80.2096302 C38.3460967,81.053912 38.6422093,81.6485304 39.1211308,81.924399 C39.8328482,82.3351049 40.2951075,82.6038267 41.0011122,83.0107209" id="Fill-13" fill="#090D05"></path>
                            <path d="M42.8725243,76.7062419 C41.4114803,77.5505237 40.2251259,79.6069121 40.2251259,81.2959522 C40.2251259,82.9849923 41.4114803,83.6691845 42.8725243,82.8244263 C44.3340444,81.979668 45.5194466,79.9256619 45.5194466,78.2366218 C45.5194466,76.5475817 44.3340444,75.8619601 42.8725243,76.7062419" id="Fill-14" fill="#282828"></path>
                            <polyline id="Fill-15" fill="#FFE164" points="2.96969449 72.3976413 24.6592233 84.9298897 24.6592233 92.2630394 2.96969449 79.730791 2.96969449 72.3976413"></polyline>
                            <path d="M7.42137982,79.5559312 L4.44168797,77.835445 L3.98133296,76.6509729 L3.98133296,73.9804314 L6.8900911,75.6604188 L7.42137982,77.0297562 L7.42137982,79.5559312 Z M24.1174612,86.5541317 L24.1174612,89.203709 L21.2006099,87.5180042 L20.7402549,86.3340085 L20.7402549,83.6639435 L23.648537,85.3434544 L24.1174612,86.5541317 Z" id="Fill-16" fill="#EFC700"></path>
                            <polyline id="Fill-17" fill="#FFE97D" points="2.96969449 72.3976413 24.6592233 84.9298897 27.4361114 67.1103979 29.8964162 62.0032553 8.20783947 49.4705304 5.74705865 54.577673 2.96969449 72.3976413"></polyline>
                            <polyline id="Fill-18" fill="#EFC700" points="6.15933108 54.8201896 6.29691391 53.4365585 5.74705865 54.577673 6.15933108 54.8201896"></polyline>
                            <path d="M115.213958,12.653745 L29.8964162,62.0032553 L27.4361114,67.1103979 L24.6592233,84.9298897 L24.6592233,89.8545493 L23.8699073,90.3109951 L23.8699073,92.7232969 L39.8942607,83.464308 L39.8942607,81.2059018 C39.8942607,79.3110323 41.226767,76.999263 42.8682397,76.0496842 L42.8687158,76.0501606 L42.8691919,76.0492077 C44.5106645,75.1015347 45.843647,75.8729186 45.843647,77.7677881 L45.8469794,80.0242885 L85.915956,56.8699076 L85.915956,54.6124543 C85.915956,52.7171084 87.2489385,50.4058155 88.8904112,49.4562367 L88.8908872,49.4571896 L88.8913633,49.4557602 C90.532836,48.5080872 91.8653424,49.2794711 91.8653424,51.1743406 L91.8662945,53.4313174 L105.818336,45.3691885 L115.213958,37.6767902 L115.213958,12.653745" id="Fill-19" fill="#EFC700"></path>
                            <polyline id="Fill-20" fill="#2D3836" points="2.96969449 72.3976413 24.6592233 84.9298897 27.9040835 74.8356717 27.4361114 67.1103979 5.74705865 54.577673 2.96969449 72.3976413"></polyline>
                            <path d="M19.8923828,85.1066553 L19.8923828,86.1820187 L7.73701103,79.1585661 L7.73701103,78.0832026 L19.8923828,85.1066553 Z M19.8923828,83.6810959 L7.73701103,76.6571668 L7.73701103,77.7325303 L19.8923828,84.7564594 L19.8923828,83.6810959 Z" id="Fill-21" fill="#EFC700"></path>
                            <path d="M19.8923828,85.1066553 L19.8923828,85.9090089 L7.97313935,79.0218229 L7.97313935,78.2194693 L19.8923828,85.1066553 Z M19.8923828,83.6810959 L7.97313935,76.7943865 L7.97313935,77.5962636 L19.8923828,84.4834495 L19.8923828,83.6810959 Z" id="Fill-22" fill="#000000"></path>
                            <polyline id="Fill-23" fill="#FFDD00" points="24.6606515 89.8531199 23.8699073 90.3109951 2.18085451 77.7792231 2.97112268 77.3208714 24.6606515 89.8531199"></polyline>
                            <polyline id="Fill-24" fill="#FFE164" points="2.18037845 77.7792231 23.8699073 90.3109951 23.8699073 92.7232969 2.18037845 80.190572 2.18037845 77.7792231"></polyline>
                            <path d="M19.9509388,88.5852679 L22.8582688,90.2652552 L23.1243892,90.949924 L23.1243892,92.2854329 L20.2161071,90.605922 L19.9509388,89.9207768 L19.9509388,88.5852679 Z M6.36641942,81.2664119 L6.36641942,82.6019208 L3.45861341,80.9224099 L3.19249298,80.2372647 L3.19249298,78.9012793 L6.10077506,80.5817432 L6.36641942,81.2664119 Z" id="Fill-25" fill="#EFC700"></path>
                            <polyline id="Fill-26" fill="#FFE164" points="20.1994449 83.9769757 23.1067748 85.6569631 23.1067748 88.3275046 20.1994449 86.6470408 20.1994449 83.9769757"></polyline>
                            <polyline id="Fill-27" fill="#EFC700" points="23.648537 85.3434544 23.1067748 85.6569631 23.1067748 88.3275046 23.648537 88.0139959 23.648537 85.3434544"></polyline>
                            <polyline id="Fill-28" fill="#FFDD00" points="20.7402549 83.66442 23.648537 85.3434544 23.1067748 85.6569631 20.1984927 83.9769757 20.7402549 83.66442"></polyline>
                            <polyline id="Fill-29" fill="#FFE164" points="3.440999 74.2939401 6.34880501 75.973451 6.34880501 78.6439925 3.440999 76.9635287 3.440999 74.2939401"></polyline>
                            <polyline id="Fill-30" fill="#EFC700" points="6.8900911 75.6604188 6.34880501 75.973451 6.34880501 78.6439925 6.8900911 78.3304838 6.8900911 75.6604188"></polyline>
                            <polyline id="Fill-31" fill="#FFDD00" points="3.98228509 73.9804314 6.8900911 75.6604188 6.34880501 75.973451 3.44052293 74.2939401 3.98228509 73.9804314"></polyline>
                            <polyline id="Fill-32" fill="#FFE164" points="19.6795817 88.7420222 22.5878638 90.4220096 22.5878638 91.7575186 19.6795817 90.0770547 19.6795817 88.7420222"></polyline>
                            <polyline id="Fill-33" fill="#EFC700" points="22.8582688 90.2652552 22.5878638 90.4220096 22.5878638 91.7575186 22.8582688 91.6007642 22.8582688 90.2652552"></polyline>
                            <polyline id="Fill-34" fill="#FFDD00" points="19.9499867 88.5857443 22.8582688 90.2652552 22.5878638 90.4220096 19.6781535 88.7420222 19.9499867 88.5857443"></polyline>
                            <path d="M42.8725243,78.2008875 C42.125102,78.6325576 41.5190711,79.6831453 41.5190711,80.5474383 C41.5190711,81.4112548 42.125102,81.7604978 42.8725243,81.3293042 C43.6199466,80.8976342 44.2264536,79.8470465 44.2264536,78.9832299 C44.2264536,78.1198898 43.6199466,77.7692175 42.8725243,78.2008875" id="Fill-35" fill="#EFC700"></path>
                            <path d="M42.8725243,78.550607 C42.2922009,78.8855562 41.8218485,79.7017271 41.8218485,80.3725785 C41.8218485,81.04343 42.2922009,81.3150105 42.8725243,80.9800612 C43.4528477,80.6446355 43.9236762,79.8284646 43.9236762,79.1576132 C43.9236762,78.4877146 43.4528477,78.2151812 42.8725243,78.550607" id="Fill-36" fill="#000000"></path>
                            <path d="M42.8725243,78.9165259 C42.4669168,79.1504663 42.1384318,79.7207854 42.1384318,80.189619 C42.1384318,80.6579763 42.4669168,80.8476062 42.8725243,80.6136658 C43.2781318,80.3792489 43.6070929,79.8094064 43.6070929,79.3405727 C43.6070929,78.8722154 43.2781318,78.6821091 42.8725243,78.9165259" id="Fill-37" fill="#EFC700"></path>
                            <polyline id="Fill-38" fill="#FFDD00" points="7.73701103 77.7325303 8.2087916 77.7325303 19.8923828 84.4834495 19.8923828 84.7564594 7.73701103 77.7325303"></polyline>
                            <polyline id="Fill-39" fill="#FFDD00" points="7.73701103 79.1585661 8.2087916 79.1585661 19.8923828 85.9090089 19.8923828 86.1820187 7.73701103 79.1585661"></polyline>
                            <polyline id="Fill-40" fill="#212A28" points="27.4361114 67.1103979 24.6592233 84.9298897 30.0344751 81.7962321 34.0429437 77.4518971 112.626068 32.072703 112.626068 17.8857193 27.4361114 67.1103979"></polyline>
                            <polyline id="Fill-41" fill="#FFDD00" points="93.5249055 0.121496535 115.213482 12.653745 29.8964162 62.0032553 8.20783947 49.4705304 93.5249055 0.121496535"></polyline>
                            <polyline id="Fill-42" fill="#7F7F7F" points="3.74901316 72.0250519 24.1150808 83.7925869 26.6572688 67.4834638 6.29072506 55.7144994 3.74901316 72.0250519"></polyline>
                            <polyline id="Fill-43" fill="#605F5F" points="104.144967 23.6093973 111.913398 19.1206959 111.913398 31.357541 104.144967 35.8471954 104.144967 23.6093973"></polyline>
                            <polyline id="Fill-44" fill="#605F5F" points="81.9408119 36.438955 91.840587 30.7186122 91.840587 42.9573632 81.9408119 48.6777059 81.9408119 36.438955"></polyline>
                            <polyline id="Fill-45" fill="#605F5F" points="59.7366566 49.2689891 69.6364317 43.5486463 69.6364317 55.7873973 59.7366566 61.50774 59.7366566 49.2689891"></polyline>
                            <polyline id="Fill-46" fill="#605F5F" points="48.9823446 55.4838942 58.1870645 50.1656811 58.1870645 62.4025263 48.9823446 67.7212158 48.9823446 55.4838942"></polyline>
                            <polyline id="Fill-47" fill="#605F5F" points="71.1864999 42.6529072 80.3907437 37.3346941 80.3907437 49.5715393 71.1864999 54.8902288 71.1864999 42.6529072"></polyline>
                            <polyline id="Fill-48" fill="#605F5F" points="93.3906551 29.8223966 102.594899 24.5037071 102.594899 36.7405522 93.3906551 42.0592417 93.3906551 29.8223966"></polyline>
                            <polyline id="Fill-49" fill="#605F5F" points="34.3961841 63.9119421 47.4322764 56.3791569 47.4322764 68.616955 34.3961841 76.1497401 34.3961841 63.9119421"></polyline>
                            <polyline id="Fill-50" fill="#605F5F" points="28.0878446 67.5573146 25.5970717 83.5367295 29.5845935 81.2330599 32.8461159 77.6987018 32.8461159 64.8076812 28.0878446 67.5573146"></polyline>
                            <polyline id="Fill-51" fill="#FFDD00" points="29.0994831 66.1493842 28.3877657 65.7377253 24.4207147 68.0294835 25.131956 68.4416188 29.0994831 66.1493842"></polyline>
                            <polyline id="Fill-52" fill="#EFC700" points="25.1329081 69.2649365 25.1324321 68.4416188 29.0994831 66.1493842 29.0994831 66.9727018 25.1329081 69.2649365"></polyline>
                            <polyline id="Fill-53" fill="#EFC700" points="28.5720029 65.8439752 28.3877657 65.7377253 27.9683523 65.979289 28.5720029 65.8439752"></polyline>
                            <polyline id="Fill-54" fill="#EFC700" points="25.7070427 76.4837365 26.4192362 76.0725541 26.4192362 69.1848917 25.7070427 69.5955976 25.7070427 76.4837365"></polyline>
                            <polyline id="Fill-55" fill="#FFDD00" points="23.7085212 68.4406659 24.4207147 68.0294835 26.4192362 69.1848917 25.7070427 69.5955976 23.7085212 68.4406659"></polyline>
                            <polyline id="Fill-56" fill="#FFE164" points="23.7085212 68.4406659 23.7085212 75.3283283 25.7070427 76.4837365 25.7070427 69.5955976 23.7085212 68.4406659"></polyline>
                            <polyline id="Fill-57" fill="#FFDD00" points="0.020470802 54.7530092 0.732664286 54.3418268 2.7316619 55.4962821 2.01946842 55.9084174 0.020470802 54.7530092"></polyline>
                            <polyline id="Fill-58" fill="#FFE164" points="0.020470802 54.7530092 0.020470802 61.6406716 2.01946842 62.7956033 2.01946842 55.9084174 0.020470802 54.7530092"></polyline>
                            <polyline id="Fill-59" fill="#000000" points="115.75572 32.2913968 115.213958 32.6049055 115.213958 35.6975879 115.75572 35.3836027 115.75572 32.2913968"></polyline>
                            <polyline id="Fill-60" fill="#EFC700" points="27.6036863 45.2505507 37.1554578 51.1814875 37.8676513 51.1814875 43.5675794 47.8886931 33.3031385 41.9572799 27.6036863 45.2505507"></polyline>
                            <path d="M26.8919689,44.5377711 C29.2123105,45.8789975 34.8474939,49.1355811 37.1554578,50.4687078 L42.855386,47.175437 L32.5914211,41.2445003 L26.8919689,44.5377711" id="Fill-61" fill="#FFE97D"></path>
                            <polyline id="Fill-62" fill="#EFC700" points="37.1554578 51.1814875 37.1554578 50.4687078 42.855386 47.175437 42.855386 47.8877402 37.1554578 51.1814875"></polyline>
                            <polyline id="Fill-63" fill="#FFE164" points="37.1554578 51.1814875 37.1554578 50.4687078 26.8919689 44.5377711 26.8919689 45.2505507 37.1554578 51.1814875"></polyline>
                            <polyline id="Fill-64" fill="#EFC700" points="39.0035427 38.6640092 48.5548381 44.5949459 49.2675076 44.5949459 54.9669598 41.3011986 44.7034709 35.3707384 39.0035427 38.6640092"></polyline>
                            <path d="M38.2908732,37.9517059 C40.6116909,39.2924559 46.2473503,42.5490395 48.5548381,43.8816898 L54.2547663,40.588419 L43.9912774,34.6579587 L38.2908732,37.9517059" id="Fill-65" fill="#FFE97D"></path>
                            <polyline id="Fill-66" fill="#EFC700" points="48.5548381 44.5949459 48.5548381 43.8816898 54.2547663 40.588419 54.2547663 41.3011986 48.5548381 44.5949459"></polyline>
                            <polyline id="Fill-67" fill="#FFE164" points="48.5548381 44.5949459 48.5548381 43.8816898 38.2908732 37.9517059 38.2908732 38.6640092 48.5548381 44.5949459"></polyline>
                            <polyline id="Fill-68" fill="#EFC700" points="50.4029231 32.077944 59.9546945 38.0079279 60.666888 38.0079279 66.3663401 34.7146571 56.1028513 28.7841968 50.4029231 32.077944"></polyline>
                            <path d="M49.6907296,31.3651644 C52.0110712,32.7059144 57.6467306,35.9620215 59.9546945,37.2956246 L65.6541466,34.0018774 L55.3906578,28.0714171 L49.6907296,31.3651644" id="Fill-69" fill="#FFE97D"></path>
                            <polyline id="Fill-70" fill="#EFC700" points="59.9546945 38.0079279 59.9546945 37.2956246 65.6541466 34.0018774 65.6541466 34.7146571 59.9546945 38.0079279"></polyline>
                            <polyline id="Fill-71" fill="#FFE164" points="59.9546945 38.0079279 59.9546945 37.2956246 49.6907296 31.3651644 49.6907296 32.0774676 59.9546945 38.0079279"></polyline>
                            <polyline id="Fill-72" fill="#EFC700" points="61.8027794 25.4914025 71.3540748 31.4218627 72.0662683 31.4218627 77.7661965 28.1281155 67.5022316 22.1976552 61.8027794 25.4914025"></polyline>
                            <path d="M61.0901099,24.7786228 C63.4109276,26.1193728 69.0461109,29.3754799 71.3540748,30.7090831 L77.054003,27.4158123 L66.7900381,21.4848755 L61.0901099,24.7786228" id="Fill-73" fill="#FFE97D"></path>
                            <polyline id="Fill-74" fill="#EFC700" points="71.3540748 31.4218627 71.3540748 30.7090831 77.054003 27.4158123 77.054003 28.1281155 71.3540748 31.4218627"></polyline>
                            <polyline id="Fill-75" fill="#FFE164" points="71.3540748 31.4218627 71.3540748 30.7090831 61.0901099 24.7786228 61.0901099 25.490926 71.3540748 31.4218627"></polyline>
                            <polyline id="Fill-76" fill="#EFC700" points="73.2021598 18.9048609 82.7539312 24.8353212 83.4656486 24.8353212 89.1660529 21.5420504 78.902088 15.6106372 73.2021598 18.9048609"></polyline>
                            <path d="M72.4899663,18.1916047 C74.8103079,19.5323547 80.4459673,22.7889383 82.7539312,24.1225415 L88.4533833,20.8287942 L78.1894184,14.8978575 L72.4899663,18.1916047" id="Fill-77" fill="#FFE97D"></path>
                            <polyline id="Fill-78" fill="#EFC700" points="82.7539312 24.8353212 82.7539312 24.1225415 88.4533833 20.8287942 88.4533833 21.5415739 82.7539312 24.8353212"></polyline>
                            <polyline id="Fill-79" fill="#FFE164" points="82.7539312 24.8353212 82.7539312 24.1225415 72.4899663 18.1916047 72.4899663 18.9043844 82.7539312 24.8353212"></polyline>
                            <polyline id="Fill-80" fill="#EFC700" points="84.6015401 12.3178428 94.1533115 18.2487796 94.865505 18.2487796 100.565433 14.9550323 90.3014683 9.02409559 84.6015401 12.3178428"></polyline>
                            <path d="M83.8898227,11.6050632 C86.2101643,12.9462896 91.8458237,16.2023968 94.1533115,17.5355235 L99.8532397,14.2422527 L89.5892748,8.31131592 L83.8898227,11.6050632" id="Fill-81" fill="#FFE97D"></path>
                            <polyline id="Fill-82" fill="#EFC700" points="94.1533115 18.2487796 94.1533115 17.5355235 99.8532397 14.2422527 99.8532397 14.9550323 94.1533115 18.2487796"></polyline>
                            <polyline id="Fill-83" fill="#FFE164" points="94.1533115 18.2487796 94.1533115 17.5355235 83.8898227 11.6050632 83.8898227 12.3173664 94.1533115 18.2487796"></polyline>
                            <path d="M4.21555702,66.4733749 C4.88109612,66.8583522 5.54758734,67.2433294 6.21312644,67.6278302 C6.50685865,66.7754486 6.79963872,65.9230671 7.09384699,65.0692561 C7.386151,64.2192568 7.6813114,63.3654459 7.97742393,62.5125879 C7.6732183,61.231395 7.36758446,59.945914 7.06528308,58.666627 C6.76393383,57.3868635 6.46068033,56.1023354 6.15933108,54.8201896 C6.02222431,54.7415742 5.88559361,54.6624823 5.74848684,54.5838669 C5.6670797,55.1074932 5.58614862,55.62969 5.50521754,56.1514104 C5.83798709,57.5660113 6.17075664,58.9801357 6.50590652,60.3937836 C6.21312644,60.2251178 5.92272669,60.0569285 5.63185088,59.8887392 C5.19672732,61.1456327 4.76303195,62.3996676 4.33266905,63.6551318 C4.22888684,64.3197893 4.1255807,64.9844468 4.02227456,65.6471985 C4.08368697,65.9230671 4.14938396,66.1979828 4.21555702,66.4733749" id="Fill-84" fill="#212A28"></path>
                            <path d="M4.58117506,66.6849218 L6.21312644,67.6278302 C6.50685865,66.7754486 6.79963872,65.9230671 7.09384699,65.0692561 C7.386151,64.2192568 7.6813114,63.3654459 7.97742393,62.5125879 C7.6732183,61.231395 7.36758446,59.945914 7.06528308,58.666627 L6.38165351,55.7673861 L6.29072506,55.7144994 L5.93700865,57.9867228 L6.50590652,60.3937836 L5.63946792,59.8935037 L4.58117506,66.6849218" id="Fill-85" fill="#605F5F"></path>
                            <path d="M104.67578,44.383399 L104.67578,45.2119577 L106.379141,44.2275975 L106.379141,43.3995153 L104.67578,44.383399 Z M26.5920479,89.5053063 L26.5920479,90.3333886 L28.294933,89.3490284 L28.294933,88.5209462 L26.5920479,89.5053063 Z" id="Fill-86" fill="#B25019"></path>
                            <polyline id="Fill-87" fill="#B25019" points="30.4605534 62.3963324 30.4605534 63.2244146 32.1639145 62.2405309 32.1639145 61.4119722 30.4605534 62.3963324"></polyline>
                            <polyline id="Fill-88" fill="#B25019" points="47.0352381 52.8181173 47.0352381 53.6471525 48.7385992 52.6623158 48.7385992 51.8342336 47.0352381 52.8181173"></polyline>
                            <polyline id="Fill-89" fill="#B25019" points="63.6103989 43.2408551 63.6103989 44.0689374 65.3142361 43.0850537 65.3142361 42.2564949 63.6103989 43.2408551"></polyline>
                            <polyline id="Fill-90" fill="#B25019" points="80.1855596 33.6631165 80.1855596 34.4911987 81.8889208 33.507315 81.8889208 32.6787563 80.1855596 33.6631165"></polyline>
                            <polyline id="Fill-91" fill="#B25019" points="96.7607204 24.0853778 96.7607204 24.9139366 98.4640816 23.9290999 98.4640816 23.1010177 96.7607204 24.0853778"></polyline>
                            <polyline id="Fill-92" fill="#B25019" points="113.336357 14.5076392 113.336357 15.3357215 115.039718 14.3518378 115.039718 13.5232791 113.336357 14.5076392"></polyline>
                            <polyline id="Fill-93" fill="#FFE164" points="3.440999 74.2939401 6.34880501 75.973451 6.34880501 78.6439925 3.440999 76.9635287 3.440999 74.2939401"></polyline>
                            <polyline id="Fill-94" fill="#FFE164" points="2.92256404 79.0585101 5.82989398 80.7380211 5.82989398 82.0740065 2.92256404 80.3935426 2.92256404 79.0585101"></polyline>
                            <polyline id="Fill-95" fill="#EFC700" points="6.10125113 80.5812667 5.82989398 80.7380211 5.82989398 82.0740065 6.10125113 81.9172521 6.10125113 80.5812667"></polyline>
                            <polyline id="Fill-96" fill="#FFDD00" points="3.19249298 78.9012793 6.10125113 80.5812667 5.82989398 80.7380211 2.9216119 79.0585101 3.19249298 78.9012793"></polyline>
                        </g>
                    </g>
                </g>
                <g id="Group-9-Copy-4" transform="translate(183.000000, 31.000000)">
                    <g id="All_images-22">
                        <polyline id="Fill-1" fill="#EFC700" points="70.669759 61.0428579 27.9059128 54.4585519 20.4578308 58.6963934 11.5431436 58.6963934 8.95109744 60.2007814 11.5431436 61.7055355 20.4578308 61.7055355 29.2075795 66.7858197 70.669759 61.0428579"></polyline>
                        <polyline id="Fill-2" fill="#767676" points="11.5431436 61.7055355 11.5431436 43.4401639 14.1344615 41.935776 14.1344615 60.2007814 11.5431436 61.7055355"></polyline>
                        <polyline id="Fill-3" fill="#A2A1A1" points="11.5431436 61.7055355 11.5431436 51.6621257 8.95109744 50.1577377 8.95109744 60.2011475 11.5431436 61.7055355"></polyline>
                        <polyline id="Fill-4" fill="#7E7E7E" points="11.5431436 53.4670984 11.5431436 43.4401639 8.95109744 41.935776 8.95109744 51.9619781 11.5431436 53.4670984"></polyline>
                        <polyline id="Fill-5" fill="#2DFC9D" points="11.5431436 0.359896175 11.5431436 49.6700656 0.201712821 43.0850273 11.5431436 0.359896175"></polyline>
                        <polyline id="Fill-6" fill="#1CAC7A" points="11.5427795 0.359896175 11.5427795 49.6704317 22.5423179 43.2838306 11.5427795 0.359896175"></polyline>
                    </g>
                </g>
                <g id="Group-9-Copy-2" transform="translate(236.000000, 87.000000)">
                    <g id="All_images-22">
                        <polyline id="Fill-1" fill="#EDEDF3" points="69.6744103 60.1317705 27.5128718 53.6457377 20.1696923 57.8203279 11.3805641 57.8203279 8.82502564 59.3022623 11.3805641 60.7845574 20.1696923 60.7845574 28.7962051 65.7890164 69.6744103 60.1317705"></polyline>
                        <polyline id="Fill-2" fill="#767676" points="11.3805641 60.7845574 11.3805641 42.7918033 13.9353846 41.3098689 13.9353846 59.3022623 11.3805641 60.7845574"></polyline>
                        <polyline id="Fill-3" fill="#A2A1A1" points="11.3805641 60.7845574 11.3805641 50.8910492 8.82502564 49.4091148 8.82502564 59.302623 11.3805641 60.7845574"></polyline>
                        <polyline id="Fill-4" fill="#7E7E7E" points="11.3805641 52.669082 11.3805641 42.7918033 8.82502564 41.3098689 8.82502564 51.1864262 11.3805641 52.669082"></polyline>
                        <polyline id="Fill-5" fill="#2DFC9D" points="11.3805641 0.35452459 11.3805641 48.9287213 0.198871795 42.4419672 11.3805641 0.35452459"></polyline>
                        <polyline id="Fill-6" fill="#1CAC7A" points="11.3802051 0.35452459 11.3802051 48.929082 22.2248205 42.6378033 11.3802051 0.35452459"></polyline>
                    </g>
                </g>
                <g id="Group-9-Copy-5" transform="translate(396.000000, 0.000000)">
                    <g id="All_images-22">
                        <polyline id="Fill-1" fill="#EFC700" points="42.7999949 37.3545847 16.9007641 33.3253825 12.3899538 35.9186885 6.99091795 35.9186885 5.42108718 36.8392842 6.99091795 37.7601038 12.3899538 37.7601038 17.6890974 40.8689344 42.7999949 37.3545847"></polyline>
                        <polyline id="Fill-2" fill="#767676" points="6.99091795 37.7601038 6.99091795 26.5827869 8.56030769 25.6621913 8.56030769 36.8392842 6.99091795 37.7601038"></polyline>
                        <polyline id="Fill-3" fill="#A2A1A1" points="6.99091795 37.7601038 6.99091795 31.6141366 5.42108718 30.693541 5.42108718 36.8395082 6.99091795 37.7601038"></polyline>
                        <polyline id="Fill-4" fill="#7E7E7E" points="6.99091795 32.7186721 6.99091795 26.5827869 5.42108718 25.6621913 5.42108718 31.7976284 6.99091795 32.7186721"></polyline>
                        <polyline id="Fill-5" fill="#2DFC9D" points="6.99091795 0.220234973 6.99091795 30.3951148 0.122164103 26.3654645 6.99091795 0.220234973"></polyline>
                        <polyline id="Fill-6" fill="#1CAC7A" points="6.99069744 0.220234973 6.99069744 30.3953388 13.6523897 26.4871202 6.99069744 0.220234973"></polyline>
                    </g>
                </g>
            </g>
        </g>
    </g>
</svg>