<?xml version="1.0" encoding="UTF-8"?>
<svg width="165px" height="160px" viewBox="0 0 165 160" version="1.1" xmlns="http://www.w3.org/2000/svg" xmlns:xlink="http://www.w3.org/1999/xlink">
    <!-- Generator: Sketch 50.2 (55047) - http://www.bohemiancoding.com/sketch -->
    <title>Group 14</title>
    <desc>Created with Sketch.</desc>
    <defs></defs>
    <g id="Page-1" stroke="none" stroke-width="1" fill="none" fill-rule="evenodd">
        <g id="Про-комплекс" transform="translate(-1205.000000, -275.000000)">
            <g id="Group-2" transform="translate(229.000000, 275.000000)">
                <g id="Group-14" transform="translate(976.000000, 0.000000)">
                    <g id="Group-9-Copy-2" transform="translate(0.000000, 48.000000)">
                        <g id="All_images-22">
                            <polyline id="Fill-1" fill="#EFC700" points="117.451149 102.041792 46.378841 91.0351913 34.0003385 98.1193443 19.1843795 98.1193443 14.8764718 100.634142 19.1843795 103.149552 34.0003385 103.149552 48.5421744 111.641967 117.451149 102.041792"></polyline>
                            <polyline id="Fill-2" fill="#767676" points="19.1843795 103.149552 19.1843795 72.6163934 23.4910769 70.1015956 23.4910769 100.634142 19.1843795 103.149552"></polyline>
                            <polyline id="Fill-3" fill="#A2A1A1" points="19.1843795 103.149552 19.1843795 86.3605683 14.8764718 83.8457705 14.8764718 100.634754 19.1843795 103.149552"></polyline>
                            <polyline id="Fill-4" fill="#7E7E7E" points="19.1843795 89.3778361 19.1843795 72.6163934 14.8764718 70.1015956 14.8764718 86.8618142 19.1843795 89.3778361"></polyline>
                            <polyline id="Fill-5" fill="#2DFC9D" points="19.1843795 0.601617486 19.1843795 83.0305574 0.335241026 72.0227322 19.1843795 0.601617486"></polyline>
                            <polyline id="Fill-6" fill="#1CAC7A" points="19.1837744 0.601617486 19.1837744 83.0311694 37.4646974 72.3550601 19.1837744 0.601617486"></polyline>
                        </g>
                    </g>
                    <g id="Group-9-Copy-4" transform="translate(79.000000, 0.000000)">
                        <g id="All_images-22">
                            <polyline id="Fill-1" fill="#EFC700" points="85.5999897 73.798082 33.8015282 65.8379508 24.7799077 70.9613115 13.9818359 70.9613115 10.8421744 72.7800492 13.9818359 74.5992295 24.7799077 74.5992295 35.3781949 80.7410656 85.5999897 73.798082"></polyline>
                            <polyline id="Fill-2" fill="#767676" points="13.9818359 74.5992295 13.9818359 52.5172131 17.1206154 50.6984754 17.1206154 72.7800492 13.9818359 74.5992295"></polyline>
                            <polyline id="Fill-3" fill="#A2A1A1" points="13.9818359 74.5992295 13.9818359 62.4571967 10.8421744 60.638459 10.8421744 72.7804918 13.9818359 74.5992295"></polyline>
                            <polyline id="Fill-4" fill="#7E7E7E" points="13.9818359 64.6393279 13.9818359 52.5172131 10.8421744 50.6984754 10.8421744 62.8197049 13.9818359 64.6393279"></polyline>
                            <polyline id="Fill-5" fill="#2DFC9D" points="13.9818359 0.435098361 13.9818359 60.0488852 0.244328205 52.0878689 13.9818359 0.435098361"></polyline>
                            <polyline id="Fill-6" fill="#1CAC7A" points="13.9813949 0.435098361 13.9813949 60.0493279 27.3047795 52.3282131 13.9813949 0.435098361"></polyline>
                        </g>
                    </g>
                </g>
            </g>
        </g>
    </g>
</svg>