<?xml version="1.0" encoding="UTF-8"?>
<svg width="320px" height="240px" viewBox="0 0 320 240" version="1.1" xmlns="http://www.w3.org/2000/svg" xmlns:xlink="http://www.w3.org/1999/xlink">
    <!-- Generator: Sketch 50.2 (55047) - http://www.bohemiancoding.com/sketch -->
    <title>Group 25</title>
    <desc>Created with Sketch.</desc>
    <defs>
        <linearGradient x1="30.6533784%" y1="89.7487896%" x2="30.6533784%" y2="18.5887353%" id="linearGradient-1">
            <stop stop-color="#FFFFFF" offset="0%"></stop>
            <stop stop-color="#FFFFFF" stop-opacity="0" offset="100%"></stop>
        </linearGradient>
        <linearGradient x1="30.6533784%" y1="100%" x2="30.6533784%" y2="0%" id="linearGradient-2">
            <stop stop-color="#FFFFFF" offset="0%"></stop>
            <stop stop-color="#FFFFFF" stop-opacity="0" offset="100%"></stop>
        </linearGradient>
        <polygon id="path-3" points="0.00801603596 47.5985276 87.4185253 47.5985276 87.4185253 0.59794817 0.00801603596 0.59794817"></polygon>
        <polygon id="path-5" points="0.226473376 7.66642951 8.56675741 7.66642951 8.56675741 0.167128163 0.226473376 0.167128163"></polygon>
        <polygon id="path-7" points="0.843312579 6.20047486 2.59956905 6.20047486 6.51439625 3.96187744 0.843312579 0.726644188"></polygon>
        <polygon id="path-9" points="46.9279163 0.787308978 0.599882204 0.787308978 0.599882204 27.2878559 46.9279163 27.2878559"></polygon>
        <polygon id="path-11" points="0.753844775 2.88824399 1.6281046 3.38656191 1.6281046 1.33962523 0.753844775 0.825974449"></polygon>
        <polygon id="path-13" points="0.555072679 2.59825296 1.43706932 3.10423731 1.43706932 1.05730063 0.555072679 0.543649849"></polygon>
        <polygon id="path-15" points="0.839647773 2.65475121 0.839647773 0.511984162 1.7139076 0.0059998144 1.7139076 4.29153391 0.839647773 4.79751826 0.839647773 2.65475121 0.839647773 0.0059998144 8.57646042 0.0059998144 8.57646042 7.67242933 0.839647773 7.67242933 0.839647773 2.65475121"></polygon>
        <linearGradient x1="50%" y1="0%" x2="50%" y2="100%" id="linearGradient-17">
            <stop stop-color="#FFFFFF" offset="0%"></stop>
            <stop stop-color="#000000" offset="100%"></stop>
        </linearGradient>
        <polygon id="path-18" points="0.243913199 2.64581508 0.243913199 0.503048027 1.11817303 0.0123965386 1.11817303 4.29026421 0.243913199 4.78858212 0.243913199 2.64581508 0.243913199 0.0123965386 7.98072585 0.0123965386 7.98072585 7.67882605 0.243913199 7.67882605"></polygon>
        <polygon id="path-20" points="0.656640159 0.894972315 1.30653242 1.27829379 1.30653242 0.396654396 0.656640159 0.0133329209"></polygon>
        <polygon id="path-22" points="0.181320639 2.02227078 0.181320639 2.90391017 3.05167813 1.26329425 3.05167813 2.14493365 3.71704402 1.76161217 3.71704402 0.504317733 3.71704402 0.0059998144"></polygon>
        <polygon id="path-24" points="0.388527607 1.66161527 1.05389349 2.03727031 1.05389349 1.15563092 0.388527607 0.779975872"></polygon>
        <polygon id="path-26" points="0.388527607 2.51325559 1.05389349 2.88891063 4.58961687 0.872639672 3.92425099 0.489318197"></polygon>
        <polygon id="path-28" points="46.9279163 0.787308978 0.599882204 0.787308978 0.599882204 27.2878559 46.9279163 27.2878559"></polygon>
    </defs>
    <g id="Page-1" stroke="none" stroke-width="1" fill="none" fill-rule="evenodd">
        <g id="Mobile-Головна" transform="translate(0.000000, -2547.000000)">
            <g id="Group-25" transform="translate(-94.000000, 2524.000000)">
                <g id="Car_mezhdu" transform="translate(238.500000, 131.500000) scale(-1, 1) translate(-238.500000, -131.500000) ">
                    <path d="M14.3383637,246.690122 C10.7024659,248.793415 7.06656807,250.896707 3.43067024,253 C2.28813452,252.339842 1.14559881,251.676614 0,251.013386 C3.63589783,248.913164 7.27179566,246.806801 10.9076935,244.703509 C12.0502292,245.363666 13.1927649,246.026894 14.3383637,246.690122 Z M36.5795214,233.818586 C32.9436236,235.918808 29.3107888,238.025171 25.674891,240.125393 C24.5292922,239.465235 23.3867565,238.805078 22.2442208,238.14185 C25.8801186,236.038557 29.5129533,233.935265 33.1519143,231.828902 L36.5795214,233.818586 Z M58.8206791,220.943979 C55.1878443,223.047271 51.5488834,225.150564 47.9160487,227.253856 C46.773513,226.593699 45.6309772,225.930471 44.4884415,225.267243 C48.1212763,223.167021 51.7571741,221.060658 55.3900088,218.960435 C56.5325445,219.620593 57.6781434,220.280751 58.8206791,220.943979 Z M81.0618367,208.072442 C77.429002,210.172664 73.7931042,212.279027 70.1602694,214.38539 C69.0177337,213.722162 67.8721349,213.058934 66.7295992,212.395706 C70.3624339,210.292414 73.9983318,208.189121 77.6342296,206.085828 C78.7767653,206.745986 79.919301,207.409214 81.0618367,208.072442 Z M125.550278,182.326298 C121.91438,184.429591 118.278483,186.532883 114.642585,188.636176 C113.500049,187.976019 112.357513,187.312791 111.214978,186.649562 C114.847812,184.54934 118.48371,182.442977 122.119608,180.339685 C123.262144,180.999842 124.407743,181.66307 125.550278,182.326298 Z M147.791436,169.454762 C144.155538,171.554984 140.51964,173.661347 136.886806,175.761569 C135.74427,175.104482 134.601734,174.441254 133.456135,173.778026 C137.08897,171.674733 140.727931,169.571441 144.360766,167.465078 C145.503301,168.128306 146.645837,168.791534 147.791436,169.454762 Z M170.093856,156.457335 C166.454895,158.563698 162.82206,160.66392 159.186162,162.770283 C158.043626,162.107055 156.898028,161.446897 155.755492,160.783669 C159.39139,158.680377 163.027288,156.577084 166.663185,154.473792 C167.805721,155.13702 168.948257,155.797177 170.093856,156.457335 Z M191.909243,143.834509 C188.273345,145.937801 185.063218,147.792383 181.430383,149.898746 C180.284784,149.235518 179.142248,148.575361 177.999713,147.912133 C181.632547,145.80884 184.842674,143.951188 188.478572,141.844824 C189.621108,142.508052 190.766707,143.171281 191.909243,143.834509 Z M214.576171,130.714261 C210.943336,132.817554 207.307438,134.920847 203.674604,137.024139 C202.529005,136.360911 201.383406,135.703824 200.24087,135.040596 C203.876768,132.934233 207.509603,130.834011 211.145501,128.727648 C212.291099,129.390876 213.433635,130.054104 214.576171,130.714261 Z M236.820392,117.839654 C233.184494,119.946017 229.548596,122.04624 225.912698,124.152603 C224.770162,123.489375 223.627627,122.829217 222.485091,122.165989 C226.120989,120.062696 229.753824,117.959404 233.389721,115.856111 C234.532257,116.516269 235.677856,117.179497 236.820392,117.839654 Z M259.064612,104.968118 C255.425652,107.07141 251.792817,109.174703 248.156919,111.277996 C247.014383,110.617838 245.868784,109.95768 244.726249,109.294452 C248.359083,107.188089 251.998044,105.087867 255.630879,102.981504 C256.773415,103.644732 257.919014,104.30796 259.064612,104.968118 Z M281.302707,92.0935107 C277.669872,94.1998738 274.033974,96.3000959 270.398077,98.406459 C269.255541,97.7432309 268.113005,97.0830734 266.970469,96.4229159 C270.603304,94.3165528 274.239202,92.2132602 277.872037,90.1099676 C279.017636,90.7731956 280.160171,91.4364237 281.302707,92.0935107 Z M303.546928,79.2219741 C299.91103,81.3283372 296.275132,83.4316298 292.639234,85.5349224 C291.496699,84.8716944 290.354163,84.2115368 289.208564,83.5483088 C292.847525,81.4450162 296.48036,79.3417236 300.116258,77.2353605 C301.258793,77.8985885 302.401329,78.5618166 303.546928,79.2219741 Z M325.788085,66.3504375 C322.152188,68.4537301 318.519353,70.5600932 314.883455,72.6603153 C313.740919,71.9970873 312.595321,71.3400002 311.452785,70.6767722 C315.088683,68.5704091 318.721517,66.470187 322.360478,64.3638239 C323.503014,65.027052 324.64555,65.69028 325.788085,66.3504375 Z M348.029243,53.4758304 C344.396408,55.5821935 340.760511,57.6824156 337.127676,59.7887787 C335.982077,59.1255507 334.839541,58.4653932 333.697006,57.8021651 C337.32984,55.6988725 340.965738,53.5955799 344.601636,51.4922873 C345.744172,52.1555154 346.886707,52.8156729 348.029243,53.4758304 Z M370.273464,40.6042938 C366.637566,42.7075864 363.001668,44.810879 359.368833,46.9141716 C358.226298,46.2540141 357.083762,45.5938566 355.938163,44.9306285 C359.574061,42.8242654 363.209959,40.7240434 366.842794,38.6176803 C367.985329,39.2809083 369.130928,39.9441363 370.273464,40.6042938 Z M392.514622,27.7296868 C388.878724,29.8360499 385.245889,31.9393425 381.609991,34.042635 C380.467455,33.379407 379.321857,32.7192495 378.179321,32.059092 C381.815219,29.9527289 385.448053,27.8525068 389.087014,25.7461437 C390.22955,26.4093717 391.372086,27.0725997 392.514622,27.7296868 Z M414.758842,14.8581502 C411.122944,16.9645133 407.49011,19.0678059 403.851149,21.1710985 C402.708613,20.5109409 401.566077,19.8477129 400.423542,19.1844849 C404.056376,17.0811923 407.692274,14.9778997 411.328172,12.8746071 C412.473771,13.5347646 413.616307,14.1979926 414.758842,14.8581502 Z M437,1.98661359 C433.364102,4.08990619 429.728204,6.19626928 426.09537,8.29649138 C424.952834,7.63633385 423.810298,6.97617632 422.664699,6.31294829 C426.300597,4.20658519 429.936495,2.1063631 433.56933,0 C434.711865,0.66322803 435.857464,1.32645606 437,1.98661359 Z M103.306058,195.197835 C99.6701597,197.301127 96.0373249,199.407491 92.4014271,201.507713 C91.2558283,200.847555 90.1132926,200.184327 88.9707569,199.52417 C92.6066547,197.420877 96.2394894,195.317584 99.8784504,193.211221 L103.306058,195.197835 Z" id="Fill-1" fill="#EDEDF3"></path>
                    <path d="M98.3560944,246.697171 C94.7157004,248.798114 91.0753065,250.899057 87.4349126,253 C86.290964,252.34058 85.1470154,251.678093 84,251.015606 C87.6403939,248.91773 91.2807879,246.813719 94.9211818,244.712776 C96.0651304,245.372196 97.2090789,246.034684 98.3560944,246.697171 Z M120.624755,233.840012 C116.984361,235.937888 113.347034,238.041899 109.70664,240.139775 C108.559625,239.480355 107.415676,238.820934 106.271728,238.158447 C109.912122,236.057504 113.549449,233.956561 117.192909,231.852551 L120.624755,233.840012 Z M142.893416,220.979787 C139.256089,223.08073 135.612628,225.181673 131.975301,227.282616 C130.831352,226.623196 129.687404,225.960709 128.543455,225.298222 C132.180782,223.200346 135.821176,221.096336 139.458503,218.99846 C140.602452,219.65788 141.749467,220.3173 142.893416,220.979787 Z M165.162077,208.122629 C161.52475,210.220505 157.884356,212.324515 154.247029,214.428525 C153.10308,213.766038 151.956065,213.103551 150.812116,212.441064 C154.449443,210.340121 158.089837,208.239177 161.730231,206.138234 C162.87418,206.797654 164.018128,207.460142 165.162077,208.122629 Z M209.705532,182.405245 C206.065138,184.506188 202.424744,186.607131 198.78435,188.708074 C197.640402,188.048654 196.496453,187.386167 195.352505,186.72368 C198.989832,184.625804 202.630226,182.521794 206.27062,180.420851 C207.414568,181.080271 208.561584,181.742758 209.705532,182.405245 Z M231.974193,169.548087 C228.333799,171.645963 224.693405,173.749973 221.056078,175.847849 C219.912129,175.191496 218.768181,174.529009 217.621165,173.866522 C221.258492,171.765579 224.901953,169.664635 228.53928,167.560625 C229.683229,168.223112 230.827177,168.8856 231.974193,169.548087 Z M254.304191,156.565179 C250.660731,158.669189 247.023404,160.767065 243.38301,162.871075 C242.239061,162.208588 241.092046,161.549168 239.948097,160.886681 C243.588491,158.785737 247.228885,156.684794 250.869279,154.583851 C252.013227,155.246338 253.157176,155.905759 254.304191,156.565179 Z M276.146555,143.956453 C272.506161,146.057396 269.292064,147.909907 265.654737,150.013917 C264.507722,149.351429 263.363773,148.692009 262.219825,148.029522 C265.857152,145.928579 269.071249,144.073002 272.711642,141.968992 C273.855591,142.631479 275.002606,143.293966 276.146555,143.956453 Z M298.841513,130.850862 C295.204186,132.951805 291.563792,135.052748 287.926465,137.153691 C286.77945,136.491204 285.632434,135.834851 284.488486,135.172364 C288.128879,133.068354 291.766207,130.970478 295.4066,128.866468 C296.553616,129.528955 297.697564,130.191442 298.841513,130.850862 Z M321.113241,117.990637 C317.472847,120.094647 313.832453,122.192523 310.192059,124.296533 C309.04811,123.634046 307.904162,122.974626 306.760213,122.312139 C310.400607,120.211195 314.037934,118.110252 317.678328,116.009309 C318.822277,116.668729 319.969292,117.331217 321.113241,117.990637 Z M343.384968,105.133478 C339.741508,107.234421 336.10418,109.335365 332.463787,111.436308 C331.319838,110.776888 330.172823,110.117467 329.028874,109.45498 C332.666201,107.35097 336.309662,105.253094 339.946989,103.149084 C341.090937,103.811571 342.237953,104.474058 343.384968,105.133478 Z M365.650562,92.273253 C362.013235,94.3772631 358.372841,96.4751392 354.732447,98.5791493 C353.588499,97.9166622 352.44455,97.2572421 351.300602,96.597822 C354.937929,94.4938118 358.578323,92.3928687 362.21565,90.2919256 C363.362665,90.9544128 364.506614,91.6169 365.650562,92.273253 Z M387.92229,79.4160947 C384.281896,81.5201048 380.641502,83.6210479 377.001108,85.721991 C375.85716,85.0595039 374.713211,84.4000838 373.566196,83.7375966 C377.209656,81.6366535 380.846983,79.5357104 384.487377,77.4317003 C385.631326,78.0941874 386.775274,78.7566746 387.92229,79.4160947 Z M410.190951,66.5589364 C406.550557,68.6598795 402.91323,70.7638896 399.272836,72.8617657 C398.128887,72.1992785 396.981872,71.5429255 395.837923,70.8804383 C399.478317,68.7764281 403.115644,66.6785521 406.759105,64.574542 C407.903054,65.2370291 409.047002,65.8995163 410.190951,66.5589364 Z M432.459612,53.698711 C428.822284,55.8027212 425.181891,57.9005972 421.544563,60.0046074 C420.397548,59.3421202 419.253599,58.6827001 418.109651,58.0202129 C421.746978,55.9192698 425.387372,53.8183268 429.027766,51.7173837 C430.171714,52.3798708 431.315663,53.0392909 432.459612,53.698711 Z M454.731339,40.8415527 C451.090945,42.9424958 447.450551,45.0434389 443.813224,47.144382 C442.669276,46.4849619 441.525327,45.8255418 440.378312,45.1630546 C444.018706,43.0590445 447.6591,40.9611685 451.296427,38.8571583 C452.440375,39.5196455 453.587391,40.1821326 454.731339,40.8415527 Z M477,27.9813274 C473.359606,30.0853375 469.722279,32.1862806 466.081885,34.2872237 C464.937937,33.6247365 463.790921,32.9653164 462.646973,32.3058963 C466.287366,30.2018862 469.924694,28.1040102 473.568154,26 C474.712103,26.6624872 475.856051,27.3249743 477,27.9813274 Z M187.433804,195.262403 C183.79341,197.363346 180.156083,199.467357 176.51569,201.565233 C175.368674,200.905813 174.224726,200.243325 173.080777,199.583905 C176.721171,197.482962 180.358498,195.382019 184.001959,193.278009 L187.433804,195.262403 Z" id="Fill-1" fill="#E6E6EF"></path>
                    <g id="Car" transform="translate(63.000000, 23.000000)">
                        <rect id="Rectangle-2" fill="url(#linearGradient-1)" x="0" y="85.7313578" width="145" height="153.873544"></rect>
                        <rect id="Rectangle-2" fill="url(#linearGradient-2)" transform="translate(247.500000, 85.731358) scale(1, -1) translate(-247.500000, -85.731358) " x="175" y="0" width="145" height="171.462716"></rect>
                    </g>
                </g>
                <g id="Group-15" transform="translate(170.500000, 92.000000) scale(-1, 1) translate(-170.500000, -92.000000) translate(116.000000, 52.000000)">
                    <g id="Page-1">
                        <g id="Group-12" transform="translate(1.745146, 30.610186)">
                            <path d="M58.4139884,40.538846 C52.6655366,42.8464412 46.9170848,45.1540365 41.168633,47.4616318 L33.8728187,47.4616318 L3.83077517,30.2734968 L55.6364727,0.650413213 L65.0444368,6.03224673 L71.2648342,2.47502344 L81.2375857,7.34320618 L106.823225,21.9707537 L86.0808304,33.846053 L58.4139884,40.538846 Z" id="Fill-1" fill="#F4F4F4"></path>
                            <g id="Group-5" transform="translate(0.000000, 0.866640)">
                                <mask id="mask-4" fill="white">
                                    <use xlink:href="#path-3"></use>
                                </mask>
                                <g id="Clip-4"></g>
                            </g>
                            <polygon id="Fill-6" fill="#5D5D5D" points="14.4340769 11.0039263 44.4761204 28.1843948 44.4761204 37.4684409 14.4340769 20.280306"></polygon>
                            <path d="M36.6240293,42.7176452 C37.4054473,43.1622981 38.4653907,43.1009667 39.6568598,42.4186545 C40.8405922,41.7440087 41.9160091,40.5863778 42.6819536,39.2524191 C43.4633716,37.9184604 43.9353172,36.4235066 43.9353172,35.0665486 C43.9353172,33.7095905 43.4633716,32.7589533 42.6819536,32.3143004 C41.5446421,31.6626539 40.7864345,31.2256674 39.6413862,30.5740209 C38.8677049,30.1217015 37.792288,30.1906994 36.6085556,30.8653452 C35.4325601,31.5476574 34.3571432,32.7052883 33.5757251,34.039247 C32.8020438,35.3732058 32.3223614,36.8681595 32.3223614,38.2251175 C32.3223614,39.5820756 32.8020438,40.5327128 33.5757251,40.9773657 C34.736247,41.6366787 35.4867178,42.0659987 36.6240293,42.7176452" id="Fill-8" fill="#090E06"></path>
                            <path d="M39.6537651,32.6102246 C37.2863004,33.9671826 35.3675709,37.2560808 35.3675709,39.9699969 C35.3675709,42.6762465 37.2863004,43.7725459 39.6537651,42.4155879 C42.0212298,41.0662963 43.9399593,37.7697316 43.9399593,35.063482 C43.9399593,32.3572324 42.0212298,31.2532665 39.6537651,32.6102246" id="Fill-10" fill="#232323"></path>
                        </g>
                        <polygon id="Fill-13" fill="#FFFFFF" points="52.1383804 30.9148437 80.7413768 47.2750042 85.3370435 44.6454189 56.741784 28.2852583"></polygon>
                        <g id="Group-20" transform="translate(0.000000, 53.609475)">
                            <polygon id="Fill-15" fill="#FFFFFF" points="5.66953631 0.244859092 0.00618945012 3.48775878 31.7890158 21.6725296 37.4600995 18.4296299"></polygon>
                            <g id="Group-19" transform="translate(26.700729, 17.799449)">
                                <mask id="mask-6" fill="white">
                                    <use xlink:href="#path-5"></use>
                                </mask>
                                <g id="Clip-18"></g>
                                <polygon id="Fill-17" fill="#A2A2A2" mask="url(#mask-6)" points="0.365736004 0.167128163 4.93819228 2.78138063 4.93819228 1.80774408 8.56675741 1.80774408 8.56675741 1.8920748 6.725396 2.93470922 4.93819228 2.93470922 0.226473376 0.243792458"></polygon>
                            </g>
                        </g>
                        <g id="Group-23" transform="translate(30.947251, 68.075694)">
                            <mask id="mask-8" fill="white">
                                <use xlink:href="#path-7"></use>
                            </mask>
                            <g id="Clip-22"></g>
                            <polygon id="Fill-21" mask="url(#mask-8)" points="0.843312579 6.20047486 2.59956905 6.20047486 6.51439625 3.96187744 0.843312579 0.726644188"></polygon>
                        </g>
                        <g id="Group-49" transform="translate(0.000000, 0.811108)">
                            <polygon id="Fill-24" fill="#5D5D5D" points="53.0196034 23.3810434 79.8663433 38.7369017 79.8663433 48.0209478 53.0196034 32.6650895"></polygon>
                            <path d="M72.0142521,52.8116996 C72.7956702,53.2563526 73.8633504,53.1873547 75.0470827,52.5127089 C76.230815,51.8303967 77.306232,50.6727658 78.0721764,49.3388071 C78.8535945,48.0125148 79.3332769,46.5098946 79.3332769,45.1529366 C79.3332769,43.7959785 78.8535945,42.8453413 78.0721764,42.4083548 C76.9426018,41.7567083 76.1766573,41.3120554 75.0393459,40.6604089 C74.2579278,40.215756 73.1825108,40.2770874 71.9987785,40.9593996 C70.822783,41.6340454 69.747366,42.7993427 68.9659479,44.1333014 C68.1922667,45.4595937 67.7125843,46.9622139 67.7125843,48.3191719 C67.7125843,49.67613 68.1922667,50.6267672 68.9659479,51.0637537 C70.1264698,51.7230666 70.8769407,52.1523867 72.0142521,52.8116996" id="Fill-26" fill="#090E06"></path>
                            <path d="M75.043988,42.6966125 C72.6765233,44.0535706 70.7577938,47.3501353 70.7577938,50.0563849 C70.7577938,52.7626345 72.6765233,53.8666003 75.043988,52.5096423 C77.4114526,51.1603507 79.337919,47.863786 79.337919,45.14987 C79.337919,42.4436204 77.4114526,41.3473209 75.043988,42.6966125" id="Fill-28" fill="#2B2B2B"></path>
                            <path d="M83.5815607,31.5043921 L43.8917118,54.2200227 L31.7913369,66.2333178 L31.7913369,73.4704272 L36.5881607,70.7258455 L36.5881607,69.6142132 C36.5881607,66.5706407 38.7389946,62.8677552 41.4004582,61.3498022 C44.0619217,59.8241827 46.2204924,61.0584779 46.2204924,64.1020504 L46.2204924,67.2682858 L70.2278221,53.5300441 L70.2278221,50.3638087 C70.2278221,47.3202362 72.3863928,43.6173507 75.0401196,42.0993977 C77.7015831,40.5737782 79.8678907,41.8157398 79.8678907,44.8516459 L79.8678907,45.9632782 L83.5815607,43.8320108 L83.5815607,31.5043921 Z" id="Fill-30" fill="#DDC000"></path>
                            <polygon id="Fill-32" fill="#FFEE7E" points="1.75548279 49.0528492 31.7897895 66.2333178 31.7897895 73.4704272 1.75548279 56.2822923"></polygon>
                            <path d="M8.08729026,59.9016137 L3.25951917,57.1493655 L2.51678515,55.2480909 L2.51678515,50.9625568 L7.22850406,53.66114 L8.08729026,55.8537389 L8.08729026,59.9016137 Z M31.7851474,69.2163255 L31.7851474,73.4711939 L27.0656917,70.7649443 L26.3152209,68.8636697 L26.3152209,64.5781357 L31.0346766,67.2767188 L31.7851474,69.2163255 Z" id="Fill-34" fill="#A2A2A2"></path>
                            <polygon id="Fill-36" fill="#F0D20D" points="71.885821 15.4225229 51.1356895 27.2901558 43.8940329 54.2223227 83.5838818 31.506692"></polygon>
                            <polygon id="Fill-38" fill="#8C7900" points="69.2638152 18.664656 76.9619438 35.2931416 45.7516416 53.1559223 52.4439845 28.286025"></polygon>
                            <polygon id="Fill-40" fill="#FAD900" points="1.75548279 49.0528492 31.7897895 66.2333178 43.8901645 54.2200227 13.848121 37.0318878"></polygon>
                            <polygon id="Fill-42" fill="#FFE431" points="25.5554659 12.6526419 51.1411053 27.2878559 43.8917118 54.2200227 13.8496683 37.0318878"></polygon>
                            <g id="Group-46" transform="translate(24.955584, -0.000000)">
                                <mask id="mask-10" fill="white">
                                    <use xlink:href="#path-9"></use>
                                </mask>
                                <g id="Clip-45"></g>
                                <polygon id="Fill-44" fill="#C5E6F1" mask="url(#mask-10)" points="0.599882204 12.6526419 26.1855216 27.2878559 46.9279163 15.420223 21.3500137 0.78500905"></polygon>
                            </g>
                            <polygon id="Fill-47" fill="#E2E2E2" points="0.00309472506 56.2853588 31.7859211 74.4701296 31.7859211 76.5247328 0.00309472506 58.339962"></polygon>
                        </g>
                        <path d="M80.7413768,47.2826707 L80.7413768,49.3296074 L85.3370435,46.6923556 L85.3370435,44.6454189 L80.7413768,47.2826707 Z M47.1017154,66.5330752 L47.1017154,68.5800119 L71.1090451,54.8417702 L71.1090451,52.7948335 L47.1017154,66.5330752 Z M31.7905632,75.2804712 L31.7905632,77.3274079 L37.4616468,74.0921747 L37.4616468,72.0375716 L31.7905632,75.2804712 Z" id="Fill-50" fill="#C8C8C8"></path>
                        <g id="Group-54" transform="translate(79.113272, 45.943045)">
                            <mask id="mask-12" fill="white">
                                <use xlink:href="#path-11"></use>
                            </mask>
                            <g id="Clip-53"></g>
                            <polygon id="Fill-52" fill="#F7F2EC" mask="url(#mask-12)" points="0.753844775 2.88824399 1.6281046 3.38656191 1.6281046 1.33962523 0.753844775 0.825974449"></polygon>
                        </g>
                        <g id="Group-57" transform="translate(45.664646, 65.475775)">
                            <mask id="mask-14" fill="white">
                                <use xlink:href="#path-13"></use>
                            </mask>
                            <g id="Clip-56"></g>
                            <polygon id="Fill-55" fill="#F7F2EC" mask="url(#mask-14)" points="0.555072679 2.59825296 1.43706932 3.10423731 1.43706932 1.05730063 0.555072679 0.543649849"></polygon>
                        </g>
                        <polygon id="Fill-58" fill="#FFFFFF" points="46.2197188 66.0194244 47.1017154 66.5330752 71.1090451 52.7948335 70.2270484 52.2888491"></polygon>
                        <g id="Group-68" transform="translate(6.980583, 19.477197)">
                            <polygon id="Fill-60" fill="#FFEE7E" points="39.0882681 33.2992366 39.0882681 33.2992366 38.925795 33.8895516 38.7710588 34.4798667 69.981361 16.6247524 69.5480995 16.3717602 69.1071011 16.1264345 68.6661028 15.8734423 39.2507411 32.7012551"></polygon>
                            <polygon id="Fill-62" fill="#FFEE7E" points="68.6676502 15.8703757 61.5188353 0.430186692 62.2847798 0.000866639857 69.9829083 16.6293522"></polygon>
                            <polygon id="Fill-64" fill="#727272" points="0.244826492 34.9912176 19.3392801 45.9158796 19.3392801 50.1937473 0.244826492 39.2767517"></polygon>
                            <polygon id="Fill-66" fill="#F2F8F7" points="18.4611519 46.4157308 23.1728708 49.114314 23.1728708 53.3921817 18.4611519 50.7012649"></polygon>
                        </g>
                        <g id="Group-71" transform="translate(29.318448, 68.075694)">
                            <mask id="mask-16" fill="white">
                                <use xlink:href="#path-15"></use>
                            </mask>
                            <g id="Clip-70"></g>
                            <polygon id="Fill-69" fill="url(#linearGradient-17)" mask="url(#mask-16)" points="0.839647773 0.511984162 0.839647773 4.79751826 1.7139076 4.29153391 1.7139076 0.0059998144"></polygon>
                        </g>
                        <g id="Group-76" transform="translate(0.872573, 51.876195)">
                            <polygon id="Fill-72" fill="#FFFFFF" points="25.4457427 13.5153486 30.1574616 16.2139318 29.2832018 16.7122497 24.5714829 14.0136665"></polygon>
                            <polygon id="Fill-74" fill="#F2F8F7" points="0.76995247 0.398854328 5.47393456 3.09743752 5.47393456 7.37530518 0.76995247 4.68438842"></polygon>
                        </g>
                        <g id="Group-79" transform="translate(6.108010, 54.461385)">
                            <mask id="mask-19" fill="white">
                                <use xlink:href="#path-18"></use>
                            </mask>
                            <g id="Clip-78"></g>
                            <polygon id="Fill-77" fill="url(#linearGradient-17)" mask="url(#mask-19)" points="0.243913199 0.503048027 0.243913199 4.78858212 1.11817303 4.29026421 1.11817303 0.0123965386"></polygon>
                        </g>
                        <polygon id="Fill-80" fill="#FFFFFF" points="2.51833252 51.7736651 7.22231461 54.4722483 6.34805478 54.9705662 1.63633588 52.271983"></polygon>
                        <g id="Group-84" transform="translate(65.384793, 45.943045)">
                            <mask id="mask-21" fill="white">
                                <use xlink:href="#path-20"></use>
                            </mask>
                            <g id="Clip-83"></g>
                            <polygon id="Fill-82" mask="url(#mask-21)" points="0.656640159 0.894972315 1.30653242 1.27829379 1.30653242 0.396654396 0.656640159 0.0133329209"></polygon>
                        </g>
                        <g id="Group-87" transform="translate(63.639647, 45.076406)">
                            <mask id="mask-23" fill="white">
                                <use xlink:href="#path-22"></use>
                            </mask>
                            <g id="Clip-86"></g>
                            <polygon id="Fill-85" mask="url(#mask-23)" points="0.181320639 2.02227078 0.181320639 2.90391017 3.05167813 1.26329425 3.05167813 2.14493365 3.71704402 1.76161217 3.71704402 0.504317733 3.71704402 0.0059998144"></polygon>
                        </g>
                        <g id="Group-90" transform="translate(62.767074, 45.943045)">
                            <mask id="mask-25" fill="white">
                                <use xlink:href="#path-24"></use>
                            </mask>
                            <g id="Clip-89"></g>
                            <polygon id="Fill-88" mask="url(#mask-25)" points="0.388527607 1.66161527 1.05389349 2.03727031 1.05389349 1.15563092 0.388527607 0.779975872"></polygon>
                        </g>
                        <g id="Group-93" transform="translate(62.767074, 44.209766)">
                            <mask id="mask-27" fill="white">
                                <use xlink:href="#path-26"></use>
                            </mask>
                            <g id="Clip-92"></g>
                            <polygon id="Fill-91" mask="url(#mask-27)" points="0.388527607 2.51325559 1.05389349 2.88891063 4.58961687 0.872639672 3.92425099 0.489318197"></polygon>
                        </g>
                        <g id="Group-96" transform="translate(24.955584, 0.811108)">
                            <mask id="mask-29" fill="white">
                                <use xlink:href="#path-28"></use>
                            </mask>
                            <g id="Clip-95"></g>
                            <polygon id="Fill-94" fill="#FFEE7E" mask="url(#mask-29)" points="0.599882204 12.6526419 26.1855216 27.2878559 46.9279163 15.420223 21.3500137 0.78500905"></polygon>
                        </g>
                        <g id="Group-119" transform="translate(2.617719, 15.277327)">
                            <polygon id="Fill-115" fill="#BDABA1" points="0.641026922 42.6724133 5.46879801 45.4323279 5.2134832 45.4399943 0.501764295 42.756744"></polygon>
                            <polygon id="Fill-117" fill="#B59D09" points="23.6023395 0.312323672 46.7508829 13.5599139 40.3138548 37.4638411 35.4860837 34.7039265 31.0606269 26.5315126 30.4803659 26.8458362 34.40293 34.0829457 22.2716077 27.1371605 18.171097 19.5933939 17.5985729 19.9000511 21.188454 26.5238462 13.2118001 21.9546542"></polygon>
                        </g>
                    </g>
                </g>
            </g>
        </g>
    </g>
</svg>