<?xml version="1.0" encoding="UTF-8"?>
<svg width="109px" height="78px" viewBox="0 0 109 78" version="1.1" xmlns="http://www.w3.org/2000/svg" xmlns:xlink="http://www.w3.org/1999/xlink">
    <!-- Generator: Sketch 50.2 (55047) - http://www.bohemiancoding.com/sketch -->
    <title>Group 15</title>
    <desc>Created with Sketch.</desc>
    <defs>
        <polygon id="path-1" points="0.00801603596 47.5985276 87.4185253 47.5985276 87.4185253 0.59794817 0.00801603596 0.59794817"></polygon>
        <polygon id="path-3" points="0.226473376 7.66642951 8.56675741 7.66642951 8.56675741 0.167128163 0.226473376 0.167128163"></polygon>
        <polygon id="path-5" points="0.843312579 6.20047486 2.59956905 6.20047486 6.51439625 3.96187744 0.843312579 0.726644188"></polygon>
        <polygon id="path-7" points="46.9279163 0.787308978 0.599882204 0.787308978 0.599882204 27.2878559 46.9279163 27.2878559"></polygon>
        <polygon id="path-9" points="0.753844775 2.88824399 1.6281046 3.38656191 1.6281046 1.33962523 0.753844775 0.825974449"></polygon>
        <polygon id="path-11" points="0.555072679 2.59825296 1.43706932 3.10423731 1.43706932 1.05730063 0.555072679 0.543649849"></polygon>
        <polygon id="path-13" points="0.839647773 2.65475121 0.839647773 0.511984162 1.7139076 0.0059998144 1.7139076 4.29153391 0.839647773 4.79751826 0.839647773 2.65475121 0.839647773 0.0059998144 8.57646042 0.0059998144 8.57646042 7.67242933 0.839647773 7.67242933 0.839647773 2.65475121"></polygon>
        <linearGradient x1="50%" y1="0%" x2="50%" y2="100%" id="linearGradient-15">
            <stop stop-color="#FFFFFF" offset="0%"></stop>
            <stop stop-color="#000000" offset="100%"></stop>
        </linearGradient>
        <polygon id="path-16" points="0.243913199 2.64581508 0.243913199 0.503048027 1.11817303 0.0123965386 1.11817303 4.29026421 0.243913199 4.78858212 0.243913199 2.64581508 0.243913199 0.0123965386 7.98072585 0.0123965386 7.98072585 7.67882605 0.243913199 7.67882605"></polygon>
        <polygon id="path-18" points="0.656640159 0.894972315 1.30653242 1.27829379 1.30653242 0.396654396 0.656640159 0.0133329209"></polygon>
        <polygon id="path-20" points="0.181320639 2.02227078 0.181320639 2.90391017 3.05167813 1.26329425 3.05167813 2.14493365 3.71704402 1.76161217 3.71704402 0.504317733 3.71704402 0.0059998144"></polygon>
        <polygon id="path-22" points="0.388527607 1.66161527 1.05389349 2.03727031 1.05389349 1.15563092 0.388527607 0.779975872"></polygon>
        <polygon id="path-24" points="0.388527607 2.51325559 1.05389349 2.88891063 4.58961687 0.872639672 3.92425099 0.489318197"></polygon>
        <polygon id="path-26" points="46.9279163 0.787308978 0.599882204 0.787308978 0.599882204 27.2878559 46.9279163 27.2878559"></polygon>
    </defs>
    <g id="Page-1" stroke="none" stroke-width="1" fill="none" fill-rule="evenodd">
        <g id="Головна" transform="translate(-991.000000, -2160.000000)">
            <g id="Group-15" transform="translate(991.000000, 2159.000000)">
                <g id="Page-1">
                    <g id="Group-12" transform="translate(1.745146, 30.610186)">
                        <path d="M58.4139884,40.538846 C52.6655366,42.8464412 46.9170848,45.1540365 41.168633,47.4616318 L33.8728187,47.4616318 L3.83077517,30.2734968 L55.6364727,0.650413213 L65.0444368,6.03224673 L71.2648342,2.47502344 L81.2375857,7.34320618 L106.823225,21.9707537 L86.0808304,33.846053 L58.4139884,40.538846 Z" id="Fill-1" fill="#F4F4F4"></path>
                        <g id="Group-5" transform="translate(0.000000, 0.866640)">
                            <mask id="mask-2" fill="white">
                                <use xlink:href="#path-1"></use>
                            </mask>
                            <g id="Clip-4"></g>
                        </g>
                        <polygon id="Fill-6" fill="#5D5D5D" points="14.4340769 11.0039263 44.4761204 28.1843948 44.4761204 37.4684409 14.4340769 20.280306"></polygon>
                        <path d="M36.6240293,42.7176452 C37.4054473,43.1622981 38.4653907,43.1009667 39.6568598,42.4186545 C40.8405922,41.7440087 41.9160091,40.5863778 42.6819536,39.2524191 C43.4633716,37.9184604 43.9353172,36.4235066 43.9353172,35.0665486 C43.9353172,33.7095905 43.4633716,32.7589533 42.6819536,32.3143004 C41.5446421,31.6626539 40.7864345,31.2256674 39.6413862,30.5740209 C38.8677049,30.1217015 37.792288,30.1906994 36.6085556,30.8653452 C35.4325601,31.5476574 34.3571432,32.7052883 33.5757251,34.039247 C32.8020438,35.3732058 32.3223614,36.8681595 32.3223614,38.2251175 C32.3223614,39.5820756 32.8020438,40.5327128 33.5757251,40.9773657 C34.736247,41.6366787 35.4867178,42.0659987 36.6240293,42.7176452" id="Fill-8" fill="#090E06"></path>
                        <path d="M39.6537651,32.6102246 C37.2863004,33.9671826 35.3675709,37.2560808 35.3675709,39.9699969 C35.3675709,42.6762465 37.2863004,43.7725459 39.6537651,42.4155879 C42.0212298,41.0662963 43.9399593,37.7697316 43.9399593,35.063482 C43.9399593,32.3572324 42.0212298,31.2532665 39.6537651,32.6102246" id="Fill-10" fill="#232323"></path>
                    </g>
                    <polygon id="Fill-13" fill="#FFFFFF" points="52.1383804 30.9148437 80.7413768 47.2750042 85.3370435 44.6454189 56.741784 28.2852583"></polygon>
                    <g id="Group-20" transform="translate(0.000000, 53.609475)">
                        <polygon id="Fill-15" fill="#FFFFFF" points="5.66953631 0.244859092 0.00618945012 3.48775878 31.7890158 21.6725296 37.4600995 18.4296299"></polygon>
                        <g id="Group-19" transform="translate(26.700729, 17.799449)">
                            <mask id="mask-4" fill="white">
                                <use xlink:href="#path-3"></use>
                            </mask>
                            <g id="Clip-18"></g>
                            <polygon id="Fill-17" fill="#A2A2A2" mask="url(#mask-4)" points="0.365736004 0.167128163 4.93819228 2.78138063 4.93819228 1.80774408 8.56675741 1.80774408 8.56675741 1.8920748 6.725396 2.93470922 4.93819228 2.93470922 0.226473376 0.243792458"></polygon>
                        </g>
                    </g>
                    <g id="Group-23" transform="translate(30.947251, 68.075694)">
                        <mask id="mask-6" fill="white">
                            <use xlink:href="#path-5"></use>
                        </mask>
                        <g id="Clip-22"></g>
                        <polygon id="Fill-21" mask="url(#mask-6)" points="0.843312579 6.20047486 2.59956905 6.20047486 6.51439625 3.96187744 0.843312579 0.726644188"></polygon>
                    </g>
                    <g id="Group-49" transform="translate(0.000000, 0.811108)">
                        <polygon id="Fill-24" fill="#5D5D5D" points="53.0196034 23.3810434 79.8663433 38.7369017 79.8663433 48.0209478 53.0196034 32.6650895"></polygon>
                        <path d="M72.0142521,52.8116996 C72.7956702,53.2563526 73.8633504,53.1873547 75.0470827,52.5127089 C76.230815,51.8303967 77.306232,50.6727658 78.0721764,49.3388071 C78.8535945,48.0125148 79.3332769,46.5098946 79.3332769,45.1529366 C79.3332769,43.7959785 78.8535945,42.8453413 78.0721764,42.4083548 C76.9426018,41.7567083 76.1766573,41.3120554 75.0393459,40.6604089 C74.2579278,40.215756 73.1825108,40.2770874 71.9987785,40.9593996 C70.822783,41.6340454 69.747366,42.7993427 68.9659479,44.1333014 C68.1922667,45.4595937 67.7125843,46.9622139 67.7125843,48.3191719 C67.7125843,49.67613 68.1922667,50.6267672 68.9659479,51.0637537 C70.1264698,51.7230666 70.8769407,52.1523867 72.0142521,52.8116996" id="Fill-26" fill="#090E06"></path>
                        <path d="M75.043988,42.6966125 C72.6765233,44.0535706 70.7577938,47.3501353 70.7577938,50.0563849 C70.7577938,52.7626345 72.6765233,53.8666003 75.043988,52.5096423 C77.4114526,51.1603507 79.337919,47.863786 79.337919,45.14987 C79.337919,42.4436204 77.4114526,41.3473209 75.043988,42.6966125" id="Fill-28" fill="#2B2B2B"></path>
                        <path d="M83.5815607,31.5043921 L43.8917118,54.2200227 L31.7913369,66.2333178 L31.7913369,73.4704272 L36.5881607,70.7258455 L36.5881607,69.6142132 C36.5881607,66.5706407 38.7389946,62.8677552 41.4004582,61.3498022 C44.0619217,59.8241827 46.2204924,61.0584779 46.2204924,64.1020504 L46.2204924,67.2682858 L70.2278221,53.5300441 L70.2278221,50.3638087 C70.2278221,47.3202362 72.3863928,43.6173507 75.0401196,42.0993977 C77.7015831,40.5737782 79.8678907,41.8157398 79.8678907,44.8516459 L79.8678907,45.9632782 L83.5815607,43.8320108 L83.5815607,31.5043921 Z" id="Fill-30" fill="#DDC000"></path>
                        <polygon id="Fill-32" fill="#FFEE7E" points="1.75548279 49.0528492 31.7897895 66.2333178 31.7897895 73.4704272 1.75548279 56.2822923"></polygon>
                        <path d="M8.08729026,59.9016137 L3.25951917,57.1493655 L2.51678515,55.2480909 L2.51678515,50.9625568 L7.22850406,53.66114 L8.08729026,55.8537389 L8.08729026,59.9016137 Z M31.7851474,69.2163255 L31.7851474,73.4711939 L27.0656917,70.7649443 L26.3152209,68.8636697 L26.3152209,64.5781357 L31.0346766,67.2767188 L31.7851474,69.2163255 Z" id="Fill-34" fill="#A2A2A2"></path>
                        <polygon id="Fill-36" fill="#F0D20D" points="71.885821 15.4225229 51.1356895 27.2901558 43.8940329 54.2223227 83.5838818 31.506692"></polygon>
                        <polygon id="Fill-38" fill="#8C7900" points="69.2638152 18.664656 76.9619438 35.2931416 45.7516416 53.1559223 52.4439845 28.286025"></polygon>
                        <polygon id="Fill-40" fill="#FAD900" points="1.75548279 49.0528492 31.7897895 66.2333178 43.8901645 54.2200227 13.848121 37.0318878"></polygon>
                        <polygon id="Fill-42" fill="#FFE431" points="25.5554659 12.6526419 51.1411053 27.2878559 43.8917118 54.2200227 13.8496683 37.0318878"></polygon>
                        <g id="Group-46" transform="translate(24.955584, -0.000000)">
                            <mask id="mask-8" fill="white">
                                <use xlink:href="#path-7"></use>
                            </mask>
                            <g id="Clip-45"></g>
                            <polygon id="Fill-44" fill="#C5E6F1" mask="url(#mask-8)" points="0.599882204 12.6526419 26.1855216 27.2878559 46.9279163 15.420223 21.3500137 0.78500905"></polygon>
                        </g>
                        <polygon id="Fill-47" fill="#E2E2E2" points="0.00309472506 56.2853588 31.7859211 74.4701296 31.7859211 76.5247328 0.00309472506 58.339962"></polygon>
                    </g>
                    <path d="M80.7413768,47.2826707 L80.7413768,49.3296074 L85.3370435,46.6923556 L85.3370435,44.6454189 L80.7413768,47.2826707 Z M47.1017154,66.5330752 L47.1017154,68.5800119 L71.1090451,54.8417702 L71.1090451,52.7948335 L47.1017154,66.5330752 Z M31.7905632,75.2804712 L31.7905632,77.3274079 L37.4616468,74.0921747 L37.4616468,72.0375716 L31.7905632,75.2804712 Z" id="Fill-50" fill="#C8C8C8"></path>
                    <g id="Group-54" transform="translate(79.113272, 45.943045)">
                        <mask id="mask-10" fill="white">
                            <use xlink:href="#path-9"></use>
                        </mask>
                        <g id="Clip-53"></g>
                        <polygon id="Fill-52" fill="#F7F2EC" mask="url(#mask-10)" points="0.753844775 2.88824399 1.6281046 3.38656191 1.6281046 1.33962523 0.753844775 0.825974449"></polygon>
                    </g>
                    <g id="Group-57" transform="translate(45.664646, 65.475775)">
                        <mask id="mask-12" fill="white">
                            <use xlink:href="#path-11"></use>
                        </mask>
                        <g id="Clip-56"></g>
                        <polygon id="Fill-55" fill="#F7F2EC" mask="url(#mask-12)" points="0.555072679 2.59825296 1.43706932 3.10423731 1.43706932 1.05730063 0.555072679 0.543649849"></polygon>
                    </g>
                    <polygon id="Fill-58" fill="#FFFFFF" points="46.2197188 66.0194244 47.1017154 66.5330752 71.1090451 52.7948335 70.2270484 52.2888491"></polygon>
                    <g id="Group-68" transform="translate(6.980583, 19.477197)">
                        <polygon id="Fill-60" fill="#FFEE7E" points="39.0882681 33.2992366 39.0882681 33.2992366 38.925795 33.8895516 38.7710588 34.4798667 69.981361 16.6247524 69.5480995 16.3717602 69.1071011 16.1264345 68.6661028 15.8734423 39.2507411 32.7012551"></polygon>
                        <polygon id="Fill-62" fill="#FFEE7E" points="68.6676502 15.8703757 61.5188353 0.430186692 62.2847798 0.000866639857 69.9829083 16.6293522"></polygon>
                        <polygon id="Fill-64" fill="#727272" points="0.244826492 34.9912176 19.3392801 45.9158796 19.3392801 50.1937473 0.244826492 39.2767517"></polygon>
                        <polygon id="Fill-66" fill="#F2F8F7" points="18.4611519 46.4157308 23.1728708 49.114314 23.1728708 53.3921817 18.4611519 50.7012649"></polygon>
                    </g>
                    <g id="Group-71" transform="translate(29.318448, 68.075694)">
                        <mask id="mask-14" fill="white">
                            <use xlink:href="#path-13"></use>
                        </mask>
                        <g id="Clip-70"></g>
                        <polygon id="Fill-69" fill="url(#linearGradient-15)" mask="url(#mask-14)" points="0.839647773 0.511984162 0.839647773 4.79751826 1.7139076 4.29153391 1.7139076 0.0059998144"></polygon>
                    </g>
                    <g id="Group-76" transform="translate(0.872573, 51.876195)">
                        <polygon id="Fill-72" fill="#FFFFFF" points="25.4457427 13.5153486 30.1574616 16.2139318 29.2832018 16.7122497 24.5714829 14.0136665"></polygon>
                        <polygon id="Fill-74" fill="#F2F8F7" points="0.76995247 0.398854328 5.47393456 3.09743752 5.47393456 7.37530518 0.76995247 4.68438842"></polygon>
                    </g>
                    <g id="Group-79" transform="translate(6.108010, 54.461385)">
                        <mask id="mask-17" fill="white">
                            <use xlink:href="#path-16"></use>
                        </mask>
                        <g id="Clip-78"></g>
                        <polygon id="Fill-77" fill="url(#linearGradient-15)" mask="url(#mask-17)" points="0.243913199 0.503048027 0.243913199 4.78858212 1.11817303 4.29026421 1.11817303 0.0123965386"></polygon>
                    </g>
                    <polygon id="Fill-80" fill="#FFFFFF" points="2.51833252 51.7736651 7.22231461 54.4722483 6.34805478 54.9705662 1.63633588 52.271983"></polygon>
                    <g id="Group-84" transform="translate(65.384793, 45.943045)">
                        <mask id="mask-19" fill="white">
                            <use xlink:href="#path-18"></use>
                        </mask>
                        <g id="Clip-83"></g>
                        <polygon id="Fill-82" mask="url(#mask-19)" points="0.656640159 0.894972315 1.30653242 1.27829379 1.30653242 0.396654396 0.656640159 0.0133329209"></polygon>
                    </g>
                    <g id="Group-87" transform="translate(63.639647, 45.076406)">
                        <mask id="mask-21" fill="white">
                            <use xlink:href="#path-20"></use>
                        </mask>
                        <g id="Clip-86"></g>
                        <polygon id="Fill-85" mask="url(#mask-21)" points="0.181320639 2.02227078 0.181320639 2.90391017 3.05167813 1.26329425 3.05167813 2.14493365 3.71704402 1.76161217 3.71704402 0.504317733 3.71704402 0.0059998144"></polygon>
                    </g>
                    <g id="Group-90" transform="translate(62.767074, 45.943045)">
                        <mask id="mask-23" fill="white">
                            <use xlink:href="#path-22"></use>
                        </mask>
                        <g id="Clip-89"></g>
                        <polygon id="Fill-88" mask="url(#mask-23)" points="0.388527607 1.66161527 1.05389349 2.03727031 1.05389349 1.15563092 0.388527607 0.779975872"></polygon>
                    </g>
                    <g id="Group-93" transform="translate(62.767074, 44.209766)">
                        <mask id="mask-25" fill="white">
                            <use xlink:href="#path-24"></use>
                        </mask>
                        <g id="Clip-92"></g>
                        <polygon id="Fill-91" mask="url(#mask-25)" points="0.388527607 2.51325559 1.05389349 2.88891063 4.58961687 0.872639672 3.92425099 0.489318197"></polygon>
                    </g>
                    <g id="Group-96" transform="translate(24.955584, 0.811108)">
                        <mask id="mask-27" fill="white">
                            <use xlink:href="#path-26"></use>
                        </mask>
                        <g id="Clip-95"></g>
                        <polygon id="Fill-94" fill="#FFEE7E" mask="url(#mask-27)" points="0.599882204 12.6526419 26.1855216 27.2878559 46.9279163 15.420223 21.3500137 0.78500905"></polygon>
                    </g>
                    <g id="Group-119" transform="translate(2.617719, 15.277327)">
                        <polygon id="Fill-115" fill="#BDABA1" points="0.641026922 42.6724133 5.46879801 45.4323279 5.2134832 45.4399943 0.501764295 42.756744"></polygon>
                        <polygon id="Fill-117" fill="#B59D09" points="23.6023395 0.312323672 46.7508829 13.5599139 40.3138548 37.4638411 35.4860837 34.7039265 31.0606269 26.5315126 30.4803659 26.8458362 34.40293 34.0829457 22.2716077 27.1371605 18.171097 19.5933939 17.5985729 19.9000511 21.188454 26.5238462 13.2118001 21.9546542"></polygon>
                    </g>
                </g>
            </g>
        </g>
    </g>
</svg>