<?xml version="1.0" encoding="UTF-8"?>
<svg width="488px" height="199px" viewBox="0 0 488 199" version="1.1" xmlns="http://www.w3.org/2000/svg" xmlns:xlink="http://www.w3.org/1999/xlink">
    <!-- Generator: Sketch 50.2 (55047) - http://www.bohemiancoding.com/sketch -->
    <title>Group 13</title>
    <desc>Created with Sketch.</desc>
    <defs></defs>
    <g id="Page-1" stroke="none" stroke-width="1" fill="none" fill-rule="evenodd">
        <g id="Про-комплекс" transform="translate(-717.000000, -3354.000000)">
            <g id="Group-13" transform="translate(717.000000, 3354.000000)">
                <g id="Group-18" transform="translate(293.000000, 43.000000)">
                    <g id="Group-17">
                        <g id="All_images-19">
                            <path d="M46.1333438,128.026447 L11.8815938,128.026447 L48.3179531,106.909553 L65.4438281,116.834824 L46.1333438,128.026447 Z M83.6287969,152.685459 L54.4214531,152.685459 L69.0275625,144.219859 L83.6287969,152.685459 Z M96.4555312,155.779153 L96.2452969,155.899059 L45.9346875,155.899059 L42.9176719,154.162259 L64.5517031,141.624753 L46.639125,131.240659 L3.39421875,131.240659 L0.3778125,129.503859 L46.917,102.532376 L49.8334687,102.532376 L49.8590625,102.517694 L70.0013437,114.194447 L85.6744687,105.112188 L85.678125,105.115247 L92.742,105.115247 L92.7456562,105.112188 L92.7584531,105.120753 L149.201203,101.567012 L157.90125,105.739859 L172.729781,114.335153 L187.823391,123.110306 L194.766,127.974447 L194.764172,127.974447 L194.6685,128.030729 L194.572828,128.085176 L194.476547,128.141459 L194.380875,128.196518 L194.284594,128.2528 L194.188922,128.307247 L194.092641,128.363529 L193.996969,128.419812 L193.901297,128.474259 L193.804406,128.530541 L193.708734,128.5856 L193.612453,128.641271 L193.516781,128.697553 L193.421109,128.752612 L193.325437,128.808894 L193.229156,128.863953 L193.132875,128.919624 L193.037203,128.975906 L192.941531,129.030353 L192.845859,129.086635 L192.748969,129.141694 L192.653297,129.197976 L192.557625,129.252424 L192.461953,129.308706 L192.365672,129.364988 L192.269391,129.420047 L192.173719,129.476329 L192.078047,129.530165 L191.982375,129.586447 L191.886094,129.641506 L191.69475,129.754071 L191.599078,129.809129 L191.502797,129.8648 L191.407125,129.919247 L191.311453,129.975529 L191.215172,130.030588 L191.1195,130.087482 L191.023219,130.143153 L190.927547,130.1976 L190.831875,130.253882 L190.736203,130.308941 L190.639922,130.365224 L190.54425,130.419671 L190.449797,130.475341 L190.353516,130.531012 L190.257844,130.586682 L190.161562,130.641741 L190.065891,130.698024 L189.970219,130.752471 L189.874547,130.808753 L189.778266,130.8632 L188.632031,131.529412 L132.164297,135.083153 L96.4555312,155.779153 Z" id="Fill-1" fill="#9AD8EF"></path>
                            <polyline id="Fill-2" fill="#F1F2F5" points="45.3722344 103.956565 84.9005625 126.865929 84.9005625 129.816471 45.3722344 106.906494 45.3722344 103.956565"></polyline>
                            <polyline id="Fill-3" fill="#E2E4EA" points="62.5035938 113.885506 84.9005625 126.865929 84.9005625 129.816471 63.9709688 117.688235 62.5035938 113.885506"></polyline>
                            <polyline id="Fill-4" fill="#FFFFFF" points="2.92560938 125.067953 46.917 99.5671529 92.4744844 125.977035 48.481875 151.471718 45.46425 149.726353 84.9005625 126.864706 45.3740625 103.957788 5.9401875 126.812094 2.92560938 125.067953"></polyline>
                            <polyline id="Fill-5" fill="#F1F2F5" points="8.94989062 125.067953 5.9401875 126.812094 2.92560938 125.067953 8.94989062 125.067953"></polyline>
                            <polyline id="Fill-6" fill="#F1F2F5" points="67.0611094 111.245741 92.4744844 125.977035 66.0873281 141.268706 63.0715312 139.520894 84.9005625 126.864706 62.5048125 113.885506 67.0611094 111.245741"></polyline>
                            <polyline id="Fill-7" fill="#F1F2F5" points="3.39421875 131.240659 3.39421875 83.6857412 0.380859375 81.9385412 0.3778125 129.497129 3.39421875 131.240659"></polyline>
                            <path d="M3.3954375,80.7284706 L5.9401875,79.2547294 L5.9401875,126.812094 L49.9334062,101.311294 L49.9334062,104.262447 L3.393,131.240659 C3.393,114.411012 3.3954375,97.5636235 3.3954375,80.7284706" id="Fill-8" fill="#E2E4EA"></path>
                            <polyline id="Fill-9" fill="#FFFFFF" points="87.9913125 81.016 45.9395625 105.397271 0.37659375 78.9831059 42.4356562 54.6116235 87.9913125 81.016"></polyline>
                            <path d="M45.9359063,105.3936 L48.4806563,103.920471 L48.4806563,151.477835 L92.4744844,125.977035 L92.4744844,128.927576 L45.9334688,155.905788 C45.9334688,139.076753 45.9359063,122.228141 45.9359063,105.3936" id="Fill-10" fill="#E2E4EA"></path>
                            <polyline id="Fill-11" fill="#FFFFFF" points="42.427125 4.06945882 51.1588594 8.25698824 80.764125 25.4139294 87.988875 30.4762824 94.1228437 26.9219294 87.1814531 22.0584 72.0884531 13.2826353 57.2593125 4.68734118 48.5592656 0.514494118 42.427125 4.06945882"></polyline>
                            <polyline id="Fill-12" fill="#F1F2F5" points="36.2937656 58.1647529 45.0273281 62.3522824 74.631375 79.5092235 81.856125 84.5721882 87.988875 30.4762824 81.0493125 25.6158118 65.9563125 16.8369882 51.124125 8.24352941 42.42225 4.06945882 36.2937656 58.1647529"></polyline>
                            <polyline id="Fill-13" fill="#F1F2F5" points="45.9346875 155.905788 45.9346875 108.350871 42.9207188 106.603671 42.9176719 154.162259 45.9346875 155.905788"></polyline>
                            <polyline id="Fill-14" fill="#E2E4EA" points="87.9913125 88.1136941 87.9913125 81.016 87.988875 81.0178353 94.1197969 26.9249882 87.988875 30.4762824 81.856125 84.5721882 45.9346875 105.394212 45.9359063 112.491294 87.9913125 88.1136941"></polyline>
                            <polyline id="Fill-15" fill="#F1F2F5" points="45.9359062 112.491294 45.9359062 105.391765 0.37659375 78.9886118 0.3778125 86.0856941 45.9359062 112.491294"></polyline>
                        </g>
                    </g>
                    <g id="Group-6-Copy-7" transform="translate(22.000000, 75.000000)">
                        <g id="Page-1" transform="translate(10.000000, 8.000000) scale(-1, 1) translate(-10.000000, -8.000000) ">
                            <polygon id="Fill-1" fill="#D5DEE5" points="7.3388308 7.84424256 0 11.8909776 7.3388308 15.9403185 12.5390743 15.9403185 18.0043351 12.9254618 18.0043351 10.8564935 12.5390743 7.84424256"></polygon>
                            <polygon id="Fill-5" fill="#FDED87" points="5.28253183 4.04777739 12.6213626 8.09711822 19.9601934 4.05038314 12.6240898 0.00104230137"></polygon>
                            <polygon id="Fill-6" fill="#FFDD00" points="12.6202718 8.09659707 12.6202718 15.9245191 19.9591026 11.877784 19.9591026 4.04986199"></polygon>
                            <polygon id="Fill-7" fill="#DDC001" points="5.2819864 4.04803796 12.6208172 8.0973788 12.6208172 15.9253008 5.2819864 11.87596"></polygon>
                        </g>
                    </g>
                    <g id="Group-6-Copy-5" transform="translate(33.000000, 73.000000)">
                        <g id="Page-1" transform="translate(14.500000, 12.000000) scale(-1, 1) translate(-14.500000, -12.000000) ">
                            <polygon id="Fill-1" fill="#D5DEE5" points="10.6413047 11.7663638 0 17.8364665 10.6413047 23.9104777 18.1816577 23.9104777 26.1062859 19.3881926 26.1062859 16.2847403 18.1816577 11.7663638"></polygon>
                            <polygon id="Fill-5" fill="#FDED87" points="7.65967116 6.07166608 18.3009758 12.1456773 28.9422805 6.07557471 18.3049302 0.00156345206"></polygon>
                            <polygon id="Fill-6" fill="#FFDD00" points="18.2993941 12.1448956 18.2993941 23.8867786 28.9406987 17.816676 28.9406987 6.07479298"></polygon>
                            <polygon id="Fill-7" fill="#DDC001" points="7.65888028 6.07205694 18.3001849 12.1460682 18.3001849 23.8879512 7.65888028 17.81394"></polygon>
                        </g>
                    </g>
                </g>
                <g id="Group-6-Copy-6">
                    <g id="Page-1" transform="translate(45.500000, 38.000000) scale(-1, 1) translate(-45.500000, -38.000000) ">
                        <polygon id="Fill-1" fill="#9AD8EF" points="33.3916801 37.2601522 0 56.4821438 33.3916801 75.7165128 57.052788 75.7165128 81.9197248 61.3959433 81.9197248 51.5683443 57.052788 37.2601522"></polygon>
                        <polygon id="Fill-5" fill="#FFFFFF" points="24.0355198 19.2269426 57.4272 38.4613116 90.8188801 19.2393199 57.4396086 0.00495093152"></polygon>
                        <polygon id="Fill-6" fill="#F1F2F5" points="57.4222365 38.4588361 57.4222365 75.6414656 90.8139166 56.419474 90.8139166 19.2368444"></polygon>
                        <polygon id="Fill-7" fill="#E2E4EA" points="24.0330381 19.2281803 57.4247182 38.4625493 57.4247182 75.6451788 24.0330381 56.4108099"></polygon>
                    </g>
                </g>
            </g>
        </g>
    </g>
</svg>