<?xml version="1.0" encoding="UTF-8"?>
<svg width="184px" height="152px" viewBox="0 0 184 152" version="1.1" xmlns="http://www.w3.org/2000/svg" xmlns:xlink="http://www.w3.org/1999/xlink">
    <!-- Generator: Sketch 50.2 (55047) - http://www.bohemiancoding.com/sketch -->
    <title>Group 26</title>
    <desc>Created with Sketch.</desc>
    <defs></defs>
    <g id="Page-1" stroke="none" stroke-width="1" fill="none" fill-rule="evenodd">
        <g id="Головна" transform="translate(-1107.000000, -4118.000000)">
            <g id="Group-26" transform="translate(1107.000000, 4118.000000)">
                <g id="Group-6-Copy-5">
                    <g id="Page-1" transform="translate(92.000000, 76.000000) scale(-1, 1) translate(-92.000000, -76.000000) ">
                        <polygon id="Fill-1" fill="#1CAC7A" points="67.5172433 74.5203043 0 112.964288 67.5172433 151.433026 115.359483 151.433026 165.639883 122.791887 165.639883 103.136689 115.359483 74.5203043"></polygon>
                        <polygon id="Fill-5" fill="#FFFFFF" points="48.5992929 38.4538852 116.116536 76.9226231 183.63378 38.4786398 116.141626 0.00990186305"></polygon>
                        <polygon id="Fill-6" fill="#FAFAFA" points="116.1065 76.9176722 116.1065 151.282931 183.623744 112.838948 183.623744 38.4736889"></polygon>
                        <polygon id="Fill-7" fill="#BBC4D7" points="48.5942749 38.4563606 116.111518 76.9250986 116.111518 151.290358 48.5942749 112.82162"></polygon>
                    </g>
                </g>
                <polygon id="Path-17" fill="#F4F4F4" points="67.9345093 151.435333 116.804821 151.467848 184.097085 113.048552 135.29524 113.048552 67.8782654 151.28244"></polygon>
            </g>
        </g>
    </g>
</svg>