<?xml version="1.0" encoding="UTF-8"?>
<svg width="1600px" height="794px" viewBox="0 0 1600 794" version="1.1" xmlns="http://www.w3.org/2000/svg" xmlns:xlink="http://www.w3.org/1999/xlink">
    <!-- Generator: Sketch 50.2 (55047) - http://www.bohemiancoding.com/sketch -->
    <title>Group 14</title>
    <desc>Created with Sketch.</desc>
    <defs></defs>
    <g id="Page-1" stroke="none" stroke-width="1" fill="none" fill-rule="evenodd">
        <g id="Розташування" transform="translate(0.000000, -2603.000000)">
            <g id="Group-14" transform="translate(0.000000, 2328.000000)">
                <path d="M1779.17782,130.081956 C1786.3956,259.128122 1714.70665,513.730925 1598.65616,577.175134 C1482.60567,640.619344 1379.40955,643.318108 1193.85945,690.912286 C1008.30935,738.506465 914,817.48527 914,966.95271 C914,1066.59767 946.11822,1093.26824 1010.35466,1046.96443 C946.302497,933.101528 979.608809,846.627309 1110.2736,787.541769 C1306.27078,698.913458 1472.33185,721.947662 1633.6386,626.902913 C1794.94534,531.858164 1858.25422,342.930462 1842.72339,130.081956 C1827.19256,-82.7665494 1771.96004,1.03578995 1779.17782,130.081956 Z" id="Path-16" fill="#FFF29C"></path>
                <g id="Group-13" transform="translate(0.000000, 275.000000)">
                    <path d="M701.905333,30 C682.494072,108.791061 616.029643,164.369546 502.512047,196.735456 C247.428627,269.464329 79.9246112,355.897081 0,456.033714 L0,30 L701.905333,30 Z" id="Combined-Shape" fill="#FFFFFF"></path>
                    <g id="Group-9" transform="translate(817.000000, 322.000000)">
                        <g id="All_images-22">
                            <polyline id="Fill-1" fill="#EFC700" points="165.227887 142.129639 65.2448103 126.799016 47.8309846 136.66623 26.9881949 136.66623 20.9279179 140.168984 26.9881949 143.67259 47.8309846 143.67259 68.2881436 155.501311 165.227887 142.129639"></polyline>
                            <polyline id="Fill-2" fill="#393939" points="26.9881949 143.67259 26.9881949 101.144262 33.0467692 97.6415082 33.0467692 140.168984 26.9881949 143.67259"></polyline>
                            <polyline id="Fill-3" fill="#737170" points="26.9881949 143.67259 26.9881949 120.287934 20.9279179 116.78518 20.9279179 140.169836 26.9881949 143.67259"></polyline>
                            <polyline id="Fill-4" fill="#4B4B4B" points="26.9881949 124.490557 26.9881949 101.144262 20.9279179 97.6415082 20.9279179 120.986098 26.9881949 124.490557"></polyline>
                            <polyline id="Fill-5" fill="#27EB91" points="26.9881949 0.837967213 26.9881949 115.649705 0.471610256 100.317377 26.9881949 0.837967213"></polyline>
                            <polyline id="Fill-6" fill="#23B47A" points="26.9873436 0.837967213 26.9873436 115.650557 52.7045744 100.780262 26.9873436 0.837967213"></polyline>
                        </g>
                    </g>
                    <g id="Tree-Copy-3" transform="translate(675.000000, 153.000000) scale(-1, 1) translate(-675.000000, -153.000000) translate(615.000000, 101.000000)">
                        <g id="Group-32-Copy">
                            <g id="Page-1">
                                <polygon id="Fill-1" fill="#EFC700" points="18.0024184 82.7883919 0 93.1557162 18.0024184 103.529716 83.8841784 103.529716 97.2906616 95.8059595 101.605623 95.8059595 106.201558 93.1557162 101.605623 90.505473 97.2906616 90.505473 83.8841784 82.7883919"></polygon>
                                <polygon id="Fill-2" fill="#595959" points="97.0083494 93.1583865 101.604285 95.8086297 101.604285 78.1247649 97.0083494 75.4745216"></polygon>
                                <polygon id="Fill-3" fill="#888888" points="101.602278 78.1261 101.602278 95.8099649 106.204903 93.1597216 106.204903 75.4758568"></polygon>
                                <polygon id="Fill-5" fill="#FFEE7E" points="101.591574 0.00267027027 83.6025352 10.3699946 101.604954 20.7439946 119.607372 10.3766703 119.607372 10.3699946 101.611643 0.00267027027"></polygon>
                                <polygon id="Fill-6" fill="#FAD900" points="101.602278 20.7426595 101.602278 85.8505243 119.604696 75.4832 119.604696 10.3753351"></polygon>
                                <polygon id="Fill-7" fill="#DDC000" points="83.6011972 10.3706622 101.603616 20.7446622 101.603616 85.852527 83.6011972 75.478527"></polygon>
                            </g>
                        </g>
                    </g>
                    <g id="Group-4" transform="translate(445.500000, 297.000000) scale(-1, 1) translate(-445.500000, -297.000000) translate(216.000000, 148.000000)">
                        <g id="All_images-21">
                            <polyline id="Fill-2" fill="#EFC700" points="411.77865 273.037632 302.902683 256.310982 287.607099 265.170803 287.418494 265.06099 283.939791 267.077347 261.244394 267.077347 254.645569 270.89978 261.244394 274.722213 283.939791 274.722213 306.216067 287.628766 411.77865 273.037632"></polyline>
                            <polyline id="Fill-4" fill="#EFC700" points="313.64382 251.441819 343.825182 251.441819 345.238551 250.624062 372.774794 250.624062 378.083658 253.698831 390.31966 255.124066 399.922186 249.560977 390.31966 243.995551 378.083658 245.41845 372.772465 248.495555 345.236222 248.495555 343.825182 247.677798 313.650806 247.677798 312.016234 246.731535 307.259212 246.731535 302.381111 249.556304 307.259212 252.383409 312.016234 252.383409 313.64382 251.441819"></polyline>
                            <polyline id="Fill-5" fill="#EFC700" points="372.111186 217.567959 402.292547 217.567959 403.701259 216.752538 431.239831 216.752538 436.551024 219.827307 448.782369 221.252541 458.387222 215.689453 448.782369 210.124027 436.551024 211.546926 431.237502 214.624031 403.698931 214.624031 402.292547 213.806273 372.118171 213.806273 370.4836 212.860011 365.724249 212.860011 360.843819 215.68478 365.724249 218.511885 370.4836 218.511885 372.111186 217.567959"></polyline>
                            <polyline id="Fill-6" fill="#EFC700" points="99.8223091 127.565546 130.003671 127.565546 131.414711 126.747788 158.950954 126.747788 164.262147 129.824894 176.49582 131.247792 186.100674 125.684703 176.49582 120.119278 164.262147 121.544513 158.950954 124.619282 131.412383 124.619282 130.003671 123.80386 99.8292944 123.80386 98.1947229 122.855261 93.4353723 122.855261 88.5549423 125.68003 93.4353723 128.507135 98.1947229 128.507135 99.8223091 127.565546"></polyline>
                            <polyline id="Fill-7" fill="#EFC700" points="158.287346 93.6940218 188.468707 93.6940218 189.879748 92.876264 217.415991 92.876264 222.727184 95.9533695 234.960857 97.3762679 244.565711 91.813179 234.960857 86.2477537 222.727184 87.6729886 217.413662 90.7477576 189.877419 90.7477576 188.468707 89.9323363 158.294331 89.9323363 156.65976 88.9814009 151.902738 88.9814009 147.022308 91.8085061 151.902738 94.6356113 156.65976 94.6356113 158.287346 93.6940218"></polyline>
                            <path d="M103.966949,126.579564 L91.905581,119.59124 L81.5463095,119.59124 L72.5771223,124.789843 C88.822714,134.198729 105.065977,143.609952 121.313897,153.023511 C155.355828,163.152025 187.674706,176.107643 212.058229,190.233823 C236.44408,204.357667 248.803489,217.285248 249.716241,227.409089 C261.938272,234.493207 274.160303,241.574989 286.386991,248.65677 C290.408224,250.986212 294.427127,253.315653 298.448359,255.645094 C301.875837,255.645094 305.34057,255.645094 308.800646,255.645094 L317.772161,250.448828 C313.750929,248.119387 309.732025,245.789945 305.710793,243.460504 C302.648882,232.315635 299.666138,221.203476 296.676409,210.081971 C267.852534,193.383359 239.024001,176.684747 210.200126,159.981461 C174.765783,148.841265 139.326782,137.701069 103.966949,126.579564" id="Fill-8" fill="#EFC700"></path>
                            <path d="M162.434314,92.7080396 L150.372946,85.7197159 L140.016003,85.7197159 L131.046816,90.915982 C147.292408,100.327205 163.537999,109.738428 179.781263,119.149651 C213.823193,129.280501 246.142071,142.236119 270.527922,156.362299 C294.911445,170.486143 307.270854,183.413724 308.185935,193.537565 C320.407966,200.621683 332.629997,207.703464 344.856685,214.785246 C348.875589,217.114687 352.896821,219.444129 356.915725,221.77357 C360.343202,221.77357 363.807935,221.77357 367.270339,221.77357 L376.239527,216.577304 C372.220623,214.247863 368.199391,211.918421 364.180487,209.586644 C361.118576,198.444111 358.135832,187.331952 355.146103,176.210447 C326.322228,159.511835 297.493695,142.813222 268.667491,126.109937 C233.233148,114.969741 197.796476,103.829544 162.434314,92.7080396" id="Fill-9" fill="#EFC700"></path>
                            <polyline id="Fill-10" fill="#EFC700" points="158.287346 93.6940218 188.468707 93.6940218 189.879748 92.876264 217.415991 92.876264 222.727184 95.9533695 234.960857 97.3762679 244.565711 91.813179 234.960857 86.2477537 222.727184 87.6729886 217.413662 90.7477576 189.877419 90.7477576 188.468707 89.9323363 158.294331 89.9323363 156.65976 88.9814009 151.902738 88.9814009 148.770973 90.796823 155.39774 94.6356113 156.65976 94.6356113 158.287346 93.6940218"></polyline>
                            <path d="M162.434314,92.7080396 L150.372946,85.7197159 L140.016003,85.7197159 L140.011346,85.7220524 L223.802928,134.266486 C241.105635,141.086585 257.032229,148.544536 270.527922,156.362299 C284.028272,164.182399 293.840358,171.63334 300.064303,178.44643 L371.063383,219.577306 L376.239527,216.577304 C372.220623,214.247863 368.199391,211.918421 364.180487,209.586644 C361.118576,198.444111 358.135832,187.331952 355.146103,176.210447 C326.322228,159.511835 297.493695,142.813222 268.667491,126.109937 C233.233148,114.969741 197.796476,103.829544 162.434314,92.7080396" id="Fill-11" fill="#EFC700"></path>
                            <path d="M350.535773,58.6355807 L412.642505,94.6145833 C446.165191,114.035161 446.162863,145.815561 412.642505,165.233802 L209.822917,282.733902 C176.300231,302.156816 121.446619,302.156816 87.9262609,282.736239 L25.8195292,246.7549 C-7.69850033,227.334322 -7.69850033,195.558594 25.8218577,176.135681 L228.643774,58.6379172 C262.164132,39.2173399 317.017744,39.2173399 350.535773,58.6355807" id="Fill-12" fill="#FFFFFF"></path>
                            <path d="M290.750506,205.617014 L294.385215,207.722156 L292.615594,207.722156 L288.983213,205.617014 L290.750506,205.617014 Z M279.788166,199.266541 L283.422875,201.371683 L281.650925,201.371683 L278.020873,199.266541 L279.788166,199.266541 Z M268.828154,192.916069 L272.458207,195.018874 L270.686257,195.018874 L267.058533,192.916069 L268.828154,192.916069 Z M257.865814,186.567932 L261.498195,188.668402 L259.723917,188.668402 L256.096193,186.567932 L257.865814,186.567932 Z M246.903474,180.21746 L250.535855,182.320265 L248.763905,182.320265 L245.136181,180.21746 L246.903474,180.21746 Z M235.941134,173.864651 L239.573516,175.969793 L237.801566,175.969793 L234.169184,173.864651 L235.941134,173.864651 Z M224.983451,167.516514 L228.611176,169.61932 L226.839226,169.61932 L223.211501,167.516514 L224.983451,167.516514 Z M320.580271,209.843653 L234.874705,160.198751 L232.581182,161.530528 L230.285331,160.198751 L224.983451,163.271184 L215.879214,163.271184 L210.577335,160.198751 L201.608148,165.392681 L287.311386,215.039919 L292.613265,211.969823 L301.715174,211.969823 L307.019382,215.039919 L311.611084,215.039919 L320.580271,209.843653 Z" id="Fill-13" fill="#EFC700"></path>
                            <path d="M349.220199,171.74549 L352.850252,173.850632 L351.082959,173.850632 L347.448249,171.74549 L349.220199,171.74549 Z M338.257859,165.392681 L341.887912,167.500159 L340.11829,167.500159 L336.485909,165.392681 L338.257859,165.392681 Z M327.295519,159.044545 L330.923244,161.14735 L329.153622,161.14735 L325.523569,159.044545 L327.295519,159.044545 Z M316.33318,152.696408 L319.963232,154.796877 L318.191282,154.796877 L314.56123,152.696408 L316.33318,152.696408 Z M305.37084,146.345936 L309.000892,148.448741 L307.231271,148.448741 L303.601218,146.345936 L305.37084,146.345936 Z M294.406171,139.993127 L298.038552,142.098269 L296.268931,142.098269 L292.634221,139.993127 L294.406171,139.993127 Z M283.450817,133.64499 L287.076212,135.747796 L285.306591,135.747796 L281.676538,133.64499 L283.450817,133.64499 Z" id="Fill-14" fill="#EFC700"></path>
                            <path d="M333.6615,68.4066171 C338.839972,71.4042832 344.016115,74.4042857 349.192258,77.4019518 C354.370729,80.3996179 359.542216,83.3996205 364.720687,86.399623 C369.89683,89.3972891 375.072973,92.3949552 380.249116,95.3949578 C385.427588,98.3949603 390.601403,101.392626 395.777546,104.390293 C401.8385,107.901978 406.385961,111.974411 409.417602,116.322546 C412.446915,120.673017 413.962736,125.301525 413.962736,129.93237 C413.962736,134.558542 412.446915,139.189388 409.415274,143.539859 C406.385961,147.887993 401.836171,151.95809 395.777546,155.469775 C378.87766,165.26184 361.975445,175.051568 345.075559,184.843632 C328.175673,194.63336 311.273459,204.425424 294.373573,214.217489 C279.485467,218.614689 264.597362,223.011889 249.709256,227.406752 C240.58872,251.853035 223.747045,255.133411 192.967272,272.962866 C186.908646,276.474551 179.879057,279.110067 172.374465,280.864742 C164.865216,282.621752 156.873977,283.500258 148.885067,283.500258 C140.893829,283.500258 132.90259,282.621752 125.395669,280.864742 C117.888748,279.110067 110.861488,276.474551 104.798206,272.965202 C99.6220624,269.9652 94.4459194,266.967534 89.2697763,263.967531 C84.0936332,260.969865 78.9174901,257.969862 73.741347,254.972196 C68.5652039,251.972194 63.3890608,248.974528 58.2105893,245.976861 C53.0367747,242.976859 47.8606316,239.979193 42.6844885,236.97919 C36.6212062,233.467505 32.0760729,229.397408 29.0467602,225.046937 C26.0127905,220.698803 24.4992984,216.070294 24.4992984,211.439449 C24.5016269,206.81094 26.015119,202.182432 29.0444317,197.831961 C32.0784013,193.483826 36.6235346,189.413729 42.6844885,185.899708 C73.4689184,168.06558 79.1223936,158.313236 121.318554,153.025848 C145.809185,134.612281 170.299817,116.196377 194.790448,97.7781374 C211.690334,87.9884094 228.594876,78.196345 245.494762,68.4066171 C251.555716,64.8949318 258.582977,62.261752 266.089898,60.5047412 C273.596819,58.7500668 281.588057,57.8715614 289.576967,57.8715614 C297.568206,57.8715614 305.561772,58.7477304 313.066365,60.5047412 C320.573286,62.2594156 327.602875,64.8949318 333.6615,68.4066171" id="Fill-15" fill="#B8E2F7"></path>
                            <path d="M297.328375,212.50487 L260.657625,233.747879 L249.716241,227.409089 C248.803489,217.285248 236.44408,204.357667 212.058229,190.233823 C187.674706,176.107643 155.355828,163.152025 121.313897,153.023511 L110.374842,146.687057 L130.613724,134.960412 L210.200126,159.981461 C239.024001,176.684747 267.852534,193.383359 296.676409,210.081971 L297.328375,212.50487" id="Fill-16" fill="#6CB5C7"></path>
                            <path d="M360.347859,195.530557 L344.952152,204.448789 L300.064303,178.44643 C293.840358,171.63334 284.028272,164.182399 270.527922,156.362299 C257.032229,148.544536 241.105635,141.086585 223.802928,134.266486 L160.948764,97.8529038 L167.228592,94.2173867 L268.667491,126.109937 C297.493695,142.813222 326.322228,159.511835 355.146103,176.210447 C356.876141,182.649705 358.606179,189.088963 360.347859,195.530557" id="Fill-17" fill="#AA8957"></path>
                            <path d="M355.795741,178.63101 L328.091849,194.684762 L300.064303,178.44643 C293.840358,171.63334 284.028272,164.182399 270.527922,156.362299 C257.032229,148.544536 241.105635,141.086585 223.802928,134.266486 L177.809066,107.619267 L189.08109,101.086551 L268.667491,126.109937 C297.493695,142.813222 326.322228,159.511835 355.146103,176.210447 L355.795741,178.63101" id="Fill-18" fill="#6CB5C7"></path>
                            <path d="M143.091885,87.5071006 L131.044488,80.5257863 L131.044488,90.9183185 L143.091885,97.8996328 L179.783591,119.154324 C197.251619,112.649645 219.611719,115.623947 243.978942,129.743118 C268.348494,143.859952 290.706265,166.792215 308.174293,193.535228 L356.915725,221.77357 L356.915725,211.381038 L344.868327,204.40206 L287.218248,122.247784 C258.392044,105.544499 229.570497,88.8482232 200.744293,72.1472745 L143.091885,87.5071006" id="Fill-19" fill="#F1F2F5"></path>
                            <polyline id="Fill-20" fill="#E2E4E9" points="365.884912 206.184772 356.915725 211.381038 356.915725 221.77357 365.88724 216.57964 365.884912 206.184772"></polyline>
                            <polyline id="Fill-21" fill="#FFFFFF" points="365.884912 206.184772 356.915725 211.381038 344.868327 204.40206 353.835186 199.205794 365.884912 206.184772"></polyline>
                            <polyline id="Fill-22" fill="#F8F7F7" points="296.185107 117.051518 287.218248 122.247784 344.868327 204.40206 353.835186 199.205794 296.185107 117.051518"></polyline>
                            <polyline id="Fill-23" fill="#FFFFFF" points="296.185107 117.051518 287.218248 122.247784 200.744293 72.1472745 209.71348 66.9533448 296.185107 117.051518"></polyline>
                            <polyline id="Fill-24" fill="#FFFFFF" points="152.061072 82.3108345 143.091885 87.5071006 200.744293 72.1472745 209.71348 66.9533448 152.061072 82.3108345"></polyline>
                            <polyline id="Fill-25" fill="#FFFFFF" points="152.061072 82.3108345 143.091885 87.5071006 131.044488 80.5257863 140.011346 75.3318566 152.061072 82.3108345"></polyline>
                            <polyline id="Fill-26" fill="#E2E4E9" points="152.061072 82.3108345 150.354319 83.3014896 147.937388 83.3014896 146.309802 84.2430791 141.550451 84.2430791 136.67235 81.4159739 141.550451 78.5912052 145.639209 78.5912052 152.061072 82.3108345"></polyline>
                            <polyline id="Fill-27" fill="#F8F7F7" points="284.468349 130.423025 234.970171 159.098283 293.358369 242.303961 342.854219 213.628703 284.468349 130.423025"></polyline>
                            <polyline id="Fill-28" fill="#FFFFFF" points="284.468349 130.423025 234.970171 159.098283 153.996014 112.184692 203.494192 83.5094337 284.468349 130.423025"></polyline>
                            <path d="M230.578715,149.885658 L228.809094,149.885658 L232.439146,151.9908 L234.211097,151.9908 L230.578715,149.885658 Z M219.618704,143.535186 L217.846754,143.535186 L221.474478,145.640328 L223.246428,145.640328 L219.618704,143.535186 Z M208.656364,137.187049 L206.884414,137.187049 L210.512138,139.289855 L212.286417,139.289855 L208.656364,137.187049 Z M197.694024,130.836577 L195.924403,130.836577 L199.549798,132.939382 L201.324077,132.939382 L197.694024,130.836577 Z M186.729356,124.486104 L184.957406,124.486104 L188.589787,126.58891 L190.361737,126.58891 L186.729356,124.486104 Z M175.771673,118.135631 L173.999723,118.135631 L177.627447,120.238437 L179.399397,120.238437 L175.771673,118.135631 Z M251.988808,149.236125 L239.906484,156.236131 L239.771434,156.236131 L239.838959,156.278187 L234.970171,159.098283 L156.499097,113.635627 L161.365556,110.817868 L166.667435,113.890301 L175.771673,113.890301 L181.073552,110.817868 L183.369403,112.147308 L185.667583,110.817868 L251.988808,149.236125 Z" id="Fill-29" fill="#E2E4E9"></path>
                            <polyline id="Fill-30" fill="#FFFFFF" points="145.105994 99.0655216 95.6078156 127.74078 153.996014 112.184692 203.494192 83.5094337 145.105994 99.0655216"></polyline>
                            <path d="M102.41853,123.801524 C100.15062,125.114609 97.8827107,126.427694 95.6241148,127.738443 C96.0665202,127.619284 96.5042687,127.504798 96.9420171,127.387976 L97.0444689,127.34592 C97.5823407,127.030499 98.1295264,126.717414 98.6720551,126.401993 C105.755198,123.409 112.826699,120.416007 119.905185,117.423014 C120.375532,117.151986 120.845879,116.883294 121.313897,116.609929 C127.777673,113.880955 134.229806,111.147308 140.688925,108.41366 C141.403759,108.387959 142.120921,108.359922 142.840412,108.336558 C145.464575,107.352912 148.093394,106.369266 150.722214,105.38562 C153.92616,103.532815 157.127778,101.68001 160.329396,99.8225316 C159.020807,99.8739335 157.719204,99.9253355 156.415273,99.9720645 C153.304464,101.418327 150.195984,102.859917 147.080519,104.30618 C145.308569,105.331882 143.536619,106.35992 141.769326,107.380949 C135.314864,110.11226 128.855745,112.841234 122.398955,115.574881 L121.828485,115.59591 C115.362381,118.331893 108.884634,121.070213 102.41853,123.801524" id="Fill-31" fill="#E2E4E9"></path>
                            <path d="M299.591628,188.806252 C291.653944,182.217461 283.720917,175.623998 275.78789,169.032871 C267.854862,162.441744 259.921835,155.845944 251.984151,149.238461 C247.953605,151.572576 243.930044,153.904353 239.904155,156.236131 C240.844849,156.647346 241.785543,157.049216 242.721579,157.444076 C245.701994,159.920714 248.673096,162.388005 251.648854,164.855297 C250.631322,164.42539 249.61379,163.99782 248.589272,163.560904 C245.674053,161.140341 242.751849,158.715105 239.83663,156.275851 C238.213701,157.215104 236.590772,158.156693 234.970171,159.098283 C238.21603,163.731464 241.461888,168.357637 244.70309,172.976799 C246.00935,174.065585 247.31561,175.156708 248.624198,176.238484 C250.389163,175.215119 252.156456,174.191754 253.923749,173.168388 C259.169746,175.383344 264.415743,177.600635 269.661739,179.81559 C274.006626,183.430079 278.346855,187.037559 282.687085,190.642702 C285.334532,191.766535 287.981979,192.888031 290.622441,194.004855 L290.629426,194.002518 C293.61217,192.271208 296.601899,190.537562 299.591628,188.806252" id="Fill-32" fill="#E2E4E9"></path>
                            <path d="M239.827317,156.28286 C238.202059,157.222113 236.583786,158.15903 234.970171,159.098283 C244.70309,172.976799 254.445322,186.852979 264.168927,200.715141 C273.897189,214.574966 283.637093,228.444136 293.367683,242.294615 C296.830087,240.292277 300.292491,238.28293 303.757224,236.275919 C296.203734,225.539928 288.6712,214.796928 281.143323,204.070284 C273.620103,193.343639 266.096883,182.607649 258.573663,171.866985 C252.321776,166.675392 246.074546,161.483799 239.827317,156.28286" id="Fill-33" fill="#E2E4E9"></path>
                            <path d="M84.6268481,121.380961 L72.5771223,114.39731 L72.5771223,124.792179 L121.318554,153.025848 C138.786582,146.521169 161.144353,149.495471 185.513905,163.614642 C209.883457,177.731476 232.2389,200.663739 249.706927,227.406752 L286.400962,248.666116 L298.450688,255.645094 L298.450688,245.252562 L286.400962,238.273584 L228.750883,156.119308 C199.927007,139.416023 171.103132,122.719747 142.279256,106.018799 L84.6268481,121.380961" id="Fill-34" fill="#F1F2F5"></path>
                            <polyline id="Fill-35" fill="#E2E4E9" points="307.419875 240.056296 298.450688 245.252562 298.450688 255.645094 307.419875 250.451164 307.419875 240.056296"></polyline>
                            <polyline id="Fill-36" fill="#FFFFFF" points="307.419875 240.056296 298.450688 245.252562 286.400962 238.273584 295.370149 233.077318 307.419875 240.056296"></polyline>
                            <polyline id="Fill-37" fill="#F8F7F7" points="237.72007 150.923042 228.750883 156.119308 286.400962 238.273584 295.370149 233.077318 237.72007 150.923042"></polyline>
                            <polyline id="Fill-38" fill="#FFFFFF" points="237.72007 150.923042 228.750883 156.119308 142.279256 106.018799 151.246115 100.824869 237.72007 150.923042"></polyline>
                            <polyline id="Fill-39" fill="#FBF8F6" points="93.5960353 116.182359 84.6268481 121.380961 142.279256 106.018799 151.246115 100.824869 93.5960353 116.182359"></polyline>
                            <polyline id="Fill-40" fill="#FFFFFF" points="93.5960353 116.182359 84.6268481 121.380961 72.5771223 114.39731 81.5463095 109.203381 93.5960353 116.182359"></polyline>
                            <polyline id="Fill-41" fill="#E2E4E9" points="93.5960353 116.182359 91.8869534 117.173014 89.4723514 117.173014 87.8447652 118.114603 83.087743 118.114603 78.207313 115.287498 83.087743 112.462729 87.1741718 112.462729 93.5960353 116.182359"></polyline>
                            <g id="Group-8" transform="translate(2.336701, 104.922421)">
                                <polyline id="Fill-42" fill="#EFC700" points="17.8150178 42.8388215 39.8957038 42.8388215 57.1681417 32.8294672 39.8957038 22.8224493 17.8150178 22.8224493 17.8150178 42.8388215"></polyline>
                                <polyline id="Fill-43" fill="#2DFC9D" points="35.0874557 10.6729063 17.8150178 20.6775877 0.542579955 10.6729063 17.8150178 0.665888417 35.0874557 10.6729063"></polyline>
                                <polyline id="Fill-44" fill="#2DC689" points="0.542579955 10.6729063 17.8150178 20.6775877 17.8150178 42.8388215 0.542579955 32.8294672 0.542579955 10.6729063"></polyline>
                                <polyline id="Fill-45" fill="#1CAC7A" points="35.0874557 10.6729063 17.8150178 20.6775877 17.8150178 42.8388215 35.0897842 32.8294672 35.0874557 10.6729063"></polyline>
                            </g>
                            <polyline id="Fill-46" fill="#EFC700" points="57.2372974 145.645 71.7249098 145.645 83.0574732 139.081911 71.7249098 132.514148 57.2372974 132.514148 57.2372974 145.645"></polyline>
                            <polyline id="Fill-47" fill="#2DFC9D" points="68.5675324 124.544515 57.2372974 131.109941 45.9070625 124.544515 57.2372974 117.979089 68.5675324 124.544515"></polyline>
                            <polyline id="Fill-48" fill="#2DC689" points="45.9070625 124.544515 57.2372974 131.109941 57.2372974 145.645 45.9070625 139.081911 45.9070625 124.544515"></polyline>
                            <polyline id="Fill-49" fill="#1CAC7A" points="68.5698608 124.544515 57.2372974 131.109941 57.2372974 145.645 68.5698608 139.081911 68.5698608 124.544515"></polyline>
                            <polyline id="Fill-62" fill="#FFFFFF" points="138.313907 48.8505257 141.198855 50.5187514 144.083804 48.8505257 141.198855 47.1776271 138.313907 48.8505257"></polyline>
                            <polyline id="Fill-63" fill="#E2E4E9" points="142.451561 49.7967882 144.083804 48.8505257 141.198855 47.1776271 141.198855 49.7967882 142.451561 49.7967882"></polyline>
                            <polyline id="Fill-64" fill="#F1F2F5" points="139.566612 18.3061072 141.198855 19.2523697 141.198855 49.7967882 139.566612 48.8528621 139.566612 18.3061072"></polyline>
                            <polyline id="Fill-65" fill="#E2E4E9" points="142.831099 18.3061072 141.198855 19.2523697 141.198855 49.7967882 142.831099 48.8528621 142.831099 18.3061072"></polyline>
                            <polyline id="Fill-66" fill="#F1F2F5" points="134.846845 18.3061072 141.198855 21.9883533 141.198855 12.3458218 132.665088 7.39721942 134.846845 18.3061072"></polyline>
                            <polyline id="Fill-67" fill="#FFDD08" points="135.557023 17.8131161 140.255833 20.5374175 140.255833 12.9205886 133.831641 9.19862282 135.557023 17.8131161"></polyline>
                            <polyline id="Fill-68" fill="#F8F7F7" points="132.665088 7.39721942 141.198855 12.3458218 141.198855 9.18927702 134.846845 5.50936735 132.665088 7.39721942"></polyline>
                            <polyline id="Fill-69" fill="#E2E4E9" points="147.550866 18.3061072 141.198855 21.9883533 141.198855 12.3458218 149.734951 7.39721942 147.550866 18.3061072"></polyline>
                            <polyline id="Fill-70" fill="#EAC407" points="146.768507 17.7453591 148.496216 9.13086575 142.072024 12.8504951 142.072024 20.467324 146.768507 17.7453591"></polyline>
                            <polyline id="Fill-71" fill="#FFFFFF" points="134.846845 5.50936735 141.198855 9.18927702 147.548537 5.5117038 141.198855 1.83179413 134.846845 5.50936735"></polyline>
                            <polyline id="Fill-72" fill="#E2E4E9" points="149.734951 7.39721942 141.198855 12.3458218 141.198855 9.18927702 147.548537 5.50936735 149.734951 7.39721942"></polyline>
                            <polyline id="Fill-73" fill="#E2E4E9" points="138.237068 5.50936735 141.198855 7.22432207 146.053673 5.5117038 141.198855 3.79207617 138.237068 5.50936735"></polyline>
                            <polyline id="Fill-74" fill="#F1F2F5" points="136.865611 77.2033535 141.198855 79.7173744 141.198855 83.9580322 136.865611 81.4486842 136.865611 77.2033535"></polyline>
                            <polyline id="Fill-75" fill="#E2E4E9" points="145.5321 77.2033535 141.198855 79.7173744 141.198855 83.9580322 145.5321 81.4486842 145.5321 77.2033535"></polyline>
                            <polyline id="Fill-76" fill="#FFFFFF" points="138.313907 74.6799869 141.198855 76.3528855 144.083804 74.6799869 141.198855 73.0094247 138.313907 74.6799869"></polyline>
                            <polyline id="Fill-77" fill="#FFFFFF" points="136.863283 77.20569 141.198855 79.7173744 145.534428 77.2080264 141.198855 74.6940056 136.863283 77.20569"></polyline>
                            <polyline id="Fill-78" fill="#E2E4E9" points="142.649479 78.8762521 145.534428 77.2080264 141.198855 74.6940056 141.198855 78.8762521 142.649479 78.8762521"></polyline>
                            <polyline id="Fill-79" fill="#F8F7F7" points="138.237068 5.50936735 141.198855 7.22432207 141.198855 0.640204328 138.237068 5.50936735"></polyline>
                            <polyline id="Fill-80" fill="#E2E4E9" points="144.158315 5.50936735 141.198855 7.22432207 141.198855 0.640204328 144.158315 5.50936735"></polyline>
                            <polyline id="Fill-81" fill="#F1F2F5" points="138.313907 48.8481892 141.198855 50.5187514 141.198855 78.8762521 138.313907 77.2080264 138.313907 48.8481892"></polyline>
                            <polyline id="Fill-82" fill="#E2E4E9" points="144.083804 48.8481892 141.198855 50.5187514 141.198855 78.8762521 144.083804 77.2080264 144.083804 48.8481892"></polyline>
                            <polyline id="Fill-83" fill="#FFFFFF" points="307.419875 240.056296 298.450688 245.252562 286.400962 238.273584 295.370149 233.077318 307.419875 240.056296"></polyline>
                            <polyline id="Fill-84" fill="#E2E4E9" points="307.419875 240.056296 305.708465 241.046951 303.296191 241.046951 301.668605 241.990877 296.909254 241.990877 292.028824 239.166108 296.909254 236.339003 300.998012 236.339003 307.419875 240.056296"></polyline>
                            <polyline id="Fill-85" fill="#FDE6BD" points="295.798584 116.824883 210.097674 67.1776441 201.130815 72.3739102 286.831725 122.021149 295.798584 116.824883"></polyline>
                            <polyline id="Fill-86" fill="#D5D7DB" points="156.82508 104.05618 151.565112 104.05618 147.902461 106.180014 151.565112 108.303847 164.15271 108.303847 156.82508 104.05618"></polyline>
                            <polyline id="Fill-87" fill="#E2E4E9" points="151.565112 108.303847 155.230092 106.177677 155.230092 84.4627055 151.565112 86.5865391 151.565112 108.303847"></polyline>
                            <polyline id="Fill-88" fill="#F1F2F5" points="151.565112 108.303847 147.902461 106.177677 147.902461 84.4627055 151.565112 86.5865391 151.565112 108.303847"></polyline>
                            <polyline id="Fill-89" fill="#D5D7DB" points="151.565112 92.0771979 147.902461 89.9510279 147.902461 84.4627055 151.565112 86.5865391 151.565112 92.0771979"></polyline>
                            <polyline id="Fill-90" fill="#D5D7DB" points="167.799062 110.408989 162.539095 110.408989 158.876444 112.532823 162.541423 114.656656 175.126692 114.656656 167.799062 110.408989"></polyline>
                            <polyline id="Fill-91" fill="#E2E4E9" points="162.541423 114.656656 166.204074 112.530486 166.204074 90.8155146 162.541423 92.9416847 162.541423 114.656656"></polyline>
                            <polyline id="Fill-92" fill="#F1F2F5" points="162.541423 114.656656 158.876444 112.530486 158.876444 90.8155146 162.541423 92.9416847 162.541423 114.656656"></polyline>
                            <polyline id="Fill-93" fill="#D5D7DB" points="162.541423 98.4300071 158.876444 96.3061735 158.876444 90.8155146 162.541423 92.9416847 162.541423 98.4300071"></polyline>
                            <polyline id="Fill-94" fill="#D5D7DB" points="178.773044 116.764135 173.515405 116.764135 169.850426 118.885632 173.515405 121.009466 186.100674 121.009466 178.773044 116.764135"></polyline>
                            <polyline id="Fill-95" fill="#E2E4E9" points="173.515405 121.009466 177.178056 118.885632 177.178056 97.1706602 173.515405 99.2921574 173.515405 121.009466"></polyline>
                            <polyline id="Fill-96" fill="#F1F2F5" points="173.515405 121.009466 169.852754 118.885632 169.852754 97.1706602 173.515405 99.2921574 173.515405 121.009466"></polyline>
                            <polyline id="Fill-97" fill="#D5D7DB" points="173.515405 104.785153 169.852754 102.658983 169.852754 97.1706602 173.515405 99.2921574 173.515405 104.785153"></polyline>
                            <polyline id="Fill-98" fill="#D5D7DB" points="189.744698 123.11928 184.489387 123.11928 180.824408 125.240778 184.489387 127.364611 197.074657 127.364611 189.744698 123.11928"></polyline>
                            <polyline id="Fill-99" fill="#E2E4E9" points="184.489387 127.364611 188.152038 125.238441 188.152038 103.525806 184.489387 105.647303 184.489387 127.364611"></polyline>
                            <polyline id="Fill-100" fill="#F1F2F5" points="184.489387 127.364611 180.824408 125.238441 180.824408 103.525806 184.489387 105.647303 184.489387 127.364611"></polyline>
                            <polyline id="Fill-101" fill="#D5D7DB" points="184.489387 111.137962 180.824408 109.014128 180.824408 103.525806 184.489387 105.647303 184.489387 111.137962"></polyline>
                            <polyline id="Fill-102" fill="#D5D7DB" points="200.71868 129.47209 195.46337 129.47209 191.79839 131.595923 195.46337 133.71742 208.048639 133.71742 200.71868 129.47209"></polyline>
                            <polyline id="Fill-103" fill="#E2E4E9" points="195.46337 133.71742 199.12602 131.593587 199.12602 109.878615 195.46337 112.002449 195.46337 133.71742"></polyline>
                            <polyline id="Fill-104" fill="#F1F2F5" points="195.46337 133.71742 191.79839 131.593587 191.79839 109.878615 195.46337 112.002449 195.46337 133.71742"></polyline>
                            <polyline id="Fill-105" fill="#D5D7DB" points="195.46337 117.490771 191.79839 115.366937 191.79839 109.878615 195.46337 112.002449 195.46337 117.490771"></polyline>
                            <polyline id="Fill-106" fill="#D5D7DB" points="211.692662 135.824899 206.435023 135.824899 202.772372 137.948732 206.435023 140.072566 219.022621 140.072566 211.692662 135.824899"></polyline>
                            <polyline id="Fill-107" fill="#E2E4E9" points="206.435023 140.072566 210.100003 137.946396 210.100003 116.231424 206.435023 118.357594 206.435023 140.072566"></polyline>
                            <polyline id="Fill-108" fill="#F1F2F5" points="206.435023 140.072566 202.772372 137.946396 202.772372 116.231424 206.435023 118.357594 206.435023 140.072566"></polyline>
                            <polyline id="Fill-109" fill="#D5D7DB" points="206.435023 123.845917 202.772372 121.722083 202.772372 116.231424 206.435023 118.357594 206.435023 123.845917"></polyline>
                            <polyline id="Fill-110" fill="#D5D7DB" points="222.666644 142.180044 217.409005 142.180044 213.746354 144.301541 217.409005 146.425375 229.996603 146.425375 222.666644 142.180044"></polyline>
                            <polyline id="Fill-111" fill="#E2E4E9" points="217.409005 146.425375 221.073985 144.301541 221.073985 122.58657 217.409005 124.708067 217.409005 146.425375"></polyline>
                            <polyline id="Fill-112" fill="#F1F2F5" points="217.409005 146.425375 213.746354 144.301541 213.746354 122.58657 217.409005 124.708067 217.409005 146.425375"></polyline>
                            <polyline id="Fill-113" fill="#D5D7DB" points="217.409005 130.201062 213.746354 128.077229 213.746354 122.58657 217.409005 124.708067 217.409005 130.201062"></polyline>
                            <polyline id="Fill-114" fill="#D5D7DB" points="233.596386 148.530517 228.385316 148.530517 224.722665 150.654351 228.387644 152.778184 234.518452 152.778184 237.72007 150.923042 233.596386 148.530517"></polyline>
                            <polyline id="Fill-115" fill="#E2E4E9" points="228.387644 152.778184 232.050295 150.654351 232.050295 128.937042 228.387644 131.060876 228.387644 152.778184"></polyline>
                            <polyline id="Fill-116" fill="#F1F2F5" points="228.387644 152.778184 224.724994 150.654351 224.724994 128.937042 228.387644 131.060876 228.387644 152.778184"></polyline>
                            <polyline id="Fill-117" fill="#D5D7DB" points="228.387644 136.551535 224.724994 134.427701 224.724994 128.937042 228.387644 131.060876 228.387644 136.551535"></polyline>
                            <path d="M228.36436,134.789851 C227.174522,134.098262 160.410892,95.4206587 142.665779,85.1402762 L142.665779,80.5304592 C164.767421,93.3388813 206.26039,117.378621 228.36436,130.177698 L228.36436,134.789851" id="Fill-118" fill="#F1F2F5"></path>
                            <polyline id="Fill-119" fill="#FFFFFF" points="237.333547 124.983768 151.630309 75.3365295 142.665779 80.5304592 228.36436 130.177698 237.333547 124.983768"></polyline>
                            <polyline id="Fill-120" fill="#E2E4E9" points="228.36436 134.789851 237.333547 129.591249 237.333547 124.983768 228.36436 130.177698 228.36436 134.789851"></polyline>
                            <polyline id="Fill-121" fill="#FFFFFF" points="295.798584 116.824883 210.097674 67.1776441 201.130815 72.3739102 286.831725 122.021149 295.798584 116.824883"></polyline>
                            <polyline id="Fill-122" fill="#D5D7DB" points="215.290116 70.1823195 210.030149 70.1823195 206.367498 72.3084896 210.030149 74.4323231 222.620075 74.4323231 215.290116 70.1823195"></polyline>
                            <polyline id="Fill-123" fill="#E2E4E9" points="210.030149 74.4323231 213.697457 72.3061531 213.697457 50.5911814 210.030149 52.715015 210.030149 74.4323231"></polyline>
                            <polyline id="Fill-124" fill="#F1F2F5" points="210.030149 74.4323231 206.367498 72.3061531 206.367498 50.5911814 210.030149 52.715015 210.030149 74.4323231"></polyline>
                            <polyline id="Fill-125" fill="#D5D7DB" points="210.030149 58.2033374 206.367498 56.0795038 206.367498 50.5911814 210.030149 52.715015 210.030149 58.2033374"></polyline>
                            <polyline id="Fill-126" fill="#D5D7DB" points="226.264099 76.5374651 221.004131 76.5374651 217.34148 78.6612987 221.00646 80.7851323 233.594057 80.7851323 226.264099 76.5374651"></polyline>
                            <polyline id="Fill-127" fill="#E2E4E9" points="221.00646 80.7851323 224.669111 78.6589622 224.669111 56.9439905 221.00646 59.0701605 221.00646 80.7851323"></polyline>
                            <polyline id="Fill-128" fill="#F1F2F5" points="221.00646 80.7851323 217.343809 78.6589622 217.343809 56.9439905 221.00646 59.0701605 221.00646 80.7851323"></polyline>
                            <polyline id="Fill-129" fill="#D5D7DB" points="221.00646 64.558483 217.343809 62.4346494 217.343809 56.9439905 221.00646 59.0701605 221.00646 64.558483"></polyline>
                            <polyline id="Fill-130" fill="#D5D7DB" points="237.238081 82.8926107 231.980442 82.8926107 228.315463 85.0141078 231.980442 87.1379414 244.565711 87.1379414 237.238081 82.8926107"></polyline>
                            <polyline id="Fill-131" fill="#E2E4E9" points="231.980442 87.1379414 235.643093 85.0141078 235.643093 63.2991361 231.980442 65.4206332 231.980442 87.1379414"></polyline>
                            <polyline id="Fill-132" fill="#F1F2F5" points="231.980442 87.1379414 228.317791 85.0141078 228.317791 63.2991361 231.980442 65.4206332 231.980442 87.1379414"></polyline>
                            <polyline id="Fill-133" fill="#D5D7DB" points="231.980442 70.9136286 228.317791 68.7874585 228.317791 63.2991361 231.980442 65.4206332 231.980442 70.9136286"></polyline>
                            <polyline id="Fill-134" fill="#D5D7DB" points="248.212063 89.2477563 242.952096 89.2477563 239.291773 91.3692534 242.954424 93.493087 255.539693 93.493087 248.212063 89.2477563"></polyline>
                            <polyline id="Fill-135" fill="#E2E4E9" points="242.954424 93.493087 246.617075 91.366917 246.617075 69.6542817 242.954424 71.7757788 242.954424 93.493087"></polyline>
                            <polyline id="Fill-136" fill="#F1F2F5" points="242.954424 93.493087 239.291773 91.366917 239.291773 69.6542817 242.954424 71.7757788 242.954424 93.493087"></polyline>
                            <polyline id="Fill-137" fill="#D5D7DB" points="242.954424 77.2664377 239.291773 75.1426041 239.291773 69.6542817 242.954424 71.7757788 242.954424 77.2664377"></polyline>
                            <polyline id="Fill-138" fill="#D5D7DB" points="259.186045 95.598229 253.928406 95.598229 250.265755 97.724399 253.928406 99.8458961 266.513675 99.8458961 259.186045 95.598229"></polyline>
                            <polyline id="Fill-139" fill="#E2E4E9" points="253.928406 99.8458961 257.591057 97.7220626 257.591057 76.0070908 253.928406 78.1309244 253.928406 99.8458961"></polyline>
                            <polyline id="Fill-140" fill="#F1F2F5" points="253.928406 99.8458961 250.265755 97.7220626 250.265755 76.0070908 253.928406 78.1309244 253.928406 99.8458961"></polyline>
                            <polyline id="Fill-141" fill="#D5D7DB" points="253.928406 83.6192468 250.265755 81.4954133 250.265755 76.0070908 253.928406 78.1309244 253.928406 83.6192468"></polyline>
                            <polyline id="Fill-142" fill="#D5D7DB" points="270.160027 101.953375 264.902388 101.953375 261.239738 104.074872 264.902388 106.198705 277.487658 106.198705 270.160027 101.953375"></polyline>
                            <polyline id="Fill-143" fill="#E2E4E9" points="264.902388 106.198705 268.565039 104.074872 268.565039 82.3599 264.902388 84.48607 264.902388 106.198705"></polyline>
                            <polyline id="Fill-144" fill="#F1F2F5" points="264.902388 106.198705 261.239738 104.074872 261.239738 82.3599 264.902388 84.48607 264.902388 106.198705"></polyline>
                            <polyline id="Fill-145" fill="#D5D7DB" points="264.902388 89.9743924 261.239738 87.8505588 261.239738 82.3599 264.902388 84.48607 264.902388 89.9743924"></polyline>
                            <polyline id="Fill-146" fill="#D5D7DB" points="281.134009 108.30852 275.876371 108.30852 272.211391 110.430017 275.878699 112.553851 288.463968 112.553851 281.134009 108.30852"></polyline>
                            <polyline id="Fill-147" fill="#E2E4E9" points="275.878699 112.553851 279.54135 110.430017 279.54135 88.7150456 275.878699 90.8365427 275.878699 112.553851"></polyline>
                            <polyline id="Fill-148" fill="#F1F2F5" points="275.878699 112.553851 272.21372 110.430017 272.21372 88.7150456 275.878699 90.8365427 275.878699 112.553851"></polyline>
                            <polyline id="Fill-149" fill="#D5D7DB" points="275.878699 96.329538 272.21372 94.2057044 272.21372 88.7150456 275.878699 90.8365427 275.878699 96.329538"></polyline>
                            <polyline id="Fill-150" fill="#D5D7DB" points="292.061423 114.658993 286.852681 114.658993 283.187702 116.782826 286.85501 118.90666 292.983489 118.90666 296.187435 117.049182 292.061423 114.658993"></polyline>
                            <polyline id="Fill-151" fill="#E2E4E9" points="286.85501 118.90666 290.517661 116.782826 290.517661 95.0655182 286.85501 97.1893518 286.85501 118.90666"></polyline>
                            <polyline id="Fill-152" fill="#F1F2F5" points="286.85501 118.90666 283.19003 116.782826 283.19003 95.0655182 286.85501 97.1893518 286.85501 118.90666"></polyline>
                            <polyline id="Fill-153" fill="#D5D7DB" points="286.85501 102.680011 283.19003 100.553841 283.19003 95.0655182 286.85501 97.1893518 286.85501 102.680011"></polyline>
                            <path d="M286.831725,100.918327 C285.639559,100.226738 218.875929,61.5491346 201.130815,51.268752 L201.130815,46.658935 C223.232457,59.4673571 264.727755,83.5070972 286.831725,96.3061735 L286.831725,100.918327" id="Fill-154" fill="#F1F2F5"></path>
                            <polyline id="Fill-155" fill="#FFFFFF" points="295.798584 91.1099074 210.097674 41.4626689 201.130815 46.658935 286.831725 96.3061735 295.798584 91.1099074"></polyline>
                            <polyline id="Fill-156" fill="#E2E4E9" points="286.831725 100.918327 295.798584 95.7197244 295.798584 91.1099074 286.831725 96.3061735 286.831725 100.918327"></polyline>
                            <polyline id="Fill-157" fill="#393939" points="261.244394 274.722213 261.244394 228.315632 267.84322 224.490862 267.84322 270.89978 261.244394 274.722213"></polyline>
                            <polyline id="Fill-158" fill="#737170" points="261.242066 274.722213 261.242066 249.205836 254.645569 245.381067 254.645569 270.89978 261.242066 274.722213"></polyline>
                            <polyline id="Fill-159" fill="#4B4B4B" points="261.244394 253.789952 261.244394 228.315632 254.645569 224.490862 254.645569 249.967519 261.244394 253.789952"></polyline>
                            <polyline id="Fill-160" fill="#27EB91" points="261.242066 118.862267 261.244394 244.145084 232.366965 227.413762 261.242066 118.862267"></polyline>
                            <polyline id="Fill-161" fill="#23B47A" points="261.242066 118.862267 261.242066 244.145084 289.248656 227.918435 261.242066 118.862267"></polyline>
                            <polyline id="Fill-180" fill="#FFFFFF" points="79.7347758 82.8715826 82.6220531 84.5421448 85.5046735 82.8715826 82.6220531 81.198684 79.7347758 82.8715826"></polyline>
                            <polyline id="Fill-181" fill="#E2E4E9" points="83.8747589 83.8178451 85.5046735 82.8715826 82.6220531 81.198684 82.6220531 83.8178451 83.8747589 83.8178451"></polyline>
                            <polyline id="Fill-182" fill="#F1F2F5" points="80.9874816 52.3295006 82.6220531 53.2757631 82.6220531 83.8178451 80.9874816 82.8739191 80.9874816 52.3295006"></polyline>
                            <polyline id="Fill-183" fill="#E2E4E9" points="84.2542962 52.3295006 82.6220531 53.2757631 82.6220531 83.8178451 84.2542962 82.8739191 84.2542962 52.3295006"></polyline>
                            <polyline id="Fill-184" fill="#F1F2F5" points="76.2700431 52.3295006 82.6220531 56.0094103 82.6220531 46.3668787 74.0859575 41.4206128 76.2700431 52.3295006"></polyline>
                            <polyline id="Fill-185" fill="#FFDD08" points="76.9778917 51.8365095 81.6743742 54.5608109 81.6743742 46.9416456 75.2525107 43.2196798 76.9778917 51.8365095"></polyline>
                            <polyline id="Fill-186" fill="#F8F7F7" points="74.0859575 41.4206128 82.6220531 46.3668787 82.6220531 43.210334 76.2700431 39.5304243 74.0859575 41.4206128"></polyline>
                            <polyline id="Fill-187" fill="#E2E4E9" points="88.9717347 52.3295006 82.6220531 56.0094103 82.6220531 46.3668787 91.1558203 41.4206128 88.9717347 52.3295006"></polyline>
                            <polyline id="Fill-188" fill="#EAC407" points="88.1917042 51.7687525 89.9170852 43.1519227 83.4952217 46.8738885 83.4952217 54.4907174 88.1917042 51.7687525"></polyline>
                            <polyline id="Fill-189" fill="#FFFFFF" points="76.2700431 39.5304243 82.6220531 43.210334 88.9717347 39.5327608 82.6220531 35.8528511 76.2700431 39.5304243"></polyline>
                            <polyline id="Fill-190" fill="#E2E4E9" points="91.1558203 41.4206128 82.6220531 46.3668787 82.6220531 43.210334 88.9717347 39.5304243 91.1558203 41.4206128"></polyline>
                            <polyline id="Fill-191" fill="#E2E4E9" points="79.6602655 39.5304243 82.6220531 41.2477155 87.4768702 39.5327608 82.6220531 37.817806 79.6602655 39.5304243"></polyline>
                            <polyline id="Fill-192" fill="#F1F2F5" points="78.2841518 111.226747 82.6220531 113.740768 82.6220531 117.979089 78.2841518 115.469741 78.2841518 111.226747"></polyline>
                            <polyline id="Fill-193" fill="#E2E4E9" points="86.9529691 111.229083 82.6220531 113.740768 82.6220531 117.979089 86.9529691 115.469741 86.9529691 111.229083"></polyline>
                            <polyline id="Fill-194" fill="#FFFFFF" points="79.7347758 108.70338 82.6220531 110.376279 85.5046735 108.70338 82.6220531 107.032818 79.7347758 108.70338"></polyline>
                            <polyline id="Fill-195" fill="#FFFFFF" points="78.2841518 111.229083 82.6220531 113.740768 86.9552975 111.23142 82.6220531 108.717399 78.2841518 111.229083"></polyline>
                            <polyline id="Fill-196" fill="#E2E4E9" points="84.0726771 112.901982 86.9552975 111.23142 82.6220531 108.717399 82.6220531 112.901982 84.0726771 112.901982"></polyline>
                            <polyline id="Fill-197" fill="#F8F7F7" points="79.6602655 39.5304243 82.6220531 41.2477155 82.6220531 34.6612613 79.6602655 39.5304243"></polyline>
                            <polyline id="Fill-198" fill="#E2E4E9" points="85.5815124 39.5304243 82.6220531 41.2477155 82.6220531 34.6612613 85.5815124 39.5304243"></polyline>
                            <polyline id="Fill-199" fill="#F1F2F5" points="79.7347758 82.8692462 82.6220531 84.5421448 82.6220531 112.901982 79.7347758 111.23142 79.7347758 82.8692462"></polyline>
                            <polyline id="Fill-200" fill="#E2E4E9" points="85.5046735 82.8692462 82.6220531 84.5421448 82.6220531 112.901982 85.5046735 111.23142 85.5046735 82.8692462"></polyline>
                            <polyline id="Fill-201" fill="#FFFFFF" points="352.2076 172.486145 355.094877 174.156707 357.977498 172.486145 355.094877 170.815583 352.2076 172.486145"></polyline>
                            <polyline id="Fill-202" fill="#E2E4E9" points="356.345255 173.432407 357.977498 172.488481 355.094877 170.815583 355.094877 173.432407 356.345255 173.432407"></polyline>
                            <polyline id="Fill-203" fill="#F1F2F5" points="353.460306 141.941726 355.094877 142.890325 355.094877 173.432407 353.460306 172.488481 353.460306 141.941726"></polyline>
                            <polyline id="Fill-204" fill="#E2E4E9" points="356.72712 141.941726 355.094877 142.890325 355.094877 173.432407 356.72712 172.488481 356.72712 141.941726"></polyline>
                            <polyline id="Fill-205" fill="#F1F2F5" points="348.742867 141.941726 355.094877 145.623972 355.094877 135.981441 346.558782 131.035175 348.742867 141.941726"></polyline>
                            <polyline id="Fill-206" fill="#FFDD08" points="349.450716 141.451072 354.149527 144.173037 354.149527 136.558544 347.725335 132.836578 349.450716 141.451072"></polyline>
                            <polyline id="Fill-207" fill="#F8F7F7" points="346.558782 131.035175 355.094877 135.981441 355.092549 132.824896 348.742867 129.147323 346.558782 131.035175"></polyline>
                            <polyline id="Fill-208" fill="#E2E4E9" points="361.446887 141.941726 355.094877 145.623972 355.092549 135.981441 363.628644 131.035175 361.446887 141.941726"></polyline>
                            <polyline id="Fill-209" fill="#EAC407" points="360.666857 141.383315 362.389909 132.766485 355.968046 136.486114 355.968046 144.10528 360.666857 141.383315"></polyline>
                            <polyline id="Fill-210" fill="#FFFFFF" points="348.742867 129.147323 355.092549 132.824896 361.444559 129.149659 355.092549 125.46975 348.742867 129.147323"></polyline>
                            <polyline id="Fill-211" fill="#E2E4E9" points="363.628644 131.035175 355.092549 135.981441 355.094877 132.824896 361.444559 129.147323 363.628644 131.035175"></polyline>
                            <polyline id="Fill-212" fill="#E2E4E9" points="352.13309 129.147323 355.094877 130.862278 359.947366 129.147323 355.094877 127.430032 352.13309 129.147323"></polyline>
                            <polyline id="Fill-213" fill="#F1F2F5" points="350.759304 200.841309 355.094877 203.35533 355.092549 207.593651 350.759304 205.08664 350.759304 200.841309"></polyline>
                            <polyline id="Fill-214" fill="#E2E4E9" points="359.428122 200.841309 355.092549 203.35533 355.094877 207.593651 359.428122 205.08664 359.428122 200.841309"></polyline>
                            <polyline id="Fill-215" fill="#FFFFFF" points="352.2076 198.317942 355.094877 199.988505 357.977498 198.317942 355.094877 196.645044 352.2076 198.317942"></polyline>
                            <polyline id="Fill-216" fill="#FFFFFF" points="350.759304 200.841309 355.094877 203.35533 359.428122 200.843646 355.094877 198.331961 350.759304 200.841309"></polyline>
                            <polyline id="Fill-217" fill="#E2E4E9" points="356.543173 202.514208 359.428122 200.843646 355.094877 198.331961 355.094877 202.514208 356.543173 202.514208"></polyline>
                            <polyline id="Fill-218" fill="#F8F7F7" points="352.13309 129.147323 355.094877 130.859941 355.094877 124.275823 352.13309 129.147323"></polyline>
                            <polyline id="Fill-219" fill="#E2E4E9" points="358.056665 129.147323 355.094877 130.859941 355.094877 124.275823 358.056665 129.147323"></polyline>
                            <polyline id="Fill-220" fill="#F1F2F5" points="352.2076 172.483808 355.094877 174.156707 355.092549 202.514208 352.2076 200.845982 352.2076 172.483808"></polyline>
                            <polyline id="Fill-221" fill="#E2E4E9" points="357.977498 172.483808 355.092549 174.156707 355.094877 202.514208 357.977498 200.845982 357.977498 172.483808"></polyline>
                            <polyline id="Fill-222" fill="#FFFFFF" points="293.630798 206.507202 296.515746 208.1801 299.400695 206.509538 296.515746 204.83664 293.630798 206.507202"></polyline>
                            <polyline id="Fill-223" fill="#E2E4E9" points="297.768452 207.453464 299.400695 206.509538 296.515746 204.83664 296.515746 207.453464 297.768452 207.453464"></polyline>
                            <polyline id="Fill-224" fill="#F1F2F5" points="294.883503 175.967456 296.515746 176.911382 296.515746 207.453464 294.883503 206.509538 294.883503 175.967456"></polyline>
                            <polyline id="Fill-225" fill="#E2E4E9" points="298.147989 175.967456 296.515746 176.911382 296.515746 207.453464 298.147989 206.509538 298.147989 175.967456"></polyline>
                            <polyline id="Fill-226" fill="#F1F2F5" points="290.163736 175.967456 296.515746 179.647366 296.515746 170.002498 287.981979 165.058568 290.163736 175.967456"></polyline>
                            <polyline id="Fill-227" fill="#FFDD08" points="290.873913 175.474465 295.570396 178.19643 295.570396 170.579601 289.148532 166.857635 290.873913 175.474465"></polyline>
                            <polyline id="Fill-228" fill="#F8F7F7" points="287.981979 165.058568 296.515746 170.002498 296.515746 166.84829 290.163736 163.16838 287.981979 165.058568"></polyline>
                            <polyline id="Fill-229" fill="#E2E4E9" points="302.867756 175.967456 296.515746 179.647366 296.515746 170.002498 305.051842 165.058568 302.867756 175.967456"></polyline>
                            <polyline id="Fill-230" fill="#EAC407" points="302.087726 175.406708 303.813107 166.787542 297.388915 170.509508 297.388915 178.128673 302.087726 175.406708"></polyline>
                            <polyline id="Fill-231" fill="#FFFFFF" points="290.163736 163.16838 296.515746 166.84829 302.867756 163.170716 296.515746 159.490807 290.163736 163.16838"></polyline>
                            <polyline id="Fill-232" fill="#E2E4E9" points="305.051842 165.058568 296.515746 170.002498 296.515746 166.84829 302.867756 163.16838 305.051842 165.058568"></polyline>
                            <polyline id="Fill-233" fill="#E2E4E9" points="293.553959 163.16838 296.515746 164.885671 301.370563 163.16838 296.515746 161.453425 293.553959 163.16838"></polyline>
                            <polyline id="Fill-234" fill="#F1F2F5" points="292.182502 234.864703 296.515746 237.378723 296.515746 241.614708 292.182502 239.107697 292.182502 234.864703"></polyline>
                            <polyline id="Fill-235" fill="#E2E4E9" points="300.846662 234.864703 296.515746 237.378723 296.515746 241.614708 300.846662 239.107697 300.846662 234.864703"></polyline>
                            <polyline id="Fill-236" fill="#FFFFFF" points="293.630798 232.341336 296.515746 234.011898 299.400695 232.341336 296.515746 230.668437 293.630798 232.341336"></polyline>
                            <polyline id="Fill-237" fill="#FFFFFF" points="292.180174 234.864703 296.515746 237.378723 300.848991 234.867039 296.515746 232.355355 292.180174 234.864703"></polyline>
                            <polyline id="Fill-238" fill="#E2E4E9" points="297.96637 236.537601 300.848991 234.867039 296.515746 232.355355 296.515746 236.537601 297.96637 236.537601"></polyline>
                            <polyline id="Fill-239" fill="#F8F7F7" points="293.553959 163.16838 296.515746 164.883335 296.515746 158.29688 293.553959 163.16838"></polyline>
                            <polyline id="Fill-240" fill="#E2E4E9" points="299.475206 163.16838 296.515746 164.883335 296.515746 158.29688 299.475206 163.16838"></polyline>
                            <polyline id="Fill-241" fill="#F1F2F5" points="293.630798 206.507202 296.515746 208.1801 296.515746 236.537601 293.630798 234.869375 293.630798 206.507202"></polyline>
                            <polyline id="Fill-242" fill="#E2E4E9" points="299.400695 206.507202 296.515746 208.1801 296.515746 236.537601 299.400695 234.869375 299.400695 206.507202"></polyline>
                        </g>
                    </g>
                    <g id="Group-9-Copy" transform="translate(231.000000, 446.000000)">
                        <g id="All_images-22">
                            <polyline id="Fill-1" fill="#EFC700" points="118.446497 102.041792 46.7718821 91.0351913 34.2884769 98.1193443 19.346959 98.1193443 15.0025436 100.634142 19.346959 103.149552 34.2884769 103.149552 48.9535487 111.641967 118.446497 102.041792"></polyline>
                            <polyline id="Fill-2" fill="#393939" points="19.346959 103.149552 19.346959 72.6163934 23.6901538 70.1015956 23.6901538 100.634142 19.346959 103.149552"></polyline>
                            <polyline id="Fill-3" fill="#737170" points="19.346959 103.149552 19.346959 86.3605683 15.0025436 83.8457705 15.0025436 100.634754 19.346959 103.149552"></polyline>
                            <polyline id="Fill-4" fill="#4B4B4B" points="19.346959 89.3778361 19.346959 72.6163934 15.0025436 70.1015956 15.0025436 86.8618142 19.346959 89.3778361"></polyline>
                            <polyline id="Fill-5" fill="#FFE749" points="19.346959 0.601617486 19.346959 83.0305574 0.338082051 72.0227322 19.346959 0.601617486"></polyline>
                            <polyline id="Fill-6" fill="#DCBE00" points="19.3463487 0.601617486 19.3463487 83.0311694 37.7821949 72.3550601 19.3463487 0.601617486"></polyline>
                        </g>
                    </g>
                    <g id="Group-9-Copy-2" transform="translate(273.000000, 477.000000)">
                        <g id="All_images-22">
                            <polyline id="Fill-1" fill="#EFC700" points="92.5674308 80.175694 36.5528154 71.5276503 26.7968769 77.0937705 15.1198923 77.0937705 11.7246769 79.0696831 15.1198923 81.0460765 26.7968769 81.0460765 38.2578154 87.7186885 92.5674308 80.175694"></polyline>
                            <polyline id="Fill-2" fill="#393939" points="15.1198923 81.0460765 15.1198923 57.0557377 18.5141538 55.0798251 18.5141538 79.0696831 15.1198923 81.0460765"></polyline>
                            <polyline id="Fill-3" fill="#737170" points="15.1198923 81.0460765 15.1198923 67.8547322 11.7246769 65.8788197 11.7246769 79.0701639 15.1198923 81.0460765"></polyline>
                            <polyline id="Fill-4" fill="#4B4B4B" points="15.1198923 70.2254426 15.1198923 57.0557377 11.7246769 55.0798251 11.7246769 68.2485683 15.1198923 70.2254426"></polyline>
                            <polyline id="Fill-5" fill="#FFE749" points="15.1198923 0.472699454 15.1198923 65.2382951 0.264215385 56.5892896 15.1198923 0.472699454"></polyline>
                            <polyline id="Fill-6" fill="#DCBE00" points="15.1194154 0.472699454 15.1194154 65.238776 29.5272615 56.8504044 15.1194154 0.472699454"></polyline>
                        </g>
                    </g>
                    <g id="Group-3" transform="translate(1206.000000, 0.000000)">
                        <g id="Tree-Copy-2" transform="translate(53.000000, 46.000000) scale(-1, 1) translate(-53.000000, -46.000000) ">
                            <g id="Group-32-Copy">
                                <g id="Page-1">
                                    <polygon id="Fill-1" fill="#EFC700" points="15.9021362 73.2358851 0 82.4069797 15.9021362 91.5839797 74.0976909 91.5839797 85.9400844 84.7514257 89.7516332 84.7514257 93.8113759 82.4069797 89.7516332 80.0625338 85.9400844 80.0625338 74.0976909 73.2358851"></polygon>
                                    <polygon id="Fill-2" fill="#595959" points="85.6907087 82.4093419 89.7504514 84.7537878 89.7504514 69.1103689 85.6907087 66.765923"></polygon>
                                    <polygon id="Fill-3" fill="#888888" points="89.7486786 69.11155 89.7486786 84.7549689 93.8143306 82.410523 93.8143306 66.7671041"></polygon>
                                    <polygon id="Fill-5" fill="#2DFC9D" points="89.7392236 0.00236216216 73.8489061 9.17345676 89.7510423 18.3504568 105.653179 9.17936216 105.653179 9.17345676 89.7569517 0.00236216216"></polygon>
                                    <polygon id="Fill-6" fill="#2DC689" points="89.7486786 18.3492757 89.7486786 75.9446946 105.650815 66.7736 105.650815 9.17818108"></polygon>
                                    <polygon id="Fill-7" fill="#1CAC7A" points="73.8477242 9.1740473 89.7498604 18.3510473 89.7498604 75.9464662 73.8477242 66.7694662"></polygon>
                                </g>
                            </g>
                        </g>
                        <g id="Group-6-Copy-3" transform="translate(30.000000, 41.000000)">
                            <g id="Page-1" transform="translate(29.500000, 30.000000) scale(-1, 1) translate(-29.500000, -30.000000) ">
                                <polygon id="Fill-1" fill="#EFC700" points="15.7840526 41.4869101 0 50.5353144 15.7840526 59.5895452 26.9685205 59.5895452 38.7229766 52.8483966 42.5062222 52.8483966 46.5358187 50.5353144 42.5062222 48.2222323 38.7229766 48.2222323 26.9685205 41.4869101"></polygon>
                                <polygon id="Fill-2" fill="#595959" points="38.4754526 50.537645 42.5050491 52.8507271 42.5050491 37.4165847 38.4754526 35.1035026"></polygon>
                                <polygon id="Fill-3" fill="#888888" points="42.5032895 37.41775 42.5032895 52.8518924 46.5387515 50.5388103 46.5387515 35.1046679"></polygon>
                                <polygon id="Fill-5" fill="#2DFC9D" points="26.721583 9.05073493 42.5056357 18.1049657 58.2896883 9.05656133 42.5115012 0.00233056133"></polygon>
                                <polygon id="Fill-6" fill="#2DC689" points="42.5032895 18.1038004 42.5032895 44.1594813 58.2873421 35.1110769 58.2873421 9.05539605"></polygon>
                                <polygon id="Fill-7" fill="#1CAC7A" points="26.7204099 9.05131757 42.5044626 18.1055483 42.5044626 44.1612292 26.7204099 35.1069984"></polygon>
                            </g>
                        </g>
                    </g>
                </g>
            </g>
        </g>
    </g>
</svg>