<?xml version="1.0" encoding="UTF-8"?>
<svg width="243px" height="169px" viewBox="0 0 243 169" version="1.1" xmlns="http://www.w3.org/2000/svg" xmlns:xlink="http://www.w3.org/1999/xlink">
    <!-- Generator: Sketch 50.2 (55047) - http://www.bohemiancoding.com/sketch -->
    <title>Group 27</title>
    <desc>Created with Sketch.</desc>
    <defs></defs>
    <g id="Page-1" stroke="none" stroke-width="1" fill="none" fill-rule="evenodd">
        <g id="Про-комплекс" transform="translate(-620.000000, -4804.000000)">
            <g id="Group-27" transform="translate(620.000000, 4804.000000)">
                <g id="All_images-20">
                    <polyline id="Fill-1" fill="#9AD8EF" points="164.108088 168 149.337969 168 143.301059 164.498769 98.6495462 164.498769 6 110.762884 78.8626019 68.500383 123.513271 68.500383 129.55018 65 144.3203 65 243 122.237964 164.108088 168"></polyline>
                    <polyline id="Fill-2" fill="#2DC689" points="98 165 5 111.489326 5 46 97.9957618 99.5123634 98 165"></polyline>
                    <polyline id="Fill-3" fill="#1DAA72" points="99 119 6 65.7259212 6 45 98.9957618 98.275761 99 119"></polyline>
                    <polyline id="Fill-4" fill="#2DC689" points="99 117 0 59.8247258 0 45 98.9932233 102.176969 99 117"></polyline>
                    <polyline id="Fill-5" fill="#07714C" points="98.0042303 165 171 122.74894 171 57 98 99.2519084 98.0042303 165"></polyline>
                    <polyline id="Fill-6" fill="#2DFC9D" points="98.9205843 103 0 45.7615643 79.0861874 0 178 57.2375873 98.9205843 103"></polyline>
                    <polyline id="Fill-7" fill="#05875A" points="98 117 177 71.693809 177 57 98.0067652 102.306191 98 117"></polyline>
                    <polyline id="Fill-8" fill="#034E34" points="117 115.262233 153 94 153 105.73691 117 127 117 115.262233"></polyline>
                    <polygon id="Path-2" fill="#F4F4F4" points="229.573242 129.871094 158.764457 129.871094 98.6162109 164.821289 143.279297 164.821289 150.607422 168.088867 164.080084 168.088867"></polygon>
                </g>
            </g>
        </g>
    </g>
</svg>