<?xml version="1.0" encoding="UTF-8"?>
<svg width="210px" height="144px" viewBox="0 0 210 144" version="1.1" xmlns="http://www.w3.org/2000/svg" xmlns:xlink="http://www.w3.org/1999/xlink">
    <!-- Generator: Sketch 50.2 (55047) - http://www.bohemiancoding.com/sketch -->
    <title>Group 25</title>
    <desc>Created with Sketch.</desc>
    <defs></defs>
    <g id="Page-1" stroke="none" stroke-width="1" fill="none" fill-rule="evenodd">
        <g id="Mobile-Про-комплекс" transform="translate(-95.000000, -1671.000000)">
            <g id="Group-25" transform="translate(95.000000, 1671.000000)">
                <g id="Group-5" transform="translate(95.000000, 0.000000)">
                    <g id="Group-6-Copy-2">
                        <g id="Page-1" transform="translate(46.000000, 47.000000) scale(-1, 1) translate(-46.000000, -47.000000) ">
                            <polygon id="Fill-1" fill="#F4F4F4" points="17.0780064 73.6973114 0 83.6203948 17.0780064 93.5498679 57.3426261 93.5498679 70.0606955 86.1570749 74.1540862 86.1570749 78.5140232 83.6203948 74.1540862 81.0837148 70.0606955 81.0837148 57.3426261 73.6973114"></polygon>
                            <polygon id="Fill-2" fill="#AAAAAA" points="69.7928799 83.6229507 74.1528169 86.1596308 74.1528169 69.2335212 69.7928799 66.6968412"></polygon>
                            <polygon id="Fill-3" fill="#D2D2D2" points="74.150913 69.2347992 74.150913 86.1609087 78.5171963 83.6242286 78.5171963 66.6981191"></polygon>
                            <polygon id="Fill-5" fill="#2DFC9D" points="57.0754451 9.9256393 74.1534515 19.8551124 91.231458 9.93202893 74.1597979 0.00255584892"></polygon>
                            <polygon id="Fill-6" fill="#2DC689" points="74.150913 19.8538345 74.150913 76.6282311 91.2289194 66.7051477 91.2289194 9.930751"></polygon>
                            <polygon id="Fill-7" fill="#1CAC7A" points="57.0741758 9.92627827 74.1521823 19.8557513 74.1521823 76.630148 57.0741758 66.700675"></polygon>
                        </g>
                    </g>
                    <g id="Group-6-Copy-3" transform="translate(51.000000, 19.000000)">
                        <g id="Page-1" transform="translate(32.000000, 33.000000) scale(-1, 1) translate(-32.000000, -33.000000) ">
                            <polygon id="Fill-1" fill="#F4F4F4" points="17.1216842 45.6356011 0 55.5888459 17.1216842 65.5484997 29.2539883 65.5484997 42.0045848 58.1332362 46.1084444 58.1332362 50.4795322 55.5888459 46.1084444 53.0444556 42.0045848 53.0444556 29.2539883 45.6356011"></polygon>
                            <polygon id="Fill-2" fill="#AAAAAA" points="41.7360842 55.5914095 46.1071719 58.1357998 46.1071719 41.1582432 41.7360842 38.6138529"></polygon>
                            <polygon id="Fill-3" fill="#D2D2D2" points="46.1052632 41.159525 46.1052632 58.1370817 50.4827135 55.5926913 50.4827135 38.6151347"></polygon>
                            <polygon id="Fill-5" fill="#2DFC9D" points="28.986124 9.95580842 46.1078082 19.9154623 63.2294924 9.96221746 46.1141708 0.00256361746"></polygon>
                            <polygon id="Fill-6" fill="#2DC689" points="46.1052632 19.9141805 46.1052632 48.5754294 63.2269474 38.6221846 63.2269474 9.96093565"></polygon>
                            <polygon id="Fill-7" fill="#1CAC7A" points="28.9848515 9.95644932 46.1065357 19.9161032 46.1065357 48.5773521 28.9848515 38.6176983"></polygon>
                        </g>
                    </g>
                </g>
                <g id="Group-24" transform="translate(0.000000, 17.000000)">
                    <g id="Group-23">
                        <g id="Group-22">
                            <g id="All_images-17">
                                <polyline id="Fill-1" fill="#F4F4F4" points="13.0943507 73.7056382 37.1607678 73.7056382 38.2850616 73.0594573 60.2435735 73.0594573 64.4780379 75.4928894 74.2333175 76.6200302 81.8919621 72.2186482 74.2333175 67.8145578 64.4780379 68.9413116 60.242019 71.3755176 38.2838957 71.3755176 37.1607678 70.7285628 13.0997915 70.7285628 11.7959526 69.9786834 8.00218957 69.9786834 4.11088152 72.214392 8.00218957 74.4512613 11.7959526 74.4512613 13.0943507 73.7056382"></polyline>
                                <polyline id="Fill-2" fill="#FFFFFF" points="5.41277725 43.1884874 8.00296682 44.6770251 10.5916019 43.1888744 8.00296682 41.7003367 5.41277725 43.1884874"></polyline>
                                <polyline id="Fill-3" fill="#E2E4EA" points="9.12609479 44.0316181 10.5916019 43.1896482 8.00296682 41.7003367 8.00296682 44.0316181 9.12609479 44.0316181"></polyline>
                                <polyline id="Fill-4" fill="#F1F2F5" points="6.53707109 15.9920101 8.00296682 16.8343668 8.00296682 44.0316181 6.53707109 43.1904221 6.53707109 15.9920101"></polyline>
                                <polyline id="Fill-5" fill="#E2E4EA" points="9.46808531 15.9920101 8.00296682 16.8343668 8.00296682 44.0316181 9.46808531 43.1904221 9.46808531 15.9920101"></polyline>
                                <polyline id="Fill-6" fill="#F1F2F5" points="2.30299526 15.9920101 8.00296682 19.2693467 8.00296682 10.6824925 0.343156398 6.27840201 2.30299526 15.9920101"></polyline>
                                <polyline id="Fill-7" fill="#FFDD00" points="2.9383981 15.5532261 7.15420853 17.9785327 7.15420853 11.1951809 1.39011374 7.88147236 2.9383981 15.5532261"></polyline>
                                <polyline id="Fill-8" fill="#F7F7F7" points="0.343156398 6.27840201 8.00296682 10.6824925 8.00218957 7.87257286 2.30299526 4.59601005 0.343156398 6.27840201"></polyline>
                                <polyline id="Fill-9" fill="#E2E4EA" points="13.7029384 15.9920101 8.00296682 19.2693467 8.00218957 10.6824925 15.6623886 6.27840201 13.7029384 15.9920101"></polyline>
                                <polyline id="Fill-10" fill="#EAC300" points="13.0026351 15.4920905 14.5509194 7.81994975 8.78682464 11.1332714 8.78682464 17.9170101 13.0026351 15.4920905"></polyline>
                                <polyline id="Fill-11" fill="#FFFFFF" points="2.30299526 4.59601005 8.00218957 7.87257286 13.7021611 4.59794472 8.00218957 1.32060804 2.30299526 4.59601005"></polyline>
                                <polyline id="Fill-12" fill="#E2E4EA" points="15.6623886 6.27840201 8.00218957 10.6824925 8.00296682 7.87257286 13.7021611 4.59601005 15.6623886 6.27840201"></polyline>
                                <polyline id="Fill-13" fill="#E2E4EA" points="5.34554502 4.59678392 8.00296682 6.12478894 12.3590711 4.59717085 8.00296682 3.06877889 5.34554502 4.59678392"></polyline>
                                <polyline id="Fill-14" fill="#F1F2F5" points="4.11243602 68.4382965 8.00296682 70.6767136 8.00218957 74.4512613 4.11243602 72.2171005 4.11243602 68.4382965"></polyline>
                                <polyline id="Fill-15" fill="#E2E4EA" points="11.8903886 68.4390704 8.00218957 70.6767136 8.00296682 74.4512613 11.8903886 72.2178744 11.8903886 68.4390704"></polyline>
                                <polyline id="Fill-16" fill="#FFFFFF" points="5.41277725 66.190593 8.00296682 67.6795176 10.5916019 66.1913668 8.00296682 64.7032161 5.41277725 66.190593"></polyline>
                                <polyline id="Fill-17" fill="#FFFFFF" points="4.11165877 68.4394573 8.00296682 70.6767136 11.8927204 68.4417789 8.00296682 66.2041357 4.11165877 68.4394573"></polyline>
                                <polyline id="Fill-18" fill="#E2E4EA" points="9.30408531 69.9283819 11.8927204 68.4417789 8.00296682 66.2041357 8.00296682 69.9283819 9.30408531 69.9283819"></polyline>
                                <polyline id="Fill-19" fill="#F7F7F7" points="5.34554502 4.59601005 8.00296682 6.12324121 8.00296682 0.259633166 5.34554502 4.59601005"></polyline>
                                <polyline id="Fill-20" fill="#E2E4EA" points="10.6596114 4.59601005 8.00296682 6.12324121 8.00296682 0.259633166 10.6596114 4.59601005"></polyline>
                                <polyline id="Fill-21" fill="#F1F2F5" points="5.41277725 43.1869397 8.00296682 44.6770251 8.00218957 69.9283819 5.41277725 68.4425528 5.41277725 43.1869397"></polyline>
                                <polyline id="Fill-22" fill="#E2E4EA" points="10.5916019 43.1869397 8.00218957 44.6770251 8.00296682 69.9283819 10.5916019 68.4425528 10.5916019 43.1869397"></polyline>
                            </g>
                        </g>
                    </g>
                    <g id="Skameika" transform="translate(90.500000, 90.500000) scale(-1, 1) translate(-90.500000, -90.500000) translate(37.000000, 54.000000)">
                        <g id="All_images-13">
                            <path d="M16.5928577,63.7141416 L16.1820754,63.4822212 L17.6852247,63.4822212 L16.9388829,63.9085929 L16.5928577,63.7141416 Z M20.5835947,65.9622832 L20.5338822,65.9332124 L19.8810785,65.5662743 L19.627283,65.4222124 L20.6339613,64.8498407 L21.5863483,65.3905575 L20.5835947,65.9622832 Z M24.196255,67.9953009 L23.7848185,67.7633805 L23.2504091,67.4629823 L24.2407346,66.8996549 L25.1820017,67.4339115 L24.196255,67.9953009 Z M65.9384087,43.1216814 L66.8862169,43.654 L28.4813423,65.553354 L27.8560113,65.1973982 L27.5407293,65.0165133 L65.9384087,43.1216814 Z M70.2130303,40.6842566 L71.8568136,41.6190442 L70.4563599,41.6190442 L70.2006022,41.7650442 L70.1423862,41.7650442 L69.4941613,41.3993982 L69.2253212,41.2482301 L70.2130303,40.6842566 Z M62.3100498,41.0860796 L62.3721904,41.1196726 L63.2683238,41.6235664 L24.8909218,63.5074159 L24.2871765,63.1617965 L23.9398431,62.9647611 L62.3100498,41.0860796 Z M66.6088735,38.6350885 L68.2788213,39.5853805 L66.8423914,39.5853805 L66.559161,39.747531 L66.2425708,39.5692301 L65.6028493,39.2087522 L66.6088735,38.6350885 Z M58.6424441,39.0259292 L59.6170709,39.5731062 L21.2677958,61.4401593 L20.6921773,61.1132743 L19.9085512,61.1132743 L58.6424441,39.0259292 Z M61.9882267,37.119531 L63.941405,37.119531 L64.6707398,37.5342743 L63.1924468,37.5342743 L62.913141,37.6951327 L62.3022004,37.3495133 L61.9404765,37.1460177 L61.9882267,37.119531 Z M54.6817963,37.119531 L55.2462949,37.119531 L55.9239548,37.5000354 L14.5127817,61.1132743 L12.6014666,61.1132743 L54.6817963,37.119531 Z M53.9413415,34.7415398 L0.229593293,65.3679469 L0.302853831,65.408646 L0.473577048,65.5042566 L4.89929847,65.5042566 L8.44458521,63.4822212 L9.53695216,63.4822212 L9.94904268,63.7154336 L6.89041523,65.4583894 L7.13766954,65.5966372 L7.3816533,65.734885 L7.62694528,65.8718407 L7.87158315,66.0107345 L8.11687513,66.1476903 L8.36020477,66.284 L8.8494805,66.5592035 L10.3572085,66.5592035 L12.6675319,65.2413274 L13.6428128,65.7885044 L10.5815689,67.5340442 L10.8229362,67.669708 L11.06692,67.8066637 L11.3082873,67.9423274 L11.5503087,68.0779912 L11.7929843,68.2149469 L12.0336975,68.3519027 L12.276373,68.4869204 L12.5164321,68.6225841 L14.0169649,68.6225841 L16.3357917,67.3008319 L16.6628477,67.4843009 L17.2947198,67.8389646 L14.2302054,69.5851504 L14.4709186,69.7201681 L14.7109776,69.8558319 L14.9510367,69.9902035 L15.1904417,70.1252212 L15.4291926,70.2589469 L15.6685975,70.3939646 L15.9073484,70.5289823 L16.1460992,70.663354 L17.6387827,70.663354 L19.9634966,69.3370796 L20.9106507,69.8687522 L17.844828,71.6168761 L18.0822706,71.7499558 L18.3190591,71.8849735 L18.5551935,72.0180531 L18.7919821,72.1517788 L19.0287706,72.2848584 L19.2662132,72.4185841 L19.5023476,72.5510177 L19.7384821,72.6840973 L21.2246244,72.6840973 L23.5558794,71.3552389 L23.6428763,71.4036903 C24.3584747,71.4036903 25.0753814,71.4036903 25.7929422,71.4036903 L27.4524242,70.4579204 L28.385842,70.4579204 C29.8072272,70.4579204 31.2344995,70.4579204 32.6585012,70.4579204 L34.8726701,69.1968938 L34.0007389,68.7007522 L33.1268453,68.2013805 L32.2522977,67.7039469 L31.3751336,67.2039292 L31.1056394,67.049531 L69.7047853,45.041 L71.5022849,45.041 L73.1611128,44.0952301 L74.0945306,44.0952301 C75.5165699,44.0952301 76.9438422,44.0952301 78.3678439,44.0952301 L80.5813587,42.8329115 L78.8361881,41.8386903 L77.9616404,41.3393186 L77.0851304,40.8399469 L75.3281857,39.8373274 L74.4464428,39.3353717 L73.5646999,38.8327699 L72.6757618,38.325 L71.7842072,37.8172301 L70.8913444,37.3081681 L69.9965192,36.7978142 L69.0997318,36.2881062 L68.2022902,35.7751681 L67.3035404,35.2622301 L66.40152,34.748646 L56.1594351,34.748646 L56.1476611,34.7415398 L53.9413415,34.7415398 Z" id="Fill-1" fill="#F4F4F4"></path>
                            <polyline id="Fill-2" fill="#F4F4F4" points="96.7555848 27.0035398 106.736679 21.3108319 96.7555848 15.6194159 87.4770068 15.6194159 74.4255112 23.0615398 81.3348957 27.0035398 96.7555848 27.0035398"></polyline>
                            <polyline id="Fill-3" fill="#EB53C0" points="96.7555848 11.7736726 96.7555848 27.0035398 106.736679 21.3108319 106.736679 6.0809646 96.7555848 11.7736726"></polyline>
                            <polyline id="Fill-4" fill="#EA71C8" points="86.7738365 6.0809646 96.7555848 11.7736726 106.736679 6.0809646 96.7555848 0.389548673 86.7738365 6.0809646"></polyline>
                            <polyline id="Fill-5" fill="#AA057C" points="86.7738365 6.0809646 96.7555848 11.7736726 96.7555848 27.0022478 86.7738365 21.3108319 86.7738365 6.0809646"></polyline>
                            <polyline id="Fill-6" fill="#AA057C" points="90.0744854 6.0809646 96.7555848 9.89182301 103.43603 6.0809646 96.7555848 2.27204425 90.0744854 6.0809646"></polyline>
                            <polyline id="Fill-7" fill="#EB53C0" points="90.0744854 6.0809646 94.3098602 8.4970708 96.7555848 2.27204425 90.0744854 6.0809646"></polyline>
                            <polyline id="Fill-8" fill="#F9F9F9" points="20.4207208 39.4723274 22.6342356 38.2106549 20.7301158 37.1266372 18.5166009 38.3870177 20.4207208 39.4723274"></polyline>
                            <polyline id="Fill-9" fill="#D8DAE1" points="30.7563437 67.2019912 32.9692044 65.9396726 22.6342356 60.0466991 20.4207208 61.3077257 30.7563437 67.2019912"></polyline>
                            <polyline id="Fill-10" fill="#F1F2F5" points="32.6585012 70.4579204 34.8726701 69.1968938 34.8726701 60.5848319 32.6585012 61.8471504 32.6585012 70.4579204"></polyline>
                            <polyline id="Fill-11" fill="#D8DAE1" points="32.6585012 64.2548584 34.8726701 62.9938319 34.8726701 60.5848319 32.6585012 61.8471504 32.6585012 64.2548584"></polyline>
                            <path d="M34.3533052,60.6416814 L36.5655118,59.3800088 C31.9226253,56.7326283 27.2784304,54.0839558 22.6342356,51.4365752 L20.4207208,52.6976018 C25.0649156,55.3456283 29.7091104,57.9936549 34.3533052,60.6416814" id="Fill-12" fill="#D8DAE1"></path>
                            <polyline id="Fill-13" fill="#D8DAE1" points="20.4207208 61.3077257 22.6342356 60.0466991 22.6342356 53.6065487 20.4207208 54.8688673 20.4207208 61.3077257"></polyline>
                            <polyline id="Fill-14" fill="#F1F2F5" points="20.4207208 52.6976018 22.6342356 51.4365752 22.6342356 38.2106549 20.4207208 39.4723274 20.4207208 52.6976018"></polyline>
                            <polyline id="Fill-15" fill="#D8DAE1" points="20.4207208 51.3267522 22.6342356 50.0650796 22.6342356 38.2106549 20.4207208 39.4723274 20.4207208 51.3267522"></polyline>
                            <polyline id="Fill-16" fill="#AAAAAA" points="20.4207208 44.7573982 22.6342356 43.4957257 22.6342356 38.2106549 20.4207208 39.4723274 20.4207208 44.7573982"></polyline>
                            <polyline id="Fill-17" fill="#F1F2F5" points="34.3533052 62.8123009 36.5655118 61.5512743 36.5655118 59.3800088 34.3533052 60.6416814 34.3533052 62.8123009"></polyline>
                            <path d="M30.7563437,67.2019912 L30.7563437,60.7611947 L20.4207208,54.8688673 L20.4207208,61.3077257 L30.7563437,67.2019912 Z M20.4207208,39.4723274 L20.4207208,52.6976018 L34.3533052,60.6416814 L34.3533052,62.8123009 L32.6585012,61.8471504 L32.6585012,70.4579204 L18.5166009,62.3943274 C18.5166009,54.3921062 18.5166009,46.389885 18.5166009,38.3870177 L20.4207208,39.4723274 Z" id="Fill-18" fill="#E2E4EA"></path>
                            <polyline id="Fill-19" fill="#F9F9F9" points="66.3930165 13.2575752 68.6052231 11.9965487 66.7024115 10.911885 64.4895508 12.1735575 66.3930165 13.2575752"></polyline>
                            <polyline id="Fill-20" fill="#F8F4F5" points="76.463724 40.8380088 78.6772389 39.5763363 68.6052231 33.8325929 66.3930165 35.0942655 76.463724 40.8380088"></polyline>
                            <polyline id="Fill-21" fill="#D8DAE1" points="76.463724 40.8380088 78.6772389 39.5763363 74.2515174 39.5763363 76.463724 40.8380088"></polyline>
                            <polyline id="Fill-22" fill="#F1F2F5" points="78.3678439 44.0952301 80.5813587 42.8329115 80.5813587 34.2202035 78.3678439 35.4825221 78.3678439 44.0952301"></polyline>
                            <polyline id="Fill-23" fill="#D8DAE1" points="78.3678439 37.8902301 80.5813587 36.6292035 80.5813587 34.2202035 78.3678439 35.4825221 78.3678439 37.8902301"></polyline>
                            <path d="M80.062648,34.2770531 L82.2755087,33.0153805 C77.6306597,30.368646 73.2494179,27.8698496 68.6052231,25.221177 L66.3930165,26.4822035 C71.0365572,29.1321681 75.4171449,31.6296726 80.062648,34.2770531" id="Fill-24" fill="#D8DAE1"></path>
                            <polyline id="Fill-25" fill="#D8DAE1" points="66.3930165 35.0942655 68.6052231 33.8325929 68.6052231 27.3930885 66.3930165 28.6547611 66.3930165 35.0942655"></polyline>
                            <polyline id="Fill-26" fill="#F1F2F5" points="66.3930165 26.4822035 68.6052231 25.221177 68.6052231 11.9965487 66.3930165 13.2575752 66.3930165 26.4822035"></polyline>
                            <polyline id="Fill-27" fill="#D8DAE1" points="66.3930165 25.111354 68.6052231 23.8496814 68.6052231 11.9965487 66.3930165 13.2575752 66.3930165 25.111354"></polyline>
                            <polyline id="Fill-28" fill="#D8DAE1" points="66.3930165 18.542646 68.6052231 17.2816195 68.6052231 11.9965487 66.3930165 13.2575752 66.3930165 18.542646"></polyline>
                            <polyline id="Fill-29" fill="#F1F2F5" points="80.062648 36.4489646 82.2755087 35.187292 82.2755087 33.0153805 80.062648 34.2770531 80.062648 36.4489646"></polyline>
                            <path d="M76.463724,40.8373628 L76.463724,34.3972124 L66.3930165,28.6547611 L66.3930165,35.0942655 L76.463724,40.8373628 Z M66.3930165,13.2575752 L66.3930165,26.4834956 L80.062648,34.2770531 L80.062648,36.4489646 L78.3678439,35.4831681 L78.3678439,44.093292 L64.4895508,36.1802212 C64.4895508,28.177354 64.4895508,20.1751327 64.4895508,12.1735575 L66.3930165,13.2575752 Z" id="Fill-30" fill="#E2E4EA"></path>
                            <path d="M72.1341571,21.1557876 L72.1341571,16.7706195 L19.5226251,46.7703894 L19.5226251,51.1555575 L72.1341571,21.1557876 Z M19.5226251,44.8885398 L19.5226251,40.5027257 L72.1341571,10.5042478 L72.1341571,14.8887699 L19.5226251,44.8885398 Z" id="Fill-31" fill="#F1F2F5"></path>
                            <polyline id="Fill-32" fill="#F9F9F9" points="19.5226251 40.5027257 72.1341571 10.5042478 70.8180838 9.75422124 18.2078601 39.7526991 19.5226251 40.5027257"></polyline>
                            <polyline id="Fill-33" fill="#F9F9F9" points="19.5226251 46.7703894 72.1341571 16.7706195 70.8180838 16.021885 18.2078601 46.0203628 19.5226251 46.7703894"></polyline>
                            <polyline id="Fill-35" fill="#F1F2F5" points="32.1404445 61.903354 84.7513224 31.9042301 84.7513224 30.404177 32.1404445 60.4039469 32.1404445 61.903354"></polyline>
                            <polyline id="Fill-36" fill="#F1F2F5" points="28.5428288 59.8516018 81.1537067 29.8531239 81.1537067 28.3537168 28.5428288 58.3528407 28.5428288 59.8516018"></polyline>
                            <polyline id="Fill-37" fill="#F1F2F5" points="24.9452131 57.8011416 77.5554369 27.8013717 77.5554369 26.3026106 24.9452131 56.3010885 24.9452131 57.8011416"></polyline>
                            <polyline id="Fill-38" fill="#F1F2F5" points="21.3462892 55.7493894 73.9578212 25.7489735 73.9578212 24.2508584 21.3462892 54.2499823 21.3462892 55.7493894"></polyline>
                            <path d="M81.1537067,28.3537168 L79.2495868,27.2677611 L26.638709,57.267531 L28.5428288,58.3528407 L81.1537067,28.3537168 Z M24.9452131,56.3010885 L77.5554369,26.3026106 L75.6526252,25.2166549 L23.0410933,55.2170708 L24.9452131,56.3010885 Z M21.3462892,54.2499823 L73.9578212,24.2508584 L72.0537013,23.1642566 L19.4441317,53.1646726 L21.3462892,54.2499823 Z M32.1404445,60.4039469 L30.2369788,59.3192832 L82.8472025,29.3195133 L84.7513224,30.404177 L32.1404445,60.4039469 Z" id="Fill-39" fill="#FDFDFD"></path>
                            <path d="M18.2078601,44.1385133 L18.2078601,39.7526991 L19.5226251,40.5027257 L19.5226251,44.8885398 L18.2078601,44.1385133 Z M19.5226251,51.1555575 L18.2078601,50.406177 L18.2078601,46.0203628 L19.5226251,46.7703894 L19.5226251,51.1555575 Z M21.3462892,54.2499823 L21.3462892,55.7493894 L19.4441317,54.6627876 L19.4441317,53.1646726 L21.3462892,54.2499823 Z M24.9452131,56.3010885 L24.9452131,57.8011416 L23.0410933,56.7151858 L23.0410933,55.2170708 L24.9452131,56.3010885 Z M28.5428288,58.3528407 L28.5428288,59.8516018 L26.638709,58.7675841 L26.638709,57.267531 L28.5428288,58.3528407 Z M32.1404445,60.4039469 L32.1404445,61.903354 L30.2369788,60.8180442 L30.2369788,59.3192832 L32.1404445,60.4039469 Z" id="Fill-40" fill="#E2E4EA"></path>
                        </g>
                    </g>
                </g>
            </g>
        </g>
    </g>
</svg>