<?xml version="1.0" encoding="UTF-8"?>
<svg width="883px" height="1266px" viewBox="0 0 883 1266" version="1.1" xmlns="http://www.w3.org/2000/svg" xmlns:xlink="http://www.w3.org/1999/xlink">
    <!-- Generator: Sketch 50.2 (55047) - http://www.bohemiancoding.com/sketch -->
    <title>Group 33</title>
    <desc>Created with Sketch.</desc>
    <defs></defs>
    <g id="Page-1" stroke="none" stroke-width="1" fill="none" fill-rule="evenodd">
        <g id="Розташування" transform="translate(-717.000000, -1145.000000)">
            <g id="Group-33" transform="translate(717.000000, 1145.000000)">
                <g id="Group-18" transform="translate(390.000000, 480.000000)">
                    <g id="Group-17">
                        <g id="All_images-23">
                            <polyline id="Fill-1" fill="#9AD8EF" points="32.4418007 163.356344 70.0145535 163.356344 71.7709815 162.29093 106.052989 162.29093 106.051041 159.51366 71.7690332 159.51366 70.0145535 158.447274 32.4505683 158.447274 30.4145535 157.210772 24.4916015 157.210772 18.416679 160.896949 24.4916015 164.58507 30.4145535 164.58507 32.4418007 163.356344"></polyline>
                            <polyline id="Fill-2" fill="#FFFFFF" points="20.4497712 113.041781 24.4925756 115.495344 28.5344059 113.042753 24.4925756 110.588219 20.4497712 113.041781"></polyline>
                            <polyline id="Fill-3" fill="#E2E4EA" points="26.2470554 114.430902 28.5344059 113.043726 24.4925756 110.588219 24.4925756 114.430902 26.2470554 114.430902"></polyline>
                            <polyline id="Fill-4" fill="#F1F2F5" points="22.2052251 68.2030186 24.4925756 69.5921395 24.4925756 114.430902 22.2052251 113.04567 22.2052251 68.2030186"></polyline>
                            <polyline id="Fill-5" fill="#E2E4EA" points="26.7799262 68.2030186 24.4925756 69.5921395 24.4925756 114.430902 26.7799262 113.04567 26.7799262 68.2030186"></polyline>
                            <polyline id="Fill-6" fill="#F1F2F5" points="18.4196015 154.671665 24.4925756 158.36173 24.4916015 164.58507 18.4196015 160.901809 18.4196015 154.671665"></polyline>
                            <polyline id="Fill-7" fill="#E2E4EA" points="30.5626273 154.672637 24.4916015 158.36173 24.4925756 164.58507 30.5626273 160.902781 30.5626273 154.672637"></polyline>
                            <polyline id="Fill-8" fill="#FFFFFF" points="20.4497712 150.966047 24.4925756 153.420581 28.5344059 150.967019 24.4925756 148.512484 20.4497712 150.966047"></polyline>
                            <polyline id="Fill-9" fill="#FFFFFF" points="18.4176531 154.673609 24.4925756 158.36173 30.566524 154.677498 24.4925756 150.987433 18.4176531 154.673609"></polyline>
                            <polyline id="Fill-10" fill="#E2E4EA" points="26.5246937 157.127172 30.566524 154.677498 24.4925756 150.987433 24.4925756 157.127172 26.5246937 157.127172"></polyline>
                            <polyline id="Fill-11" fill="#F1F2F5" points="20.4497712 113.039837 24.4925756 115.495344 24.4916015 157.127172 20.4497712 154.67847 20.4497712 113.039837"></polyline>
                            <polyline id="Fill-12" fill="#E2E4EA" points="28.5344059 113.039837 24.4916015 115.495344 24.4925756 157.127172 28.5344059 154.67847 28.5344059 113.039837"></polyline>
                            <polyline id="Fill-13" fill="#9AD8EF" points="89.553476 196.305437 127.127203 196.305437 128.883631 195.240023 163.165638 195.240023 163.162716 192.463726 128.881683 192.463726 127.127203 191.396367 89.5622435 191.396367 87.527203 190.160837 81.6042509 190.160837 75.5293284 193.847014 81.6042509 197.535135 87.527203 197.535135 89.553476 196.305437"></polyline>
                            <polyline id="Fill-14" fill="#FFFFFF" points="77.5624207 145.990874 81.6052251 148.446381 85.6470554 145.991847 81.6052251 143.538284 77.5624207 145.990874"></polyline>
                            <polyline id="Fill-15" fill="#E2E4EA" points="83.3597048 147.38194 85.6470554 145.993791 81.6052251 143.538284 81.6052251 147.38194 83.3597048 147.38194"></polyline>
                            <polyline id="Fill-16" fill="#F1F2F5" points="79.3178745 101.152112 81.6052251 102.541233 81.6052251 147.38194 79.3178745 145.994763 79.3178745 101.152112"></polyline>
                            <polyline id="Fill-17" fill="#E2E4EA" points="83.8925756 101.152112 81.6052251 102.541233 81.6052251 147.38194 83.8925756 145.994763 83.8925756 101.152112"></polyline>
                            <polyline id="Fill-18" fill="#F1F2F5" points="75.5312768 187.620758 81.6052251 191.310823 81.6042509 197.535135 75.5312768 193.851874 75.5312768 187.620758"></polyline>
                            <polyline id="Fill-19" fill="#E2E4EA" points="87.6752768 187.62173 81.6042509 191.310823 81.6052251 197.535135 87.6752768 193.852847 87.6752768 187.62173"></polyline>
                            <polyline id="Fill-20" fill="#FFFFFF" points="77.5624207 183.916112 81.6052251 186.369674 85.6470554 183.917084 81.6052251 181.463521 77.5624207 183.916112"></polyline>
                            <polyline id="Fill-21" fill="#FFFFFF" points="75.5303026 187.622702 81.6052251 191.310823 87.6791734 187.626591 81.6052251 183.936526 75.5303026 187.622702"></polyline>
                            <polyline id="Fill-22" fill="#E2E4EA" points="83.6373432 190.078209 87.6791734 187.626591 81.6052251 183.936526 81.6052251 190.078209 83.6373432 190.078209"></polyline>
                            <polyline id="Fill-23" fill="#F1F2F5" points="77.5624207 145.98893 81.6052251 148.446381 81.6042509 190.078209 77.5624207 187.627563 77.5624207 145.98893"></polyline>
                            <polyline id="Fill-24" fill="#E2E4EA" points="85.6470554 145.98893 81.6042509 148.446381 81.6052251 190.078209 85.6470554 187.627563 85.6470554 145.98893"></polyline>
                            <polyline id="Fill-25" fill="#9AD8EF" points="257.645491 208.444935 194.026362 208.444935 171.081742 195.227386 163.019513 195.22447 159.363454 193.117944 163.021461 191.010447 163.763779 191.010447 113.928177 162.299679 105.871793 162.296763 102.215734 160.191209 105.873742 158.083712 106.610214 158.083712 87.8925166 147.300284 93.4121624 144.120567 157.032266 144.120567 263.164162 205.267163 257.645491 208.444935"></polyline>
                            <polyline id="Fill-26" fill="#F1F2F5" points="83.4561476 115.532284 87.1122066 113.42673 26.8685756 78.7171767 23.2115424 80.8227302 83.4561476 115.532284"></polyline>
                            <polyline id="Fill-27" fill="#F1F2F5" points="96.0112472 122.765628 99.6673063 120.661047 17.8458155 73.5184233 14.1897565 75.6259209 96.0112472 122.765628"></polyline>
                            <polyline id="Fill-28" fill="#FAFAFA" points="106.398819 65.2663256 111.917491 62.0875814 5.78656827 0.940013953 0.266922509 4.11973023 106.398819 65.2663256"></polyline>
                            <polyline id="Fill-29" fill="#E2E4EA" points="106.399793 128.749833 106.398819 65.2663256 111.917491 62.0866093 111.917491 125.570116 106.399793 128.749833"></polyline>
                            <polyline id="Fill-30" fill="#F1F2F5" points="0.265948339 4.12167442 106.399793 65.2663256 106.399793 128.749833 0.265948339 67.6051814 0.265948339 4.12167442"></polyline>
                            <polyline id="Fill-31" fill="#FFFFFF" points="3.85089299 10.3158512 3.85089299 65.5394837 102.815823 122.556628 102.815823 67.3310512 3.85089299 10.3158512"></polyline>
                        </g>
                    </g>
                    <path d="M18.4803682,38.5787728 L18.4803682,40.7538759 L11,36.248854 L11,25 L13.5203832,26.5178907 L13.5203832,35.5916417 L18.4803682,38.5787728 Z M23.375728,42.013947 C23.6126883,42.1566554 23.8388742,42.2874644 24.0542927,42.4063778 C24.2697111,42.5252912 24.4420433,42.6128457 24.5712944,42.6690437 L24.5712944,40.8348149 C24.4743561,40.7547913 24.3289508,40.645579 24.1350742,40.5071746 C23.9411976,40.3687703 23.76348,40.2509193 23.6019162,40.1536181 C23.3757268,40.0173965 23.1630043,39.9028118 22.9637423,39.8098607 C22.7644802,39.7169096 22.5894553,39.6629027 22.4386624,39.6478385 C22.2878695,39.6327743 22.1693911,39.6642236 22.0832237,39.7421872 C21.9970564,39.8201508 21.9539733,39.9565237 21.9539733,40.15131 C21.9539733,40.5300612 22.0805298,40.8686958 22.3336464,41.1672241 C22.5867631,41.4657523 22.9341202,41.7479905 23.375728,42.013947 Z M23.1818523,34.8199851 C23.8927332,35.2481103 24.4851251,35.6860357 24.9590457,36.1337744 C25.4329662,36.5815131 25.8126356,37.0428254 26.098065,37.5177251 C26.3834944,37.9926248 26.5854462,38.4821736 26.7039264,38.9863863 C26.8224065,39.490599 26.8816457,40.0078234 26.8816457,40.5380751 L26.8816457,45.57003 C26.5369762,45.4382044 26.0576773,45.2388243 25.4437347,44.9718837 C24.8297922,44.7049431 24.0866097,44.3087656 23.2141649,43.7833393 C22.6648479,43.4525153 22.1667002,43.103812 21.7197069,42.7372189 C21.2727137,42.3706258 20.887659,41.979114 20.5645313,41.5626717 C20.2414036,41.1462293 19.9936761,40.7075667 19.8213413,40.2466705 C19.6490066,39.7857743 19.5628405,39.2956185 19.5628405,38.7761883 C19.5628405,38.278401 19.66247,37.9163718 19.8617321,37.6900897 C20.0609942,37.4638077 20.3275705,37.3484091 20.6614691,37.3438904 C20.9953677,37.3393717 21.3777297,37.4208548 21.8085666,37.5883422 C22.2394035,37.7558296 22.6863901,37.9790349 23.1495397,38.257965 C23.4618965,38.4460806 23.7392436,38.6266384 23.9815893,38.7996438 C24.2239351,38.9726492 24.4205015,39.1261997 24.5712944,39.2603 L24.5712944,39.0330504 C24.5712944,38.6218349 24.4474306,38.2171888 24.1996994,37.8191 C23.9519682,37.4210112 23.5211378,37.0371004 22.9071952,36.6673559 C22.4979001,36.4208596 22.0939966,36.2073689 21.6954725,36.0268774 C21.2969483,35.8463858 20.952284,35.7226782 20.6614691,35.6557507 L20.3544993,33.5230259 C20.4945213,33.5640677 20.6695462,33.6234852 20.8795792,33.7012802 C21.0896122,33.7790751 21.3184908,33.8736312 21.5662221,33.9849512 C21.8139533,34.0962712 22.0751442,34.2211085 22.3498027,34.3594668 C22.6244613,34.4978252 22.9018084,34.6513297 23.1818523,34.8199851 Z M31.1630659,48.3919799 C30.6137489,46.9790097 30.056362,45.3772335 29.4908886,43.5866034 C28.9254152,41.7959733 28.3895698,39.8933528 27.8833365,37.8786847 L30.4360323,39.4160356 C30.5437415,39.9029401 30.670298,40.4363581 30.8157054,41.0163057 C30.9611129,41.5962533 31.1119035,42.1848462 31.2680819,42.782102 C31.4242603,43.3793578 31.5804363,43.963078 31.7366147,44.5332802 C31.8927931,45.1034823 32.0462764,45.6287691 32.1970693,46.1091562 C32.3370913,45.8039112 32.487882,45.4618722 32.6494458,45.0830291 C32.8110096,44.7041859 32.9698784,44.3102001 33.1260567,43.9010599 C33.2822351,43.4919197 33.4330258,43.084953 33.5784332,42.6801475 C33.7238407,42.275342 33.8503971,41.8943602 33.9581063,41.5371906 L36.446177,43.0356212 C35.9399436,44.4405352 35.4040983,45.6977343 34.8386248,46.8072562 C34.2731514,47.9167781 33.7157645,48.8471862 33.1664475,49.5985084 L31.1630659,48.3919799 Z M40.1459703,53.8018982 L37.7386812,52.3521179 L37.7386812,43.8140267 L40.1459703,45.2638069 L40.1459703,53.8018982 Z M40.3721586,42.9327468 C40.3721586,43.3764268 40.229446,43.6394656 39.9440165,43.7218712 C39.6585871,43.8042769 39.3220008,43.7287194 38.9342476,43.4951966 C38.5464944,43.2616738 38.2099081,42.9318157 37.9244787,42.5056126 C37.6390492,42.0794095 37.4963367,41.6444745 37.4963367,41.2007945 C37.4963367,40.7571146 37.6390492,40.4940757 37.9244787,40.4116701 C38.2099081,40.3292645 38.5464944,40.4048219 38.9342476,40.6383448 C39.3220008,40.8718676 39.6585871,41.2017256 39.9440165,41.6279287 C40.229446,42.0541318 40.3721586,42.4890668 40.3721586,42.9327468 Z M42.4078527,46.9181946 C42.8171478,47.0456548 43.344915,47.2525822 43.9911704,47.538983 C44.6374257,47.8253838 45.3159837,48.1826415 46.0268646,48.6107666 C46.7485164,49.0453786 47.3489863,49.5016955 47.8282923,49.9797313 C48.3075984,50.457767 48.6872677,50.9542485 48.9673117,51.4691907 C49.2473556,51.9841329 49.4466147,52.5153453 49.5650949,53.0628438 C49.683575,53.6103424 49.7428142,54.1762626 49.7428142,54.7606216 L49.7428142,59.581559 L47.3355251,58.1317788 L47.3355251,53.6030194 C47.3355251,52.8238741 47.2332029,52.2103646 47.0285553,51.7624726 C46.8239078,51.3145806 46.4415458,50.9219851 45.8814578,50.5846743 C45.7091231,50.4808864 45.5260201,50.3787294 45.3321435,50.2782001 C45.1382669,50.1776709 44.9659348,50.0928218 44.8151418,50.0236503 L44.8151418,56.613888 L42.4078527,55.1641078 L42.4078527,46.9181946 Z M55.171332,61.1627225 C55.4082922,61.3054308 55.6344782,61.4362398 55.8498967,61.5551532 C56.0653151,61.6740667 56.2376473,61.7616211 56.3668984,61.8178191 L56.3668984,59.9835904 C56.2699601,59.9035667 56.1245548,59.7943544 55.9306782,59.6559501 C55.7368016,59.5175457 55.559084,59.3996947 55.3975202,59.3023936 C55.1713308,59.1661719 54.9586083,59.0515873 54.7593462,58.9586361 C54.5600842,58.865685 54.3850593,58.8116782 54.2342664,58.796614 C54.0834735,58.7815498 53.9649951,58.812999 53.8788277,58.8909626 C53.7926603,58.9689262 53.7495773,59.1052991 53.7495773,59.3000854 C53.7495773,59.6788366 53.8761337,60.0174712 54.1292504,60.3159995 C54.3823671,60.6145277 54.7297241,60.8967659 55.171332,61.1627225 Z M54.9774563,53.9687605 C55.6883372,54.3968857 56.280729,54.8348111 56.7546496,55.2825498 C57.2285702,55.7302885 57.6082395,56.1916008 57.893669,56.6665005 C58.1790984,57.1414002 58.3810502,57.630949 58.4995303,58.1351617 C58.6180105,58.6393744 58.6772497,59.1565988 58.6772497,59.6868505 L58.6772497,64.7188054 C58.3325802,64.5869798 57.8532813,64.3875997 57.2393387,64.1206591 C56.6253961,63.8537186 55.8822136,63.4575411 55.0097689,62.9321147 C54.4604519,62.6012907 53.9623042,62.2525874 53.5153109,61.8859943 C53.0683176,61.5194013 52.6832629,61.1278894 52.3601353,60.7114471 C52.0370076,60.2950048 51.7892801,59.8563421 51.6169453,59.3954459 C51.4446106,58.9345497 51.3584445,58.4443939 51.3584445,57.9249637 C51.3584445,57.4271764 51.458074,57.0651472 51.6573361,56.8388652 C51.8565982,56.6125832 52.1231745,56.4971845 52.4570731,56.4926658 C52.7909717,56.4881471 53.1733337,56.5696303 53.6041706,56.7371176 C54.0350075,56.904605 54.4819941,57.1278103 54.9451437,57.4067404 C55.2575005,57.594856 55.5348476,57.7754138 55.7771933,57.9484192 C56.0195391,58.1214246 56.2161055,58.2749752 56.3668984,58.4090754 L56.3668984,58.1818259 C56.3668984,57.7706103 56.2430346,57.3659642 55.9953034,56.9678754 C55.7475722,56.5697867 55.3167418,56.1858758 54.7027992,55.8161313 C54.2935041,55.569635 53.8896006,55.3561443 53.4910765,55.1756528 C53.0925523,54.9951613 52.747888,54.8714536 52.4570731,54.8045261 L52.1501033,52.6718013 C52.2901253,52.7128431 52.4651502,52.7722606 52.6751832,52.8500556 C52.8852162,52.9278505 53.1140948,53.0224066 53.361826,53.1337266 C53.6095573,53.2450466 53.8707482,53.3698839 54.1454067,53.5082423 C54.4200652,53.6466006 54.6974123,53.8001052 54.9774563,53.9687605 Z M67.870186,59.2498422 C68.0640626,59.7237119 68.2875559,60.2992778 68.5406726,60.9765573 C68.7937892,61.6538367 69.0576729,62.3808778 69.3323314,63.1577025 C69.6069899,63.9345271 69.8789516,64.723245 70.1482247,65.5238799 C70.4174977,66.3245148 70.6706106,67.0775332 70.9075709,67.7829577 C71.1445312,67.36295 71.3976441,66.9148041 71.6669172,66.4385064 C71.9361902,65.9622087 72.2081519,65.5010665 72.4828104,65.0550659 C72.757469,64.6090652 73.0213526,64.1998698 73.2744693,63.8274674 C73.527586,63.455065 73.7510792,63.148695 73.9449559,62.9083481 L76.2391509,64.2900179 C76.3468601,65.1015662 76.4464896,65.9975132 76.5380425,66.9778855 C76.6295953,67.9582579 76.710376,68.9700035 76.780387,70.0131526 C76.850398,71.0563017 76.9150226,72.0988972 76.9742626,73.1409703 C77.0335027,74.1830434 77.0846638,75.1607188 77.1277475,76.0740257 L74.6719895,74.5950552 C74.6396767,73.4826273 74.5965937,72.2663377 74.5427391,70.9461499 C74.4888844,69.6259621 74.4081037,68.2787563 74.3003945,66.9044918 C74.1065179,67.2422319 73.8911027,67.6156894 73.6541424,68.0248756 C73.4171821,68.4340618 73.1829181,68.8448635 72.9513432,69.2572931 C72.7197684,69.6697226 72.4962751,70.0626631 72.2808567,70.4361262 C72.0654382,70.8095893 71.8823353,71.129463 71.7315424,71.3957568 L69.9705054,70.3351793 C69.8197124,69.8872566 69.6366095,69.3468369 69.4211911,68.713904 C69.2057726,68.0809711 68.9822793,67.4188348 68.7507045,66.7274752 C68.5191297,66.0361156 68.2848656,65.3431447 68.0479053,64.6485417 C67.810945,63.9539387 67.5955298,63.3210153 67.4016532,62.7497525 C67.293944,63.994282 67.2131633,65.2441881 67.1593087,66.4995085 C67.105454,67.7548288 67.062371,68.9192252 67.0300582,69.9927327 L64.5743002,68.5137622 C64.6173839,67.6523493 64.668545,66.7362971 64.7277851,65.7655782 C64.7870252,64.7948592 64.8516497,63.8301035 64.9216607,62.8712821 C64.9916717,61.9124607 65.0724524,60.9980148 65.1640053,60.1279171 C65.2555581,59.2578194 65.3551876,58.4818754 65.4628969,57.800062 L67.870186,59.2498422 Z M82.4754837,77.6065387 C82.712444,77.7492471 82.93863,77.8800561 83.1540485,77.9989695 C83.3694669,78.117883 83.5417991,78.2054374 83.6710502,78.2616354 L83.6710502,76.4274067 C83.5741119,76.347383 83.4287066,76.2381707 83.23483,76.0997664 C83.0409534,75.961362 82.8632358,75.843511 82.701672,75.7462099 C82.4754826,75.6099882 82.2627601,75.4954036 82.063498,75.4024524 C81.864236,75.3095013 81.6892111,75.2554945 81.5384182,75.2404303 C81.3876253,75.2253661 81.2691469,75.2568153 81.1829795,75.3347789 C81.0968121,75.4127425 81.0537291,75.5491154 81.0537291,75.7439017 C81.0537291,76.1226529 81.1802855,76.4612875 81.4334022,76.7598158 C81.6865189,77.058344 82.0338759,77.3405822 82.4754837,77.6065387 Z M82.2816081,70.4125768 C82.992489,70.840702 83.5848808,71.2786274 84.0588014,71.7263661 C84.532722,72.1741048 84.9123913,72.6354171 85.1978208,73.1103168 C85.4832502,73.5852165 85.685202,74.0747653 85.8036821,74.578978 C85.9221623,75.0831907 85.9814015,75.6004151 85.9814015,76.1306668 L85.9814015,81.1626217 C85.6367319,81.0307961 85.1574331,80.831416 84.5434905,80.5644754 C83.9295479,80.2975349 83.1863654,79.9013573 82.3139207,79.375931 C81.7646037,79.045107 81.266456,78.6964037 80.8194627,78.3298106 C80.3724694,77.9632175 79.9874147,77.5717057 79.6642871,77.1552634 C79.3411594,76.7388211 79.0934319,76.3001584 78.9210971,75.8392622 C78.7487624,75.378366 78.6625963,74.8882102 78.6625963,74.36878 C78.6625963,73.8709927 78.7622258,73.5089635 78.9614879,73.2826815 C79.1607499,73.0563995 79.4273263,72.9410008 79.7612249,72.9364821 C80.0951235,72.9319634 80.4774855,73.0134466 80.9083224,73.1809339 C81.3391593,73.3484213 81.7861458,73.5716266 82.2492955,73.8505567 C82.5616523,74.0386723 82.8389994,74.2192301 83.0813451,74.3922355 C83.3236909,74.5652409 83.5202572,74.7187915 83.6710502,74.8528917 L83.6710502,74.6256422 C83.6710502,74.2144266 83.5471864,73.8097805 83.2994552,73.4116917 C83.051724,73.0136029 82.6208935,72.6296921 82.006951,72.2599476 C81.5976559,72.0134513 81.1937524,71.7999606 80.7952283,71.6194691 C80.3967041,71.4389776 80.0520398,71.3152699 79.7612249,71.2483424 L79.4542551,69.1156176 C79.5942771,69.1566594 79.769302,69.2160769 79.979335,69.2938719 C80.1893679,69.3716668 80.4182466,69.4662229 80.6659778,69.5775429 C80.913709,69.6888629 81.1749,69.8137002 81.4495585,69.9520586 C81.724217,70.0904169 82.0015641,70.2439215 82.2816081,70.4125768 Z M91.5553259,84.9252983 C90.855216,84.4928384 90.2870584,84.0749186 89.850836,83.6715264 C89.4146136,83.2681342 89.0699493,82.8630728 88.8168326,82.4563299 C88.5637159,82.049587 88.3913838,81.6373936 88.2998309,81.2197373 C88.2082781,80.802081 88.1625023,80.3660086 88.1625023,79.9115072 L88.1625023,70.513114 L90.5697915,71.5733236 L90.5697915,80.8743241 C90.5697915,81.0907533 90.5859476,81.2952667 90.6182604,81.4878703 C90.6505731,81.680474 90.712505,81.8638597 90.8040579,82.0380332 C90.8956107,82.2122066 91.0275525,82.3890597 91.1998873,82.5685979 C91.372222,82.748136 91.6037934,82.9362948 91.8946083,83.1330799 L91.5553259,84.9252983 Z M96.6607176,88 C95.9606077,87.5675401 95.39245,87.1496203 94.9562277,86.7462282 C94.5200053,86.342836 94.175341,85.9377745 93.9222243,85.5310317 C93.6691076,85.1242888 93.4967755,84.7120954 93.4052226,84.294439 C93.3136698,83.8767827 93.267894,83.4407104 93.267894,82.9862089 L93.267894,73.5878158 L95.6751832,74.6480253 L95.6751832,83.9490258 C95.6751832,84.1654551 95.6913393,84.3699684 95.7236521,84.5625721 C95.7559648,84.7551757 95.8178967,84.9385615 95.9094496,85.1127349 C96.0010024,85.2869083 96.1329442,85.4637615 96.305279,85.6432996 C96.4776137,85.8228378 96.7091851,86.0109966 97,86.2077816 L96.6607176,88 Z" id="Lavina-Mall" fill="#EB53C0"></path>
                    <path d="M16.8564338,60.3394671 C16.5127894,60.1462909 16.1500592,59.9207172 15.7682321,59.6627391 C15.3864051,59.404761 15.0173112,59.1384637 14.6609393,58.8638392 C14.3045674,58.5892148 13.9800193,58.3262898 13.6872852,58.0750565 C13.3945512,57.8238231 13.1654584,57.6145574 13,57.447253 L13.5536464,55.4553885 C13.8845632,55.7776149 14.3077485,56.1609937 14.823215,56.6055363 C15.3386815,57.050079 15.9782321,57.4869839 16.7418862,57.9162642 C17.6200884,58.4099365 18.2628209,58.6102749 18.6701031,58.5172853 C19.0773853,58.4242957 19.2810233,58.1053957 19.2810233,57.5605757 C19.2810233,57.2262543 19.2078409,56.9034231 19.0614738,56.5920723 C18.9151068,56.2807215 18.7146506,55.9823058 18.4600993,55.6968163 C18.2055479,55.4113267 17.9032727,55.1423491 17.5532646,54.8898754 C17.2032565,54.6374017 16.8309807,54.400271 16.4364261,54.1784762 L15.3291333,53.5560228 L15.3291333,51.3272249 L16.5891562,52.0355338 C16.8691627,52.1929366 17.1396194,52.3202069 17.4005346,52.4173486 C17.6614497,52.5144903 17.8937243,52.561482 18.0973654,52.5583252 C18.3010065,52.5551683 18.4632805,52.4854219 18.5841924,52.3490838 C18.7051043,52.2127456 18.7655594,51.9898015 18.7655594,51.6802447 C18.7655594,51.4449815 18.7146499,51.2120588 18.6128293,50.9814696 C18.5110088,50.7508804 18.3805532,50.5351522 18.2214586,50.3342783 C18.062364,50.1334045 17.877817,49.9460842 17.6678121,49.7723119 C17.4578073,49.5985396 17.2446237,49.4508409 17.0282551,49.3292115 C16.4809696,49.0215606 15.9750564,48.8176502 15.5105002,48.7174743 C15.045944,48.6172983 14.6227587,48.5775224 14.2409317,48.5981454 L13.2290951,46.0048604 C13.4327362,45.9955124 13.6713745,45.9996486 13.9450172,46.017269 C14.2186599,46.0348895 14.5209351,46.0809895 14.8518519,46.1555705 C15.1827686,46.2301515 15.5359533,46.335825 15.9114166,46.4725942 C16.2868798,46.6093634 16.6846103,46.7957973 17.1046201,47.0319014 C17.8810017,47.4683364 18.5523708,47.9355098 19.1187476,48.4334357 C19.6851244,48.9313615 20.1528555,49.4481246 20.5219549,49.9837403 C20.8910544,50.519356 21.164693,51.0570238 21.342879,51.5967599 C21.5210649,52.136496 21.6101565,52.6663838 21.6101565,53.1864393 C21.6101565,53.6941124 21.4637917,54.1040229 21.1710577,54.416183 C20.8783236,54.728343 20.4837749,54.8687276 19.9873998,54.8373408 C20.6746884,55.4961031 21.2060564,56.2003195 21.5815197,56.9500112 C21.9569829,57.6997029 22.1447117,58.4521968 22.1447117,59.2075154 C22.1447117,59.8018645 22.0428927,60.2925353 21.8392516,60.6795426 C21.6356105,61.0665499 21.3174261,61.3210589 20.8846888,61.4430771 C20.4519515,61.5650953 19.9014925,61.5404484 19.2332952,61.3691356 C18.5650978,61.1978228 17.7728186,60.8546034 16.8564338,60.3394671 Z M33.5421917,62.977081 C33.5421917,65.1439787 33.1190064,66.5683846 32.2726231,67.2503415 C31.4262399,67.9322983 30.2585031,67.8547296 28.7693776,67.017633 C27.2802522,66.1805364 26.1125154,64.9452426 25.2661321,63.3117144 C24.4197489,61.6781862 23.9965636,59.7780017 23.9965636,57.611104 C23.9965636,56.5338463 24.1079281,55.643028 24.3306606,54.9386225 C24.553393,54.234217 24.8747593,53.7152818 25.294769,53.3818014 C25.7147787,53.048321 26.2175101,52.8975533 26.8029782,52.9294936 C27.3884464,52.961434 28.0439063,53.181309 28.7693776,53.5891253 C30.2585031,54.4262219 31.4262399,55.6615158 32.2726231,57.2950439 C33.1190064,58.9285721 33.5421917,60.8225655 33.5421917,62.977081 Z M30.6403207,61.345824 C30.6403207,60.7019458 30.6085023,60.0990058 30.5448645,59.5369858 C30.4812266,58.9749659 30.3794076,58.4626877 30.2394044,58.0001358 C30.0994011,57.537584 29.9084905,57.1330954 29.6666667,56.786658 C29.4248429,56.4402206 29.1257495,56.1668406 28.7693776,55.9665098 C28.4130057,55.766179 28.1170942,55.7050831 27.8816342,55.7832203 C27.6461742,55.8613575 27.4552636,56.0512091 27.3088965,56.3527809 C27.1625295,56.6543526 27.0575286,57.0503692 26.9938908,57.5408424 C26.930253,58.0313156 26.8984345,58.5984828 26.8984345,59.242361 C26.8984345,59.8862392 26.930253,60.4922747 26.9938908,61.0604858 C27.0575286,61.6286969 27.1625295,62.1458593 27.3088965,62.6119885 C27.4552636,63.0781177 27.6461742,63.4826062 27.8816342,63.8254663 C28.1170942,64.1683263 28.4130057,64.4399177 28.7693776,64.6402485 C29.1257495,64.8405793 29.4248429,64.9034638 29.6666667,64.828904 C29.9084905,64.7543441 30.0994011,64.5644925 30.2394044,64.2593434 C30.3794076,63.9541943 30.4812266,63.5532936 30.5448645,63.0566293 C30.6085023,62.5599649 30.6403207,61.9897022 30.6403207,61.345824 Z M44.3860252,69.0728308 C44.3860252,71.2397286 43.9628399,72.6641345 43.1164567,73.3460913 C42.2700734,74.0280482 41.1023366,73.9504794 39.6132111,73.1133828 C38.1240857,72.2762863 36.9563489,71.0409924 36.1099656,69.4074642 C35.2635824,67.773936 34.8403971,65.8737516 34.8403971,63.7068539 C34.8403971,62.6295961 34.9517616,61.7387779 35.1744941,61.0343723 C35.3972265,60.3299668 35.7185928,59.8110316 36.1386025,59.4775513 C36.5586123,59.1440709 37.0613436,58.9933031 37.6468118,59.0252435 C38.2322799,59.0571838 38.8877398,59.2770589 39.6132111,59.6848752 C41.1023366,60.5219717 42.2700734,61.7572656 43.1164567,63.3907938 C43.9628399,65.024322 44.3860252,66.9183154 44.3860252,69.0728308 Z M41.4841543,67.4415738 C41.4841543,66.7976956 41.4523358,66.1947556 41.388698,65.6327357 C41.3250601,65.0707157 41.2232411,64.5584375 41.0832379,64.0958857 C40.9432346,63.6333338 40.752324,63.2288453 40.5105002,62.8824079 C40.2686764,62.5359705 39.969583,62.2625904 39.6132111,62.0622596 C39.2568393,61.8619288 38.9609277,61.8008329 38.7254677,61.8789702 C38.4900077,61.9571074 38.2990971,62.146959 38.15273,62.4485307 C38.006363,62.7501025 37.9013622,63.146119 37.8377243,63.6365922 C37.7740865,64.1270655 37.742268,64.6942327 37.742268,65.3381109 C37.742268,65.981989 37.7740865,66.5880246 37.8377243,67.1562357 C37.9013622,67.7244468 38.006363,68.2416091 38.15273,68.7077383 C38.2990971,69.1738675 38.4900077,69.5783561 38.7254677,69.9212161 C38.9609277,70.2640762 39.2568393,70.5356675 39.6132111,70.7359984 C39.969583,70.9363292 40.2686764,70.9992137 40.5105002,70.9246538 C40.752324,70.8500939 40.9432346,70.6602423 41.0832379,70.3550932 C41.2232411,70.0499442 41.3250601,69.6490435 41.388698,69.1523791 C41.4523358,68.6557147 41.4841543,68.085452 41.4841543,67.4415738 Z M53.7789233,75.1887514 C53.7534681,75.6078216 53.7280134,76.0640318 53.7025582,76.5573956 C53.6771031,77.0507595 53.6548302,77.5490001 53.6357388,78.0521324 C53.6166475,78.5552647 53.5975564,79.0336253 53.5784651,79.4872285 C53.5593737,79.9408317 53.5434645,80.3374019 53.5307369,80.6769508 L50.7625048,79.1208175 C50.7879599,78.4541019 50.8293239,77.7096648 50.8865979,76.887484 C50.943872,76.0653032 51.0075089,75.2312344 51.0775105,74.3852526 C51.1475121,73.5392708 51.2238764,72.7185476 51.3066056,71.9230584 C51.3893348,71.1275692 51.4688809,70.416978 51.5452463,69.7912633 L53.912562,71.1220255 C54.4598475,72.2964355 54.9625788,73.4767421 55.4207713,74.6629808 C55.8789637,75.8492194 56.362604,77.142615 56.8717068,78.5432065 C57.4062646,77.6550045 57.9280871,76.8494314 58.4371898,76.126463 C58.9462925,75.4034947 59.404478,74.8407457 59.8117602,74.4381993 L62.2172585,75.7904255 C62.3063515,76.5091509 62.3922613,77.3127516 62.4749905,78.2012515 C62.5577196,79.0897514 62.6340839,79.9963294 62.7040855,80.9210125 C62.7740872,81.8456957 62.8345422,82.7495215 62.8854525,83.6325171 C62.9363627,84.5155126 62.9745449,85.3046657 63,86 L60.1744941,84.4116708 C60.1490389,83.4315442 60.1140387,82.4522574 60.0694922,81.473781 C60.0249457,80.4953047 59.9835817,79.5495869 59.945399,78.6365992 L57.8453608,81.9508268 L55.8789614,80.8454356 L53.7789233,75.1887514 Z" id="300-м" fill="#0066B3"></path>
                </g>
                <g id="Group-31">
                    <g id="Group-2" transform="translate(198.000000, 376.000000)">
                        <g id="Group-25" transform="translate(68.000000, 0.000000)" fill="#DEF6FF">
                            <path d="M16.7738315,81.739769 C-1.72054577,127.569682 -4.51080677,182.483807 8.40304856,246.482146 C27.7738315,342.479653 162.165255,493.151071 432,490.720496 C701.834745,488.289921 770.390914,640.945025 777.612319,769.972294 C784.833723,898.999563 856.728432,982.78963 841.189801,769.972294 C825.65117,557.154958 720.291058,421.247396 444.237442,440.792364 C168.183826,460.337332 -13.5633258,245.219307 69.3340453,81.739769 C124.598959,-27.2465897 107.078888,-27.2465897 16.7738315,81.739769 Z" id="Path-16"></path>
                        </g>
                        <g id="Group-27" transform="translate(0.000000, 725.000000)">
                            <g id="Group-9-Copy-4" transform="translate(0.000000, 101.000000)">
                                <g id="All_images-22">
                                    <polyline id="Fill-1" fill="#F4F4F4" points="67.6837128 58.3095956 26.7267897 52.0201093 19.5934154 56.0681967 11.0554051 56.0681967 8.57288205 57.505224 11.0554051 58.9426011 19.5934154 58.9426011 27.9734564 63.7954098 67.6837128 58.3095956"></polyline>
                                    <polyline id="Fill-2" fill="#9C9C9C" points="11.0554051 58.9426011 11.0554051 41.495082 13.5372308 40.0580546 13.5372308 57.505224 11.0554051 58.9426011"></polyline>
                                    <polyline id="Fill-3" fill="#B8B8B8" points="11.0554051 58.9426011 11.0554051 49.3488962 8.57288205 47.9118689 8.57288205 57.5055738 11.0554051 58.9426011"></polyline>
                                    <polyline id="Fill-4" fill="#9C9C9C" points="11.0554051 51.0730492 11.0554051 41.495082 8.57288205 40.0580546 8.57288205 49.6353224 11.0554051 51.0730492"></polyline>
                                    <polyline id="Fill-5" fill="#2DFC9D" points="11.0554051 0.343781421 11.0554051 47.4460328 0.193189744 41.155847 11.0554051 0.343781421"></polyline>
                                    <polyline id="Fill-6" fill="#1CAC7A" points="11.0550564 0.343781421 11.0550564 47.4463825 21.5898256 41.3457486 11.0550564 0.343781421"></polyline>
                                </g>
                            </g>
                            <g id="Group-9-Copy-5" transform="translate(292.000000, 0.000000)">
                                <g id="All_images-22">
                                    <polyline id="Fill-1" fill="#F4F4F4" points="116.4558 101.130705 45.9858 90.222377 33.7122 97.2432787 19.0218 97.2432787 14.7504 99.735623 19.0218 102.228574 33.7122 102.228574 48.1308 110.645164 116.4558 101.130705"></polyline>
                                    <polyline id="Fill-2" fill="#9C9C9C" points="19.0218 102.228574 19.0218 71.9680328 23.292 69.4756885 23.292 99.735623 19.0218 102.228574"></polyline>
                                    <polyline id="Fill-3" fill="#B8B8B8" points="19.0218 102.228574 19.0218 85.5894918 14.7504 83.0971475 14.7504 99.7362295 19.0218 102.228574"></polyline>
                                    <polyline id="Fill-4" fill="#9C9C9C" points="19.0218 88.5798197 19.0218 71.9680328 14.7504 69.4756885 14.7504 86.0862623 19.0218 88.5798197"></polyline>
                                    <polyline id="Fill-5" fill="#2DFC9D" points="19.0218 0.596245902 19.0218 82.2892131 0.3324 71.3796721 19.0218 0.596245902"></polyline>
                                    <polyline id="Fill-6" fill="#1CAC7A" points="19.0212 0.596245902 19.0212 82.2898197 37.1472 71.7090328 19.0212 0.596245902"></polyline>
                                </g>
                            </g>
                        </g>
                    </g>
                    <g id="Group-6">
                        <g id="Group-5-Copy">
                            <g id="Group-6-Copy-2">
                                <g id="Page-1" transform="translate(37.000000, 37.000000) scale(-1, 1) translate(-37.000000, -37.000000) ">
                                    <polygon id="Fill-1" fill="#F4F4F4" points="13.7366574 58.0170324 0 65.8288215 13.7366574 73.6456407 46.1234166 73.6456407 56.3531682 67.8257824 59.645678 67.8257824 63.1525838 65.8288215 59.645678 63.8318606 56.3531682 63.8318606 46.1234166 58.0170324"></polygon>
                                    <polygon id="Fill-2" fill="#AAAAAA" points="56.1377512 65.8308335 59.6446571 67.8277944 59.6446571 54.5029848 56.1377512 52.5060239"></polygon>
                                    <polygon id="Fill-3" fill="#D2D2D2" points="59.6431257 54.5039908 59.6431257 67.8288004 63.1551362 65.8318396 63.1551362 52.5070299"></polygon>
                                    <polygon id="Fill-5" fill="#2DFC9D" points="45.9085102 7.81380115 59.6451675 15.6306204 73.3818249 7.81883128 59.6502722 0.00201205128"></polygon>
                                    <polygon id="Fill-6" fill="#2DC689" points="59.6431257 15.6296144 59.6431257 60.3243522 73.379783 52.5125631 73.379783 7.81782526"></polygon>
                                    <polygon id="Fill-7" fill="#1CAC7A" points="45.9074892 7.81430417 59.6441466 15.6311234 59.6441466 60.3258612 45.9074892 52.509042"></polygon>
                                </g>
                            </g>
                        </g>
                        <g id="Group-6-Copy-3" transform="translate(43.000000, 7.000000)">
                            <g id="Page-1" transform="translate(25.500000, 26.000000) scale(-1, 1) translate(-25.500000, -26.000000) ">
                                <polygon id="Fill-1" fill="#F4F4F4" points="13.6438421 35.9553221 0 43.7972725 13.6438421 51.6442725 23.3117719 51.6442725 33.4724035 45.8019437 36.7426667 45.8019437 40.2258772 43.7972725 36.7426667 41.7926014 33.4724035 41.7926014 23.3117719 35.9553221"></polygon>
                                <polygon id="Fill-2" fill="#AAAAAA" points="33.2584421 43.7992923 36.7416526 45.8039635 36.7416526 32.4277068 33.2584421 30.4230356"></polygon>
                                <polygon id="Fill-3" fill="#D2D2D2" points="36.7401316 32.4287167 36.7401316 45.8049734 40.2284123 43.8003023 40.2284123 30.4240455"></polygon>
                                <polygon id="Fill-5" fill="#2DFC9D" points="23.0983175 7.84397027 36.7421596 15.6909703 50.3860018 7.84901982 36.7472298 0.00201981982"></polygon>
                                <polygon id="Fill-6" fill="#2DC689" points="36.7401316 15.6899604 36.7401316 38.2715505 50.3839737 30.4296 50.3839737 7.84800991"></polygon>
                                <polygon id="Fill-7" fill="#1CAC7A" points="23.0973035 7.84447523 36.7411456 15.6914752 36.7411456 38.2730653 23.0973035 30.4260653"></polygon>
                            </g>
                        </g>
                    </g>
                </g>
            </g>
        </g>
    </g>
</svg>