<?xml version="1.0" encoding="UTF-8"?>
<svg width="320px" height="309px" viewBox="0 0 320 309" version="1.1" xmlns="http://www.w3.org/2000/svg" xmlns:xlink="http://www.w3.org/1999/xlink">
    <!-- Generator: Sketch 50.2 (55047) - http://www.bohemiancoding.com/sketch -->
    <title>Group 30</title>
    <desc>Created with Sketch.</desc>
    <defs>
        <polygon id="path-1" points="27.7867932 24.9451667 27.7867932 35.2345949 30.4250019 33.6925402 30.4250019 23.4031119"></polygon>
    </defs>
    <g id="Page-1" stroke="none" stroke-width="1" fill="none" fill-rule="evenodd">
        <g id="Mobile-Головна" transform="translate(0.000000, -1565.000000)">
            <g id="Group-30" transform="translate(-222.000000, 1534.000000)">
                <g id="Дорога" fill="#DEF6FF">
                    <path d="M301.708079,195.637036 C297.61738,251.715331 336.181398,279.999408 417.400133,280.489266 C539.228236,281.224052 604.43018,281.525415 606.426371,376.279498 C608.422562,471.033582 710.537662,514.28574 750.608764,516.192066 C790.679866,518.098392 918.216997,472.679326 983.271323,394.18702 C1048.32565,315.694714 1028.62849,411.433303 983.271323,458.321318 C937.914156,505.209333 815.526304,560.512887 750.608764,559.99641 C685.691224,559.479933 565.973229,501.021818 569.12437,409.863618 C572.27551,318.705417 501.331287,321.665671 422.753403,321.216913 C344.17552,320.768156 257.541456,305.647628 257.541456,195.637036 C257.541456,85.6264427 182.99318,55.7527688 123.57747,54.4919571 C-9.64463023,51.6649611 -66.3015211,-10.0018497 114.428018,1.40621713 C234.914378,9.01159498 297.341065,73.7552011 301.708079,195.637036 Z" id="Path-8"></path>
                </g>
                <g id="Group-8" transform="translate(317.000000, 171.000000)">
                    <g id="Tree-Copy" transform="translate(37.500000, 34.000000) scale(-1, 1) translate(-37.500000, -34.000000) translate(0.000000, 3.000000)">
                        <g id="Group-32-Copy">
                            <g id="Page-1">
                                <polygon id="Fill-1" fill="#9AD8EF" points="13.7112599 46.0268862 0 53.8338592 13.7112599 61.6458592 47.4218592 61.6458592 57.6326971 55.8295889 60.9191195 55.8295889 64.4195415 53.8338592 60.9191195 51.8381294 57.6326971 51.8381294 47.4218592 46.0268862"></polygon>
                                <polygon id="Fill-2" fill="#595959" points="57.4176785 53.83587 60.9181005 55.8315997 60.9181005 42.5150051 57.4176785 40.5192754"></polygon>
                                <polygon id="Fill-3" fill="#888888" points="60.9165719 42.5160105 60.9165719 55.8326051 64.4220891 53.8368754 64.4220891 40.5202808"></polygon>
                                <polygon id="Fill-5" fill="#2DFC9D" points="60.9084195 0.00201081081 47.2073501 7.80898378 60.91861 15.6209838 74.6298699 7.81401081 74.6298699 7.80898378 60.9237052 0.00201081081"></polygon>
                                <polygon id="Fill-6" fill="#2DC689" points="60.9165719 15.6199784 60.9165719 48.3327835 74.6278318 40.5258105 74.6278318 7.81300541"></polygon>
                                <polygon id="Fill-7" fill="#1CAC7A" points="47.2063311 7.80948649 60.9175909 15.6214865 60.9175909 48.3342916 47.2063311 40.5222916"></polygon>
                            </g>
                        </g>
                    </g>
                    <g id="Skameika" transform="translate(81.500000, 53.000000) scale(-1, 1) translate(-81.500000, -53.000000) translate(46.000000, 29.000000)">
                        <g id="All_images-13">
                            <path d="M11.010214,41.8942301 L10.7376388,41.7417345 L11.7350556,41.7417345 L11.2398195,42.0220885 L11.010214,41.8942301 Z M13.6582731,43.3724602 L13.6252863,43.3533451 L13.1921175,43.1120708 L13.0237112,43.0173451 L13.6916939,42.6409912 L14.3236517,42.996531 L13.6582731,43.3724602 Z M16.0554589,44.7092389 L15.7824497,44.5567434 L15.4278415,44.3592212 L16.0849734,43.9888142 L16.7095525,44.3401062 L16.0554589,44.7092389 Z M43.7535235,28.3539823 L44.382443,28.704 L18.8988346,43.1035752 L18.4838953,42.8695221 L18.2746896,42.7505841 L43.7535235,28.3539823 Z M46.5899547,26.751292 L47.6806894,27.3659469 L46.7514164,27.3659469 L46.581708,27.4619469 L46.5430787,27.4619469 L46.1129481,27.2215221 L45.934559,27.1221239 L46.5899547,26.751292 Z M41.3459209,27.0155044 L41.3871544,27.0375929 L41.9817849,27.3689204 L16.5164061,41.7583009 L16.11579,41.5310442 L15.8853164,41.4014867 L41.3459209,27.0155044 Z M44.1984114,25.4038938 L45.3065076,26.0287434 L44.3533625,26.0287434 L44.1654246,26.1353628 L43.9553507,26.0181239 L43.5308626,25.7810973 L44.1984114,25.4038938 Z M38.912276,25.660885 L39.558991,26.0206726 L14.1122757,40.3990088 L13.7303232,40.1840708 L13.210347,40.1840708 L38.912276,25.660885 Z M41.1323747,24.4073628 L42.4284089,24.4073628 L42.91236,24.6800708 L41.9314366,24.6800708 L41.7461029,24.7858407 L41.3407124,24.5585841 L41.10069,24.4247788 L41.1323747,24.4073628 Z M36.2841826,24.4073628 L36.6587564,24.4073628 L37.1084186,24.6575575 L9.62997666,40.1840708 L8.36172084,40.1840708 L36.2841826,24.4073628 Z M35.7928528,22.8437522 L0.152346951,42.9816637 L0.200959084,43.0084248 L0.314242714,43.071292 L3.25093637,43.071292 L5.60341635,41.7417345 L6.32825797,41.7417345 L6.60170122,41.8950796 L4.57214468,43.0411327 L4.73621063,43.1320354 L4.89810639,43.2229381 L5.06087023,43.3129912 L5.22320003,43.4043186 L5.38596387,43.4943717 L5.54742559,43.584 L5.87208519,43.7649558 L6.87254024,43.7649558 L8.40555857,42.8984071 L9.05270758,43.2581947 L7.0214149,44.4059469 L7.18157452,44.4951504 L7.34347028,44.5852035 L7.50362989,44.6744071 L7.66422355,44.7636106 L7.82525124,44.8536637 L7.98497681,44.9437168 L8.1460045,45.0324956 L8.30529604,45.1216991 L9.30097669,45.1216991 L10.8396375,44.2526018 L11.0566559,44.3732389 L11.4759356,44.6064425 L9.44247272,45.7546195 L9.6021983,45.8433982 L9.76148984,45.9326018 L9.92078138,46.0209558 L10.0796389,46.1097345 L10.2380624,46.1976637 L10.3969199,46.2864425 L10.5553433,46.3752212 L10.7137668,46.4635752 L11.704239,46.4635752 L13.2468061,45.5915044 L13.8752916,45.9410973 L11.8409606,47.0905487 L11.998516,47.1780531 L12.1556374,47.2668319 L12.3123247,47.3543363 L12.469446,47.4422655 L12.6265674,47.5297699 L12.7841228,47.6176991 L12.9408101,47.7047788 L13.0974974,47.7922832 L14.0836293,47.7922832 L15.6305368,46.9185133 L15.6882637,46.9503717 C16.1631,46.9503717 16.6388045,46.9503717 17.114943,46.9503717 L18.2160946,46.3284956 L18.8354652,46.3284956 C19.7786274,46.3284956 20.7256959,46.3284956 21.6705942,46.3284956 L23.1398091,45.4993274 L22.561238,45.1730973 L21.9813647,44.8447434 L21.4010573,44.5176637 L20.8190139,44.188885 L20.6401907,44.0873628 L46.252708,29.616 L47.4454414,29.616 L48.546159,28.9941239 L49.1655296,28.9941239 C50.1091258,28.9941239 51.0561944,28.9941239 52.0010927,28.9941239 L53.4698735,28.1641062 L52.3118631,27.5103717 L51.7315558,27.1820177 L51.1499463,26.8536637 L49.9841232,26.1944071 L49.3990415,25.864354 L48.8139597,25.5338761 L48.2241036,25.2 L47.6325113,24.8661239 L47.0400509,24.5313982 L46.4462885,24.195823 L45.8512239,23.8606726 L45.2557253,23.5233982 L44.6593586,23.1861239 L44.0608217,22.8484248 L37.2646719,22.8484248 L37.2568593,22.8437522 L35.7928528,22.8437522 Z" id="Fill-1" fill="#9AD8EF"></path>
                            <polyline id="Fill-2" fill="#9AD8EF" points="64.2023039 17.7557522 70.825273 14.0126018 64.2023039 10.2703009 58.0454905 10.2703009 49.3851523 15.1637522 53.9698841 17.7557522 64.2023039 17.7557522"></polyline>
                            <polyline id="Fill-3" fill="#EB53C0" points="64.2023039 7.74159292 64.2023039 17.7557522 70.825273 14.0126018 70.825273 3.99844248 64.2023039 7.74159292"></polyline>
                            <polyline id="Fill-4" fill="#EA71C8" points="57.5789009 3.99844248 64.2023039 7.74159292 70.825273 3.99844248 64.2023039 0.256141593 57.5789009 3.99844248"></polyline>
                            <polyline id="Fill-5" fill="#AA057C" points="57.5789009 3.99844248 64.2023039 7.74159292 64.2023039 17.7549027 57.5789009 14.0126018 57.5789009 3.99844248"></polyline>
                            <polyline id="Fill-6" fill="#AA057C" points="59.769051 3.99844248 64.2023039 6.50421239 68.6351228 3.99844248 64.2023039 1.4939469 59.769051 3.99844248"></polyline>
                            <polyline id="Fill-7" fill="#EB53C0" points="59.769051 3.99844248 62.57944 5.58711504 64.2023039 1.4939469 59.769051 3.99844248"></polyline>
                            <polyline id="Fill-8" fill="#F8F4F5" points="13.5501979 25.9544071 15.0189788 25.1248142 13.7554974 24.4120354 12.2867165 25.2407788 13.5501979 25.9544071"></polyline>
                            <polyline id="Fill-9" fill="#848484" points="20.4084149 44.1876106 21.8767618 43.3575929 15.0189788 39.4827611 13.5501979 40.3119292 20.4084149 44.1876106"></polyline>
                            <polyline id="Fill-10" fill="#E6E6E6" points="21.6705942 46.3284956 23.1398091 45.4993274 23.1398091 39.8366018 21.6705942 40.6666195 21.6705942 46.3284956"></polyline>
                            <polyline id="Fill-11" fill="#AAAAAA" points="21.6705942 42.2497699 23.1398091 41.4206018 23.1398091 39.8366018 21.6705942 40.6666195 21.6705942 42.2497699"></polyline>
                            <path d="M22.7951838,39.8739823 L24.2630966,39.0443894 C21.1823027,37.303646 18.1006408,35.5620531 15.0189788,33.8213097 L13.5501979,34.6504779 C16.6318599,36.391646 19.7135219,38.1328142 22.7951838,39.8739823" id="Fill-12" fill="#AAAAAA"></path>
                            <polyline id="Fill-13" fill="#848484" points="13.5501979 40.3119292 15.0189788 39.4827611 15.0189788 35.2481416 13.5501979 36.0781593 13.5501979 40.3119292"></polyline>
                            <polyline id="Fill-14" fill="#E6E6E6" points="13.5501979 34.6504779 15.0189788 33.8213097 15.0189788 25.1248142 13.5501979 25.9544071 13.5501979 34.6504779"></polyline>
                            <polyline id="Fill-15" fill="#AAAAAA" points="13.5501979 33.7490973 15.0189788 32.9195044 15.0189788 25.1248142 13.5501979 25.9544071 13.5501979 33.7490973"></polyline>
                            <polyline id="Fill-16" fill="#AAAAAA" points="13.5501979 29.4295221 15.0189788 28.5999292 15.0189788 25.1248142 13.5501979 25.9544071 13.5501979 29.4295221"></polyline>
                            <polyline id="Fill-17" fill="#E6E6E6" points="22.7951838 41.3012389 24.2630966 40.4720708 24.2630966 39.0443894 22.7951838 39.8739823 22.7951838 41.3012389"></polyline>
                            <path d="M20.4084149,44.1876106 L20.4084149,39.9525664 L13.5501979,36.0781593 L13.5501979,40.3119292 L20.4084149,44.1876106 Z M13.5501979,25.9544071 L13.5501979,34.6504779 L22.7951838,39.8739823 L22.7951838,41.3012389 L21.6705942,40.6666195 L21.6705942,46.3284956 L12.2867165,41.0264071 C12.2867165,35.7646726 12.2867165,30.5029381 12.2867165,25.2407788 L13.5501979,25.9544071 Z" id="Fill-18" fill="#AAAAAA"></path>
                            <polyline id="Fill-19" fill="#F8F4F5" points="44.0551792 8.71730973 45.523092 7.88814159 44.2604786 7.17493805 42.7921318 8.00453097 44.0551792 8.71730973"></polyline>
                            <polyline id="Fill-20" fill="#F8F4F5" points="50.7376113 26.8523894 52.2063921 26.0227965 45.523092 22.2460885 44.0551792 23.0756814 50.7376113 26.8523894"></polyline>
                            <polyline id="Fill-21" fill="#AAAAAA" points="50.7376113 26.8523894 52.2063921 26.0227965 49.2696985 26.0227965 50.7376113 26.8523894"></polyline>
                            <polyline id="Fill-22" fill="#E6E6E6" points="52.0010927 28.9941239 53.4698735 28.1641062 53.4698735 22.5009558 52.0010927 23.3309735 52.0010927 28.9941239"></polyline>
                            <polyline id="Fill-23" fill="#AAAAAA" points="52.0010927 24.9141239 53.4698735 24.0849558 53.4698735 22.5009558 52.0010927 23.3309735 52.0010927 24.9141239"></polyline>
                            <path d="M53.1256823,22.5383363 L54.5940291,21.7087434 C51.5119331,19.9684248 48.604754,18.3253805 45.523092,16.5837876 L44.0551792,17.4129558 C47.1364071,19.1553982 50.0431522,20.7975929 53.1256823,22.5383363" id="Fill-24" fill="#AAAAAA"></path>
                            <polyline id="Fill-25" fill="#AAAAAA" points="44.0551792 23.0756814 45.523092 22.2460885 45.523092 18.0118938 44.0551792 18.8414867 44.0551792 23.0756814"></polyline>
                            <polyline id="Fill-26" fill="#E6E6E6" points="44.0551792 17.4129558 45.523092 16.5837876 45.523092 7.88814159 44.0551792 8.71730973 44.0551792 17.4129558"></polyline>
                            <polyline id="Fill-27" fill="#AAAAAA" points="44.0551792 16.5115752 45.523092 15.6819823 45.523092 7.88814159 44.0551792 8.71730973 44.0551792 16.5115752"></polyline>
                            <polyline id="Fill-28" fill="#AAAAAA" points="44.0551792 12.1924248 45.523092 11.3632566 45.523092 7.88814159 44.0551792 8.71730973 44.0551792 12.1924248"></polyline>
                            <polyline id="Fill-29" fill="#E6E6E6" points="53.1256823 23.9664425 54.5940291 23.1368496 54.5940291 21.7087434 53.1256823 22.5383363 53.1256823 23.9664425"></polyline>
                            <path d="M50.7376113,26.8519646 L50.7376113,22.6173451 L44.0551792,18.8414867 L44.0551792,23.0756814 L50.7376113,26.8519646 Z M44.0551792,8.71730973 L44.0551792,17.4138053 L53.1256823,22.5383363 L53.1256823,23.9664425 L52.0010927,23.3313982 L52.0010927,28.9928496 L42.7921318,23.7897345 C42.7921318,18.5275752 42.7921318,13.2658407 42.7921318,8.00453097 L44.0551792,8.71730973 Z" id="Fill-30" fill="#AAAAAA"></path>
                            <path d="M47.864721,13.9106549 L47.864721,11.0272566 L12.9542653,30.7531327 L12.9542653,33.636531 L47.864721,13.9106549 Z M12.9542653,29.5157522 L12.9542653,26.6319292 L47.864721,6.90690265 L47.864721,9.78987611 L12.9542653,29.5157522 Z" id="Fill-31" fill="#D8D8D8"></path>
                            <polyline id="Fill-32" fill="#F9F9F9" points="12.9542653 26.6319292 47.864721 6.90690265 46.9914388 6.41373451 12.0818511 26.1387611 12.9542653 26.6319292"></polyline>
                            <polyline id="Fill-33" fill="#F9F9F9" points="12.9542653 30.7531327 47.864721 11.0272566 46.9914388 10.5349381 12.0818511 30.2599646 12.9542653 30.7531327"></polyline>
                            <polyline id="Fill-34" fill="#D2D2D1" points="46.3603492 10.892177 12.0818511 30.2599646 12.3218735 30.395469 46.6008056 11.0272566 46.3603492 10.892177"></polyline>
                            <polyline id="Fill-35" fill="#D8D8D8" points="21.326837 40.7035752 56.2368588 20.9781239 56.2368588 19.9917876 21.326837 39.7176637 21.326837 40.7035752"></polyline>
                            <polyline id="Fill-36" fill="#D8D8D8" points="18.9396341 39.3544779 53.8496558 19.6294513 53.8496558 18.6435398 18.9396341 38.3689912 18.9396341 39.3544779"></polyline>
                            <polyline id="Fill-37" fill="#D8D8D8" points="16.5524311 38.0062301 51.4620189 18.280354 51.4620189 17.2948673 16.5524311 37.0198938 16.5524311 38.0062301"></polyline>
                            <polyline id="Fill-38" fill="#D8D8D8" points="14.1643601 36.6571327 49.0748159 16.9308319 49.0748159 15.9457699 14.1643601 35.6712212 14.1643601 36.6571327"></polyline>
                            <path d="M53.8496558,18.6435398 L52.5861744,17.9294867 L17.6761527,37.6553628 L18.9396341,38.3689912 L53.8496558,18.6435398 Z M16.5524311,37.0198938 L51.4620189,17.2948673 L50.1994055,16.5808142 L15.2889497,36.307115 L16.5524311,37.0198938 Z M14.1643601,35.6712212 L49.0748159,15.9457699 L47.8113345,15.231292 L12.9021808,34.9575929 L14.1643601,35.6712212 Z M21.326837,39.7176637 L20.0637896,39.0044602 L54.9733774,19.2785841 L56.2368588,19.9917876 L21.326837,39.7176637 Z" id="Fill-39" fill="#F9F9F9"></path>
                            <path d="M12.0818511,29.0225841 L12.0818511,26.1387611 L12.9542653,26.6319292 L12.9542653,29.5157522 L12.0818511,29.0225841 Z M12.9542653,33.636531 L12.0818511,33.1437876 L12.0818511,30.2599646 L12.9542653,30.7531327 L12.9542653,33.636531 Z M14.1643601,35.6712212 L14.1643601,36.6571327 L12.9021808,35.9426549 L12.9021808,34.9575929 L14.1643601,35.6712212 Z M16.5524311,37.0198938 L16.5524311,38.0062301 L15.2889497,37.292177 L15.2889497,36.307115 L16.5524311,37.0198938 Z M18.9396341,38.3689912 L18.9396341,39.3544779 L17.6761527,38.6416991 L17.6761527,37.6553628 L18.9396341,38.3689912 Z M21.326837,39.7176637 L21.326837,40.7035752 L20.0637896,39.9899469 L20.0637896,39.0044602 L21.326837,39.7176637 Z" id="Fill-40" fill="#959595"></path>
                        </g>
                    </g>
                    <g id="Tree" transform="translate(162.000000, 42.000000) scale(-1, 1) translate(-162.000000, -42.000000) translate(114.000000, 0.000000)">
                        <g id="Group-32-Copy">
                            <g id="Page-1">
                                <polygon id="Fill-1" fill="#9AD8EF" points="14.4019347 66.8675473 0 75.2411554 14.4019347 83.6201554 67.1073427 83.6201554 77.8325293 77.3817365 81.284498 77.3817365 84.9612461 75.2411554 81.284498 73.1005743 77.8325293 73.1005743 67.1073427 66.8675473"></polygon>
                                <polygon id="Fill-2" fill="#595959" points="77.6066796 75.2433122 81.2834277 77.3838932 81.2834277 63.1007716 77.6066796 60.9601905"></polygon>
                                <polygon id="Fill-3" fill="#888888" points="81.2818221 63.10185 81.2818221 77.3849716 84.9639221 75.2443905 84.9639221 60.9612689"></polygon>
                                <polygon id="Fill-5" fill="#2DFC9D" points="81.2732591 0.00215675676 66.8820281 8.37576486 81.2839628 16.7547649 95.6858975 8.38115676 95.6858975 8.37576486 81.2893147 0.00215675676"></polygon>
                                <polygon id="Fill-6" fill="#2DC689" points="81.2818221 16.7536865 81.2818221 69.3408081 95.6837568 60.9672 95.6837568 8.38007838"></polygon>
                                <polygon id="Fill-7" fill="#1CAC7A" points="66.8809578 8.37630405 81.2828925 16.7553041 81.2828925 69.3424257 66.8809578 60.9634257"></polygon>
                            </g>
                        </g>
                    </g>
                    <g id="Group-6-Copy" transform="translate(110.000000, 58.000000)">
                        <g id="Page-1" transform="translate(20.071622, 20.000000) scale(-1, 1) translate(-20.071622, -20.000000) translate(0.571622, 0.000000)">
                            <polygon id="Fill-1" fill="#9AD8EF" points="10.3189238 27.6579401 0 33.6902096 10.3189238 39.7263635 17.6308401 39.7263635 25.3153899 35.2322644 27.7887105 35.2322644 30.4230846 33.6902096 27.7887105 32.1481549 25.3153899 32.1481549 17.6308401 27.6579401"></polygon>
                            <polygon id="Fill-2" fill="#595959" points="25.1535695 33.6917633 27.7879436 35.2338181 27.7879436 24.9443898 25.1535695 23.4023351"></polygon>
                            <g id="Fill-3">
                                <use fill="#D2D2D2" xlink:href="#path-1"></use>
                                <use fill="#888888" xlink:href="#path-1"></use>
                            </g>
                            <polygon id="Fill-5" fill="#2DFC9D" points="17.4694032 6.03382328 27.788327 12.0699771 38.1072509 6.03770755 27.7921617 0.00155370755"></polygon>
                            <polygon id="Fill-6" fill="#2DC689" points="27.7867932 12.0692003 27.7867932 29.4396542 38.105717 23.4073846 38.105717 6.0369307"></polygon>
                            <polygon id="Fill-7" fill="#1CAC7A" points="17.4686363 6.03421171 27.7875601 12.0703656 27.7875601 29.4408195 17.4686363 23.4046656"></polygon>
                        </g>
                    </g>
                </g>
            </g>
        </g>
    </g>
</svg>