<?xml version="1.0" encoding="UTF-8"?>
<svg width="1272px" height="1098px" viewBox="0 0 1272 1098" version="1.1" xmlns="http://www.w3.org/2000/svg" xmlns:xlink="http://www.w3.org/1999/xlink">
    <!-- Generator: Sketch 50.2 (55047) - http://www.bohemiancoding.com/sketch -->
    <title>Дорога</title>
    <desc>Created with Sketch.</desc>
    <defs></defs>
    <g id="Page-1" stroke="none" stroke-width="1" fill="none" fill-rule="evenodd">
        <g id="Головна" transform="translate(0.000000, -1014.000000)" fill="#DEF6FF">
            <g id="Group-3" transform="translate(-289.000000, 1004.000000)">
                <g id="Дорога">
                    <path d="M595.856913,387.213595 C587.779748,497.999047 663.925159,553.875643 824.293147,554.843381 C1064.84513,556.294988 1193.58765,556.890344 1197.52917,744.081733 C1201.47068,931.273121 1403.09895,1016.7199 1482.22013,1020.48594 C1561.34131,1024.25199 1610.40109,1108.04392 1482.22013,1107.0236 C1354.03918,1106.00327 1117.65364,990.516368 1123.87563,810.428825 C1130.09762,630.341281 990.016857,636.18941 834.863283,635.302867 C679.709709,634.416324 508.649048,604.544973 508.649048,387.213595 C508.649048,169.882217 361.452014,110.865293 244.134527,108.374497 C-18.915127,102.789626 -130.785271,-19.0362145 226.068755,3.50098686 C463.971439,18.5257877 587.234158,146.42999 595.856913,387.213595 Z" id="Path-8"></path>
                </g>
            </g>
        </g>
    </g>
</svg>