<?xml version="1.0" encoding="UTF-8"?>
<svg width="320px" height="663px" viewBox="0 0 320 663" version="1.1" xmlns="http://www.w3.org/2000/svg" xmlns:xlink="http://www.w3.org/1999/xlink">
    <!-- Generator: Sketch 50.2 (55047) - http://www.bohemiancoding.com/sketch -->
    <title>Group 4</title>
    <desc>Created with Sketch.</desc>
    <defs>
        <polygon id="path-1" points="0 23.8113474 20.3999091 23.8113474 20.3999091 0.000189473684 0 0.000189473684"></polygon>
    </defs>
    <g id="Page-1" stroke="none" stroke-width="1" fill="none" fill-rule="evenodd">
        <g id="Mobile-Про-комплекс" transform="translate(0.000000, -2541.000000)">
            <g id="Group-4" transform="translate(-143.000000, 1923.000000)">
                <g id="Road">
                    <path d="M467.064753,61.5363763 C606.397886,164.788147 676.064453,256.454814 676.064453,336.536376 C676.064453,456.65872 637.306584,544.078314 557.064753,594.536376 C476.822923,644.994438 220.205756,598.54217 87.0647531,701.536376 C-46.0762498,804.530583 -0.282553941,965.325925 59,1032.17663 C118.282554,1099.02734 215.38585,1154.80205 395.38585,1247.93752 C515.38585,1310.02783 692.612151,1381.22745 927.064753,1461.53638 L947.239897,1395.58323 C732.541899,1321.6504 569.814359,1257.71539 459.057278,1203.77821 C267.985486,1110.72887 208.087037,1081.33661 148.394248,1021.33661 C89.861635,962.502753 39.8649559,851.48665 134.130777,753.505384 C228.396597,655.524118 515.823453,706.593832 600.74314,647.58154 C685.662827,588.569248 739.759819,506.711776 738.7116,336.536376 C738.012787,223.08611 671.217554,113.907318 538.325903,9 L467.064753,61.5363763 Z" id="Path-12" fill="#E6E6EF"></path>
                    <path d="M610.779871,9.29379748 C657.84613,72.8765591 738.167287,148.164859 747.920474,316.36712 C757.673662,484.569382 695.991627,612.420538 589.91245,664.307066 C483.833274,716.193594 327.874791,670.221266 177.574945,735.073847 C57.4598073,799.433704 74.5069873,947.005051 167.611553,1026.53554 C260.716119,1106.06602 300.046543,1119.19011 512.363446,1219.12322 C653.908048,1285.74529 831.237743,1350.96995 1044.35253,1414.79719 L1044.35253,1382.5293 C815.760096,1313.27682 643.593107,1251.72734 527.851562,1197.88086 C327.62971,1104.73157 256.16718,1063.61638 181.791516,998.744879 C116.869256,942.118768 97.1801584,809.221982 178.574945,765.292874 C311.008662,693.306007 460.123502,755.618576 604.021988,690.706741 C747.920474,625.794906 778.337378,467.131171 777.195599,316.36712 C776.434413,215.857753 728.144514,114.068713 632.325903,11 C613.402311,-2.28763168 606.220301,-2.85636585 610.779871,9.29379748 Z" id="Path-12" fill="#EFADB3"></path>
                </g>
                <g id="Group-9" transform="translate(158.000000, 1073.000000)">
                    <g id="Group-7">
                        <g id="shutterstock_594282662-[преобразованный]-01">
                            <path d="M225.115975,177.461037 L204.942883,177.461037 C202.661009,178.776199 200.382442,180.08806 198.105528,181.399922 L201.526686,183.37184 L212.788893,183.37184 C212.279605,183.795926 211.76701,184.223312 211.252762,184.649048 C211.363548,185.046732 211.466067,185.444416 211.57024,185.840449 C211.681027,186.238133 211.786853,186.632517 211.891025,187.02855 L212.929443,187.627551 C213.764477,187.771114 214.599511,187.917976 215.429584,188.061538 C216.264618,188.206751 217.099651,188.353613 217.937992,188.497175 C219.274046,188.353613 220.61506,188.206751 221.946154,188.061538 C223.283861,187.917976 224.624876,187.771114 225.955969,187.627551 C227.444148,187.229868 228.920752,186.835484 230.40397,186.4378 C231.890496,186.043417 233.373714,185.644083 234.853625,185.246399 C236.088814,184.705153 237.315735,184.165557 238.542655,183.624311 C239.779497,183.083065 241.013032,182.541819 242.248221,181.997273 C242.894752,181.456027 243.539629,180.914781 244.182853,180.375185 C244.834345,179.833939 245.48749,179.292693 246.134021,178.749797 C246.029849,178.352113 245.922369,177.957729 245.813236,177.560045 C245.70741,177.165662 245.601584,176.769628 245.492451,176.371944 L244.454033,175.774594 C243.62396,175.631031 242.788926,175.484169 241.953892,175.337306 C241.123819,175.193744 240.290439,175.050182 239.455405,174.90497 C238.114391,175.050182 236.773376,175.193744 235.438976,175.337306 C234.106229,175.484169 232.763561,175.631031 231.427507,175.774594 C229.945942,176.172277 228.467684,176.566661 226.979506,176.962695 L225.115975,177.461037 Z M67.6087753,93.2263257 L58.7408827,93.2263257 C56.4590084,94.5398374 54.1804412,95.8516989 51.9035275,97.1635604 L55.3230319,99.1354781 L60.9384269,99.1354781 C61.0392923,99.498509 61.1351972,99.8615398 61.2327556,100.224571 L62.2711737,100.821921 C63.1062075,100.967134 63.9395876,101.113996 64.7696607,101.257559 C65.6046944,101.402771 66.4380746,101.549633 67.2764154,101.691545 C68.6141229,101.549633 69.9551374,101.402771 71.2878842,101.257559 C72.6239382,101.113996 73.9649527,100.967134 75.2976996,100.821921 C76.7842249,100.427538 78.2624826,100.031504 79.7440474,99.6338205 C81.2305727,99.2377868 82.713791,98.8417531 84.1953558,98.4424192 C85.4305442,97.9028233 86.657465,97.3599271 87.8843859,96.8186811 C89.1179208,96.2790853 90.3531093,95.7361891 91.5882978,95.1932929 C92.2364823,94.6520469 92.8797063,94.1124511 93.5229303,93.571205 C94.1760755,93.0283089 94.8275671,92.4870629 95.4757517,91.9441667 C95.3699256,91.5497832 95.2640996,91.1537495 95.1533129,90.7577158 C95.0474869,90.360032 94.9416608,89.9656485 94.8308742,89.5679647 L93.7941096,88.9689638 C92.9640365,88.8270517 92.1306563,88.6801892 91.2956226,88.5349769 C90.4655495,88.3914147 89.6305158,88.2445522 88.795482,88.0993398 C87.4544675,88.2445522 86.1151065,88.3914147 84.7773991,88.5349769 C83.4463057,88.6801892 82.1052912,88.8270517 80.7675837,88.9689638 C79.286019,89.3682977 77.8077613,89.7626813 76.3212359,90.1587149 C74.8396712,90.5547486 73.3614135,90.9524324 71.8732346,91.3468159 C70.6430067,91.8897121 69.4160859,92.4309581 68.1808974,92.9722041 L67.6087753,93.2263257 Z" id="Fill-2" fill="#F4F4F4"></path>
                            <polyline id="Fill-48" fill="#F6F3F3" points="79.4546793 78.2628536 88.5672946 73.0137573 130.320633 97.0711526 143.411647 89.5283613 101.653348 65.4693159 110.944544 60.117911 73.5366879 56.7087211 79.4546793 78.2628536"></polyline>
                            <polyline id="Fill-51" fill="#F8F8F8" points="86.5780955 1.63363889 84.827005 0.62870345 80.5873487 3.07256122 82.3384392 4.07749665 86.5780955 1.63363889"></polyline>
                            <polyline id="Fill-52" fill="#EAEAEA" points="82.3367857 76.6044626 82.3367857 4.08079693 80.5873487 3.07256122 80.5873487 75.5962269 82.3367857 76.6044626"></polyline>
                            <polyline id="Fill-53" fill="#CECECE" points="86.576442 74.1606048 86.576442 1.63693917 82.3367857 4.08079693 82.3367857 76.6044626 86.576442 74.1606048"></polyline>
                            <path d="M85.7645577,8.89755643 L85.7645577,3.04120855 L83.1470164,6.6517155 L83.1470164,12.5080634 L85.7645577,8.89755643 Z M85.7645577,24.3445197 C85.7645577,22.3924037 85.7645577,20.4419379 85.7645577,18.4898219 C84.8931463,19.6927742 84.0200814,20.8973766 83.1470164,22.1003289 C83.1470164,24.0524448 83.1470164,26.0029107 83.1470164,27.9566768 C84.0200814,26.7520744 84.8931463,25.5491221 85.7645577,24.3445197 Z M85.7645577,39.7947832 C85.7645577,37.8426672 85.7645577,35.8905513 85.7645577,33.9367852 C84.8931463,35.1413876 84.0200814,36.3443398 83.1470164,37.5489423 C83.1470164,39.5010582 83.1470164,41.4531742 83.1470164,43.4052901 C84.0200814,42.2023379 84.8931463,40.9977355 85.7645577,39.7947832 Z M85.7645577,55.2433966 C85.7645577,53.2912806 85.7645577,51.3391646 85.7645577,49.3870487 C84.8931463,50.590001 84.0200814,51.7946034 83.1470164,52.9975556 C83.1470164,54.9496716 83.1470164,56.9017876 83.1470164,58.8539035 C84.0200814,57.6509512 84.8931463,56.4463488 85.7645577,55.2433966 Z M85.7645577,70.6920099 L85.7645577,64.8356621 L83.1470164,68.446169 L83.1470164,74.3025169 L85.7645577,70.6920099 Z" id="Fill-54" fill="#ED9842"></path>
                            <polyline id="Fill-57" fill="#F4F4F4" points="83.6248872 106.910939 75.6598231 111.499979 75.6581696 117.989981 202.505577 191.074694 213.769438 191.074694 221.736155 186.485654 221.736155 179.995652 94.8904013 106.910939 83.6248872 106.910939"></polyline>
                            <polyline id="Fill-58" fill="#FACB3C" points="42.9050059 81.0763428 34.9399418 85.6670331 34.9399418 92.1570348 196.880261 185.462567 208.145775 185.462567 216.110839 180.873527 216.110839 174.381875 54.1721736 81.0763428 42.9050059 81.0763428"></polyline>
                            <polyline id="Fill-59" fill="#FFDD00" points="42.9050059 81.0763428 34.9399418 85.6670331 34.9399418 92.1570348 196.880261 185.462567 208.147429 185.462567 216.110839 180.873527 216.110839 174.381875 54.1721736 81.0763428 42.9050059 81.0763428"></polyline>
                            <path d="M75.8400581,93.5629543 L63.9858865,86.7313735 L62.5555813,87.360077 L61.9834592,87.6125485 L53.1155665,87.6125485 L49.6977157,93.5217008 L55.3131107,93.5217008 L55.6074394,94.6107934 L56.6458576,95.2097943 L59.1443446,95.6437812 L61.6527527,96.0794183 L65.6625681,95.6437812 L69.6723834,95.2097943 L74.1187312,94.0200432 L75.8400581,93.5629543 Z M212.692988,182.842144 L216.110839,180.873527 L216.110839,174.381875 L211.714097,171.84891 L199.317567,171.84891 L195.899716,177.758062 L207.163577,177.758062 L205.627446,179.036921 L205.946577,180.226672 L206.267363,181.414773 L207.305781,182.012124 L209.804268,182.449411 L212.311022,182.885048 L212.692988,182.842144 Z" id="Fill-61" fill="#D6BA04"></path>
                            <polyline id="Fill-62" fill="#EDE5D6" points="48.6609511 52.7978887 51.4802233 52.0454247 54.3011491 51.2913106 56.3647571 52.4794116 58.4300187 53.6691627 59.9396935 59.2977913 58.4300187 66.6673178 54.3011491 73.8041745 48.6609511 78.7941988 45.8400253 79.549963 43.0207531 80.3040771 40.9554915 79.114326 38.8918835 77.9245748 37.3805551 72.2959463 38.8918835 64.9264198 40.9554915 61.3571663 43.0207531 57.789563 45.8400253 55.2929008 48.6609511 52.7978887"></polyline>
                            <polyline id="Fill-63" fill="#CECECE" points="49.6977157 53.3952394 52.5186415 52.6411253 55.3379137 51.8886614 57.4031753 53.0784125 59.4667833 54.2665135 60.9781116 59.895142 59.4667833 67.2663187 55.3379137 74.4015253 52.5186415 76.8981876 49.6977157 79.3931997 46.8784435 80.1473138 44.0575177 80.9014279 41.9939097 79.7116768 39.9303016 78.5219256 38.4189733 72.8932971 39.9303016 65.5237706 44.0575177 58.3869138 46.8784435 55.8919017 49.6977157 53.3952394"></polyline>
                            <polyline id="Fill-64" fill="#F6F0E5" points="43.0207531 57.789563 44.0575177 58.3869138 39.9303016 65.5237706 38.8918835 64.9264198 43.0207531 57.789563"></polyline>
                            <polyline id="Fill-65" fill="#F6F0E5" points="43.0207531 57.789563 44.0575177 58.3869138 49.6977157 53.3952394 48.6609511 52.7978887 43.0207531 57.789563"></polyline>
                            <g id="Group-41" transform="translate(143.083056, 58.064516)">
                                <polyline id="Fill-98" fill="#F3ECE1" points="52.2941437 30.0001708 61.5324275 35.3202231 9.72561348 65.1712609 0.487329676 59.8495584 52.2941437 30.0001708"></polyline>
                                <polyline id="Fill-99" fill="#7F766F" points="114.9349 55.8743705 65.9870429 84.075268 65.9870429 99.307713 114.9349 71.1051653 114.9349 55.8743705"></polyline>
                                <path d="M78.7754601,107.14918 C77.5105081,107.875241 75.7643782,107.771283 73.8347063,106.659088 C71.9066878,105.546893 70.1605579,103.639331 68.8972594,101.454546 C67.6306538,99.2714099 66.8501867,96.8077505 66.8501867,94.5833614 C66.8501867,92.3622725 67.6306538,90.7995897 68.8972594,90.0702277 C70.754176,88.9992866 71.994325,88.2847759 73.8578557,87.2138348 C75.1211542,86.4828227 76.8672841,86.5884317 78.7953025,87.6989761 C80.7249745,88.8095205 82.4727579,90.720383 83.7360564,92.9051687 C85.0010085,95.0916046 85.7831292,97.555264 85.7831292,99.778003 C85.7831292,101.999092 85.0010085,103.563425 83.7360564,104.289487 C81.8543369,105.371979 80.6406443,106.076588 78.7754601,107.14918" id="Fill-100" fill="#1D1A0F"></path>
                                <path d="M73.8347063,90.5570191 C77.6923966,92.7814082 80.8225329,98.1889179 80.8225329,102.634396 C80.8225329,107.081524 77.6923966,108.881827 73.8347063,106.659088 C69.9770159,104.436349 66.8501867,99.0304894 66.8501867,94.5833614 C66.8501867,90.1378834 69.9770159,88.3342801 73.8347063,90.5570191" id="Fill-101" fill="#5B5E74"></path>
                                <path d="M79.2351421,106.827402 C77.9553082,107.886792 76.0107545,107.911544 73.8347063,106.659088 C69.9770159,104.436349 66.8501867,99.0304894 66.8501867,94.5833614 C66.8501867,93.2401472 67.1362477,92.1378535 67.6422286,91.3144335 L74.8086367,95.4447346 L79.2351421,106.827402" id="Fill-102" fill="#3D3E4C"></path>
                                <path d="M73.8347063,94.4942538 C75.80737,95.6295503 77.4063356,98.3935353 77.4063356,100.665778 C77.4063356,102.938022 75.80737,103.85715 73.8347063,102.721853 C71.8653495,101.586557 70.2647305,98.8242219 70.2647305,96.5519787 C70.2647305,94.2797356 71.8653495,93.3589573 73.8347063,94.4942538" id="Fill-103" fill="#1D1E23"></path>
                                <path d="M77.2608247,101.74827 C76.8242923,103.200394 75.4568212,103.654183 73.8347063,102.721853 C71.8653495,101.586557 70.2647305,98.8242219 70.2647305,96.5519787 C70.2647305,94.9051387 71.1063783,93.967859 72.3184173,94.0107627 L74.8086367,95.4447346 L77.2608247,101.74827" id="Fill-104" fill="#16171A"></path>
                                <polyline id="Fill-105" fill="#7F766F" points="54.9001103 27.2790894 11.1575723 52.4816821 11.1575723 67.7157772 54.9001103 42.5115344 54.9001103 27.2790894"></polyline>
                                <polyline id="Fill-106" fill="#F3ECE1" points="130.321016 74.9549426 139.557646 80.2766451 87.7508323 110.126033 80.2553714 105.807616 130.321016 74.9549426"></polyline>
                                <polyline id="Fill-107" fill="#CCC4B7" points="130.321016 74.9549426 139.557646 80.2766451 90.6114429 108.479193 87.7508323 108.479193 87.7508323 99.4809777 130.321016 74.9549426"></polyline>
                                <polyline id="Fill-111" fill="#318CA1" points="136.700343 60.044275 87.7508323 88.2451725 87.7508323 108.479193 136.700343 80.2749949 136.700343 60.044275"></polyline>
                                <polyline id="Fill-112" fill="#A4D7EA" points="72.0125139 22.7758566 23.0630033 50.9767541 3.34628666 47.9866999 52.2924901 19.7874525 72.0125139 22.7758566"></polyline>
                                <polyline id="Fill-113" fill="#CECECE" points="139.5593 80.2766451 87.7508323 110.126033 87.7508323 113.497269 139.5593 83.6478817 139.5593 80.2766451"></polyline>
                                <polyline id="Fill-114" fill="#DFDFDF" points="80.2553714 105.807616 87.7508323 110.126033 87.7508323 113.497269 80.2553714 109.177202 80.2553714 105.807616"></polyline>
                                <polyline id="Fill-115" fill="#DFDFDF" points="25.4259007 74.2173299 64.5550841 96.7648468 64.5550841 100.136083 25.4259007 77.5869164 25.4259007 74.2173299"></polyline>
                                <polyline id="Fill-116" fill="#D7CAB8" points="0.488983208 59.8495584 9.72561348 65.1712609 9.72561348 68.5424975 0.488983208 63.2191449 0.488983208 59.8495584"></polyline>
                                <polyline id="Fill-117" fill="#000000" points="11.1575723 64.3461907 9.72561348 65.1712609 9.72561348 68.5424975 11.1575723 67.7157772 11.1575723 64.3461907"></polyline>
                                <polyline id="Fill-118" fill="#000000" points="65.9870429 95.9381265 64.5550841 96.7648468 64.5550841 100.136083 65.9870429 99.307713 65.9870429 95.9381265"></polyline>
                                <polyline id="Fill-119" fill="#F3ECE1" points="26.8545524 73.3939099 65.9870429 95.9381265 64.5583912 96.7615465 25.4259007 74.2173299 26.8545524 73.3939099"></polyline>
                                <polyline id="Fill-120" fill="#B4A59B" points="38.1465231 79.8987629 64.5253206 95.096555 63.3149351 95.7945643 65.7390131 95.7945643 65.9870429 95.9381265 64.5583912 96.7615465 36.7178714 80.7221829 38.1465231 79.8987629"></polyline>
                                <polyline id="Fill-121" fill="#FFAB57" points="98.0936756 89.0141379 90.4212867 93.4365139 90.4212867 100.464461 98.0936756 96.0420854 98.0936756 89.0141379"></polyline>
                                <polyline id="Fill-122" fill="#ED9842" points="88.9909814 92.6114437 90.4212867 93.4365139 90.4212867 100.464461 88.9909814 99.6393912 88.9909814 92.6114437"></polyline>
                                <polyline id="Fill-123" fill="#ED9842" points="88.9909814 92.6114437 90.1881386 93.3028525 90.1881386 100.3308 88.9909814 99.6393912 88.9909814 92.6114437"></polyline>
                                <g id="Group-40" transform="translate(11.601329, 54.193548)">
                                    <path d="M12.0678189,21.0201474 C10.8028669,21.7462091 9.05673701,21.6422503 7.12706506,20.5300557 C5.19904664,19.4178612 3.45291675,17.510299 2.18961823,15.3255133 C0.923012643,13.1423777 0.142545495,10.6787182 0.142545495,8.45432911 C0.142545495,6.23324028 0.923012643,4.67055743 2.18961823,3.94119542 C4.04653477,2.87025438 5.28668384,2.15574363 7.1502145,1.08480258 C8.41351302,0.353790436 10.1596429,0.459399414 12.0876613,1.56994383 C14.0173333,2.68048824 15.7651167,4.5913507 17.0284152,6.77613644 C18.2933673,8.96257232 19.075488,11.4262318 19.075488,13.6489707 C19.075488,15.8700596 18.2933673,17.4343926 17.0284152,18.1604543 C15.1466957,19.2429463 13.9330031,19.9475562 12.0678189,21.0201474" id="Fill-100" fill="#1D1A0F"></path>
                                    <path d="M7.12706506,4.42798681 C10.9847554,6.65237592 14.1148917,12.0598856 14.1148917,16.5053636 C14.1148917,20.9524917 10.9847554,22.7527947 7.12706506,20.5300557 C3.26937468,18.3073168 0.142545495,12.9014572 0.142545495,8.45432911 C0.142545495,4.00885117 3.26937468,2.20524784 7.12706506,4.42798681" id="Fill-101" fill="#5B5E74"></path>
                                    <path d="M12.5275009,20.69837 C11.247667,21.7577601 9.30311329,21.7825122 7.12706506,20.5300557 C3.26937468,18.3073168 0.142545495,12.9014572 0.142545495,8.45432911 C0.142545495,7.11111492 0.428606547,6.0088212 0.934587368,5.1854012 L8.10099546,9.31570234 L12.5275009,20.69837" id="Fill-102" fill="#3D3E4C"></path>
                                    <path d="M7.12706506,8.36522153 C9.09972884,9.50051805 10.6986944,12.264503 10.6986944,14.5367462 C10.6986944,16.8089894 9.09972884,17.7281175 7.12706506,16.592821 C5.15770833,15.4575245 3.55708927,12.6951897 3.55708927,10.4229465 C3.55708927,8.1507033 5.15770833,7.22992502 7.12706506,8.36522153" id="Fill-103" fill="#1D1E23"></path>
                                    <path d="M7.12706506,10.2463815 C6.05888332,9.63087914 5.19077897,10.1308716 5.19077897,11.3635264 C5.19077897,12.5945311 6.05888332,14.0945086 7.12706506,14.7100109 C8.19855385,15.3271634 9.06500467,14.828821 9.06500467,13.5961662 C9.06500467,12.3618613 8.19855385,10.8618838 7.12706506,10.2463815 Z M7.12706506,9.28434968 C8.65823577,10.1655246 9.90003838,12.310707 9.90003838,14.0780072 C9.90003838,15.840357 8.65823577,16.5548678 7.12706506,15.6736929 C5.59754787,14.7908678 4.3573988,12.6456854 4.3573988,10.8816855 C4.3573988,9.11933565 5.59754787,8.40317476 7.12706506,9.28434968 Z" id="Fill-146" fill="#000000"></path>
                                    <path d="M7.12706506,10.2463815 C6.05888332,9.63087914 5.19077897,10.1308716 5.19077897,11.3635264 C5.19077897,12.5945311 6.05888332,14.0945086 7.12706506,14.7100109 C8.19855385,15.3271634 9.06500467,14.828821 9.06500467,13.5961662 C9.06500467,12.3618613 8.19855385,10.8618838 7.12706506,10.2463815 Z M7.12706506,9.28434968 C7.67603771,9.60117661 8.18697913,10.0797173 8.618551,10.6440653 L9.89673131,13.934445 L9.90003838,14.0780072 C9.90003838,15.840357 8.65823577,16.5548678 7.12706506,15.6736929 C5.59754787,14.7908678 4.3573988,12.6456854 4.3573988,10.8816855 C4.3573988,9.11933565 5.59754787,8.40317476 7.12706506,9.28434968 Z" id="Fill-147" fill="#1F2024"></path>
                                </g>
                                <polyline id="Fill-124" fill="#ED9842" points="96.6666774 88.1907179 88.9909814 92.6114437 90.4212867 93.4365139 98.0953291 89.0141379 96.6666774 88.1907179"></polyline>
                                <polyline id="Fill-125" fill="#FFAB57" points="136.888846 66.6629877 129.216457 71.0853637 129.216457 78.1133112 136.888846 73.6909352 136.888846 66.6629877"></polyline>
                                <polyline id="Fill-126" fill="#ED9842" points="127.784498 70.2602935 129.216457 71.0853637 129.216457 78.1133112 127.784498 77.288241 127.784498 70.2602935"></polyline>
                                <polyline id="Fill-127" fill="#ED9842" points="135.461847 65.8395677 127.784498 70.2602935 129.216457 71.0853637 136.890499 66.6629877 135.461847 65.8395677"></polyline>
                                <path d="M87.7508323,88.2451725 L54.5859392,60.243942 L23.0630033,50.9767541 L3.34628666,47.9866999 L3.34628666,59.8512086 L11.1559187,64.3511411 L11.1559187,62.5244358 C11.1559187,57.5278111 14.671328,55.5030889 19.0052356,57.998101 C23.3374897,60.4964134 26.8528989,66.5771804 26.8528989,71.5672046 L26.8528989,73.3939099 L65.9870429,95.9397767 L65.9870429,94.1130714 C65.9870429,89.1180967 69.5024522,87.0917245 73.8347063,89.5900369 C78.1686139,92.0866991 81.6840231,98.1658159 81.6840231,103.15749 L81.6840231,104.982545 L87.7508323,108.479193 L87.7508323,88.2451725" id="Fill-128" fill="#B4EBFF"></path>
                                <path d="M65.785312,95.8226167 L65.9870429,95.9397767 L65.9870429,94.1130714 C65.9870429,92.7748076 66.2416869,91.6494119 66.6931011,90.768237 L65.785312,90.2434924 L65.785312,95.8226167 Z M60.2244836,76.8493037 L56.664429,74.794879 L52.5950865,64.3296893 L36.9377911,55.3100225 L36.9377911,76.7057415 L38.1878614,79.923515 L64.5650053,95.119657 L58.4386689,79.3641175 L59.4803942,79.9631184 L60.2062947,81.8294271 L61.2794371,82.4482297 L61.2777835,79.5522335 L60.2244836,76.8493037 Z" id="Fill-129" fill="#318CA1"></path>
                                <path d="M59.1513413,77.4681063 L53.3953961,74.1513243 L53.3953961,75.5968472 L58.081506,78.299777 L58.081506,79.74695 L59.1529948,80.3657526 C59.1529948,79.3954702 59.1513413,78.4350885 59.1513413,77.4681063" id="Fill-130" fill="#3E3C34"></path>
                                <polyline id="Fill-131" fill="#F8F8F8" points="117.633464 20.0382739 75.9379991 44.059366 42.133189 24.5811101 83.8286542 0.561668029 117.633464 20.0382739"></polyline>
                                <polyline id="Fill-132" fill="#EAEAEA" points="75.9379991 44.059366 87.7508323 88.2468227 23.0630033 50.9767541 42.133189 24.5827602 75.9379991 44.059366"></polyline>
                                <polyline id="Fill-133" fill="#5B5E74" points="26.1021953 52.7242527 76.553113 79.3195637 76.1959501 76.9747144 71.2551962 44.6567168 71.1824408 44.1732257 43.7156192 28.3467302 26.1021953 52.7242527"></polyline>
                                <polyline id="Fill-134" fill="#3E404E" points="26.1021953 52.7242527 31.8879041 53.587276 46.8606372 32.8631642 71.633855 47.1368777 71.2551962 44.6567168 71.1824408 44.1732257 43.7156192 28.3467302 26.1021953 52.7242527"></polyline>
                                <polyline id="Fill-135" fill="#CECECE" points="117.633464 20.0382739 75.9396526 44.0577159 87.7557929 88.2468227 136.701996 60.0459251 117.633464 20.0382739"></polyline>
                                <polyline id="Fill-136" fill="#5B5E74" points="116.547094 23.5167696 78.8234126 45.2524175 89.3150737 84.4944036 133.484223 59.0459401 116.547094 23.5167696"></polyline>
                                <polyline id="Fill-137" fill="#F3ECE1" points="76.9681496 82.0307442 26.1021953 52.7242527 27.5308471 51.9024828 28.2468265 51.4899477 76.553113 79.3195637 76.9681496 82.0307442"></polyline>
                                <polyline id="Fill-138" fill="#C3BDB4" points="54.395783 69.0259886 36.8964528 58.9436314 40.5788688 58.9436314 56.2378177 67.9649484 54.395783 69.0259886"></polyline>
                                <polyline id="Fill-139" fill="#7F766F" points="44.5986053 28.8549734 43.7156192 28.3467302 26.1021953 52.7242527 28.2468265 51.4899477 44.5986053 28.8549734"></polyline>
                                <polyline id="Fill-140" fill="#C3BDB4" points="28.2468265 51.4899477 32.0565644 53.6846343 27.1505347 52.8942171 27.7474598 53.2605483 27.3886433 53.4668158 26.1021953 52.7242527 26.499043 52.4948832 28.2468265 51.4899477"></polyline>
                                <polyline id="Fill-141" fill="#625B50" points="54.4668848 73.5341719 60.2244836 76.8493037 59.1513413 77.4664562 53.3953961 74.1529745 54.4668848 73.5341719"></polyline>
                                <polyline id="Fill-142" fill="#000000" points="54.4668848 73.5341719 56.6611219 74.7965292 55.5879796 75.4136816 53.3953961 74.1529745 54.4668848 73.5341719"></polyline>
                                <polyline id="Fill-143" fill="#000000" points="60.2244836 76.8493037 59.1513413 77.4664562 59.1513413 80.3657526 60.2244836 79.7486002 60.2244836 76.8493037"></polyline>
                                <polyline id="Fill-144" fill="#CECECE" points="121.029819 82.510935 106.280313 91.0075074 106.280313 96.0305344 121.029819 87.5339621 121.029819 82.510935"></polyline>
                                <polyline id="Fill-145" fill="#F8F8F8" points="119.601168 81.687515 104.850008 90.1824372 106.280313 91.0075074 121.029819 82.510935 119.601168 81.687515"></polyline>
                                <path d="M73.8347063,96.3754137 C72.7665245,95.7599114 71.8984202,96.2599039 71.8984202,97.4925587 C71.8984202,98.7235634 72.7665245,100.223541 73.8347063,100.839043 C74.906195,101.456196 75.7726459,100.957853 75.7726459,99.7251985 C75.7726459,98.4908936 74.906195,96.990916 73.8347063,96.3754137 Z M73.8347063,95.4133819 C75.365877,96.2945568 76.6076796,98.4397392 76.6076796,100.207039 C76.6076796,101.969389 75.365877,102.6839 73.8347063,101.802725 C72.3051891,100.9199 71.06504,98.7747177 71.06504,97.0107177 C71.06504,95.2483679 72.3051891,94.532207 73.8347063,95.4133819 Z" id="Fill-146" fill="#000000"></path>
                                <path d="M73.8347063,96.3754137 C72.7665245,95.7599114 71.8984202,96.2599039 71.8984202,97.4925587 C71.8984202,98.7235634 72.7665245,100.223541 73.8347063,100.839043 C74.906195,101.456196 75.7726459,100.957853 75.7726459,99.7251985 C75.7726459,98.4908936 74.906195,96.990916 73.8347063,96.3754137 Z M73.8347063,95.4133819 C74.3836789,95.7302089 74.8946203,96.2087496 75.3261922,96.7730975 L76.6043725,100.063477 L76.6076796,100.207039 C76.6076796,101.969389 75.365877,102.6839 73.8347063,101.802725 C72.3051891,100.9199 71.06504,98.7747177 71.06504,97.0107177 C71.06504,95.2483679 72.3051891,94.532207 73.8347063,95.4133819 Z" id="Fill-147" fill="#1F2024"></path>
                                <path d="M19.0052356,63.8445481 C20.5364063,64.7273731 21.7782089,66.8709054 21.7782089,68.6365555 C21.7782089,70.4005554 20.5364063,71.1167163 19.0052356,70.2338913 C17.4740649,69.3527164 16.2322623,67.207534 16.2322623,65.4418839 C16.2322623,63.6795341 17.4740649,62.9633732 19.0052356,63.8445481" id="Fill-148" fill="#000000"></path>
                                <polyline id="Fill-150" fill="#F4F4F4" points="104.850008 90.1824372 106.280313 91.0075074 106.280313 96.0305344 104.850008 95.2071144 104.850008 90.1824372"></polyline>
                                <path d="M23.0646569,50.9784043 C24.97614,55.8875716 26.884316,60.7983891 28.789185,65.6993058 L30.3203557,66.5804807 C30.3203557,64.7224227 30.3203557,62.8627146 30.3203557,61.0046566 L27.3902968,53.4684659 L27.3886433,53.4668158 L26.1021953,52.7242527 L26.4891218,52.1896072 C26.2873909,52.0641966 26.0873135,51.9371358 25.8888897,51.8084248 L24.5958276,50.986655 L23.5078035,50.3629019 L23.0646569,50.9734538 L23.0646569,50.9784043" id="Fill-151" fill="#318CA1"></path>
                                <polyline id="Fill-152" fill="#000000" points="17.3368217 48.6995605 22.1651354 47.681424 24.5958276 50.986655 24.5958276 51.857929 18.869646 55.1582096 17.3368217 48.6995605"></polyline>
                                <polyline id="Fill-153" fill="#AD9D92" points="19.3375955 49.8513584 22.0361599 48.2969263 24.127878 51.1417681 24.127878 51.5889562 19.3375955 54.3479907 19.3375955 49.8513584"></polyline>
                                <polyline id="Fill-154" fill="#625B50" points="17.3368217 48.6995605 20.6339647 46.800249 22.1634819 47.681424 18.869646 49.5823856 17.3368217 48.6995605"></polyline>
                                <polyline id="Fill-155" fill="#3E3C34" points="17.3368217 48.6995605 17.3368217 54.2770347 18.8679924 55.1582096 18.869646 49.5823856 17.3368217 48.6995605"></polyline>
                            </g>
                            <polyline id="Fill-66" fill="#CECECE" points="49.6977157 73.1144159 56.538378 69.1722307 56.538378 89.5811658 49.6977157 93.5217008 49.6977157 73.1144159"></polyline>
                            <polyline id="Fill-67" fill="#EAEAEA" points="49.6977157 73.1144159 46.2782113 71.1424982 46.2782113 91.5514333 49.6977157 93.5217008 49.6977157 73.1144159"></polyline>
                            <path d="M49.6977157,73.1144159 L46.2782113,71.1441484 L46.2782113,81.7132969 L47.4588333,84.3914746 C48.1500097,85.3700078 48.8411861,86.3534914 49.5274019,87.3270742 L49.6977157,87.5696448 L49.6977157,73.1144159" id="Fill-68" fill="#EAEAEA"></path>
                            <polyline id="Fill-69" fill="#F8F8F8" points="49.6977157 73.1144159 46.2782113 71.1424982 53.1188736 67.2036134 56.538378 69.1722307 49.6977157 73.1144159"></polyline>
                            <polyline id="Fill-70" fill="#D6BA04" points="61.2046455 107.290471 73.0621242 114.123702 92.2927024 103.04301 80.4352238 96.2097794 61.2046455 107.290471"></polyline>
                            <polyline id="Fill-73" fill="#DDC001" points="196.880261 185.462567 196.880261 191.074694 34.9415953 97.7708121 34.9399418 92.1570348 196.880261 185.462567"></polyline>
                            <polyline id="Fill-74" fill="#D6BA04" points="73.0621242 114.123702 75.8747823 121.354617 64.0189572 114.524686 61.2046455 107.290471 73.0621242 114.123702"></polyline>
                            <polyline id="Fill-75" fill="#D6BA04" points="186.100885 179.249789 188.91189 186.484004 184.70365 184.058298 181.890992 176.825733 186.100885 179.249789"></polyline>
                            <polyline id="Fill-78" fill="#D6BA04" points="96.290943 105.349906 91.6048331 105.349906 77.0653254 113.727669 86.08865 118.927261 119.853775 118.927261 96.290943 105.349906"></polyline>
                            <polyline id="Fill-79" fill="#D6BA04" points="181.545404 154.472933 176.859294 154.472933 162.319787 162.849045 171.344765 168.048637 205.119811 168.048637 181.555325 154.472933 181.545404 154.472933"></polyline>
                            <polyline id="Fill-80" fill="#FFDD00" points="86.08865 80.820571 86.08865 118.927261 77.0653254 113.727669 77.0653254 75.620979 86.08865 80.820571"></polyline>
                            <polyline id="Fill-81" fill="#A99305" points="86.08865 80.820571 86.08865 118.927261 100.628158 110.551149 100.628158 72.4444589 86.08865 80.820571"></polyline>
                            <polyline id="Fill-82" fill="#FDED87" points="86.08865 80.820571 100.628158 72.4444589 91.6048331 67.2432167 77.0653254 75.620979 86.08865 80.820571"></polyline>
                            <polyline id="Fill-83" fill="#D6BA04" points="100.385088 72.5830707 100.628158 72.4444589 94.8870943 69.1359277 88.3209183 69.1359277 82.3367857 72.5847209 100.385088 72.5830707"></polyline>
                            <polyline id="Fill-171" fill="#FDED87" points="171.344765 129.941947 185.882619 121.564185 176.859294 116.366243 162.319787 124.742355 171.344765 129.941947"></polyline>
                            <polyline id="Fill-172" fill="#FFDD00" points="171.344765 129.941947 171.344765 168.048637 162.32144 162.849045 162.319787 124.742355 171.344765 129.941947"></polyline>
                            <polyline id="Fill-173" fill="#A99305" points="171.344765 129.941947 171.344765 168.048637 185.884272 159.670875 185.882619 121.564185 171.344765 129.941947"></polyline>
                            <polyline id="Fill-174" fill="#7E6D00" points="183.990978 139.021019 183.990978 129.948548 180.768244 128.09214 176.212763 130.715863 172.990029 136.285086 171.344765 144.317969 176.212763 147.215616 180.768244 144.591893 183.990978 139.021019"></polyline>
                            <polyline id="Fill-196" fill="#EAEAEA" points="112.202882 178.395016 112.201229 173.508951 110.451792 172.500715 110.451792 177.388431 112.202882 178.395016"></polyline>
                            <polyline id="Fill-197" fill="#CECECE" points="112.201229 173.508951 176.320243 136.56561 176.320243 141.451676 112.201229 178.395016 112.201229 173.508951"></polyline>
                            <polyline id="Fill-198" fill="#EAEAEA" points="112.202882 173.508951 175.121432 137.257019 173.371995 136.248783 110.451792 172.502365 112.202882 173.508951"></polyline>
                            <polyline id="Fill-199" fill="#AAAAAA" points="174.845292 137.417083 175.121432 137.257019 173.371995 136.248783 171.344765 137.417083 174.845292 137.417083"></polyline>
                            <polyline id="Fill-200" fill="#AAAAAA" points="178.119286 132.073928 178.173852 134.91547 175.121432 137.257019 173.371995 136.248783 176.369849 131.064043 178.119286 132.073928"></polyline>
                            <polyline id="Fill-201" fill="#AAAAAA" points="178.119286 132.073928 180.583049 131.168001 182.360596 129.630071 180.609505 128.621835 176.369849 131.064043 178.119286 132.073928"></polyline>
                            <path d="M169.229897,141.586987 L174.311201,138.659638 L172.485702,142.727234 L167.404398,145.654583 L169.229897,141.586987 Z M155.826366,149.309644 C157.519583,148.332761 159.214453,147.357528 160.906017,146.380645 C160.29917,147.73706 159.690671,149.093475 159.082171,150.44824 C157.388954,151.425124 155.695737,152.400356 154.00252,153.37724 C154.61102,152.019174 155.21952,150.664409 155.826366,149.309644 Z M142.424488,157.0323 C144.117705,156.057067 145.810922,155.080184 147.504139,154.104951 C146.897293,155.459717 146.288793,156.816132 145.67864,158.170897 C143.987076,159.14778 142.293859,160.123013 140.598989,161.098246 C141.207489,159.741831 141.814335,158.387065 142.424488,157.0323 Z M129.020957,164.753307 C130.714174,163.778074 132.407391,162.802841 134.100608,161.827608 C133.492108,163.182373 132.885262,164.537138 132.276762,165.893554 C130.581892,166.870437 128.890328,167.844019 127.195458,168.820902 C127.803958,167.466137 128.412457,166.111372 129.020957,164.753307 Z M115.617426,172.477613 L120.697077,169.550264 L118.873231,173.61621 L113.791927,176.545209 L115.617426,172.477613 Z" id="Fill-202" fill="#ED9842"></path>
                            <polyline id="Fill-203" fill="#CECECE" points="185.358449 136.245483 185.358449 131.357767 183.858696 130.494744 182.360596 129.630071 180.240767 130.849524 178.119286 132.073928 176.619532 134.664649 175.121432 137.255369 175.121432 142.143084 176.619532 143.009408 178.119286 143.872431 180.240767 142.651328 182.360596 141.430224 183.858696 138.837853 185.358449 136.245483"></polyline>
                            <polyline id="Fill-204" fill="#A39D9D" points="182.674767 136.511156 182.674767 134.184458 181.963748 133.773573 181.249422 133.362688 180.240767 133.943537 179.230459 134.524387 178.517787 135.758692 177.805115 136.991346 177.805115 139.316394 178.517787 139.727279 179.230459 140.139814 180.240767 139.558965 181.249422 138.976465 181.963748 137.74381 182.674767 136.511156"></polyline>
                            <polyline id="Fill-206" fill="#F6F3F3" points="64.2206881 137.643152 55.1080727 142.890598 13.3530803 118.833203 0.263720261 126.374344 42.0203662 150.435039 32.7308229 155.786444 70.1370259 159.197284 64.2206881 137.643152"></polyline>
                            <polyline id="Fill-207" fill="#DDC001" points="196.880261 185.462567 196.880261 191.074694 208.147429 191.074694 208.145775 185.462567 196.880261 185.462567"></polyline>
                            <polyline id="Fill-208" fill="#DDC001" points="216.110839 180.873527 216.110839 186.485654 208.147429 191.074694 208.145775 185.462567 216.110839 180.873527"></polyline>
                            <polyline id="Fill-210" fill="#000000" points="198.671036 133.478198 196.478453 132.21584 196.478453 133.661363 199.396937 135.344506 198.671036 133.478198"></polyline>
                            <polyline id="Fill-211" fill="#000000" points="195.899716 177.758062 192.480212 175.787795 199.320874 171.84726 202.740379 173.817527 195.899716 177.758062"></polyline>
                            <polyline id="Fill-212" fill="#CECECE" points="195.899716 157.349127 202.740379 153.408592 202.740379 173.817527 195.899716 177.758062 195.899716 157.349127"></polyline>
                            <polyline id="Fill-213" fill="#EAEAEA" points="195.899716 157.349127 192.480212 155.38051 192.480212 175.787795 195.899716 177.758062 195.899716 157.349127"></polyline>
                            <polyline id="Fill-214" fill="#EDE5D6" points="199.320874 139.601868 202.140146 138.847754 204.961072 138.09364 207.02468 139.285041 209.088288 140.473142 210.599617 146.103421 209.088288 153.471298 207.02468 157.038901 204.961072 160.609804 202.140146 163.103166 199.320874 165.599829 196.501602 166.353943 193.680676 167.108057 191.617068 165.918306 189.551807 164.728555 188.040478 159.099926 189.551807 151.730399 191.617068 148.162796 193.680676 144.593543 196.501602 142.098531 199.320874 139.601868"></polyline>
                            <polyline id="Fill-215" fill="#C0B4AC" points="200.357639 140.199219 203.176911 139.445105 205.997837 138.690991 208.061445 139.882392 210.126706 141.072143 210.882371 143.885633 211.636381 146.700772 210.126706 154.070298 208.061445 157.637902 205.997837 161.207155 203.176911 163.702167 200.357639 166.197179 197.538367 166.951294 194.717441 167.705408 190.590225 165.325905 189.832907 162.512416 189.077243 159.698927 189.832907 156.012514 190.590225 152.32775 194.717441 145.192544 197.538367 142.695881 200.357639 140.199219"></polyline>
                            <polyline id="Fill-216" fill="#2D5581" points="200.357639 141.989621 202.788331 141.339466 205.220677 140.689311 206.999877 141.714048 208.780731 142.740435 209.432223 145.167792 210.085368 147.595148 208.780731 153.948188 205.220677 160.104861 200.357639 164.406777 197.925293 165.058583 195.492947 165.707088 193.713747 164.682351 191.934546 163.655963 191.281401 161.230257 190.62991 158.802901 191.281401 155.624731 191.934546 152.44656 192.875406 150.819522 201.133145 155.578527 199.476306 158.44152 205.827523 156.350792 204.465013 149.816237 202.809827 152.68088 194.552088 147.921876 195.492947 146.294837 197.925293 144.141404 200.357639 141.989621"></polyline>
                            <polyline id="Fill-217" fill="#F6F0E5" points="193.680676 144.593543 194.719094 145.192544 190.590225 152.32775 189.551807 151.730399 193.680676 144.593543"></polyline>
                            <polyline id="Fill-218" fill="#F6F0E5" points="193.680676 144.593543 194.719094 145.192544 200.357639 140.199219 199.320874 139.601868 193.680676 144.593543"></polyline>
                        </g>
                    </g>
                </g>
                <g id="Group-39" transform="translate(227.000000, 654.000000)">
                    <g id="Group-37">
                        <g id="Group-23" transform="translate(6.000000, 9.000000)">
                            <g id="Group-22">
                                <g id="All_images-17">
                                    <polygon id="Fill-1" fill="#F4F4F4" points="57.1006919 112.951497 58.8282654 111.961246 92.5693934 111.961246 92.5670047 109.380663 58.8264739 109.380663 57.1006919 108.389226 20.1289479 108.389226 18.1254882 107.24006 12.2960474 107.24006 6.31672038 110.666211 12.2960474 114.094141 18.1254882 114.094141 20.1205877 112.951497"></polygon>
                                    <polyline id="Fill-2" fill="#FFFFFF" points="8.31719431 66.1849548 12.2972417 68.4660905 16.2749005 66.1855477 12.2972417 63.9044121 8.31719431 66.1849548"></polyline>
                                    <polyline id="Fill-3" fill="#E2E4EA" points="14.0230237 67.4770251 16.2749005 66.1867337 12.2972417 63.9044121 12.2972417 67.4770251 14.0230237 67.4770251"></polyline>
                                    <polyline id="Fill-4" fill="#F1F2F5" points="10.0447678 24.5072362 12.2972417 25.7981206 12.2972417 67.4770251 10.0447678 66.1879196 10.0447678 24.5072362"></polyline>
                                    <polyline id="Fill-5" fill="#E2E4EA" points="14.5485213 24.5072362 12.2972417 25.7981206 12.2972417 67.4770251 14.5485213 66.1879196 14.5485213 24.5072362"></polyline>
                                    <polyline id="Fill-6" fill="#F1F2F5" points="3.53874882 24.5072362 12.2972417 29.5296482 12.2972417 16.3705729 0.5272891 9.62144724 3.53874882 24.5072362"></polyline>
                                    <polyline id="Fill-7" fill="#FFDD00" points="4.51509953 23.8348141 10.9930521 27.5515176 10.9930521 17.1562513 2.13602844 12.0781005 4.51509953 23.8348141"></polyline>
                                    <polyline id="Fill-8" fill="#F7F7F7" points="0.5272891 9.62144724 12.2972417 16.3705729 12.2960474 12.0644623 3.53874882 7.04323618 0.5272891 9.62144724"></polyline>
                                    <polyline id="Fill-9" fill="#E2E4EA" points="21.0557346 24.5072362 12.2972417 29.5296482 12.2960474 16.3705729 24.0665972 9.62144724 21.0557346 24.5072362"></polyline>
                                    <polyline id="Fill-10" fill="#EAC300" points="19.9796588 23.7411256 22.3587299 11.9838191 13.5017062 17.0613769 13.5017062 27.4572362 19.9796588 23.7411256"></polyline>
                                    <polyline id="Fill-11" fill="#FFFFFF" points="3.53874882 7.04323618 12.2960474 12.0644623 21.0545403 7.04620101 12.2960474 2.02378894 3.53874882 7.04323618"></polyline>
                                    <polyline id="Fill-12" fill="#E2E4EA" points="24.0665972 9.62144724 12.2960474 16.3705729 12.2972417 12.0644623 21.0545403 7.04323618 24.0665972 9.62144724"></polyline>
                                    <polyline id="Fill-13" fill="#E2E4EA" points="8.21388626 7.04442211 12.2972417 9.3860402 18.9907678 7.04501508 12.2972417 4.70280402 8.21388626 7.04442211"></polyline>
                                    <polyline id="Fill-14" fill="#F1F2F5" points="6.319109 104.879467 12.2972417 108.309769 12.2960474 114.094141 6.319109 110.670362 6.319109 104.879467"></polyline>
                                    <polyline id="Fill-15" fill="#E2E4EA" points="18.2705972 104.880653 12.2960474 108.309769 12.2972417 114.094141 18.2705972 110.671548 18.2705972 104.880653"></polyline>
                                    <polyline id="Fill-16" fill="#FFFFFF" points="8.31719431 101.434935 12.2972417 103.716663 16.2749005 101.436121 12.2972417 99.1555779 8.31719431 101.434935"></polyline>
                                    <polyline id="Fill-17" fill="#FFFFFF" points="6.31791469 104.881246 12.2972417 108.309769 18.2741801 104.884804 12.2972417 101.455688 6.31791469 104.881246"></polyline>
                                    <polyline id="Fill-18" fill="#E2E4EA" points="14.2965213 107.162975 18.2741801 104.884804 12.2972417 101.455688 12.2972417 107.162975 14.2965213 107.162975"></polyline>
                                    <polyline id="Fill-19" fill="#F7F7F7" points="8.21388626 7.04323618 12.2972417 9.38366834 12.2972417 0.397879397 8.21388626 7.04323618"></polyline>
                                    <polyline id="Fill-20" fill="#E2E4EA" points="16.3794028 7.04323618 12.2972417 9.38366834 12.2972417 0.397879397 16.3794028 7.04323618"></polyline>
                                    <polyline id="Fill-21" fill="#F1F2F5" points="8.31719431 66.1825829 12.2972417 68.4660905 12.2960474 107.162975 8.31719431 104.88599 8.31719431 66.1825829"></polyline>
                                    <polyline id="Fill-22" fill="#E2E4EA" points="16.2749005 66.1825829 12.2960474 68.4660905 12.2972417 107.162975 16.2749005 104.88599 16.2749005 66.1825829"></polyline>
                                </g>
                            </g>
                        </g>
                        <g id="Group-36">
                            <g id="Group-35">
                                <g id="Group-34">
                                    <polygon id="Fill-214" fill="#F7F8FC" points="23.5350074 1.31376768 28.0868764 0.0697635291 31.4167314 2.03512677 34.7465864 3.99504578 37.1852783 13.2828842 34.7465864 25.4371043 31.4167314 31.3223055 28.0868764 37.212951 23.5350074 41.3260589 18.9858065 45.4446109 14.4366056 46.6886151 9.88473653 47.9326192 6.55488156 45.9699781 3.22235843 44.007337 0.783666569 34.7222206 3.22235843 22.5652785 6.55488156 16.6800772 9.88473653 10.7921538 14.4366056 6.67632389 18.9858065 2.55777184"></polygon>
                                    <polyline id="Fill-215" fill="#E2E4EA" points="20.6587384 3.54317557 25.2079393 2.29917141 29.7598084 1.05516726 33.0896634 3.02053049 36.4221865 4.98317162 37.6415324 9.62436874 38.8582102 14.268288 36.4221865 26.4252301 33.0896634 32.3104314 29.7598084 38.1983548 25.2079393 42.3141847 20.6587384 46.4300146 16.1095375 47.6740188 11.5576685 48.9180229 4.89795853 44.9927407 3.67594445 40.3515436 2.45659851 35.7103464 3.67594445 29.6291533 4.89795853 23.5506822 11.5576685 11.7802797 16.1095375 7.66172761 20.6587384 3.54317557"></polyline>
                                    <polygon id="Fill-216" fill="#0FC0EA" points="24.5809234 5.4241534 28.5057765 4.35164216 31.3767091 6.04207231 34.2503099 7.73522458 35.3015622 11.739448 36.3554827 15.7436715 34.2503099 26.223794 28.5057765 36.3799854 20.6587384 43.4765256 16.7338853 44.5517589 12.8090322 45.621548 9.93809959 43.9311179 7.06716694 42.2379656 6.01324649 38.2364643 4.9619942 34.2322409 6.01324649 28.9894575 7.06716694 23.7466741 8.58534601 21.0626739 11.2908532 16.2826492 12.8090322 13.598649 16.7338853 10.0462958 20.6587384 6.49666464"></polygon>
                                    <polyline id="Fill-217" fill="#F1F2F5" points="9.88473653 10.7921538 11.5603366 11.7802797 4.89795853 23.5506822 3.22235843 22.5652785 9.88473653 10.7921538"></polyline>
                                    <polyline id="Fill-218" fill="#F1F2F5" points="9.88473653 10.7921538 11.5603366 11.7802797 20.6587384 3.54317557 18.9858065 2.55777184 9.88473653 10.7921538"></polyline>
                                </g>
                            </g>
                        </g>
                    </g>
                    <g id="Group-38" transform="translate(10.000000, 14.000000)">
                        <g id="Page-1">
                            <mask id="mask-2" fill="white">
                                <use xlink:href="#path-1"></use>
                            </mask>
                            <g id="Clip-2"></g>
                            <path d="M4.25008182,21.8770105 C2.63499091,22.8029053 1.27508182,22.2319579 1.27508182,20.6290105 C1.27508182,19.0260632 2.63499091,16.8970105 4.25008182,15.9717474 C5.86517273,15.0464842 7.22508182,15.6168 7.22508182,17.2197474 C7.22508182,18.8226947 5.86517273,20.9517474 4.25008182,21.8770105 Z M4.25008182,14.7060632 C1.87008182,16.0702737 -0.000190909091,18.9976421 -0.000190909091,21.3597474 C-0.000190909091,23.7218526 1.87008182,24.5062737 4.25008182,23.1426947 C6.63008182,21.7791158 8.50035455,18.8511158 8.50035455,16.4890105 C8.50035455,14.1269053 6.63008182,13.3424842 4.25008182,14.7060632 Z M12.5800818,8.24564211 L16.1500818,6.20058947 L16.1500818,4.68164211 L13.4302636,6.24037895 L11.8151727,4.38164211 C11.5599909,4.10564211 11.1349,4.0968 10.5405364,4.43785263 C10.1154455,4.68101053 9.77562727,5.0448 9.51980909,5.44332632 L6.3749,10.3671158 C6.11971818,10.7662737 5.95044545,11.2014316 5.95044545,11.6233263 C5.95044545,12.1292211 6.20499091,12.4898526 6.63008182,12.4986947 L9.51980909,12.5302737 L9.51980909,16.7485895 L11.0502636,15.8713263 L11.0502636,10.3885895 L9.17999091,10.0254316 L11.1349,6.9648 L12.5800818,8.24564211 Z M16.1500818,15.0578526 C14.5349909,15.9837474 13.1750818,15.4134316 13.1750818,13.8104842 C13.1750818,12.2069053 14.5349909,10.0778526 16.1500818,9.15322105 C17.7651727,8.22795789 19.1250818,8.79764211 19.1250818,10.4005895 C19.1250818,12.0035368 17.7651727,14.1325895 16.1500818,15.0578526 Z M16.1500818,7.88753684 C13.7700818,9.25111579 11.8998091,12.1791158 11.8998091,14.5412211 C11.8998091,16.9026947 13.7700818,17.6871158 16.1500818,16.3235368 C18.5300818,14.9599579 20.4003545,12.0325895 20.4003545,9.67048421 C20.4003545,7.30837895 18.5300818,6.52332632 16.1500818,7.88753684 Z M13.6001727,3.27448421 C14.4497182,2.78753684 15.1306273,1.72332632 15.1306273,0.879536842 C15.1306273,0.0357473684 14.4497182,-0.249094737 13.6001727,0.237221053 C12.7499909,0.7248 12.0703545,1.78901053 12.0703545,2.6328 C12.0703545,3.47658947 12.7499909,3.76143158 13.6001727,3.27448421 Z" id="Fill-1" fill="#FFFFFF" mask="url(#mask-2)"></path>
                        </g>
                    </g>
                    <path d="M112.167385,107.384561 C104.454662,109.230296 102.588012,110.315502 99.3953016,114.769898 C96.2025909,119.224294 96.2005415,120.750811 99.3953016,125.203874 C102.590062,129.656938 104.458994,130.737379 112.174385,132.582211 C119.889776,134.427044 122.535187,134.426926 130.25271,132.582211 C137.970233,130.737497 139.845544,129.656053 143.042294,125.203874 C146.239043,120.751696 146.239999,119.226378 143.042294,114.769898 C139.844588,110.313419 137.975331,109.23099 130.25621,107.384561 C122.537089,105.538133 119.880107,105.538826 112.167385,107.384561 Z" id="Page-1" fill="#F4F4F4"></path>
                </g>
                <g id="Group-5-Copy" transform="translate(237.000000, 900.000000)">
                    <g id="Group-6-Copy-2">
                        <g id="Page-1" transform="translate(49.000000, 50.000000) scale(-1, 1) translate(-49.000000, -50.000000) ">
                            <polygon id="Fill-1" fill="#F4F4F4" points="18.1917895 78.4013951 0 88.9578669 18.1917895 99.5211361 61.0823626 99.5211361 74.6298713 91.6564627 78.9902222 91.6564627 83.6345029 88.9578669 78.9902222 86.259271 74.6298713 86.259271 61.0823626 78.4013951"></polygon>
                            <polygon id="Fill-2" fill="#AAAAAA" points="74.3445895 88.9605858 78.9888702 91.6591817 78.9888702 73.6526822 74.3445895 70.9540864"></polygon>
                            <polygon id="Fill-3" fill="#D2D2D2" points="78.9868421 73.6540417 78.9868421 91.6605411 83.637883 88.9619453 83.637883 70.9554459"></polygon>
                            <polygon id="Fill-5" fill="#2DFC9D" points="60.7977567 10.5591907 78.9895462 21.12246 97.1813357 10.5659882 78.9963064 0.00271898822"></polygon>
                            <polygon id="Fill-6" fill="#2DC689" points="78.9868421 21.1211005 78.9868421 81.5193948 97.1786316 70.9629231 97.1786316 10.5646287"></polygon>
                            <polygon id="Fill-7" fill="#1CAC7A" points="60.7964047 10.5598705 78.9881942 21.1231397 78.9881942 81.5214341 60.7964047 70.9581648"></polygon>
                        </g>
                    </g>
                </g>
                <g id="Group-6-Copy-3" transform="translate(295.000000, 910.000000)">
                    <g id="Page-1" transform="translate(34.000000, 35.000000) scale(-1, 1) translate(-34.000000, -35.000000) ">
                        <polygon id="Fill-1" fill="#F4F4F4" points="18.1917895 48.4013951 0 58.9578669 18.1917895 69.5211361 31.0823626 69.5211361 44.6298713 61.6564627 48.9902222 61.6564627 53.6345029 58.9578669 48.9902222 56.259271 44.6298713 56.259271 31.0823626 48.4013951"></polygon>
                        <polygon id="Fill-2" fill="#AAAAAA" points="44.3445895 58.9605858 48.9888702 61.6591817 48.9888702 43.6526822 44.3445895 40.9540864"></polygon>
                        <polygon id="Fill-3" fill="#D2D2D2" points="48.9868421 43.6540417 48.9868421 61.6605411 53.637883 58.9619453 53.637883 40.9554459"></polygon>
                        <polygon id="Fill-5" fill="#2DFC9D" points="30.7977567 10.5591907 48.9895462 21.12246 67.1813357 10.5659882 48.9963064 0.00271898822"></polygon>
                        <polygon id="Fill-6" fill="#2DC689" points="48.9868421 21.1211005 48.9868421 51.5193948 67.1786316 40.9629231 67.1786316 10.5646287"></polygon>
                        <polygon id="Fill-7" fill="#1CAC7A" points="30.7964047 10.5598705 48.9881942 21.1231397 48.9881942 51.5214341 30.7964047 40.9581648"></polygon>
                    </g>
                </g>
            </g>
        </g>
    </g>
</svg>