<?xml version="1.0" encoding="UTF-8"?>
<svg width="944px" height="1520px" viewBox="0 0 944 1520" version="1.1" xmlns="http://www.w3.org/2000/svg" xmlns:xlink="http://www.w3.org/1999/xlink">
    <!-- Generator: Sketch 50.2 (55047) - http://www.bohemiancoding.com/sketch -->
    <title>Group 15</title>
    <desc>Created with Sketch.</desc>
    <defs>
        <linearGradient x1="50%" y1="0%" x2="50%" y2="72.934528%" id="linearGradient-1">
            <stop stop-color="#FFFFFF" offset="0%"></stop>
            <stop stop-color="#FFFFFF" stop-opacity="0" offset="100%"></stop>
        </linearGradient>
        <linearGradient x1="50%" y1="20.427495%" x2="50%" y2="91.4197062%" id="linearGradient-2">
            <stop stop-color="#FFFFFF" offset="0%"></stop>
            <stop stop-color="#FFFFFF" stop-opacity="0" offset="100%"></stop>
        </linearGradient>
        <polygon id="path-3" points="0 23.8113474 20.3999091 23.8113474 20.3999091 0.000189473684 0 0.000189473684"></polygon>
    </defs>
    <g id="Page-1" stroke="none" stroke-width="1" fill="none" fill-rule="evenodd">
        <g id="Про-комплекс" transform="translate(-656.000000, -1303.000000)">
            <g id="Group-15" transform="translate(425.000000, 1303.000000)">
                <g id="Group-3">
                    <g id="Road">
                        <path d="M856.064753,92.5363763 C995.397886,195.788147 1065.06445,287.454814 1065.06445,367.536376 C1065.06445,487.65872 1026.30658,575.078314 946.064753,625.536376 C865.822923,675.994438 609.205756,629.54217 476.064753,732.536376 C342.92375,835.530583 388.717446,996.325925 448,1063.17663 C507.282554,1130.02734 561.642021,1154.57741 650.59639,1208.06986 C650.59639,1208.06986 881.208583,1338.33858 1342.43297,1598.87603 L1362.95134,1535.02616 C941.708437,1297.0745 725.452168,1174.85138 714.18253,1168.3568 C697.278072,1158.61494 597.087037,1112.33661 537.394248,1052.33661 C478.861635,993.502753 428.864956,882.48665 523.130777,784.505384 C617.396597,686.524118 904.823453,737.593832 989.74314,678.58154 C1074.66283,619.569248 1128.75982,537.711776 1127.7116,367.536376 C1127.01279,254.08611 1060.21755,144.907318 927.325903,40 L856.064753,92.5363763 Z" id="Path-12" fill="#E6E6EF"></path>
                        <path d="M999.779871,40.2937975 C1046.84613,103.876559 1127.16729,179.164859 1136.92047,347.36712 C1146.67366,515.569382 1084.99163,643.420538 978.91245,695.307066 C872.833274,747.193594 716.874791,701.221266 566.574945,766.073847 C446.459807,830.433704 454.587708,970.737944 556.611553,1057.53554 C642.421586,1128.20119 716.356786,1159.50822 890.401745,1258.26379 C1006.43172,1324.10084 1190.66805,1429.08277 1443.11074,1573.2096 L1443.11074,1540.94171 C1081.94588,1338.60449 901.363446,1237.43588 901.363446,1237.43588 C714.855865,1129.81342 673.269462,1117.62016 583.428942,1045.84869 C493.012934,973.61748 486.180158,840.221982 567.574945,796.292874 C700.008662,724.306007 849.123502,786.618576 993.021988,721.706741 C1136.92047,656.794906 1167.33738,498.131171 1166.1956,347.36712 C1165.43441,246.857753 1117.14451,145.068713 1021.3259,42 C1002.40231,28.7123683 995.220301,28.1436342 999.779871,40.2937975 Z" id="Path-12" fill="#EFADB3"></path>
                        <rect id="Rectangle-2-Copy" fill="url(#linearGradient-1)" transform="translate(945.000000, 1287.000000) scale(-1, -1) translate(-945.000000, -1287.000000) " x="520" y="1054" width="850" height="466"></rect>
                        <rect id="Rectangle-2" fill="url(#linearGradient-2)" transform="translate(703.500000, 493.500000) scale(-1, 1) translate(-703.500000, -493.500000) " x="231" y="0" width="945" height="987"></rect>
                    </g>
                    <g id="Group-24" transform="translate(780.000000, 267.000000)">
                        <g id="Group-23">
                            <g id="Group-22">
                                <g id="All_images-17">
                                    <polyline id="Fill-1" fill="#F4F4F4" points="15.0105972 84.2350151 42.5989289 84.2350151 43.8877536 83.4965226 69.0597062 83.4965226 73.9138483 86.2775879 85.0967299 87.5657487 93.8761517 82.535598 85.0967299 77.5023518 73.9138483 78.7900704 69.0579242 81.5720201 43.8864171 81.5720201 42.5989289 80.8326432 15.0168341 80.8326432 13.5221896 79.9756382 9.17324171 79.9756382 4.71247393 82.5307337 9.17324171 85.0871558 13.5221896 85.0871558 15.0105972 84.2350151"></polyline>
                                    <polyline id="Fill-2" fill="#FFFFFF" points="6.204891 49.3582714 9.1741327 51.0594573 12.1415924 49.3587136 9.1741327 47.6575276 6.204891 49.3582714"></polyline>
                                    <polyline id="Fill-3" fill="#E2E4EA" points="10.4616209 50.3218492 12.1415924 49.359598 9.1741327 47.6575276 9.1741327 50.3218492 10.4616209 50.3218492"></polyline>
                                    <polyline id="Fill-4" fill="#F1F2F5" points="7.49371564 18.2765829 9.1741327 19.2392764 9.1741327 50.3218492 7.49371564 49.3604824 7.49371564 18.2765829"></polyline>
                                    <polyline id="Fill-5" fill="#E2E4EA" points="10.8536588 18.2765829 9.1741327 19.2392764 9.1741327 50.3218492 10.8536588 49.3604824 10.8536588 18.2765829"></polyline>
                                    <polyline id="Fill-6" fill="#F1F2F5" points="2.64001896 18.2765829 9.1741327 22.0221106 9.1741327 12.2085628 0.393374408 7.17531658 2.64001896 18.2765829"></polyline>
                                    <polyline id="Fill-7" fill="#FFDD00" points="3.36840758 17.7751156 8.20116588 20.5468945 8.20116588 12.7944925 1.59354502 9.00739698 3.36840758 17.7751156"></polyline>
                                    <polyline id="Fill-8" fill="#F7F7F7" points="0.393374408 7.17531658 9.1741327 12.2085628 9.17324171 8.99722613 2.64001896 5.25258291 0.393374408 7.17531658"></polyline>
                                    <polyline id="Fill-9" fill="#E2E4EA" points="15.7082464 18.2765829 9.1741327 22.0221106 9.17324171 12.2085628 17.9544455 7.17531658 15.7082464 18.2765829"></polyline>
                                    <polyline id="Fill-10" fill="#EAC300" points="14.9054597 17.7052462 16.6803223 8.93708543 10.0727014 12.7237387 10.0727014 20.4765829 14.9054597 17.7052462"></polyline>
                                    <polyline id="Fill-11" fill="#FFFFFF" points="2.64001896 5.25258291 9.17324171 8.99722613 15.7073555 5.25479397 9.17324171 1.50926633 2.64001896 5.25258291"></polyline>
                                    <polyline id="Fill-12" fill="#E2E4EA" points="17.9544455 7.17531658 9.17324171 12.2085628 9.1741327 8.99722613 15.7073555 5.25258291 17.9544455 7.17531658"></polyline>
                                    <polyline id="Fill-13" fill="#E2E4EA" points="6.12781991 5.25346734 9.1741327 6.99975879 14.1677156 5.25390955 9.1741327 3.50717588 6.12781991 5.25346734"></polyline>
                                    <polyline id="Fill-14" fill="#F1F2F5" points="4.71425592 78.215196 9.1741327 80.7733869 9.17324171 85.0871558 4.71425592 82.5338291 4.71425592 78.215196"></polyline>
                                    <polyline id="Fill-15" fill="#E2E4EA" points="13.6304455 78.2160804 9.17324171 80.7733869 9.1741327 85.0871558 13.6304455 82.5347136 13.6304455 78.2160804"></polyline>
                                    <polyline id="Fill-16" fill="#FFFFFF" points="6.204891 75.646392 9.1741327 77.3480201 12.1415924 75.6472764 9.1741327 73.9465327 6.204891 75.646392"></polyline>
                                    <polyline id="Fill-17" fill="#FFFFFF" points="4.71336493 78.2165226 9.1741327 80.7733869 13.6331185 78.2191759 9.1741327 75.6618693 4.71336493 78.2165226"></polyline>
                                    <polyline id="Fill-18" fill="#E2E4EA" points="10.6656588 79.9181508 13.6331185 78.2191759 9.1741327 75.6618693 9.1741327 79.9181508 10.6656588 79.9181508"></polyline>
                                    <polyline id="Fill-19" fill="#F7F7F7" points="6.12781991 5.25258291 9.1741327 6.99798995 9.1741327 0.296723618 6.12781991 5.25258291"></polyline>
                                    <polyline id="Fill-20" fill="#E2E4EA" points="12.2195545 5.25258291 9.1741327 6.99798995 9.1741327 0.296723618 12.2195545 5.25258291"></polyline>
                                    <polyline id="Fill-21" fill="#F1F2F5" points="6.204891 49.3565025 9.1741327 51.0594573 9.17324171 79.9181508 6.204891 78.2200603 6.204891 49.3565025"></polyline>
                                    <polyline id="Fill-22" fill="#E2E4EA" points="12.1415924 49.3565025 9.17324171 51.0594573 9.1741327 79.9181508 12.1415924 78.2200603 12.1415924 49.3565025"></polyline>
                                </g>
                            </g>
                        </g>
                        <g id="Skameika" transform="translate(103.500000, 103.500000) scale(-1, 1) translate(-103.500000, -103.500000) translate(42.000000, 62.000000)">
                            <g id="All_images-13">
                                <path d="M19.0740327,72.4421062 L18.601825,72.1784159 L20.3297442,72.1784159 L19.4718,72.6631947 L19.0740327,72.4421062 Z M23.6615154,74.9982124 L23.6043692,74.9651593 L22.85395,74.5479558 L22.5622038,74.3841593 L23.7194135,73.7333805 L24.8142135,74.3481681 L23.6615154,74.9982124 Z M27.8143865,77.3097257 L27.3414269,77.0460354 L26.7271058,76.7044867 L27.8655173,76.0639912 L28.9475346,76.6714336 L27.8143865,77.3097257 Z M75.7983577,49.0287611 L76.8878942,49.634 L32.7402346,74.5332655 L32.0213962,74.1285487 L31.6589692,73.922885 L75.7983577,49.0287611 Z M80.712175,46.2574425 L82.6017577,47.3202832 L80.9918904,47.3202832 L80.6978885,47.4862832 L80.6309673,47.4862832 L79.8858115,47.0705487 L79.5767712,46.8986726 L80.712175,46.2574425 Z M71.6274404,46.7143097 L71.6988731,46.7525044 L72.7290077,47.3254248 L28.6129288,72.2070619 L27.9189038,71.8140973 L27.5196327,71.5900708 L71.6274404,46.7143097 Z M76.5690788,43.9275664 L78.4887385,45.0080354 L76.8375154,45.0080354 L76.5119327,45.1923982 L76.1480019,44.9896726 L75.4126212,44.5798142 L76.5690788,43.9275664 Z M67.4114077,44.3719469 L68.5317731,44.9940796 L24.4480269,69.8566195 L23.7863346,69.4849558 L22.8855308,69.4849558 L67.4114077,44.3719469 Z M71.2574942,42.2043982 L73.5027365,42.2043982 L74.3411308,42.6759558 L72.6417846,42.6759558 L72.3207135,42.8588496 L71.6184173,42.465885 L71.2026038,42.2345133 L71.2574942,42.2043982 Z M62.8585135,42.2043982 L63.5074231,42.2043982 L64.2864154,42.6370265 L16.6829173,69.4849558 L14.4857981,69.4849558 L62.8585135,42.2043982 Z M62.0073365,39.5006549 L0.263925,74.3224602 L0.348140385,74.3687345 L0.544392308,74.4774425 L5.63190385,74.4774425 L9.70732692,72.1784159 L10.9630385,72.1784159 L11.43675,72.4435752 L7.92075769,74.425292 L8.20498462,74.5824779 L8.48545192,74.7396637 L8.76742308,74.8953805 L9.04864231,75.0533009 L9.33061346,75.2090177 L9.61032885,75.364 L10.1727673,75.6769027 L11.90595,75.6769027 L14.5617423,74.1784956 L15.6828596,74.8006283 L12.1638596,76.7852832 L12.4413192,76.939531 L12.7217865,77.0952478 L12.9992462,77.2494956 L13.2774577,77.4037434 L13.5564212,77.5594602 L13.8331288,77.715177 L14.1120923,77.8686903 L14.3880481,78.0229381 L16.1129596,78.0229381 L18.7785269,76.5201239 L19.1544885,76.7287257 L19.8808462,77.1319735 L16.3580865,79.1173628 L16.6347942,79.2708761 L16.91075,79.4251239 L17.1867058,79.5779027 L17.4619096,79.7314159 L17.7363615,79.8834602 L18.0115654,80.0369735 L18.2860173,80.1904867 L18.5604692,80.3432655 L20.2763577,80.3432655 L22.9486923,78.8353097 L24.0374769,79.4398142 L20.5132135,81.4274071 L20.7861615,81.5787168 L21.0583577,81.7322301 L21.3298019,81.8835398 L21.6019981,82.0355841 L21.8741942,82.1868938 L22.1471423,82.3389381 L22.4185865,82.4895133 L22.6900308,82.640823 L24.3984,82.640823 L27.0782538,81.1299292 L27.1782596,81.1850177 C28.0008635,81.1850177 28.8249712,81.1850177 29.6498308,81.1850177 L31.5574596,80.1096903 L32.6304538,80.1096903 C34.2643827,80.1096903 35.9050788,80.1096903 37.5420154,80.1096903 L40.087275,78.6759204 L39.0849615,78.1118142 L38.0803923,77.5440354 L37.0750712,76.9784602 L36.0667423,76.4099469 L35.75695,76.2343982 L80.1279308,51.211 L82.1942154,51.211 L84.1010923,50.1356726 L85.1740865,50.1356726 C86.8087673,50.1356726 88.4494635,50.1356726 90.0864,50.1356726 L92.6309077,48.7004336 L90.6247769,47.5700177 L89.6194558,47.0022389 L88.6118788,46.4344602 L86.5922135,45.2944956 L85.5786212,44.7237788 L84.5650288,44.1523274 L83.5431654,43.575 L82.5182942,42.9976726 L81.4919192,42.4188761 L80.4632885,41.8386106 L79.4324019,41.2590796 L78.4007635,40.6758761 L77.3676212,40.0926726 L76.3307192,39.5087345 L64.5571077,39.5087345 L64.5435731,39.5006549 L62.0073365,39.5006549 Z" id="Fill-1" fill="#F4F4F4"></path>
                                <polyline id="Fill-2" fill="#F4F4F4" points="111.22371 30.7026549 122.697304 24.2301239 111.22371 17.7590619 100.557681 17.7590619 85.5545596 26.2206549 93.4971231 30.7026549 111.22371 30.7026549"></polyline>
                                <polyline id="Fill-3" fill="#EB53C0" points="111.22371 13.3865044 111.22371 30.7026549 122.697304 24.2301239 122.697304 6.91397345 111.22371 13.3865044"></polyline>
                                <polyline id="Fill-4" fill="#EA71C8" points="99.7493635 6.91397345 111.22371 13.3865044 122.697304 6.91397345 111.22371 0.442911504 99.7493635 6.91397345"></polyline>
                                <polyline id="Fill-5" fill="#AA057C" points="99.7493635 6.91397345 111.22371 13.3865044 111.22371 30.7011858 99.7493635 24.2301239 99.7493635 6.91397345"></polyline>
                                <polyline id="Fill-6" fill="#AA057C" points="103.543567 6.91397345 111.22371 11.2468673 118.9031 6.91397345 111.22371 2.58328319 103.543567 6.91397345"></polyline>
                                <polyline id="Fill-7" fill="#EB53C0" points="103.543567 6.91397345 108.412269 9.6610531 111.22371 2.58328319 103.543567 6.91397345"></polyline>
                                <polyline id="Fill-8" fill="#F9F9F9" points="23.4742865 44.8794956 26.0187942 43.4449912 23.8299462 42.2124779 21.2854385 43.6455133 23.4742865 44.8794956"></polyline>
                                <polyline id="Fill-9" fill="#D8DAE1" points="35.3554231 76.4077434 37.8991788 74.9725044 26.0187942 68.2722743 23.4742865 69.7060442 35.3554231 76.4077434"></polyline>
                                <polyline id="Fill-10" fill="#F1F2F5" points="37.5420154 80.1096903 40.087275 78.6759204 40.087275 68.8841239 37.5420154 70.3193628 37.5420154 80.1096903"></polyline>
                                <polyline id="Fill-11" fill="#D8DAE1" points="37.5420154 73.0568938 40.087275 71.6231239 40.087275 68.8841239 37.5420154 70.3193628 37.5420154 73.0568938"></polyline>
                                <path d="M39.4902481,68.9487611 L42.0332519,67.5142566 C36.6961019,64.5042212 31.3574481,61.4927168 26.0187942,58.4826814 L23.4742865,59.9164513 C28.8129404,62.9272212 34.1515942,65.9379912 39.4902481,68.9487611" id="Fill-12" fill="#D8DAE1"></path>
                                <polyline id="Fill-13" fill="#D8DAE1" points="23.4742865 69.7060442 26.0187942 68.2722743 26.0187942 60.9499115 23.4742865 62.3851504 23.4742865 69.7060442"></polyline>
                                <polyline id="Fill-14" fill="#F1F2F5" points="23.4742865 59.9164513 26.0187942 58.4826814 26.0187942 43.4449912 23.4742865 44.8794956 23.4742865 59.9164513"></polyline>
                                <polyline id="Fill-15" fill="#D8DAE1" points="23.4742865 58.3578142 26.0187942 56.9233097 26.0187942 43.4449912 23.4742865 44.8794956 23.4742865 58.3578142"></polyline>
                                <polyline id="Fill-16" fill="#AAAAAA" points="23.4742865 50.8885487 26.0187942 49.4540442 26.0187942 43.4449912 23.4742865 44.8794956 23.4742865 50.8885487"></polyline>
                                <polyline id="Fill-17" fill="#F1F2F5" points="39.4902481 71.4167257 42.0332519 69.9829558 42.0332519 67.5142566 39.4902481 68.9487611 39.4902481 71.4167257"></polyline>
                                <path d="M35.3554231,76.4077434 L35.3554231,69.084646 L23.4742865,62.3851504 L23.4742865,69.7060442 L35.3554231,76.4077434 Z M23.4742865,44.8794956 L23.4742865,59.9164513 L39.4902481,68.9487611 L39.4902481,71.4167257 L37.5420154,70.3193628 L37.5420154,80.1096903 L21.2854385,70.9414956 C21.2854385,61.8430796 21.2854385,52.7446637 21.2854385,43.6455133 L23.4742865,44.8794956 Z" id="Fill-18" fill="#E2E4EA"></path>
                                <polyline id="Fill-19" fill="#F9F9F9" points="76.3209442 15.0736814 78.8639481 13.6399115 76.6766038 12.4066637 74.1328481 13.8411681 76.3209442 15.0736814"></polyline>
                                <polyline id="Fill-20" fill="#F8F4F5" points="87.8975519 46.4322566 90.4420596 44.9977522 78.8639481 38.4671947 76.3209442 39.9016991 87.8975519 46.4322566"></polyline>
                                <polyline id="Fill-21" fill="#D8DAE1" points="87.8975519 46.4322566 90.4420596 44.9977522 85.3545481 44.9977522 87.8975519 46.4322566"></polyline>
                                <polyline id="Fill-22" fill="#F1F2F5" points="90.0864 50.1356726 92.6309077 48.7004336 92.6309077 38.9079027 90.0864 40.3431416 90.0864 50.1356726"></polyline>
                                <polyline id="Fill-23" fill="#D8DAE1" points="90.0864 43.0806726 92.6309077 41.6469027 92.6309077 38.9079027 90.0864 40.3431416 90.0864 43.0806726"></polyline>
                                <path d="M92.0346327,38.9725398 L94.5783885,37.5380354 C89.2389827,34.5287345 84.2026019,31.6876372 78.8639481,28.6761327 L76.3209442,30.1099027 C81.6588462,33.1228761 86.694475,35.9625044 92.0346327,38.9725398" id="Fill-24" fill="#D8DAE1"></path>
                                <polyline id="Fill-25" fill="#D8DAE1" points="76.3209442 39.9016991 78.8639481 38.4671947 78.8639481 31.1455664 76.3209442 32.5800708 76.3209442 39.9016991"></polyline>
                                <polyline id="Fill-26" fill="#F1F2F5" points="76.3209442 30.1099027 78.8639481 28.6761327 78.8639481 13.6399115 76.3209442 15.0736814 76.3209442 30.1099027"></polyline>
                                <polyline id="Fill-27" fill="#D8DAE1" points="76.3209442 28.5512655 78.8639481 27.1167611 78.8639481 13.6399115 76.3209442 15.0736814 76.3209442 28.5512655"></polyline>
                                <polyline id="Fill-28" fill="#D8DAE1" points="76.3209442 21.0827345 78.8639481 19.6489646 78.8639481 13.6399115 76.3209442 15.0736814 76.3209442 21.0827345"></polyline>
                                <polyline id="Fill-29" fill="#F1F2F5" points="92.0346327 41.4419735 94.5783885 40.007469 94.5783885 37.5380354 92.0346327 38.9725398 92.0346327 41.4419735"></polyline>
                                <path d="M87.8975519,46.4315221 L87.8975519,39.1091593 L76.3209442,32.5800708 L76.3209442,39.9016991 L87.8975519,46.4315221 Z M76.3209442,15.0736814 L76.3209442,30.1113717 L92.0346327,38.9725398 L92.0346327,41.4419735 L90.0864,40.3438761 L90.0864,50.133469 L74.1328481,41.1364159 C74.1328481,32.0372655 74.1328481,22.9388496 74.1328481,13.8411681 L76.3209442,15.0736814 Z" id="Fill-30" fill="#E2E4EA"></path>
                                <path d="M82.9205731,24.0538407 L82.9205731,19.0679646 L22.4418962,53.177292 L22.4418962,58.1631681 L82.9205731,24.0538407 Z M22.4418962,51.0376549 L22.4418962,46.0510442 L82.9205731,11.9431858 L82.9205731,16.9283274 L22.4418962,51.0376549 Z" id="Fill-31" fill="#F1F2F5"></path>
                                <polyline id="Fill-32" fill="#F9F9F9" points="22.4418962 46.0510442 82.9205731 11.9431858 81.4077038 11.0904159 20.9305308 45.1982743 22.4418962 46.0510442"></polyline>
                                <polyline id="Fill-33" fill="#F9F9F9" points="22.4418962 53.177292 82.9205731 19.0679646 81.4077038 18.2166637 20.9305308 52.3245221 22.4418962 53.177292"></polyline>
                                <polyline id="Fill-35" fill="#F1F2F5" points="36.9464923 70.3832655 97.4244173 36.2746726 97.4244173 34.5691327 36.9464923 68.6784602 36.9464923 70.3832655"></polyline>
                                <polyline id="Fill-36" fill="#F1F2F5" points="32.8109154 68.0504513 93.2888404 33.9425929 93.2888404 32.2377876 32.8109154 66.3463805 32.8109154 68.0504513"></polyline>
                                <polyline id="Fill-37" fill="#F1F2F5" points="28.6753385 65.7191062 89.1525115 31.6097788 89.1525115 29.905708 28.6753385 64.0135664 28.6753385 65.7191062"></polyline>
                                <polyline id="Fill-38" fill="#F1F2F5" points="24.5382577 63.386292 85.0169346 29.2762301 85.0169346 27.5728938 24.5382577 61.6814867 24.5382577 63.386292"></polyline>
                                <path d="M93.2888404,32.2377876 L91.0999923,31.0030708 L30.6220673,65.1123982 L32.8109154,66.3463805 L93.2888404,32.2377876 Z M28.6753385,64.0135664 L89.1525115,29.905708 L86.9651673,28.6709912 L26.4864904,62.7810531 L28.6753385,64.0135664 Z M24.5382577,61.6814867 L85.0169346,27.5728938 L82.8280865,26.3374425 L22.3516654,60.4475044 L24.5382577,61.6814867 Z M36.9464923,68.6784602 L34.7583962,67.4452124 L95.2355692,33.335885 L97.4244173,34.5691327 L36.9464923,68.6784602 Z" id="Fill-39" fill="#FDFDFD"></path>
                                <path d="M20.9305308,50.184885 L20.9305308,45.1982743 L22.4418962,46.0510442 L22.4418962,51.0376549 L20.9305308,50.184885 Z M22.4418962,58.1631681 L20.9305308,57.3111327 L20.9305308,52.3245221 L22.4418962,53.177292 L22.4418962,58.1631681 Z M24.5382577,61.6814867 L24.5382577,63.386292 L22.3516654,62.1508407 L22.3516654,60.4475044 L24.5382577,61.6814867 Z M28.6753385,64.0135664 L28.6753385,65.7191062 L26.4864904,64.4843894 L26.4864904,62.7810531 L28.6753385,64.0135664 Z M32.8109154,66.3463805 L32.8109154,68.0504513 L30.6220673,66.8179381 L30.6220673,65.1123982 L32.8109154,66.3463805 Z M36.9464923,68.6784602 L36.9464923,70.3832655 L34.7583962,69.1492832 L34.7583962,67.4452124 L36.9464923,68.6784602 Z" id="Fill-40" fill="#E2E4EA"></path>
                            </g>
                        </g>
                    </g>
                    <g id="Group-9" transform="translate(497.000000, 1065.000000)">
                        <g id="Group-7">
                            <g id="shutterstock_594282662-[преобразованный]-01">
                                <path d="M232.851919,183.376405 L211.985594,183.376405 C209.625305,184.735405 207.268436,186.090996 204.913278,187.446586 L208.452002,189.484234 L220.101226,189.484234 C219.574437,189.922456 219.044227,190.364089 218.512307,190.804016 C218.626901,191.214956 218.732943,191.625896 218.840695,192.035131 C218.955289,192.446071 219.064751,192.853601 219.172504,193.262835 L220.246606,193.881803 C221.110335,194.030151 221.974064,194.181909 222.832662,194.330256 C223.696391,194.480309 224.56012,194.632067 225.42727,194.780414 C226.809237,194.632067 228.196334,194.480309 229.573169,194.330256 C230.956846,194.181909 232.343944,194.030151 233.720779,193.881803 C235.260098,193.470863 236.787445,193.063333 238.321633,192.652394 C239.859241,192.244864 241.393429,191.832219 242.924197,191.421279 C244.201831,190.861991 245.470915,190.304409 246.739998,189.745121 C248.019343,189.185834 249.295267,188.626546 250.572902,188.063848 C251.241651,187.504561 251.908689,186.945273 252.574017,186.387691 C253.247896,185.828403 253.923486,185.269116 254.592235,184.708123 C254.484483,184.297183 254.37331,183.889654 254.260426,183.478714 C254.150964,183.071184 254.041501,182.661949 253.928618,182.251009 L252.854515,181.633747 C251.995917,181.485399 251.132188,181.333641 250.268459,181.181883 C249.409861,181.033536 248.547842,180.885188 247.684113,180.735135 C246.297016,180.885188 244.909918,181.033536 243.529662,181.181883 C242.151116,181.333641 240.762309,181.485399 239.380342,181.633747 C237.847864,182.044687 236.318808,182.452216 234.779489,182.861451 L232.851919,183.376405 Z M69.932101,96.3338699 L60.7594698,96.3338699 C58.3991805,97.6911653 56.042312,99.0467555 53.6871539,100.402346 L57.224167,102.439994 L63.0325309,102.439994 C63.1368625,102.815126 63.2360631,103.190258 63.336974,103.56539 L64.4110766,104.182652 C65.2748056,104.332705 66.1368243,104.484463 66.9954223,104.63281 C67.8591513,104.782863 68.72117,104.934621 69.5883197,105.081264 C70.9719965,104.934621 72.359094,104.782863 73.7376397,104.63281 C75.1196062,104.484463 76.5067037,104.332705 77.8852494,104.182652 C79.4228581,103.775123 80.951915,103.365888 82.4843926,102.954948 C84.0220013,102.545713 85.5561893,102.136478 87.088667,101.723833 C88.3663018,101.166251 89.6353848,100.605258 90.9044679,100.04597 C92.1803923,99.4883881 93.4580271,98.9273954 94.7356619,98.3664027 C95.4061209,97.8071152 96.0714488,97.2495328 96.7367767,96.6902452 C97.4123667,96.1292525 98.0862464,95.569965 98.7567054,95.0089723 C98.6472427,94.6014426 98.53778,94.1922078 98.4231862,93.782973 C98.3137236,93.3720331 98.2042609,92.9645035 98.0896671,92.5535635 L97.0172748,91.9345959 C96.1586769,91.7879534 95.2966582,91.6361955 94.4329292,91.4861428 C93.5743312,91.3377952 92.7106022,91.1860373 91.8468732,91.0359845 C90.4597757,91.1860373 89.0743885,91.3377952 87.6907117,91.4861428 C86.3138764,91.6361955 84.9267789,91.7879534 83.5431021,91.9345959 C82.0106244,92.347241 80.4815675,92.7547706 78.9439588,93.1640054 C77.4114812,93.5732402 75.8824243,93.9841802 74.3431052,94.3917098 C73.0706015,94.9527025 71.8015184,95.51199 70.5238836,96.0712776 L69.932101,96.3338699 Z" id="Fill-2" fill="#E7E7EF"></path>
                                <path d="M147.657711,135.861621 L156.98585,130.49288 L142.355063,130.49288 L133.026924,135.861621 L147.657711,135.861621 Z M215.069021,172.0873 C218.911188,172.929545 223.150556,174.434316 224.453685,175.183655 C226.325118,176.26045 224.800473,175.387744 224.959354,175.489788 L225.414609,175.235439 L225.379471,175.214116 C222.458508,173.534195 217.942626,172.085777 213.918663,171.424775 L215.069021,172.0873 Z M187.477223,112.942806 L190.598315,112.942806 L191.927415,113.707376 L195.415155,111.699999 L206.397793,111.699999 L232.348841,122.183134 L232.351896,122.180088 L255.866262,127.905222 L300,153.308128 L266.711407,172.468062 L246.892549,182.610034 L230.805863,182.610034 L228.164469,184.131558 L225.043377,184.131558 L218.118311,180.145743 L220.393057,178.835923 L219.639901,178.552636 C218.83022,178.415562 218.023594,178.257165 217.226134,178.074399 L207.9148,183.434002 L204.233042,183.434002 L175.419084,200.015418 C165.731935,205.592817 156.044786,211.168693 146.354582,216.746092 C144.866602,216.746092 143.338902,216.746092 141.811201,216.746092 L140.194894,215.813987 C149.885098,210.236588 159.572247,204.660712 169.260923,199.086359 L196.457046,183.434002 L172.635613,183.434002 L164.298952,178.633357 L173.851663,173.135157 L154.744713,173.135157 L140.280445,164.808657 L153.711988,157.077669 L178.040618,157.077669 L167.459764,150.987003 L168.781225,150.227003 L171.902317,150.227003 L171.909956,150.231572 L173.596537,150.231572 C178.155195,150.231572 178.705167,148.410008 174.881333,146.148282 L174.407746,146.420908 C177.290517,148.297302 176.667215,149.774658 172.805188,149.774658 C171.708299,149.774658 170.461696,149.657383 169.157039,149.442634 L164.853507,151.919108 L162.219752,153.436063 L142.408532,153.436063 L139.773249,151.919108 L117.88894,151.919108 L103.423144,143.594132 L112.975855,138.094408 L93.8689057,138.094408 L85.5322444,133.29681 L98.9637867,125.564299 L134.242973,125.564299 L137.275459,127.309711 L162.514598,127.309711 L187.477223,112.942806 Z" id="Fill-3" fill="#EAEAF1"></path>
                                <polyline id="Fill-48" fill="#F6F3F3" points="82.1850806 80.8716154 91.6108443 75.4475492 134.799006 100.306858 148.339882 92.51264 105.14659 67.6516265 114.757072 62.1218413 76.0637218 58.5990118 82.1850806 80.8716154"></polyline>
                                <polyline id="Fill-51" fill="#F8F8F8" points="89.5532878 1.68809351 87.7420224 0.649660231 83.3566734 3.17497992 85.1679389 4.21341321 89.5532878 1.68809351"></polyline>
                                <polyline id="Fill-52" fill="#EAEAEA" points="85.1662285 79.1579447 85.1662285 4.2168235 83.3566734 3.17497992 83.3566734 78.1161011 85.1662285 79.1579447"></polyline>
                                <polyline id="Fill-53" fill="#CECECE" points="89.5515774 76.632625 89.5515774 1.6915038 85.1662285 4.2168235 85.1662285 79.1579447 89.5515774 76.632625"></polyline>
                                <path d="M88.7117934,9.19414165 L88.7117934,3.14258217 L86.0043022,6.87343935 L86.0043022,12.9249988 L88.7117934,9.19414165 Z M88.7117934,25.1560037 C88.7117934,23.1388172 88.7117934,21.1233358 88.7117934,19.1061493 C87.8104366,20.3492 86.9073694,21.5939558 86.0043022,22.8370065 C86.0043022,24.854193 86.0043022,26.8696743 86.0043022,28.888566 C86.9073694,27.6438102 87.8104366,26.4007595 88.7117934,25.1560037 Z M88.7117934,41.121276 C88.7117934,39.1040895 88.7117934,37.086903 88.7117934,35.0680113 C87.8104366,36.3127672 86.9073694,37.5558178 86.0043022,38.8005737 C86.0043022,40.8177602 86.0043022,42.8349467 86.0043022,44.8521331 C86.9073694,43.6090825 87.8104366,42.3643266 88.7117934,41.121276 Z M88.7117934,57.0848431 C88.7117934,55.0676566 88.7117934,53.0504701 88.7117934,51.0332836 C87.8104366,52.2763343 86.9073694,53.5210901 86.0043022,54.7641408 C86.0043022,56.7813273 86.0043022,58.7985138 86.0043022,60.8157003 C86.9073694,59.5726496 87.8104366,58.3278938 88.7117934,57.0848431 Z M88.7117934,73.0484103 L88.7117934,66.9968508 L86.0043022,70.727708 L86.0043022,76.7792675 L88.7117934,73.0484103 Z" id="Fill-54" fill="#ED9842"></path>
                                <polyline id="Fill-57" fill="#F4F4F4" points="86.4985947 110.474637 78.259817 115.216645 78.2581067 121.92298 209.464532 197.443851 221.115466 197.443851 229.355954 192.701843 229.355954 185.995508 98.1512399 110.474637 86.4985947 110.474637"></polyline>
                                <polyline id="Fill-58" fill="#FACB3C" points="44.3794047 83.7788875 36.1406271 88.5226008 36.1406271 95.228936 203.645906 191.644653 215.298551 191.644653 223.537328 186.902645 223.537328 180.194604 56.0337603 83.7788875 44.3794047 83.7788875"></polyline>
                                <polyline id="Fill-59" fill="#FFDD00" points="44.3794047 83.7788875 36.1406271 88.5226008 36.1406271 95.228936 203.645906 191.644653 215.300261 191.644653 223.537328 186.902645 223.537328 180.194604 56.0337603 83.7788875 44.3794047 83.7788875"></polyline>
                                <path d="M78.4462457,96.6817195 L66.1847142,89.6224193 L64.7052576,90.2720796 L64.1134749,90.5329667 L54.9408437,90.5329667 L51.405541,96.6390909 L57.2139049,96.6390909 L57.518348,97.7644865 L58.5924506,98.3834542 L61.1767963,98.8319073 L63.771404,99.2820656 L67.9190137,98.8319073 L72.0666234,98.3834542 L76.6657666,97.1540446 L78.4462457,96.6817195 Z M220.002026,188.936883 L223.537328,186.902645 L223.537328,180.194604 L218.989496,177.577207 L206.166968,177.577207 L202.631665,183.683331 L214.2826,183.683331 L212.693681,185.004818 L213.023779,186.234228 L213.355588,187.461932 L214.429691,188.079195 L217.014036,188.531058 L219.606934,188.981216 L220.002026,188.936883 Z" id="Fill-61" fill="#D6BA04"></path>
                                <polyline id="Fill-62" fill="#EDE5D6" points="50.3331487 54.5578183 53.2493031 53.7802722 56.1671679 53.0010209 58.3016903 54.2287253 60.4379231 55.4581348 61.9994768 61.2743843 60.4379231 68.8895617 56.1671679 76.2643137 50.3331487 81.4206721 47.4152839 82.2016284 44.4991295 82.9808797 42.3628967 81.7514702 40.2283743 80.5220607 38.6651103 74.7058112 40.2283743 67.0906338 42.3628967 63.4024052 44.4991295 59.7158818 47.4152839 57.1359975 50.3331487 54.5578183"></polyline>
                                <polyline id="Fill-63" fill="#CECECE" points="51.405541 55.1750808 54.3234058 54.3958295 57.2395602 53.6182834 59.375793 54.8476929 61.5103154 56.0753973 63.0735794 61.8916468 61.5103154 69.5085293 57.2395602 76.8815762 54.3234058 79.4614605 51.405541 82.0396397 48.4893866 82.8188909 45.5715218 83.5981422 43.4369994 82.3687327 41.302477 81.1393231 39.7392129 75.3230737 41.302477 67.7078962 45.5715218 60.3331443 48.4893866 57.7549651 51.405541 55.1750808"></polyline>
                                <polyline id="Fill-64" fill="#F6F0E5" points="44.4991295 59.7158818 45.5715218 60.3331443 41.302477 67.7078962 40.2283743 67.0906338 44.4991295 59.7158818"></polyline>
                                <polyline id="Fill-65" fill="#F6F0E5" points="44.4991295 59.7158818 45.5715218 60.3331443 51.405541 55.1750808 50.3331487 54.5578183 44.4991295 59.7158818"></polyline>
                                <g id="Group-41" transform="translate(148.000000, 60.000000)">
                                    <polyline id="Fill-98" fill="#F3ECE1" points="54.0911933 31.0001765 63.6469439 36.4975638 10.059827 67.3436362 0.5040764 61.8445437 54.0911933 31.0001765"></polyline>
                                    <polyline id="Fill-99" fill="#7F766F" points="118.884553 57.7368495 68.2546389 86.8777769 68.2546389 102.61797 118.884553 73.4753375 118.884553 57.7368495"></polyline>
                                    <path d="M81.4825206,110.720819 C80.1740994,111.471083 78.3679651,111.363659 76.3719814,110.214391 C74.377708,109.065123 72.5715737,107.093976 71.2648628,104.836364 C69.9547313,102.580457 69.147444,100.034675 69.147444,97.7361401 C69.147444,95.441015 69.9547313,93.8262427 71.2648628,93.0725686 C73.1855909,91.9659295 74.4683568,91.2276018 76.3959263,90.1209627 C77.7026372,89.3655835 79.5087715,89.4747127 81.5030449,90.6222753 C83.4990286,91.7698379 85.3068733,93.7443957 86.6135841,96.0020077 C87.9220053,98.2613247 88.731003,100.807106 88.731003,103.103936 C88.731003,105.399062 87.9220053,107.015539 86.6135841,107.765803 C84.6672007,108.884378 83.4118005,109.612475 81.4825206,110.720819" id="Fill-100" fill="#1D1A0F"></path>
                                    <path d="M76.3719814,93.5755864 C80.3622384,95.8741218 83.5999395,101.461882 83.5999395,106.055542 C83.5999395,110.650908 80.3622384,112.511221 76.3719814,110.214391 C72.3817243,107.917561 69.147444,102.331506 69.147444,97.7361401 C69.147444,93.1424795 72.3817243,91.2787561 76.3719814,93.5755864" id="Fill-101" fill="#5B5E74"></path>
                                    <path d="M81.9579992,110.388316 C80.6341848,111.483019 78.6228079,111.508596 76.3719814,110.214391 C72.3817243,107.917561 69.147444,102.331506 69.147444,97.7361401 C69.147444,96.3481521 69.4433353,95.2091152 69.9667038,94.3582479 L77.3793802,98.6262258 L81.9579992,110.388316" id="Fill-102" fill="#3D3E4C"></path>
                                    <path d="M76.3719814,97.6440623 C78.4124343,98.817202 80.0663471,101.67332 80.0663471,104.021304 C80.0663471,106.369289 78.4124343,107.319055 76.3719814,106.145915 C74.3349492,104.972775 72.679326,102.118363 72.679326,99.770378 C72.679326,97.4223934 74.3349492,96.4709225 76.3719814,97.6440623" id="Fill-103" fill="#1D1E23"></path>
                                    <path d="M79.9158359,105.13988 C79.4643023,106.640407 78.0498391,107.109322 76.3719814,106.145915 C74.3349492,104.972775 72.679326,102.118363 72.679326,99.770378 C72.679326,98.0686433 73.5498965,97.100121 74.8035863,97.1444548 L77.3793802,98.6262258 L79.9158359,105.13988" id="Fill-104" fill="#16171A"></path>
                                    <polyline id="Fill-105" fill="#7F766F" points="56.786712 28.1883924 11.540994 54.2310715 11.540994 69.9729698 56.786712 43.9285856 56.786712 28.1883924"></polyline>
                                    <polyline id="Fill-106" fill="#F3ECE1" points="134.799402 77.4534407 144.353442 82.9525332 90.7663249 113.796901 83.0132879 109.334536 134.799402 77.4534407"></polyline>
                                    <polyline id="Fill-107" fill="#CCC4B7" points="134.799402 77.4534407 144.353442 82.9525332 93.7252382 112.095166 90.7663249 112.095166 90.7663249 102.79701 134.799402 77.4534407"></polyline>
                                    <polyline id="Fill-111" fill="#318CA1" points="141.397949 62.0457508 90.7663249 91.1866783 90.7663249 112.095166 141.397949 82.9508281 141.397949 62.0457508"></polyline>
                                    <polyline id="Fill-112" fill="#A4D7EA" points="74.4871707 23.5350518 23.8555464 52.6759793 3.46127933 49.5862566 54.0894829 20.4470343 74.4871707 23.5350518"></polyline>
                                    <polyline id="Fill-113" fill="#CECECE" points="144.355152 82.9525332 90.7663249 113.796901 90.7663249 117.280512 144.355152 86.4361444 144.355152 82.9525332"></polyline>
                                    <polyline id="Fill-114" fill="#DFDFDF" points="83.0132879 109.334536 90.7663249 113.796901 90.7663249 117.280512 83.0132879 112.816442 83.0132879 109.334536"></polyline>
                                    <polyline id="Fill-115" fill="#DFDFDF" points="26.299643 76.6912409 66.7734719 99.9903417 66.7734719 103.473953 26.299643 80.1731469 26.299643 76.6912409"></polyline>
                                    <polyline id="Fill-116" fill="#D7CAB8" points="0.505786754 61.8445437 10.059827 67.3436362 10.059827 70.8272474 0.505786754 65.3264497 0.505786754 61.8445437"></polyline>
                                    <polyline id="Fill-117" fill="#000000" points="11.540994 66.4910638 10.059827 67.3436362 10.059827 70.8272474 11.540994 69.9729698 11.540994 66.4910638"></polyline>
                                    <polyline id="Fill-118" fill="#000000" points="68.2546389 99.1360641 66.7734719 99.9903417 66.7734719 103.473953 68.2546389 102.61797 68.2546389 99.1360641"></polyline>
                                    <polyline id="Fill-119" fill="#F3ECE1" points="27.7773893 75.8403736 68.2546389 99.1360641 66.7768926 99.9869314 26.299643 76.6912409 27.7773893 75.8403736"></polyline>
                                    <polyline id="Fill-120" fill="#B4A59B" points="39.4574002 82.562055 66.7426855 98.2664402 65.490706 98.9877165 67.9980857 98.9877165 68.2546389 99.1360641 66.7768926 99.9869314 37.9796539 83.4129224 39.4574002 82.562055"></polyline>
                                    <polyline id="Fill-121" fill="#FFAB57" points="101.464592 91.9812758 93.5285474 96.5510643 93.5285474 103.813277 101.464592 99.2434882 101.464592 91.9812758"></polyline>
                                    <polyline id="Fill-122" fill="#ED9842" points="92.0490907 95.6984918 93.5285474 96.5510643 93.5285474 103.813277 92.0490907 102.960704 92.0490907 95.6984918"></polyline>
                                    <polyline id="Fill-123" fill="#ED9842" points="92.0490907 95.6984918 93.2873874 96.4129476 93.2873874 103.67516 92.0490907 102.960704 92.0490907 95.6984918"></polyline>
                                    <g id="Group-40" transform="translate(12.000000, 56.000000)">
                                        <path d="M12.4825206,21.720819 C11.1740994,22.4710828 9.36796508,22.3636586 7.37198138,21.2143909 C5.37770803,20.0651232 3.57157368,18.0939756 2.26486284,15.8363637 C0.95473129,13.5804569 0.147443966,11.0346755 0.147443966,8.73614008 C0.147443966,6.44101496 0.95473129,4.82624268 2.26486284,4.0725686 C4.18559094,2.96592952 5.46835682,2.22760175 7.39592634,1.12096267 C8.70263718,0.36558345 10.5087715,0.474712728 12.5030449,1.62227529 C14.4990286,2.76983785 16.3068733,4.74439572 17.6135841,7.00200765 C18.9220053,9.26132473 19.731003,11.8071062 19.731003,14.1039364 C19.731003,16.3990616 18.9220053,18.015539 17.6135841,18.7658028 C15.6672007,19.8843779 14.4118005,20.6124748 12.4825206,21.720819" id="Fill-100" fill="#1D1A0F"></path>
                                        <path d="M7.37198138,4.57558637 C11.3622384,6.87412178 14.5999395,12.4618818 14.5999395,17.0555424 C14.5999395,21.650908 11.3622384,23.5112212 7.37198138,21.2143909 C3.38172433,18.9175607 0.147443966,13.3315058 0.147443966,8.73614008 C0.147443966,4.14247955 3.38172433,2.2787561 7.37198138,4.57558637" id="Fill-101" fill="#5B5E74"></path>
                                        <path d="M12.9579992,21.3883157 C11.6341848,22.4830188 9.6228079,22.508596 7.37198138,21.2143909 C3.38172433,18.9175607 0.147443966,13.3315058 0.147443966,8.73614008 C0.147443966,7.34815208 0.443335295,6.20911524 0.966703772,5.35824791 L8.37938018,9.62622575 L12.9579992,21.3883157" id="Fill-102" fill="#3D3E4C"></path>
                                        <path d="M7.37198138,8.64406225 C9.4124343,9.81720199 11.0663471,12.6733198 11.0663471,15.0213044 C11.0663471,17.369289 9.4124343,18.3190548 7.37198138,17.145915 C5.33494917,15.9727753 3.67932601,13.1183626 3.67932601,10.770378 C3.67932601,8.42239341 5.33494917,7.47092252 7.37198138,8.64406225" id="Fill-103" fill="#1D1E23"></path>
                                        <path d="M7.37198138,10.5879275 C6.26709237,9.95190844 5.36915626,10.4685674 5.36915626,11.7423107 C5.36915626,13.0143488 6.26709237,14.5643256 7.37198138,15.2003446 C8.4802911,15.8380689 9.37651686,15.3231151 9.37651686,14.0493718 C9.37651686,12.7739234 8.4802911,11.2239466 7.37198138,10.5879275 Z M7.37198138,9.593828 C8.95576965,10.5043754 10.2402459,12.7210639 10.2402459,14.5472741 C10.2402459,16.3683689 8.95576965,17.1066967 7.37198138,16.1961493 C5.78990347,15.2838967 4.50713759,13.0672083 4.50713759,11.2444083 C4.50713759,9.4233135 5.78990347,8.68328059 7.37198138,9.593828 Z" id="Fill-146" fill="#000000"></path>
                                        <path d="M7.37198138,10.5879275 C6.26709237,9.95190844 5.36915626,10.4685674 5.36915626,11.7423107 C5.36915626,13.0143488 6.26709237,14.5643256 7.37198138,15.2003446 C8.4802911,15.8380689 9.37651686,15.3231151 9.37651686,14.0493718 C9.37651686,12.7739234 8.4802911,11.2239466 7.37198138,10.5879275 Z M7.37198138,9.593828 C7.93981907,9.92121583 8.46831862,10.4157079 8.91472114,10.9988674 L10.2368252,14.3989265 L10.2402459,14.5472741 C10.2402459,16.3683689 8.95576965,17.1066967 7.37198138,16.1961493 C5.78990347,15.2838967 4.50713759,13.0672083 4.50713759,11.2444083 C4.50713759,9.4233135 5.78990347,8.68328059 7.37198138,9.593828 Z" id="Fill-147" fill="#1F2024"></path>
                                    </g>
                                    <polyline id="Fill-124" fill="#ED9842" points="99.9885563 91.1304085 92.0490907 95.6984918 93.5285474 96.5510643 101.466303 91.9812758 99.9885563 91.1304085"></polyline>
                                    <polyline id="Fill-125" fill="#FFAB57" points="141.59293 68.8850873 133.656885 73.4548758 133.656885 80.7170882 141.59293 76.1472997 141.59293 68.8850873"></polyline>
                                    <polyline id="Fill-126" fill="#ED9842" points="132.175718 72.6023033 133.656885 73.4548758 133.656885 80.7170882 132.175718 79.8645157 132.175718 72.6023033"></polyline>
                                    <polyline id="Fill-127" fill="#ED9842" points="140.116894 68.0342199 132.175718 72.6023033 133.656885 73.4548758 141.59464 68.8850873 140.116894 68.0342199"></polyline>
                                    <path d="M90.7663249,91.1866783 L56.4617446,62.2520734 L23.8555464,52.6759793 L3.46127933,49.5862566 L3.46127933,61.8462489 L11.5392836,66.4961792 L11.5392836,64.6085837 C11.5392836,59.4454048 15.1754973,57.3531919 19.6583365,59.9313711 C24.1394653,62.5129606 27.7756789,68.7964197 27.7756789,73.9527781 L27.7756789,75.8403736 L68.2546389,99.1377692 L68.2546389,97.2501738 C68.2546389,92.0887 71.8908526,89.9947819 76.3719814,92.5763714 C80.8548205,95.1562557 84.4910342,101.43801 84.4910342,106.596073 L84.4910342,108.481964 L90.7663249,112.095166 L90.7663249,91.1866783" id="Fill-128" fill="#B4EBFF"></path>
                                    <path d="M68.0459757,99.0167039 L68.2546389,99.1377692 L68.2546389,97.2501738 C68.2546389,95.8673012 68.5180335,94.7043923 68.9849603,93.7938449 L68.0459757,93.2516088 L68.0459757,99.0167039 Z M62.2940535,79.4109471 L58.6116602,77.2880417 L54.4024778,66.4740123 L38.207131,57.1536899 L38.207131,79.2625995 L39.500159,82.5876322 L66.783734,98.2903122 L60.4468706,82.0095881 L61.524394,82.6285557 L62.2752396,84.5570747 L63.3852596,85.196504 L63.3835493,82.2039746 L62.2940535,79.4109471 Z" id="Fill-129" fill="#318CA1"></path>
                                    <path d="M61.1840334,80.0503765 L55.2302894,76.6230351 L55.2302894,78.1167421 L60.077434,80.9097696 L60.077434,82.4051817 L61.1857438,83.0446111 C61.1857438,82.0419858 61.1840334,81.0495915 61.1840334,80.0503765" id="Fill-130" fill="#3E3C34"></path>
                                    <polyline id="Fill-131" fill="#F8F8F8" points="121.675851 20.7062163 78.5475523 45.5280116 43.5810649 25.4004804 86.709364 0.580390297 121.675851 20.7062163"></polyline>
                                    <polyline id="Fill-132" fill="#EAEAEA" points="78.5475523 45.5280116 90.7663249 91.1883834 23.8555464 52.6759793 43.5810649 25.4021855 78.5475523 45.5280116"></polyline>
                                    <polyline id="Fill-133" fill="#5B5E74" points="26.999178 54.4817278 79.1838042 81.9635492 78.8143676 79.5405382 73.7038284 46.145274 73.6285728 45.6456666 45.2178741 29.2916212 26.999178 54.4817278"></polyline>
                                    <polyline id="Fill-134" fill="#3E404E" points="26.999178 54.4817278 32.9837084 55.3735186 48.4709684 33.958603 74.0954995 48.7081069 73.7038284 46.145274 73.6285728 45.6456666 45.2178741 29.2916212 26.999178 54.4817278"></polyline>
                                    <polyline id="Fill-135" fill="#CECECE" points="121.675851 20.7062163 78.5492627 45.5263064 90.7714559 91.1883834 141.39966 62.047456 121.675851 20.7062163"></polyline>
                                    <polyline id="Fill-136" fill="#5B5E74" points="120.552149 24.3006619 81.5321209 46.7608314 92.3843202 87.3108838 138.07131 61.0141381 120.552149 24.3006619"></polyline>
                                    <polyline id="Fill-137" fill="#F3ECE1" points="79.6131032 84.7651023 26.999178 54.4817278 28.4769243 53.6325656 29.2175078 53.2062793 79.1838042 81.9635492 79.6131032 84.7651023"></polyline>
                                    <polyline id="Fill-138" fill="#C3BDB4" points="56.2650539 71.3268549 38.1643722 60.9084191 41.9733316 60.9084191 58.1703888 70.2304467 56.2650539 71.3268549"></polyline>
                                    <polyline id="Fill-139" fill="#7F766F" points="46.1312034 29.8168059 45.2178741 29.2916212 26.999178 54.4817278 29.2175078 53.2062793 46.1312034 29.8168059"></polyline>
                                    <polyline id="Fill-140" fill="#C3BDB4" points="29.2175078 53.2062793 33.1581645 55.4741221 28.0835427 54.6573577 28.7009807 55.0358999 28.3298338 55.249043 26.999178 54.4817278 27.4096631 54.2447126 29.2175078 53.2062793"></polyline>
                                    <polyline id="Fill-141" fill="#625B50" points="56.3385991 75.9853109 62.2940535 79.4109471 61.1840334 80.0486714 55.2302894 76.6247403 56.3385991 75.9853109"></polyline>
                                    <polyline id="Fill-142" fill="#000000" points="56.3385991 75.9853109 58.6082395 77.2897468 57.4982195 77.927471 55.2302894 76.6247403 56.3385991 75.9853109"></polyline>
                                    <polyline id="Fill-143" fill="#000000" points="62.2940535 79.4109471 61.1840334 80.0486714 61.1840334 83.0446111 62.2940535 82.4068869 62.2940535 79.4109471"></polyline>
                                    <polyline id="Fill-144" fill="#CECECE" points="125.18892 85.2612995 109.932557 94.0410909 109.932557 99.2315522 125.18892 90.4517608 125.18892 85.2612995"></polyline>
                                    <polyline id="Fill-145" fill="#F8F8F8" points="123.711173 84.4104322 108.453101 93.1885185 109.932557 94.0410909 125.18892 85.2612995 123.711173 84.4104322"></polyline>
                                    <path d="M76.3719814,99.5879275 C75.2670924,98.9519084 74.3691563,99.4685674 74.3691563,100.742311 C74.3691563,102.014349 75.2670924,103.564326 76.3719814,104.200345 C77.4802911,104.838069 78.3765169,104.323115 78.3765169,103.049372 C78.3765169,101.773923 77.4802911,100.223947 76.3719814,99.5879275 Z M76.3719814,98.593828 C77.9557696,99.5043754 79.2402459,101.721064 79.2402459,103.547274 C79.2402459,105.368369 77.9557696,106.106697 76.3719814,105.196149 C74.7899035,104.283897 73.5071376,102.067208 73.5071376,100.244408 C73.5071376,98.4233135 74.7899035,97.6832806 76.3719814,98.593828 Z" id="Fill-146" fill="#000000"></path>
                                    <path d="M76.3719814,99.5879275 C75.2670924,98.9519084 74.3691563,99.4685674 74.3691563,100.742311 C74.3691563,102.014349 75.2670924,103.564326 76.3719814,104.200345 C77.4802911,104.838069 78.3765169,104.323115 78.3765169,103.049372 C78.3765169,101.773923 77.4802911,100.223947 76.3719814,99.5879275 Z M76.3719814,98.593828 C76.9398191,98.9212158 77.4683186,99.4157079 77.9147211,99.9988674 L79.2368252,103.398927 L79.2402459,103.547274 C79.2402459,105.368369 77.9557696,106.106697 76.3719814,105.196149 C74.7899035,104.283897 73.5071376,102.067208 73.5071376,100.244408 C73.5071376,98.4233135 74.7899035,97.6832806 76.3719814,98.593828 Z" id="Fill-147" fill="#1F2024"></path>
                                    <path d="M19.6583365,65.9726997 C21.2421247,66.8849522 22.526601,69.0999355 22.526601,70.9244407 C22.526601,72.7472406 21.2421247,73.4872735 19.6583365,72.575021 C18.0745482,71.6644736 16.790072,69.4477851 16.790072,67.62328 C16.790072,65.8021852 18.0745482,65.0621523 19.6583365,65.9726997" id="Fill-148" fill="#000000"></path>
                                    <polyline id="Fill-150" fill="#F4F4F4" points="108.453101 93.1885185 109.932557 94.0410909 109.932557 99.2315522 108.453101 98.3806849 108.453101 93.1885185"></polyline>
                                    <path d="M23.8572568,52.6776844 C25.8344266,57.7504907 27.8081757,62.8250021 29.778504,67.8892826 L31.3622923,68.79983 C31.3622923,66.8798368 31.3622923,64.9581384 31.3622923,63.0381452 L28.3315441,55.2507481 L28.3298338,55.249043 L26.999178,54.4817278 L27.3994009,53.9292608 C27.1907377,53.7996698 26.9837848,53.6683736 26.7785423,53.5353723 L25.441045,52.6862101 L24.3156318,52.0416653 L23.8572568,52.672569 L23.8572568,52.6776844" id="Fill-151" fill="#318CA1"></path>
                                    <polyline id="Fill-152" fill="#000000" points="17.9325888 50.3228792 22.9268239 49.2708048 25.441045 52.6862101 25.441045 53.5865267 19.5180874 56.9968166 17.9325888 50.3228792"></polyline>
                                    <polyline id="Fill-153" fill="#AD9D92" points="20.0021177 51.5130704 22.7934163 49.9068238 24.9570147 52.8464937 24.9570147 53.308588 20.0021177 56.1595904 20.0021177 51.5130704"></polyline>
                                    <polyline id="Fill-154" fill="#625B50" points="17.9325888 50.3228792 21.3430356 48.3602573 22.9251136 49.2708048 19.5180874 51.2351318 17.9325888 50.3228792"></polyline>
                                    <polyline id="Fill-155" fill="#3E3C34" points="17.9325888 50.3228792 17.9325888 56.0862692 19.516377 56.9968166 19.5180874 51.2351318 17.9325888 50.3228792"></polyline>
                                </g>
                                <polyline id="Fill-66" fill="#CECECE" points="51.405541 75.5515631 58.4812776 71.4779718 58.4812776 92.5672047 51.405541 96.6390909 51.405541 75.5515631"></polyline>
                                <polyline id="Fill-67" fill="#EAEAEA" points="51.405541 75.5515631 47.8685279 73.5139149 47.8685279 94.6031478 51.405541 96.6390909 51.405541 75.5515631"></polyline>
                                <path d="M51.405541,75.5515631 L47.8685279,73.51562 L47.8685279,84.4370735 L49.089721,87.2045238 C49.8046492,88.2156747 50.5195774,89.2319411 51.2293745,90.2379767 L51.405541,90.488633 L51.405541,75.5515631" id="Fill-68" fill="#EAEAEA"></path>
                                <polyline id="Fill-69" fill="#F8F8F8" points="51.405541 75.5515631 47.8685279 73.5139149 54.9442645 69.4437338 58.4812776 71.4779718 51.405541 75.5515631"></polyline>
                                <polyline id="Fill-70" fill="#D6BA04" points="63.307898 110.86682 75.5728501 117.927826 95.464273 106.477777 83.1993208 99.416772 63.307898 110.86682"></polyline>
                                <polyline id="Fill-73" fill="#DDC001" points="203.645906 191.644653 203.645906 197.443851 36.1423374 101.029839 36.1406271 95.228936 203.645906 191.644653"></polyline>
                                <polyline id="Fill-74" fill="#D6BA04" points="75.5728501 117.927826 78.4821631 125.399771 66.2189213 118.342176 63.307898 110.86682 75.5728501 117.927826"></polyline>
                                <polyline id="Fill-75" fill="#D6BA04" points="192.496105 185.224782 195.403707 192.700138 191.050855 190.193574 188.141542 182.719924 192.496105 185.224782"></polyline>
                                <polyline id="Fill-78" fill="#D6BA04" points="99.5999101 108.86157 94.7527655 108.86157 79.7136183 117.518591 89.0470229 122.891503 123.972462 122.891503 99.5999101 108.86157"></polyline>
                                <polyline id="Fill-79" fill="#D6BA04" points="187.784078 159.62203 182.936933 159.62203 167.897786 168.277346 177.232901 173.650258 212.168602 173.650258 187.79434 159.62203 187.784078 159.62203"></polyline>
                                <polyline id="Fill-80" fill="#FFDD00" points="89.0470229 83.5145901 89.0470229 122.891503 79.7136183 117.518591 79.7136183 78.1416783 89.0470229 83.5145901"></polyline>
                                <polyline id="Fill-81" fill="#A99305" points="89.0470229 83.5145901 89.0470229 122.891503 104.08617 114.236187 104.08617 74.8592742 89.0470229 83.5145901"></polyline>
                                <polyline id="Fill-82" fill="#FDED87" points="89.0470229 83.5145901 104.08617 74.8592742 94.7527655 69.4846573 79.7136183 78.1416783 89.0470229 83.5145901"></polyline>
                                <polyline id="Fill-83" fill="#D6BA04" points="103.834748 75.0025064 104.08617 74.8592742 98.1478192 71.4404586 91.3560014 71.4404586 85.1662285 75.0042116 103.834748 75.0025064"></polyline>
                                <polyline id="Fill-171" fill="#FDED87" points="177.232901 134.273345 192.270338 125.616324 182.936933 120.245118 167.897786 128.900434 177.232901 134.273345"></polyline>
                                <polyline id="Fill-172" fill="#FFDD00" points="177.232901 134.273345 177.232901 173.650258 167.899496 168.277346 167.897786 128.900434 177.232901 134.273345"></polyline>
                                <polyline id="Fill-173" fill="#A99305" points="177.232901 134.273345 177.232901 173.650258 192.272048 164.993237 192.270338 125.616324 177.232901 134.273345"></polyline>
                                <polyline id="Fill-174" fill="#7E6D00" points="190.313692 143.655053 190.313692 134.280166 186.980211 132.361878 182.268185 135.073058 178.934704 140.827923 177.232901 149.128568 182.268185 152.122803 186.980211 149.411622 190.313692 143.655053"></polyline>
                                <polyline id="Fill-196" fill="#EAEAEA" points="116.058652 184.341517 116.056941 179.292583 114.247386 178.250739 114.247386 183.301379 116.058652 184.341517"></polyline>
                                <polyline id="Fill-197" fill="#CECECE" points="116.056941 179.292583 182.379358 141.117797 182.379358 146.166731 116.056941 184.341517 116.056941 179.292583"></polyline>
                                <polyline id="Fill-198" fill="#EAEAEA" points="116.058652 179.292583 181.139351 141.832253 179.329796 140.790409 114.247386 178.252444 116.058652 179.292583"></polyline>
                                <polyline id="Fill-199" fill="#AAAAAA" points="180.853721 141.997652 181.139351 141.832253 179.329796 140.790409 177.232901 141.997652 180.853721 141.997652"></polyline>
                                <polyline id="Fill-200" fill="#AAAAAA" points="184.240223 136.476393 184.296665 139.412652 181.139351 141.832253 179.329796 140.790409 182.430668 135.432844 184.240223 136.476393"></polyline>
                                <polyline id="Fill-201" fill="#AAAAAA" points="184.240223 136.476393 186.788652 135.540268 188.627283 133.951073 186.816017 132.909229 182.430668 135.432844 184.240223 136.476393"></polyline>
                                <path d="M175.045358,146.306553 L180.301277,143.281626 L178.413046,147.484809 L173.157126,150.509736 L175.045358,146.306553 Z M161.181224,154.286632 C162.932627,153.277186 164.68574,152.269445 166.435433,151.26 C165.807733,152.661629 165.178322,154.063258 164.548912,155.463182 C162.797509,156.472628 161.046106,157.480368 159.294703,158.489814 C159.924113,157.08648 160.553524,155.686556 161.181224,154.286632 Z M147.318801,162.26671 C149.070204,161.25897 150.821607,160.249524 152.57301,159.241783 C151.94531,160.641707 151.315899,162.043336 150.684778,163.44326 C148.935086,164.452706 147.183683,165.460447 145.430569,166.468187 C146.05998,165.066558 146.68768,163.666634 147.318801,162.26671 Z M133.454667,170.245084 C135.20607,169.237343 136.957473,168.229602 138.708876,167.221862 C138.079466,168.621786 137.451766,170.02171 136.822355,171.423339 C135.069242,172.432785 133.319549,173.43882 131.566436,174.448266 C132.195846,173.048342 132.825257,171.648418 133.454667,170.245084 Z M119.590534,178.226867 L124.844743,175.20194 L122.958222,179.403417 L117.702302,182.430049 L119.590534,178.226867 Z" id="Fill-202" fill="#ED9842"></path>
                                <polyline id="Fill-203" fill="#CECECE" points="191.728155 140.786999 191.728155 135.73636 190.176864 134.844569 188.627283 133.951073 186.434608 135.211175 184.240223 136.476393 182.688932 139.15347 181.139351 141.830548 181.139351 146.881187 182.688932 147.776388 184.240223 148.668179 186.434608 147.406372 188.627283 146.144565 190.176864 143.465782 191.728155 140.786999"></polyline>
                                <polyline id="Fill-204" fill="#A39D9D" points="188.95225 141.061527 188.95225 138.657273 188.216798 138.232692 187.477924 137.808111 186.434608 138.408322 185.389582 139.008533 184.652419 140.283981 183.915256 141.557725 183.915256 143.960274 184.652419 144.384855 185.389582 144.811141 186.434608 144.21093 187.477924 143.609014 188.216798 142.335271 188.95225 141.061527"></polyline>
                                <polyline id="Fill-206" fill="#F6F3F3" points="66.4275846 142.231257 57.0018209 147.653618 13.811949 122.794309 0.272782813 130.586822 43.464365 155.449541 33.8555935 160.979326 72.547233 164.50386 66.4275846 142.231257"></polyline>
                                <polyline id="Fill-207" fill="#DDC001" points="203.645906 191.644653 203.645906 197.443851 215.300261 197.443851 215.298551 191.644653 203.645906 191.644653"></polyline>
                                <polyline id="Fill-208" fill="#DDC001" points="223.537328 186.902645 223.537328 192.701843 215.300261 197.443851 215.298551 191.644653 223.537328 186.902645"></polyline>
                                <polyline id="Fill-210" fill="#000000" points="205.498219 137.927471 203.230289 136.623035 203.230289 138.116742 206.249065 139.85599 205.498219 137.927471"></polyline>
                                <polyline id="Fill-211" fill="#000000" points="202.631665 183.683331 199.094652 181.647388 206.170389 177.575502 209.707402 179.611445 202.631665 183.683331"></polyline>
                                <polyline id="Fill-212" fill="#CECECE" points="202.631665 162.594098 209.707402 158.522212 209.707402 179.611445 202.631665 183.683331 202.631665 162.594098"></polyline>
                                <polyline id="Fill-213" fill="#EAEAEA" points="202.631665 162.594098 199.094652 160.55986 199.094652 181.647388 202.631665 183.683331 202.631665 162.594098"></polyline>
                                <polyline id="Fill-214" fill="#EDE5D6" points="206.170389 144.255264 209.086543 143.476013 212.004408 142.696761 214.13893 143.927876 216.273453 145.155581 217.836717 150.973535 216.273453 158.587007 214.13893 162.273531 212.004408 165.963465 209.086543 168.539939 206.170389 171.119823 203.254234 171.899074 200.33637 172.678325 198.201847 171.448916 196.065614 170.219506 194.50235 164.403257 196.065614 156.788079 198.201847 153.101556 200.33637 149.413328 203.254234 146.835148 206.170389 144.255264"></polyline>
                                <polyline id="Fill-215" fill="#C0B4AC" points="207.242781 144.872526 210.158935 144.093275 213.0768 143.314024 215.211323 144.545139 217.347555 145.774548 218.129187 148.68182 218.909109 151.590798 217.347555 159.205975 215.211323 162.892498 213.0768 166.580727 210.158935 169.158906 207.242781 171.737085 204.326627 172.516337 201.408762 173.295588 197.139717 170.836769 196.356375 167.929497 195.574743 165.022225 196.356375 161.212931 197.139717 157.405342 201.408762 150.032295 204.326627 147.452411 207.242781 144.872526"></polyline>
                                <polyline id="Fill-216" fill="#2D5581" points="207.242781 146.722609 209.757002 146.050782 212.272934 145.378955 214.113275 146.43785 215.955327 147.49845 216.629207 150.006718 217.304797 152.514986 215.955327 159.079794 212.272934 165.44169 207.242781 169.887003 204.72685 170.560535 202.210918 171.230657 200.370577 170.171762 198.530235 169.111162 197.854645 166.604599 197.180766 164.096331 197.854645 160.812222 198.530235 157.528112 199.503427 155.846839 208.044937 160.764478 206.331162 163.722904 212.900634 161.562485 211.491302 154.810111 209.779237 157.770243 201.237726 152.852605 202.210918 151.171332 204.72685 148.946118 207.242781 146.722609"></polyline>
                                <polyline id="Fill-217" fill="#F6F0E5" points="200.33637 149.413328 201.410472 150.032295 197.139717 157.405342 196.065614 156.788079 200.33637 149.413328"></polyline>
                                <polyline id="Fill-218" fill="#F6F0E5" points="200.33637 149.413328 201.410472 150.032295 207.242781 144.872526 206.170389 144.255264 200.33637 149.413328"></polyline>
                            </g>
                        </g>
                    </g>
                </g>
                <g id="Group-39" transform="translate(560.000000, 772.000000)">
                    <g id="Group-37">
                        <g id="Group-23" transform="translate(6.000000, 9.000000)">
                            <g id="Group-22">
                                <g id="All_images-17">
                                    <polygon id="Fill-1" fill="#F4F4F4" points="57.1006919 112.951497 58.8282654 111.961246 92.5693934 111.961246 92.5670047 109.380663 58.8264739 109.380663 57.1006919 108.389226 20.1289479 108.389226 18.1254882 107.24006 12.2960474 107.24006 6.31672038 110.666211 12.2960474 114.094141 18.1254882 114.094141 20.1205877 112.951497"></polygon>
                                    <polyline id="Fill-2" fill="#FFFFFF" points="8.31719431 66.1849548 12.2972417 68.4660905 16.2749005 66.1855477 12.2972417 63.9044121 8.31719431 66.1849548"></polyline>
                                    <polyline id="Fill-3" fill="#E2E4EA" points="14.0230237 67.4770251 16.2749005 66.1867337 12.2972417 63.9044121 12.2972417 67.4770251 14.0230237 67.4770251"></polyline>
                                    <polyline id="Fill-4" fill="#F1F2F5" points="10.0447678 24.5072362 12.2972417 25.7981206 12.2972417 67.4770251 10.0447678 66.1879196 10.0447678 24.5072362"></polyline>
                                    <polyline id="Fill-5" fill="#E2E4EA" points="14.5485213 24.5072362 12.2972417 25.7981206 12.2972417 67.4770251 14.5485213 66.1879196 14.5485213 24.5072362"></polyline>
                                    <polyline id="Fill-6" fill="#F1F2F5" points="3.53874882 24.5072362 12.2972417 29.5296482 12.2972417 16.3705729 0.5272891 9.62144724 3.53874882 24.5072362"></polyline>
                                    <polyline id="Fill-7" fill="#FFDD00" points="4.51509953 23.8348141 10.9930521 27.5515176 10.9930521 17.1562513 2.13602844 12.0781005 4.51509953 23.8348141"></polyline>
                                    <polyline id="Fill-8" fill="#F7F7F7" points="0.5272891 9.62144724 12.2972417 16.3705729 12.2960474 12.0644623 3.53874882 7.04323618 0.5272891 9.62144724"></polyline>
                                    <polyline id="Fill-9" fill="#E2E4EA" points="21.0557346 24.5072362 12.2972417 29.5296482 12.2960474 16.3705729 24.0665972 9.62144724 21.0557346 24.5072362"></polyline>
                                    <polyline id="Fill-10" fill="#EAC300" points="19.9796588 23.7411256 22.3587299 11.9838191 13.5017062 17.0613769 13.5017062 27.4572362 19.9796588 23.7411256"></polyline>
                                    <polyline id="Fill-11" fill="#FFFFFF" points="3.53874882 7.04323618 12.2960474 12.0644623 21.0545403 7.04620101 12.2960474 2.02378894 3.53874882 7.04323618"></polyline>
                                    <polyline id="Fill-12" fill="#E2E4EA" points="24.0665972 9.62144724 12.2960474 16.3705729 12.2972417 12.0644623 21.0545403 7.04323618 24.0665972 9.62144724"></polyline>
                                    <polyline id="Fill-13" fill="#E2E4EA" points="8.21388626 7.04442211 12.2972417 9.3860402 18.9907678 7.04501508 12.2972417 4.70280402 8.21388626 7.04442211"></polyline>
                                    <polyline id="Fill-14" fill="#F1F2F5" points="6.319109 104.879467 12.2972417 108.309769 12.2960474 114.094141 6.319109 110.670362 6.319109 104.879467"></polyline>
                                    <polyline id="Fill-15" fill="#E2E4EA" points="18.2705972 104.880653 12.2960474 108.309769 12.2972417 114.094141 18.2705972 110.671548 18.2705972 104.880653"></polyline>
                                    <polyline id="Fill-16" fill="#FFFFFF" points="8.31719431 101.434935 12.2972417 103.716663 16.2749005 101.436121 12.2972417 99.1555779 8.31719431 101.434935"></polyline>
                                    <polyline id="Fill-17" fill="#FFFFFF" points="6.31791469 104.881246 12.2972417 108.309769 18.2741801 104.884804 12.2972417 101.455688 6.31791469 104.881246"></polyline>
                                    <polyline id="Fill-18" fill="#E2E4EA" points="14.2965213 107.162975 18.2741801 104.884804 12.2972417 101.455688 12.2972417 107.162975 14.2965213 107.162975"></polyline>
                                    <polyline id="Fill-19" fill="#F7F7F7" points="8.21388626 7.04323618 12.2972417 9.38366834 12.2972417 0.397879397 8.21388626 7.04323618"></polyline>
                                    <polyline id="Fill-20" fill="#E2E4EA" points="16.3794028 7.04323618 12.2972417 9.38366834 12.2972417 0.397879397 16.3794028 7.04323618"></polyline>
                                    <polyline id="Fill-21" fill="#F1F2F5" points="8.31719431 66.1825829 12.2972417 68.4660905 12.2960474 107.162975 8.31719431 104.88599 8.31719431 66.1825829"></polyline>
                                    <polyline id="Fill-22" fill="#E2E4EA" points="16.2749005 66.1825829 12.2960474 68.4660905 12.2972417 107.162975 16.2749005 104.88599 16.2749005 66.1825829"></polyline>
                                </g>
                            </g>
                        </g>
                        <g id="Group-36">
                            <g id="Group-35">
                                <g id="Group-34">
                                    <polygon id="Fill-214" fill="#F7F8FC" points="23.5350074 1.31376768 28.0868764 0.0697635291 31.4167314 2.03512677 34.7465864 3.99504578 37.1852783 13.2828842 34.7465864 25.4371043 31.4167314 31.3223055 28.0868764 37.212951 23.5350074 41.3260589 18.9858065 45.4446109 14.4366056 46.6886151 9.88473653 47.9326192 6.55488156 45.9699781 3.22235843 44.007337 0.783666569 34.7222206 3.22235843 22.5652785 6.55488156 16.6800772 9.88473653 10.7921538 14.4366056 6.67632389 18.9858065 2.55777184"></polygon>
                                    <polyline id="Fill-215" fill="#E2E4EA" points="20.6587384 3.54317557 25.2079393 2.29917141 29.7598084 1.05516726 33.0896634 3.02053049 36.4221865 4.98317162 37.6415324 9.62436874 38.8582102 14.268288 36.4221865 26.4252301 33.0896634 32.3104314 29.7598084 38.1983548 25.2079393 42.3141847 20.6587384 46.4300146 16.1095375 47.6740188 11.5576685 48.9180229 4.89795853 44.9927407 3.67594445 40.3515436 2.45659851 35.7103464 3.67594445 29.6291533 4.89795853 23.5506822 11.5576685 11.7802797 16.1095375 7.66172761 20.6587384 3.54317557"></polyline>
                                    <polygon id="Fill-216" fill="#0FC0EA" points="24.5809234 5.4241534 28.5057765 4.35164216 31.3767091 6.04207231 34.2503099 7.73522458 35.3015622 11.739448 36.3554827 15.7436715 34.2503099 26.223794 28.5057765 36.3799854 20.6587384 43.4765256 16.7338853 44.5517589 12.8090322 45.621548 9.93809959 43.9311179 7.06716694 42.2379656 6.01324649 38.2364643 4.9619942 34.2322409 6.01324649 28.9894575 7.06716694 23.7466741 8.58534601 21.0626739 11.2908532 16.2826492 12.8090322 13.598649 16.7338853 10.0462958 20.6587384 6.49666464"></polygon>
                                    <polyline id="Fill-217" fill="#F1F2F5" points="9.88473653 10.7921538 11.5603366 11.7802797 4.89795853 23.5506822 3.22235843 22.5652785 9.88473653 10.7921538"></polyline>
                                    <polyline id="Fill-218" fill="#F1F2F5" points="9.88473653 10.7921538 11.5603366 11.7802797 20.6587384 3.54317557 18.9858065 2.55777184 9.88473653 10.7921538"></polyline>
                                </g>
                            </g>
                        </g>
                    </g>
                    <g id="Group-38" transform="translate(10.000000, 14.000000)">
                        <g id="Page-1">
                            <mask id="mask-4" fill="white">
                                <use xlink:href="#path-3"></use>
                            </mask>
                            <g id="Clip-2"></g>
                            <path d="M4.25008182,21.8770105 C2.63499091,22.8029053 1.27508182,22.2319579 1.27508182,20.6290105 C1.27508182,19.0260632 2.63499091,16.8970105 4.25008182,15.9717474 C5.86517273,15.0464842 7.22508182,15.6168 7.22508182,17.2197474 C7.22508182,18.8226947 5.86517273,20.9517474 4.25008182,21.8770105 Z M4.25008182,14.7060632 C1.87008182,16.0702737 -0.000190909091,18.9976421 -0.000190909091,21.3597474 C-0.000190909091,23.7218526 1.87008182,24.5062737 4.25008182,23.1426947 C6.63008182,21.7791158 8.50035455,18.8511158 8.50035455,16.4890105 C8.50035455,14.1269053 6.63008182,13.3424842 4.25008182,14.7060632 Z M12.5800818,8.24564211 L16.1500818,6.20058947 L16.1500818,4.68164211 L13.4302636,6.24037895 L11.8151727,4.38164211 C11.5599909,4.10564211 11.1349,4.0968 10.5405364,4.43785263 C10.1154455,4.68101053 9.77562727,5.0448 9.51980909,5.44332632 L6.3749,10.3671158 C6.11971818,10.7662737 5.95044545,11.2014316 5.95044545,11.6233263 C5.95044545,12.1292211 6.20499091,12.4898526 6.63008182,12.4986947 L9.51980909,12.5302737 L9.51980909,16.7485895 L11.0502636,15.8713263 L11.0502636,10.3885895 L9.17999091,10.0254316 L11.1349,6.9648 L12.5800818,8.24564211 Z M16.1500818,15.0578526 C14.5349909,15.9837474 13.1750818,15.4134316 13.1750818,13.8104842 C13.1750818,12.2069053 14.5349909,10.0778526 16.1500818,9.15322105 C17.7651727,8.22795789 19.1250818,8.79764211 19.1250818,10.4005895 C19.1250818,12.0035368 17.7651727,14.1325895 16.1500818,15.0578526 Z M16.1500818,7.88753684 C13.7700818,9.25111579 11.8998091,12.1791158 11.8998091,14.5412211 C11.8998091,16.9026947 13.7700818,17.6871158 16.1500818,16.3235368 C18.5300818,14.9599579 20.4003545,12.0325895 20.4003545,9.67048421 C20.4003545,7.30837895 18.5300818,6.52332632 16.1500818,7.88753684 Z M13.6001727,3.27448421 C14.4497182,2.78753684 15.1306273,1.72332632 15.1306273,0.879536842 C15.1306273,0.0357473684 14.4497182,-0.249094737 13.6001727,0.237221053 C12.7499909,0.7248 12.0703545,1.78901053 12.0703545,2.6328 C12.0703545,3.47658947 12.7499909,3.76143158 13.6001727,3.27448421 Z" id="Fill-1" fill="#FFFFFF" mask="url(#mask-4)"></path>
                        </g>
                    </g>
                    <path d="M112.167385,107.384561 C104.454662,109.230296 102.588012,110.315502 99.3953016,114.769898 C96.2025909,119.224294 96.2005415,120.750811 99.3953016,125.203874 C102.590062,129.656938 104.458994,130.737379 112.174385,132.582211 C119.889776,134.427044 122.535187,134.426926 130.25271,132.582211 C137.970233,130.737497 139.845544,129.656053 143.042294,125.203874 C146.239043,120.751696 146.239999,119.226378 143.042294,114.769898 C139.844588,110.313419 137.975331,109.23099 130.25621,107.384561 C122.537089,105.538133 119.880107,105.538826 112.167385,107.384561 Z" id="Page-1" fill="#F4F4F4"></path>
                </g>
            </g>
        </g>
    </g>
</svg>