<?xml version="1.0" encoding="UTF-8"?>
<svg width="1140px" height="609px" viewBox="0 0 1140 609" version="1.1" xmlns="http://www.w3.org/2000/svg" xmlns:xlink="http://www.w3.org/1999/xlink">
    <!-- Generator: Sketch 50.2 (55047) - http://www.bohemiancoding.com/sketch -->
    <title>Group 9</title>
    <desc>Created with Sketch.</desc>
    <defs>
        <linearGradient x1="30.6533784%" y1="89.7487896%" x2="30.6533784%" y2="18.5887353%" id="linearGradient-1">
            <stop stop-color="#FFFFFF" offset="0%"></stop>
            <stop stop-color="#FFFFFF" stop-opacity="0" offset="100%"></stop>
        </linearGradient>
        <linearGradient x1="30.6533784%" y1="100%" x2="30.6533784%" y2="0%" id="linearGradient-2">
            <stop stop-color="#FFFFFF" offset="0%"></stop>
            <stop stop-color="#FFFFFF" stop-opacity="0" offset="100%"></stop>
        </linearGradient>
    </defs>
    <g id="Page-1" stroke="none" stroke-width="1" fill="none" fill-rule="evenodd">
        <g id="Головна" transform="translate(-234.000000, -2018.000000)">
            <g id="Group-9" transform="translate(234.000000, 2018.000000)">
                <g id="Car_mezhdu">
                    <path d="M176.85792,512.88144 C169.286599,517.254293 161.715279,521.627147 154.143959,526 C151.764765,524.627499 149.385572,523.248613 147,521.869728 C154.57132,517.503259 162.142641,513.124022 169.713961,508.751168 C172.093155,510.12367 174.472348,511.502555 176.85792,512.88144 Z M223.172459,486.120854 C215.601138,490.487324 208.036196,494.866561 200.464876,499.23303 C198.079304,497.860529 195.700111,496.488027 193.320917,495.109142 C200.892238,490.736289 208.45718,486.363436 216.034879,481.984198 L223.172459,486.120854 Z M269.486998,459.353884 C261.922056,463.726738 254.344357,468.099591 246.779415,472.472444 C244.400221,471.099943 242.021028,469.721058 239.641835,468.342173 C247.206777,463.975703 254.778097,459.596466 262.343039,455.229996 C264.722232,456.602498 267.107804,457.974999 269.486998,459.353884 Z M315.801536,432.593298 C308.236595,436.959768 300.665274,441.339005 293.100332,445.718242 C290.721139,444.339357 288.335567,442.960472 285.956374,441.581587 C293.521316,437.208733 301.092636,432.83588 308.663956,428.463027 C311.04315,429.835528 313.422343,431.214413 315.801536,432.593298 Z M408.443371,379.065743 C400.872051,383.438596 393.30073,387.811449 385.72941,392.184303 C383.350217,390.811801 380.971023,389.432916 378.59183,388.054031 C386.156772,383.687561 393.728092,379.308324 401.299413,374.935471 C403.678606,376.307972 406.064178,377.686858 408.443371,379.065743 Z M454.75791,352.305157 C447.18659,356.671626 439.615269,361.050864 432.050327,365.417333 C429.671134,364.051215 427.291941,362.67233 424.906369,361.293445 C432.471311,356.920592 440.04901,352.547738 447.613951,348.168501 C449.993145,349.547386 452.372338,350.926272 454.75791,352.305157 Z M501.20002,325.282838 C493.622321,329.662075 486.057379,334.028545 478.486058,338.407782 C476.106865,337.028897 473.721293,335.656395 471.3421,334.27751 C478.91342,329.904657 486.484741,325.531803 494.056061,321.15895 C496.435254,322.537835 498.814448,323.910337 501.20002,325.282838 Z M546.627942,299.039334 C539.056622,303.412187 532.371918,307.267959 524.806976,311.647196 C522.421404,310.268311 520.04221,308.895809 517.663017,307.516924 C525.227959,303.144071 531.912663,299.281916 539.483984,294.902678 C541.863177,296.281564 544.248749,297.660449 546.627942,299.039334 Z M593.829097,271.761666 C586.264155,276.134519 578.692835,280.507373 571.127893,284.880226 C568.742321,283.501341 566.356749,282.135223 563.977556,280.756338 C571.548876,276.377101 579.113818,272.010631 586.685139,267.631394 C589.070711,269.01028 591.449904,270.389165 593.829097,271.761666 Z M640.150015,244.994696 C632.578694,249.373934 625.007374,253.740403 617.436053,258.11964 C615.05686,256.740755 612.677667,255.368254 610.298473,253.989369 C617.869794,249.616515 625.434736,245.243662 633.006056,240.870808 C635.385249,242.24331 637.770821,243.622195 640.150015,244.994696 Z M686.470932,218.23411 C678.893233,222.606964 671.328291,226.979817 663.756971,231.352671 C661.377777,229.980169 658.992206,228.607668 656.613012,227.228783 C664.177954,222.849545 671.755653,218.483076 679.320595,214.103839 C681.699788,215.482724 684.08536,216.861609 686.470932,218.23411 Z M732.779092,191.467141 C725.214151,195.846378 717.64283,200.212848 710.07151,204.592085 C707.692316,203.2132 705.313123,201.840698 702.93393,200.468197 C710.498871,196.08896 718.070192,191.716106 725.635134,187.343253 C728.020706,188.722138 730.399899,190.101023 732.779092,191.467141 Z M779.10001,164.706555 C771.528689,169.085792 763.957369,173.458645 756.386049,177.831499 C754.006855,176.452614 751.627662,175.080112 749.24209,173.701227 C756.819789,169.328374 764.384731,164.95552 771.956051,160.576283 C774.335245,161.955168 776.714438,163.334053 779.10001,164.706555 Z M825.414549,137.945969 C817.843228,142.318822 810.278286,146.698059 802.706966,151.064529 C800.327773,149.685644 797.942201,148.319526 795.563007,146.940641 C803.134328,142.561404 810.69927,138.194934 818.276969,133.815697 C820.656162,135.194582 823.035355,136.573467 825.414549,137.945969 Z M871.729088,111.178999 C864.164146,115.558236 856.592825,119.924706 849.027883,124.303943 C846.642311,122.925058 844.263118,121.552557 841.883925,120.173671 C849.448867,115.800818 857.020187,111.427965 864.591507,107.055111 C866.970701,108.433996 869.349894,109.806498 871.729088,111.178999 Z M918.050005,84.4184133 C910.478684,88.7912667 902.907364,93.1641201 895.342422,97.5369734 C892.963229,96.164472 890.584035,94.7919706 888.198464,93.4130854 C895.769784,89.0338483 903.341104,84.6673787 910.906046,80.2881416 C913.28524,81.6670267 915.670812,83.0459119 918.050005,84.4184133 Z M964.364544,57.6514436 C956.793223,62.0306807 949.228281,66.4035341 941.656961,70.7763875 C939.277768,69.3975023 936.892196,68.0250009 934.513002,66.6524995 C942.084323,62.2732624 949.649265,57.9067927 957.226964,53.5275556 C959.606157,54.9064408 961.98535,56.2853259 964.364544,57.6514436 Z M1010.68546,30.8908577 C1003.11414,35.2700948 995.549199,39.6429482 987.9715,44.0158015 C985.592307,42.6433001 983.213113,41.264415 980.83392,39.8855298 C988.398862,35.5126764 995.970182,31.1398231 1003.5415,26.7669697 C1005.92707,28.1394711 1008.30627,29.5183563 1010.68546,30.8908577 Z M1057,4.13027173 C1049.42868,8.50312511 1041.85736,12.8823622 1034.29242,17.2488319 C1031.91322,15.8763304 1029.53403,14.503829 1027.14846,13.1249439 C1034.71978,8.74570676 1042.2911,4.37923711 1049.85604,0 C1052.23523,1.37888515 1054.62081,2.75777031 1057,4.13027173 Z M362.122454,405.826329 C354.551133,410.199182 346.986192,414.578419 339.414871,418.944889 C337.029299,417.572387 334.650106,416.193502 332.270912,414.821001 C339.842233,410.448147 347.407175,406.075294 354.984874,401.696057 L362.122454,405.826329 Z" id="Fill-1" fill="#EDEDF3"></path>
                    <path d="M351.881133,512.866792 C344.303926,517.244528 336.726719,521.622264 329.149513,526 C326.76847,524.625966 324.387427,523.245541 322,521.865116 C329.577207,517.493771 337.154413,513.109644 344.73162,508.731908 C347.112663,510.105942 349.493706,511.486367 351.881133,512.866792 Z M398.231679,486.076325 C390.654472,490.447671 383.083649,494.831798 375.506442,499.203143 C373.119015,497.829109 370.737972,496.455075 368.356929,495.07465 C375.934136,490.696914 383.504959,486.319178 391.08855,481.935051 L398.231679,486.076325 Z M444.582225,459.279468 C437.011401,463.657204 429.427811,468.03494 421.856988,472.412676 C419.475945,471.038642 417.094902,469.658218 414.713859,468.277793 C422.284682,463.906448 429.861889,459.522321 437.432712,455.150976 C439.813755,456.525009 442.201181,457.899043 444.582225,459.279468 Z M490.93277,432.489002 C483.361947,436.860347 475.78474,441.244474 468.213917,445.628601 C465.832874,444.248176 463.445448,442.867751 461.064405,441.487326 C468.635228,437.10959 476.212435,432.731854 483.789641,428.354118 C486.170684,429.728152 488.551727,431.108577 490.93277,432.489002 Z M583.646629,378.901678 C576.069422,383.279414 568.492216,387.65715 560.915009,392.034886 C558.533966,390.660852 556.152923,389.280427 553.77188,387.900003 C561.342703,383.528658 568.91991,379.144531 576.497117,374.766795 C578.87816,376.140829 581.265586,377.521253 583.646629,378.901678 Z M629.997175,352.111212 C622.419968,356.482557 614.842762,360.866684 607.271938,365.238029 C604.890895,363.870386 602.509852,362.489961 600.122426,361.109536 C607.693249,356.7318 615.276839,352.354064 622.847662,347.969937 C625.228705,349.350362 627.609748,350.730787 629.997175,352.111212 Z M676.475391,325.05872 C668.891801,329.442847 661.320977,333.814192 653.743771,338.198319 C651.362728,336.817894 648.975301,335.44386 646.594258,334.063436 C654.171465,329.6857 661.748671,325.307964 669.325878,320.930228 C671.706921,322.310652 674.087964,323.684686 676.475391,325.05872 Z M721.938631,298.785913 C714.361424,303.163649 707.671523,307.023726 700.1007,311.407853 C697.713273,310.027428 695.33223,308.653394 692.951187,307.272969 C700.522011,302.895233 707.211912,299.028766 714.789118,294.644639 C717.170161,296.025064 719.557588,297.405488 721.938631,298.785913 Z M769.176483,271.477787 C761.605659,275.855523 754.028453,280.233259 746.457629,284.610996 C744.070203,283.230571 741.682776,281.862928 739.301733,280.482503 C746.87894,276.098376 754.449763,271.727031 762.02697,267.342904 C764.414396,268.723329 766.795439,270.103753 769.176483,271.477787 Z M815.533412,244.68093 C807.956205,249.065057 800.378998,253.436402 792.801792,257.820529 C790.420749,256.440104 788.039706,255.06607 785.658663,253.685646 C793.235869,249.30791 800.806693,244.930173 808.383899,240.552437 C810.764942,241.926471 813.152369,243.306896 815.533412,244.68093 Z M861.890341,217.890464 C854.306751,222.2682 846.735928,226.645936 839.158721,231.023672 C836.777678,229.649638 834.390252,228.275604 832.009208,226.895179 C839.580032,222.511052 847.163622,218.139707 854.734445,213.75558 C857.115488,215.136005 859.502915,216.51643 861.890341,217.890464 Z M908.234504,191.093606 C900.66368,195.477733 893.086474,199.849079 885.509267,204.233205 C883.128224,202.852781 880.747181,201.478747 878.366138,200.104713 C885.936961,195.720586 893.514168,191.34285 901.084991,186.965114 C903.472418,188.345539 905.853461,189.725963 908.234504,191.093606 Z M954.591433,164.30314 C947.014226,168.687267 939.43702,173.065003 931.859813,177.442739 C929.47877,176.062314 927.097727,174.68828 924.7103,173.307855 C932.29389,168.930119 939.864714,164.552383 947.44192,160.168256 C949.822963,161.548681 952.204006,162.929106 954.591433,164.30314 Z M1000.94198,137.512674 C993.364772,141.89041 985.793949,146.274537 978.216742,150.645882 C975.835699,149.265457 973.448273,147.897814 971.06723,146.517389 C978.644436,142.133262 986.21526,137.761917 993.79885,133.37779 C996.179893,134.758215 998.560936,136.13864 1000.94198,137.512674 Z M1047.29252,110.715816 C1039.7217,115.099943 1032.14449,119.471288 1024.57367,123.855415 C1022.18625,122.474991 1019.8052,121.100957 1017.42416,119.720532 C1024.99498,115.342796 1032.57219,110.96506 1040.1494,106.587324 C1042.53044,107.967748 1044.91148,109.341782 1047.29252,110.715816 Z M1093.64945,83.9253499 C1086.07225,88.303086 1078.49504,92.680822 1070.92422,97.0585581 C1068.54317,95.6845241 1066.16213,94.3104902 1063.7747,92.9300654 C1071.35191,88.5459385 1078.92912,84.1745933 1086.49994,79.7904664 C1088.88098,81.1708912 1091.26841,82.551316 1093.64945,83.9253499 Z M1140,57.1284927 C1132.42279,61.5126196 1124.85197,65.8903556 1117.27476,70.2680917 C1114.89372,68.8876669 1112.50629,67.5136329 1110.12525,66.139599 C1117.70246,61.7554721 1125.27328,57.3841269 1132.85687,53 C1135.23791,54.3804248 1137.61896,55.7608496 1140,57.1284927 Z M537.2897,405.692145 C529.712493,410.069881 522.14167,414.454007 514.564463,418.825353 C512.177037,417.451319 509.795994,416.070894 507.41495,414.69686 C514.992157,410.319124 522.56298,405.941388 530.146571,401.557261 L537.2897,405.692145 Z" id="Fill-1" fill="#E6E6EF"></path>
                    <g id="Car" transform="translate(0.000000, 112.000000)">
                        <rect id="Rectangle-2" fill="url(#linearGradient-1)" x="0" y="177.535354" width="878" height="318.646465"></rect>
                        <rect id="Rectangle-2" fill="url(#linearGradient-2)" transform="translate(750.231064, 177.535354) scale(1, -1) translate(-750.231064, -177.535354) " x="403.462128" y="0" width="693.537872" height="355.070707"></rect>
                    </g>
                </g>
                <g id="Group-6-Copy-4" transform="translate(872.000000, 268.000000)">
                    <g id="Page-1" transform="translate(24.884615, 21.000000) scale(-1, 1) translate(-24.884615, -21.000000) translate(0.384615, 0.000000)">
                        <polygon id="Fill-1" fill="#F4F4F4" points="18.0271579 20.5077718 0 31.0874446 18.0271579 41.6739298 30.8010742 41.6739298 44.2259811 33.7919714 44.2259811 28.3829178 30.8010742 20.5077718"></polygon>
                        <polygon id="Fill-5" fill="#FFEE7E" points="12.519044 10.5823978 30.5462019 21.168883 48.5733598 10.5892102 30.5529009 0.00272496402"></polygon>
                        <polygon id="Fill-6" fill="#FAD900" points="30.5435223 21.1675205 30.5435223 41.6326243 48.5706802 31.0529515 48.5706802 10.5878477"></polygon>
                        <polygon id="Fill-7" fill="#DDC000" points="12.5177042 10.583079 30.5448621 21.1695642 30.5448621 41.634668 12.5177042 31.0481828"></polygon>
                    </g>
                </g>
                <g id="Group-6-Copy-5" transform="translate(717.000000, 330.000000)">
                    <g id="Page-1" transform="translate(14.500000, 12.000000) scale(-1, 1) translate(-14.500000, -12.000000) ">
                        <polygon id="Fill-1" fill="#F4F4F4" points="10.6691343 11.7187267 0 17.764254 10.6691343 23.8136742 18.2292072 23.8136742 26.1745602 19.3096979 26.1745602 16.2188102 18.2292072 11.7187267"></polygon>
                        <polygon id="Fill-5" fill="#FFEE7E" points="7.40923012 6.04708443 18.0783644 12.0965046 28.7474986 6.05097724 18.0823291 0.00155712229"></polygon>
                        <polygon id="Fill-6" fill="#FAD900" points="18.0767785 12.095726 18.0767785 23.790071 28.7459127 17.7445437 28.7459127 6.05019868"></polygon>
                        <polygon id="Fill-7" fill="#DDC000" points="7.40843717 6.04747372 18.0775714 12.0968938 18.0775714 23.7912389 7.40843717 17.7418187"></polygon>
                    </g>
                </g>
            </g>
        </g>
    </g>
</svg>