<?xml version="1.0" encoding="UTF-8"?>
<svg width="1297px" height="618px" viewBox="0 0 1297 618" version="1.1" xmlns="http://www.w3.org/2000/svg" xmlns:xlink="http://www.w3.org/1999/xlink">
    <!-- Generator: Sketch 50.2 (55047) - http://www.bohemiancoding.com/sketch -->
    <title>Group 28</title>
    <desc>Created with Sketch.</desc>
    <defs>
        <rect id="path-1" x="-70.466002" y="307.719937" width="1072.03406" height="3.20482139"></rect>
        <linearGradient x1="33.0314588%" y1="78.3946963%" x2="33.0314577%" y2="0%" id="linearGradient-3">
            <stop stop-color="#FFFFFF" offset="0%"></stop>
            <stop stop-color="#FFFFFF" stop-opacity="0" offset="100%"></stop>
        </linearGradient>
        <linearGradient x1="50%" y1="0%" x2="50%" y2="83.5111881%" id="linearGradient-4">
            <stop stop-color="#FFFFFF" stop-opacity="0" offset="0%"></stop>
            <stop stop-color="#FFFFFF" offset="100%"></stop>
        </linearGradient>
        <polygon id="path-5" points="19.411955 0.575185376 0.050264577 0.575185376 0.050264577 10.6829112 19.411955 10.6829112 19.411955 0.575185376"></polygon>
        <polygon id="path-7" points="0.0105808175 60.4357149 115.388636 60.4357149 115.388636 0.759213088 0.0105808175 0.759213088"></polygon>
        <polygon id="path-9" points="0.298934968 9.73404372 11.3077457 9.73404372 11.3077457 0.212202153 0.298934968 0.212202153"></polygon>
        <polygon id="path-11" points="0.120032333 7.87272527 2.43821419 7.87272527 7.60561516 5.03038451 0.120032333 0.922618057"></polygon>
        <polygon id="path-13" points="61.9428005 0.0094478898 0.791818316 0.0094478898 0.791818316 33.6571168 61.9428005 33.6571168"></polygon>
        <polygon id="path-15" points="0.00193873946 2.67699909 1.15592354 3.30971193 1.15592354 0.710722257 0.00193873946 0.0585413277"></polygon>
        <polygon id="path-17" points="0.7326717 3.29899438 1.89686876 3.94144127 1.89686876 1.34245159 0.7326717 0.690270666"></polygon>
        <polygon id="path-19" points="0.11519495 3.37073005 0.11519495 0.650064833 1.26917975 0.00761794726 1.26917975 5.44894839 0.11519495 6.09139527 0.11519495 3.37073005 0.11519495 0.00761794726 10.3274498 0.00761794726 10.3274498 9.74166167 0.11519495 9.74166167 0.11519495 3.37073005"></polygon>
        <linearGradient x1="50%" y1="0%" x2="50%" y2="100%" id="linearGradient-21">
            <stop stop-color="#FFFFFF" offset="0%"></stop>
            <stop stop-color="#000000" offset="100%"></stop>
        </linearGradient>
        <polygon id="path-22" points="0.321954772 3.35938387 0.321954772 0.638718648 1.47593957 0.0157398497 1.47593957 5.44733625 0.321954772 6.08004909 0.321954772 3.35938387 0.321954772 0.0157398497 10.5342097 0.0157398497 10.5342097 9.74978357 0.321954772 9.74978357"></polygon>
        <polygon id="path-24" points="0.866736339 1.1363438 1.72456575 1.62304599 1.72456575 0.503630958 0.866736339 0.0169287717"></polygon>
        <polygon id="path-26" points="0.239335327 2.56767145 0.239335327 3.68708647 4.02808189 1.60400112 4.02808189 2.72341615 4.90633581 2.23671396 4.90633581 0.640330789 4.90633581 0.00761794726"></polygon>
        <polygon id="path-28" points="0.512839476 1.11955209 1.3910934 1.59652024 1.3910934 0.477105208 0.512839476 0.00013706537"></polygon>
        <polygon id="path-30" points="0.512839476 3.19107346 1.3910934 3.66804161 6.05809388 1.10798811 5.17983996 0.621285921"></polygon>
        <polygon id="path-32" points="61.9428005 0.0094478898 0.791818316 0.0094478898 0.791818316 33.6571168 61.9428005 33.6571168"></polygon>
    </defs>
    <g id="Page-1" stroke="none" stroke-width="1" fill="none" fill-rule="evenodd">
        <g id="Розташування" transform="translate(-231.000000, -478.000000)">
            <g id="Group-28" transform="translate(231.000000, 478.000000)">
                <g id="Animation">
                    <g id="Group-20">
                        <g id="Rectangle-4" transform="translate(102.753823, 37.280508)">
                            <rect id="Rectangle-27" fill="#CED4E2" transform="translate(478.937309, 277.299663) rotate(-30.000000) translate(-478.937309, -277.299663) " x="-72.6147982" y="275.697253" width="1103.10421" height="3.20482139"></rect>
                            <mask id="mask-2" fill="white">
                                <use xlink:href="#path-1"></use>
                            </mask>
                            <use id="Mask" fill="#CED4E2" transform="translate(465.551028, 309.322348) rotate(-30.000000) translate(-465.551028, -309.322348) " xlink:href="#path-1"></use>
                        </g>
                        <g id="Car_mezhdu" transform="translate(712.665717, 326.536928) rotate(-1.000000) translate(-712.665717, -326.536928) translate(379.665717, 152.536928)" fill="#F0F2F6">
                            <path d="M20.2171048,338.506016 C15.1463571,341.39116 10.0756093,344.276304 5.00486159,347.161448 C3.41144212,346.255892 1.81802266,345.346124 0.220331289,344.436356 C5.29107903,341.555424 10.3618268,338.666067 15.4325745,335.780923 C17.025994,336.686479 18.6194134,337.596247 20.2171048,338.506016 Z M51.2353856,320.849775 C46.1646379,323.730707 41.098162,326.620063 36.0274143,329.500996 C34.4297229,328.59544 32.8363035,327.689883 31.242884,326.780115 C36.3136317,323.894971 41.3801076,321.009827 46.4551272,318.120471 L51.2353856,320.849775 Z M82.2536664,303.189322 C77.1871906,306.074467 72.1121709,308.959611 67.0456951,311.844755 C65.4522756,310.939199 63.8588562,310.029431 62.2654367,309.119663 C67.3319125,306.23873 72.4026603,303.349374 77.4691361,300.468442 C79.0625556,301.373998 80.6602469,302.279554 82.2536664,303.189322 Z M113.271947,285.533082 C108.205471,288.414014 103.134724,291.30337 98.0682478,294.192727 C96.4748283,293.282958 94.877137,292.37319 93.2837175,291.463422 C98.3501933,288.578278 103.420941,285.693134 108.491689,282.807989 C110.085108,283.713546 111.678528,284.623314 113.271947,285.533082 Z M175.317053,250.216389 C170.246305,253.101533 165.175557,255.986677 160.104809,258.871822 C158.51139,257.966265 156.91797,257.056497 155.324551,256.146729 C160.391027,253.265797 165.461775,250.376441 170.532522,247.491296 C172.125942,248.396852 173.723633,249.306621 175.317053,250.216389 Z M206.335333,232.560148 C201.264586,235.44108 196.193838,238.330437 191.127362,241.211369 C189.533943,240.310025 187.940523,239.400257 186.342832,238.490488 C191.409308,235.605344 196.484327,232.7202 201.550803,229.830844 C203.144223,230.740612 204.737642,231.65038 206.335333,232.560148 Z M237.439052,214.73122 C232.364033,217.620576 227.297557,220.501509 222.226809,223.390865 C220.63339,222.481097 219.035698,221.57554 217.442279,220.665772 C222.513027,217.780628 227.583774,214.895484 232.654522,212.010339 C234.247941,212.920108 235.841361,213.825664 237.439052,214.73122 Z M267.863539,197.416142 C262.792791,200.301287 258.315838,202.845268 253.249362,205.734624 C251.65167,204.824856 250.058251,203.9193 248.464831,203.009532 C253.531307,200.124387 258.008261,197.576194 263.079008,194.686838 C264.672428,195.596606 266.270119,196.506374 267.863539,197.416142 Z M299.475614,179.418739 C294.409138,182.303883 289.33839,185.189027 284.271915,188.074172 C282.674223,187.164404 281.076532,186.263059 279.483112,185.353291 C284.55386,182.463935 289.620336,179.583003 294.691084,176.693646 C296.288775,177.603414 297.882194,178.513183 299.475614,179.418739 Z M330.498167,161.758286 C325.427419,164.647642 320.356671,167.528575 315.285923,170.417931 C313.692504,169.508163 312.099084,168.602607 310.505665,167.692839 C315.576413,164.807694 320.642889,161.92255 325.713636,159.037406 C327.307056,159.942962 328.904747,160.85273 330.498167,161.758286 Z M361.520719,144.102046 C356.4457,146.98719 351.379224,149.872334 346.308476,152.757479 C344.715057,151.851922 343.117365,150.946366 341.523946,150.036598 C346.590422,147.147242 351.665441,144.266309 356.731917,141.376953 C358.325337,142.286721 359.923028,143.196489 361.520719,144.102046 Z M392.534728,126.441593 C387.468252,129.330949 382.397505,132.211882 377.326757,135.101238 C375.733337,134.19147 374.139918,133.285914 372.546499,132.380357 C377.612974,129.491001 382.683722,126.605857 387.750198,123.720713 C389.347889,124.630481 390.941309,125.540249 392.534728,126.441593 Z M423.557281,108.785353 C418.486533,111.674709 413.415785,114.559853 408.345038,117.444997 C406.751618,116.535229 405.158199,115.629673 403.560507,114.719905 C408.635527,111.834761 413.702003,108.949616 418.772751,106.06026 C420.36617,106.970028 421.95959,107.879796 423.557281,108.785353 Z M454.575562,91.129112 C449.504814,94.0142563 444.438338,96.9036124 439.36759,99.7845448 C437.774171,98.8747767 436.17648,97.9734324 434.58306,97.0636642 C439.653808,94.1743081 444.720284,91.2933757 449.795303,88.4040195 C451.388723,89.3137876 452.982142,90.2235558 454.575562,91.129112 Z M485.593843,73.4686595 C480.527367,76.3580157 475.456619,79.2389481 470.390143,82.1283042 C468.792452,81.2185361 467.199032,80.3129799 465.605613,79.4032117 C470.672089,76.5180675 475.742836,73.6329232 480.813584,70.7477789 C482.407004,71.657547 484.000423,72.5631033 485.593843,73.4686595 Z M516.616395,55.8124189 C511.545648,58.6975632 506.4749,61.5827075 501.408424,64.4678517 C499.815004,63.5622955 498.221585,62.6567393 496.623894,61.7469711 C501.694641,58.857615 506.765389,55.9766826 511.831865,53.0873264 C513.425284,53.9970945 515.022976,54.9068627 516.616395,55.8124189 Z M547.634676,38.1519664 C542.563928,41.0413226 537.497453,43.9264668 532.426705,46.8116111 C530.833285,45.901843 529.235594,44.9962868 527.642174,44.0907305 C532.712922,41.2013744 537.779398,38.320442 542.854418,35.4310858 C544.447837,36.3408539 546.041257,37.2506221 547.634676,38.1519664 Z M578.657229,20.4957258 C573.586481,23.385082 568.520005,26.2702262 563.444986,29.1553705 C561.851566,28.2498143 560.258147,27.3400462 558.664727,26.430278 C563.731203,23.5451338 568.801951,20.6599895 573.872698,17.7748452 C575.47039,18.6804014 577.063809,19.5901696 578.657229,20.4957258 Z M609.67551,2.83948518 C604.604762,5.72462946 599.534014,8.61398563 594.467538,11.494918 C592.874119,10.5893618 591.280699,9.68380555 589.683008,8.77403743 C594.753756,5.88468126 599.824503,3.00374887 604.890979,0.114392703 C606.484399,1.02416083 608.08209,1.93392895 609.67551,2.83948518 Z M144.2945,267.872629 C139.223752,270.757774 134.157276,273.64713 129.086529,276.528062 C127.488837,275.622506 125.895418,274.712738 124.301998,273.807182 C129.372746,270.922037 134.439222,268.036893 139.514242,265.147537 L144.2945,267.872629 Z" id="Fill-1"></path>
                            <path d="M137.43557,338.496351 C132.36088,341.384717 127.28619,344.273083 122.2115,347.161448 C120.616842,346.254881 119.022184,345.344097 117.42325,344.433313 C122.49794,341.549164 127.57263,338.656582 132.64732,335.768216 C134.241978,336.674783 135.836637,337.585567 137.43557,338.496351 Z M168.477966,320.820396 C163.403276,323.704545 158.332861,326.597127 153.258171,329.481276 C151.659238,328.574709 150.06458,327.668142 148.469921,326.757358 C153.544611,323.868992 158.615026,320.980626 163.693991,318.088044 L168.477966,320.820396 Z M199.520362,303.140224 C194.449947,306.02859 189.370982,308.916955 184.300567,311.805321 C182.705909,310.898754 181.111251,309.98797 179.516592,309.077186 C184.587007,306.193037 189.661697,303.300454 194.732112,300.416305 C196.32677,301.322872 197.925703,302.22944 199.520362,303.140224 Z M230.562758,285.464269 C225.492343,288.348418 220.417653,291.241 215.347238,294.133582 C213.75258,293.222799 212.153646,292.312015 210.558988,291.401231 C215.629403,288.512865 220.704093,285.624499 225.778783,282.736133 C227.373441,283.642701 228.968099,284.553485 230.562758,285.464269 Z M292.6561,250.108141 C287.58141,252.996507 282.50672,255.884873 277.43203,258.773239 C275.837372,257.866671 274.242713,256.955887 272.648055,256.045103 C277.71847,253.160954 282.79316,250.268372 287.86785,247.380006 C289.462508,248.286573 291.061441,249.197357 292.6561,250.108141 Z M323.698495,232.432186 C318.623806,235.316335 313.549116,238.208918 308.478701,241.093067 C306.884043,240.190716 305.289384,239.279932 303.690451,238.369148 C308.760866,235.480782 313.839831,232.592417 318.910245,229.699834 C320.504904,230.610618 322.099562,231.521402 323.698495,232.432186 Z M354.826396,214.58335 C349.747431,217.475933 344.677016,220.360082 339.602326,223.252664 C338.007668,222.34188 336.408734,221.435313 334.814076,220.524529 C339.888766,217.636163 344.963456,214.747798 350.038146,211.859432 C351.632804,212.770216 353.227462,213.676783 354.826396,214.58335 Z M385.274536,197.248939 C380.199846,200.137305 375.719412,202.684127 370.648997,205.576709 C369.050063,204.665925 367.455405,203.759358 365.860747,202.848574 C370.931162,199.960208 375.411596,197.40917 380.486286,194.516587 C382.080944,195.427371 383.679877,196.338155 385.274536,197.248939 Z M416.911187,179.23144 C411.840773,182.119806 406.766083,185.008171 401.695668,187.896537 C400.096734,186.985753 398.497801,186.083402 396.903143,185.172619 C401.977833,182.280036 407.048247,179.395887 412.122937,176.503305 C413.721871,177.414089 415.316529,178.324872 416.911187,179.23144 Z M447.957858,161.551268 C442.883169,164.44385 437.808479,167.328 432.733789,170.220582 C431.13913,169.309798 429.544472,168.403231 427.949814,167.492447 C433.024504,164.604081 438.094919,161.715715 443.169608,158.827349 C444.764267,159.733917 446.3632,160.644701 447.957858,161.551268 Z M479.00453,143.875313 C473.925564,146.763678 468.85515,149.652044 463.78046,152.54041 C462.185801,151.633843 460.586868,150.727275 458.99221,149.816491 C464.062624,146.923909 469.14159,144.03976 474.212004,141.147177 C475.806663,142.057961 477.405596,142.968745 479.00453,143.875313 Z M510.04265,126.195141 C504.972235,129.087723 499.897545,131.971872 494.822855,134.864455 C493.228197,133.953671 491.633539,133.047103 490.038881,132.140536 C495.109295,129.247954 500.183985,126.359588 505.2544,123.471222 C506.853334,124.382006 508.447992,125.29279 510.04265,126.195141 Z M541.089321,108.519185 C536.014631,111.411768 530.939941,114.300134 525.865251,117.188499 C524.270593,116.277715 522.675935,115.371148 521.077001,114.460364 C526.155966,111.571998 531.226381,108.683633 536.301071,105.79105 C537.895729,106.701834 539.490388,107.612618 541.089321,108.519185 Z M572.131717,90.8432301 C567.057027,93.7315959 561.986612,96.6241783 556.911922,99.5083275 C555.317264,98.5975436 553.718331,97.6951928 552.123672,96.7844088 C557.198362,93.8918264 562.268777,91.0076773 567.347742,88.1150949 C568.9424,89.0258788 570.537059,89.9366628 572.131717,90.8432301 Z M603.174113,73.1630583 C598.103698,76.0556406 593.029008,78.9397898 587.958593,81.8323722 C586.35966,80.9215883 584.765002,80.0150209 583.170343,79.1042369 C588.240758,76.2158711 593.315448,73.3275054 598.390138,70.4391396 C599.984796,71.3499235 601.579455,72.2564909 603.174113,73.1630583 Z M634.220784,55.487103 C629.146094,58.3754687 624.071404,61.2638345 619.000989,64.1522003 C617.406331,63.245633 615.811673,62.3390656 614.212739,61.4282816 C619.287429,58.5356993 624.362119,55.6515501 629.432534,52.7589677 C631.027192,53.6697516 632.626126,54.5805356 634.220784,55.487103 Z M665.26318,37.8069311 C660.18849,40.6995134 655.118075,43.5878792 650.043385,46.476245 C648.448727,45.5654611 646.849793,44.6588937 645.255135,43.7523263 C650.329825,40.859744 655.40024,37.9755948 660.479205,35.0830124 C662.073863,35.9937963 663.668521,36.9045803 665.26318,37.8069311 Z M261.609429,267.784097 C256.534739,270.672462 251.464324,273.565045 246.389634,276.449194 C244.7907,275.542627 243.196042,274.631843 241.601384,273.725275 C246.676074,270.83691 251.746489,267.948544 256.825454,265.055961 L261.609429,267.784097 Z" id="Fill-1"></path>
                        </g>
                        <g id="Group-19" transform="translate(0.000000, 0.036882)">
                            <rect id="Rectangle-2" fill="url(#linearGradient-3)" transform="translate(823.418552, 231.494134) scale(1, -1) translate(-823.418552, -231.494134) " x="508.544343" y="47" width="629.74842" height="368.988268"></rect>
                            <rect id="Rectangle-6" fill="url(#linearGradient-4)" x="0" y="248.246377" width="966.582569" height="368.988268"></rect>
                            <path d="M733.037669,46.3369609 C778.154485,47.0036275 826.690239,47.3369609 878.644931,47.3369609 C956.576969,47.3369609 1004.67665,2.69611591 1090.10651,0.91316671 C1175.53637,-0.869782492 1222.64648,48.3369609 1289.85801,48.3369609 C1334.6657,48.3369609 1149.05892,47.6702942 733.037669,46.3369609 Z" id="Path-14" fill="#FFFFFF"></path>
                        </g>
                        <g id="Group-15" transform="translate(421.674058, 258.266294)">
                            <g id="Group-12">
                                <g id="Page-1">
                                    <path d="M190.055701,44.6532149 L188.32031,43.6508097 L168.074075,47.7727447 L90.8547675,92.350292 L94.6428632,94.5348052 L88.1393571,98.2889108 L84.3512613,96.1015898 L7.13195379,140.681945 L1.21814377,151.666284 L17.50499,161.072607 L23.8709004,161.072607 L33.3509681,159.017255 L53.9088993,159.017255 L69.3870193,156.950672 L80.872054,155.299652 L118.399194,133.634222 L155.923526,111.971601 L154.028074,110.876536 L158.330048,108.39439 L162.427032,108.214687 L213.081932,78.9736584 L219.273742,82.5480611 L218.709318,83.101209 L218.144895,83.6571648 L218.459399,83.8368677 L218.773904,84.0193785 L219.821317,84.0193785 L220.762022,83.101209 L221.702728,82.1774239 L218.698086,80.4477836 L222.258727,73.6780389 L237.478504,64.8894446 L240.879086,56.3984832 L233.137217,51.9283739 L225.395349,47.4610725 L217.614168,45.7033536 L198.238437,45.7033536 L194.68622,43.6508097 L190.055701,44.6532149 Z M214.615142,78.0863754 L220.15267,74.8882255 L217.572047,79.7935528 L214.615142,78.0863754 Z" id="Fill-1" fill="#E9EBF2"></path>
                                    <polygon id="Fill-2" fill="#CAAD06" points="203.395471 45.4764787 196.257339 56.4608177 196.257339 64.0420332 203.395471 51.839084"></polygon>
                                    <polygon id="Fill-3" fill="#CAAD06" points="196.257339 56.4610984 203.395471 45.4767595 187.103008 36.0704365 168.072671 40.1895636 183.547983 38.1257883 199.837637 47.5264955"></polygon>
                                    <polygon id="Fill-4" points="169.593806 79.114332 145.14388 93.2266244 145.14388 86.8415562 169.593806 72.726456"></polygon>
                                    <path d="M169.362421,79.5711705 L169.362421,73.7757524 L145.937443,87.2983946 L145.937443,93.0938127 L169.362421,79.5711705 Z M119.041682,74.5563368 L196.258181,29.9787894 L196.258181,64.0437179 L169.873491,79.2763454 L169.873491,72.8884694 L145.426373,87.0007617 L145.426373,93.3886377 L119.041682,108.621265 L119.041682,74.5563368 Z" id="Fill-6" fill="#CAAD06"></path>
                                    <polygon id="Fill-7" fill="#30272B" points="120.066349 77.4487109 120.066349 95.8794882 195.235761 52.4840489 195.232953 34.0532716"></polygon>
                                    <path d="M185.570641,56.8834002 L194.211093,51.8966451 L194.211093,38.1269114 L185.570641,43.1164744 L185.570641,56.8834002 Z M172.128376,64.6443186 L184.545693,57.4758582 L184.545693,43.7061245 L172.128376,50.8745849 L172.128376,64.6443186 Z M158.16381,72.7084857 L171.106236,65.2339687 L171.106236,51.464235 L158.16381,58.9359441 L158.16381,72.7084857 Z M144.196435,80.7698449 L157.138862,73.2981358 L157.138862,59.5284021 L144.196435,67.002919 L144.196435,80.7698449 Z M130.754171,88.5307633 L143.171487,81.3623028 L143.171487,67.5897613 L130.754171,74.7610296 L130.754171,88.5307633 Z M121.08877,80.3402427 L121.08877,94.1099764 L129.732031,89.1204134 L129.732031,75.3506797 L121.08877,80.3402427 Z" id="Fill-8" fill="#5B5E74"></path>
                                    <polygon id="Fill-9" fill="#F6F2EE" points="193.393101 20.8088881 196.79649 12.3179267 181.312754 3.37770805 166.601239 5.34040052 91.5525746 48.6684512 118.344437 64.1341309"></polygon>
                                    <polygon id="Fill-10" fill="#AFACAA" points="119.041963 74.5557752 196.258462 29.9782279 193.394224 20.8077649 118.34556 64.1330078"></polygon>
                                    <polygon id="Fill-11" fill="#AFACAA" points="199.83876 21.0447481 196.258462 29.979351 193.394224 20.8088881 196.797613 12.3179267"></polygon>
                                    <polygon id="Fill-12" fill="#30272B" points="129.731469 71.8686555 144.195874 63.5152791 144.195874 93.253299 129.731469 101.603868"></polygon>
                                    <polygon id="Fill-13" fill="#30272B" points="171.105113 47.9827724 185.569517 39.629396 185.569517 69.3674159 171.105113 77.7207923"></polygon>
                                    <path d="M178.849509,68.2765632 L184.547097,64.9857541 L184.547097,41.405366 L178.849509,44.6933672 L178.849509,68.2765632 Z M172.126972,48.5710186 L172.126972,72.1570225 L177.827369,68.8662133 L177.827369,45.2858252 L172.126972,48.5710186 Z" id="Fill-14" fill="#5B5E74"></path>
                                    <path d="M137.475584,92.1599192 L143.173172,88.871918 L143.173172,65.2915298 L137.475584,68.5795311 L137.475584,92.1599192 Z M130.753048,72.4571824 L130.753048,96.0403785 L136.450636,92.7523772 L136.450636,69.1691812 L130.753048,72.4571824 Z" id="Fill-15" fill="#5B5E74"></path>
                                    <polygon id="Fill-16" fill="#9B8105" points="145.656635 92.9303954 145.937443 93.0932511 145.937443 87.297833 145.656635 87.1321694"></polygon>
                                    <polygon id="Fill-17" fill="#9B8105" points="169.081332 73.6126158 169.36214 73.7754716 145.937162 87.2981138 145.656354 87.1324502"></polygon>
                                    <polygon id="Fill-18" fill="#9B8105" points="169.592402 73.0499212 169.592402 79.1120857 169.87321 79.2749415 169.87321 72.8870654"></polygon>
                                    <polygon id="Fill-19" fill="#BAB5B3" points="167.54728 8.84264131 166.600958 8.29791693 98.8392534 47.4169891 120.511991 59.9288026 122.407443 59.9259947 167.384411 33.9589276 168.030269 34.3323727 168.999055 34.8911363 170.532265 34.0066612 170.459255 33.9645433 168.917621 33.0744524 177.479448 28.1326231 176.069793 30.8085114 178.175851 29.5955169 179.349627 27.3688858 179.363667 27.3576544 179.394556 27.3408072 179.425445 27.3211522 179.459142 27.3014972 179.490031 27.2846501 179.52092 27.2678029 179.551809 27.2509558 179.585506 27.2313008 179.613586 27.2116458 179.647283 27.1947986 179.678172 27.1751436 179.742758 27.1414493 179.773647 27.1217943 179.804536 27.1049472 179.835424 27.0852922 179.866313 27.0656372 179.897202 27.04879 179.961788 27.0122879 179.995485 26.9954407 180.11904 26.9196286 180.152737 26.9055893 180.183626 26.8859343 180.214515 26.8662793 180.245404 26.8494321 180.279101 26.8297771 180.307181 26.8101221 180.340878 26.7960828 180.371767 26.7764278 180.405464 26.7595807 180.436353 26.7399257 180.467242 26.7202707 180.498131 26.7006157 180.531827 26.6837685 180.562716 26.6669214 180.593605 26.6500742 180.624494 26.6304192 180.655383 26.6107642 180.68908 26.5939171 180.719969 26.5742621 180.750857 26.5602228 180.750857 26.5574149 180.478474 26.4001749 190.169147 20.8097304 168.493602 8.29510908"></polygon>
                                    <polygon id="Fill-20" fill="#473E40" points="120.513114 58.0349026 98.8403766 45.5230891 98.8403766 47.418393 120.513114 59.9302065"></polygon>
                                    <polygon id="Fill-21" fill="#545454" points="188.274538 18.9141458 166.6018 6.40233226 98.8400958 45.5242123 120.512834 58.0360258"></polygon>
                                    <path d="M167.041264,26.2409694 L163.385148,29.0825213 L161.405454,27.9369154 L161.085333,27.9369154 L167.041264,26.2409694 Z M165.494014,32.0672739 L167.027224,31.1827988 L164.511187,29.7283285 L170.138573,25.3593021 L173.25273,24.4664034 L175.608707,25.8282143 L175.802464,25.8282143 L175.586242,26.2409694 L178.588077,24.5085212 L172.868024,21.2064807 L172.865216,21.2064807 L171.63247,21.2064807 L170.62437,21.7877072 L169.616271,22.3689338 L170.997845,23.1635575 L170.47835,23.5706968 L158.875377,26.8811609 L143.75669,31.1912223 L141.740491,32.3564833 L143.018166,33.0921419 L159.248851,28.4619848 L165.494014,32.0672739 Z" id="Fill-22" fill="#443A3E"></path>
                                    <polygon id="Fill-23" fill="#30272B" points="120.513114 58.0349026 188.274819 18.9130226 188.274819 20.8083265 120.513114 59.9302065"></polygon>
                                    <g id="Group-44" transform="translate(0.000000, 17.072336)">
                                        <path d="M196.257339,12.9061728 C196.852651,11.4208162 197.450772,9.92703592 198.048892,8.43887139 C198.644204,6.95351471 199.239517,5.46254232 199.837637,3.97156994 L199.837637,17.2190421 L199.837637,30.4552829 C199.239517,31.9462553 198.644204,33.4372276 198.048892,34.9253922 C197.450772,36.4135567 196.852651,37.9017212 196.257339,39.3926936 L196.257339,26.153645 L196.257339,12.9061728 Z" id="Fill-24" fill="#30272B"></path>
                                        <path d="M196.493218,19.0974989 C197.012712,17.8086922 197.529398,16.5142699 198.048892,15.2226554 C198.565578,13.9310409 199.082264,12.6394264 199.601759,11.345004 L199.601759,20.6418205 L199.601759,29.9330214 C199.082264,31.2274437 198.565578,32.5218661 198.048892,33.8106727 C197.529398,35.1050951 197.012712,36.3967096 196.493218,37.6883241 L196.493218,28.3971232 L196.493218,19.0974989 Z" id="Fill-26" fill="#5B5E74"></path>
                                        <path d="M161.323458,4.12038639 L154.797487,0.35504934 L153.963488,0.838000848 L160.489459,4.6033379 L161.323458,4.12038639 Z M159.65546,5.08628941 L153.12949,1.3181445 L152.292683,1.80390386 L158.818653,5.56924091 L159.65546,5.08628941 Z M157.984655,6.04938456 L151.458684,2.28404751 L150.621877,2.76699902 L157.150656,6.53233607 L157.984655,6.04938456 Z M156.316657,7.01528758 L155.47985,7.49823909 L148.953879,3.73009418 L149.790686,3.24714267 L156.316657,7.01528758 Z M154.645851,7.9811906 L153.811852,8.4641421 L147.285881,4.6959972 L148.11988,4.21304569 L154.645851,7.9811906 Z M152.975045,8.94709361 L152.141046,9.43004512 L145.615076,5.66190021 L146.451883,5.17894871 L152.975045,8.94709361 Z M151.307048,9.91299663 L150.473049,10.3931403 L143.947078,6.62780323 L144.781077,6.14485172 L151.307048,9.91299663 Z M149.636242,10.8760918 L143.110271,7.10794688 L142.276272,7.59089839 L148.802243,11.3590433 L149.636242,10.8760918 Z M169.172033,8.65226856 L162.646062,4.88412366 L161.812063,5.36707517 L168.338034,9.13522007 L169.172033,8.65226856 Z M167.504035,9.61817158 L160.975256,5.85002667 L160.141258,6.33297818 L166.667228,10.1011231 L167.504035,9.61817158 Z M165.83323,10.5840746 L159.307259,6.81592969 L158.470452,7.2988812 L164.999231,11.0642182 L165.83323,10.5840746 Z M164.162424,11.5499776 L163.328425,12.0301213 L156.802454,8.26478421 L157.636453,7.78183271 L164.162424,11.5499776 Z M162.494426,12.5102649 L161.660427,12.9932164 L155.131648,9.22787937 L155.968455,8.74492786 L162.494426,12.5102649 Z M160.82362,13.4761679 L159.989621,13.9591194 L153.463651,10.1937824 L154.300458,9.71083088 L160.82362,13.4761679 Z M159.155623,14.4420709 L158.321624,14.9250225 L151.792845,11.1596854 L152.629652,10.6767339 L159.155623,14.4420709 Z M157.484817,15.407974 L150.958846,11.6398291 L150.124847,12.1227806 L156.650818,15.8881176 L157.484817,15.407974 Z M144.837238,22.6999802 L138.311268,18.9318353 L137.477269,19.4147868 L144.00324,23.1829317 L144.837238,22.6999802 Z M143.169241,23.6658832 L136.640462,19.8977383 L135.806463,20.3806898 L142.332434,24.1488347 L143.169241,23.6658832 Z M141.498435,24.6317862 L134.972464,20.8636413 L134.138465,21.3465928 L140.664436,25.1147377 L141.498435,24.6317862 Z M139.830437,25.5948814 L138.99363,26.0778329 L132.467659,22.3124958 L133.301658,21.8295443 L139.830437,25.5948814 Z M138.159631,26.5607844 L137.325633,27.0437359 L130.799662,23.275591 L131.633661,22.7926395 L138.159631,26.5607844 Z M136.491634,27.5266874 L135.654827,28.0096389 L129.128856,24.241494 L129.965663,23.7585425 L136.491634,27.5266874 Z M134.820828,28.4925904 L133.986829,28.9755419 L127.45805,25.207397 L128.294857,24.7244455 L134.820828,28.4925904 Z M133.150022,29.4556856 L126.624051,25.6903485 L125.790053,26.1733 L132.316023,29.9358292 L133.150022,29.4556856 Z M136.988663,18.1709058 L130.462693,14.4027609 L129.628694,14.8857124 L136.154664,18.6538574 L136.988663,18.1709058 Z M135.320666,19.134001 L128.794695,15.368664 L127.957888,15.8516155 L134.486667,19.6169525 L135.320666,19.134001 Z M133.64986,20.0970962 L127.123889,16.334567 L126.28989,16.8147106 L132.815861,20.5800477 L133.64986,20.0970962 Z M131.981862,21.0629992 L131.145055,21.5459507 L124.619084,17.7806136 L125.455891,17.2976621 L131.981862,21.0629992 Z M130.311056,22.0289022 L129.477058,22.5118537 L122.951087,18.7437088 L123.785086,18.2607573 L130.311056,22.0289022 Z M128.643059,22.9948052 L127.806252,23.4777567 L121.280281,19.7096118 L122.117088,19.2266603 L128.643059,22.9948052 Z M126.972253,23.9579004 L126.138254,24.4408519 L119.612283,20.6755148 L120.446282,20.1925633 L126.972253,23.9579004 Z M125.304255,24.9238034 L118.778284,21.1556585 L117.941478,21.63861 L124.467448,25.4067549 L125.304255,24.9238034 Z" id="Fill-28" fill="#30272B"></path>
                                        <polygon id="Fill-30" fill="#9B8105" points="119.041963 57.4834394 90.8544866 41.2119046 90.8572947 75.276833 119.041963 91.5483679"></polygon>
                                        <polygon id="Fill-32" fill="#EAE9E8" points="119.041963 57.4834394 90.8544866 41.2119046 91.5536978 31.5949923 118.34556 47.060672"></polygon>
                                        <polygon id="Fill-34" fill="#AFACAA" points="119.041963 57.4834394 109.809006 52.1541257 117.668813 49.1076002 118.65164 51.6430956"></polygon>
                                        <polygon id="Fill-36" fill="#30272B" points="111.162218 52.8603018 117.668532 49.1061962 117.668532 90.7523402 111.162218 94.5092537"></polygon>
                                        <polygon id="Fill-38" fill="#544F51" points="111.162218 52.8603018 117.668532 49.1061962 92.2301635 34.4239088 85.7238493 38.1780144"></polygon>
                                        <polygon id="Fill-40" fill="#FFDD00" points="7.13307702 116.028955 0.000561615386 127.016102 16.2902159 136.419617 35.3205532 132.30049 19.8452413 134.367073 3.55558701 124.963558"></polygon>
                                        <polygon id="Fill-42" fill="#CAAD06" points="19.8446797 134.367916 28.6255362 134.367916 35.3199916 132.301332"></polygon>
                                    </g>
                                    <polygon id="Fill-45" points="61.4238748 135.170401 61.4238748 141.561085 85.8681844 127.445985 85.8681844 121.058109"></polygon>
                                    <g id="Group-115" transform="translate(2.808077, 51.566441)">
                                        <path d="M82.8318109,76.3361016 L82.8318109,70.5434913 L59.4068331,84.0661336 L59.4068331,89.8587438 L82.8318109,76.3361016 Z M32.5110723,71.3212679 L109.727572,26.7465284 L109.73038,60.8114569 L83.3428809,76.0440844 L83.3428809,69.6562083 L58.8957631,83.7685007 L58.8957631,90.1563767 L32.5110723,105.389004 L32.5110723,71.3212679 Z" id="Fill-47" fill="#CAAD06"></path>
                                        <polygon id="Fill-49" fill="#30272B" points="33.5354587 74.213642 33.5354587 92.6472272 108.70487 49.2517879 108.70487 30.8182027"></polygon>
                                        <path d="M99.0386269,53.6511392 L107.681888,48.6615762 L107.681888,34.8918425 L99.0386269,39.8814055 L99.0386269,53.6511392 Z M85.5991707,61.4120576 L98.0164869,54.2407893 L98.0164869,40.4738635 L85.5991707,47.6395161 L85.5991707,61.4120576 Z M71.631796,69.4734168 L84.5742226,62.0017077 L84.5742226,48.231974 L71.631796,55.7036831 L71.631796,69.4734168 Z M57.6644214,77.5375838 L70.6068479,70.0658748 L70.6068479,56.2933332 L57.6644214,63.7678501 L57.6644214,77.5375838 Z M44.2221571,85.2985023 L56.6422814,78.1272339 L56.6422814,64.3575002 L44.2221571,71.5259607 L44.2221571,85.2985023 Z M34.5595644,77.1079816 L34.5595644,90.8749075 L43.2000171,85.8853445 L43.2000171,72.1184187 L34.5595644,77.1079816 Z" id="Fill-51" fill="#5B5E74"></path>
                                        <polygon id="Fill-53" fill="#CAAD06" points="32.5113531 71.3207063 17.0360411 73.3900974 17.0360411 99.8738103 32.5113531 97.8072271"></polygon>
                                        <polygon id="Fill-55" fill="#FFDD00" points="0.747510079 63.9857399 17.0371643 73.3920629 17.0371643 99.872968 0.747510079 90.4694528"></polygon>
                                        <polygon id="Fill-57" fill="#473E40" points="0.747510079 63.9857399 17.0371643 73.3920629 17.0371643 97.8091926 0.747510079 88.4028696"></polygon>
                                        <polygon id="Fill-59" fill="#5B5E74" points="1.7704925 70.9040203 1.7704925 84.9011904 16.0130587 93.1254053 16.0130587 79.1254273"></polygon>
                                        <polygon id="Fill-61" fill="#F6F2EE" points="109.031449 16.3234802 82.2395874 0.854992641 7.1909234 44.1830434 3.79034224 52.6740047 19.2740784 61.6142234 33.9827854 59.648723"></polygon>
                                        <polygon id="Fill-63" fill="#EAE9E8" points="0.747510079 63.9857399 17.0371643 73.3920629 19.2752017 61.6131002 3.78865739 52.6756895"></polygon>
                                        <polygon id="Fill-65" fill="#BAB5B3" points="32.5113531 71.3207063 17.0360411 73.3900974 19.2740784 61.6139426 33.9827854 59.6484423"></polygon>
                                        <polygon id="Fill-67" fill="#AFACAA" points="32.5113531 71.3207063 109.730661 26.743159 109.031449 16.3231994 33.9827854 59.6484423"></polygon>
                                        <polygon id="Fill-69" fill="#30272B" points="32.5113531 71.3207063 17.0360411 73.3900974 17.0360411 97.810035 32.5113531 95.7406439"></polygon>
                                        <polygon id="Fill-71" fill="#5B5E74" points="31.4883707 77.6849964 18.0601468 79.4820252 18.0601468 96.6408431 31.4883707 94.8438142"></polygon>
                                        <polygon id="Fill-73" fill="#30272B" points="43.2005787 68.6335866 57.664983 60.2830181 57.664983 90.0182301 43.2005787 98.3716065"></polygon>
                                        <polygon id="Fill-75" fill="#30272B" points="84.5745034 44.7502306 99.0389077 36.3968542 99.0389077 66.1348741 84.5745034 74.4854426"></polygon>
                                        <path d="M92.318618,65.0414944 L98.016206,61.7534931 L98.016206,38.1702971 L92.318618,41.4611062 L92.318618,65.0414944 Z M85.5988899,45.3387575 L85.5988899,68.9219536 L91.296478,65.6339523 L91.296478,42.0507563 L85.5988899,45.3387575 Z" id="Fill-77" fill="#5B5E74"></path>
                                        <path d="M50.9446933,88.9273774 L56.6422814,85.6365683 L56.6422814,62.0561802 L50.9446933,65.3469893 L50.9446933,88.9273774 Z M44.2221571,69.2246406 L44.2221571,92.8078366 L49.9225533,89.5170275 L49.9225533,65.9366394 L44.2221571,69.2246406 Z" id="Fill-79" fill="#5B5E74"></path>
                                        <polygon id="Fill-81" fill="#9B8105" points="59.1263062 89.6978536 59.4071139 89.8607093 59.4071139 84.0652912 59.1263062 83.9024355"></polygon>
                                        <polygon id="Fill-83" fill="#9B8105" points="82.5507224 70.377547 82.83153 70.5432105 59.4065523 84.0658528 59.1257446 83.9001892"></polygon>
                                        <polygon id="Fill-85" fill="#9B8105" points="83.0620732 75.87814 83.3428809 76.0438036 83.3428809 69.6559275 83.0620732 69.8187833"></polygon>
                                        <polygon id="Fill-87" fill="#CAAD06" points="32.5113531 97.806104 13.4810157 101.925231 13.4810157 108.287836 32.5113531 105.38732"></polygon>
                                        <path d="M81.0177932,5.60757242 L80.0714712,5.06284805 L12.3097668,44.1819202 L33.9825046,56.6937337 L35.8751484,56.6937337 C70.7065347,36.5866654 72.5739058,35.5056402 103.636853,17.5746615 L81.9641151,5.06284805 L81.0177932,5.60757242 Z" id="Fill-89" fill="#BAB5B3"></path>
                                        <polygon id="Fill-91" fill="#473E40" points="33.9825046 54.7998337 12.3097668 42.2880203 12.3097668 44.1833241 33.9825046 56.6951376"></polygon>
                                        <polygon id="Fill-93" fill="#545454" points="101.743928 15.6818847 80.0711904 3.17007124 12.309486 42.2919513 33.9822238 54.8009569"></polygon>
                                        <polygon id="Fill-95" fill="#30272B" points="33.9825046 54.7998337 101.744209 15.6807616 101.744209 17.5760655 33.9825046 56.6951376"></polygon>
                                        <path d="M15.6244208,94.0250429 C15.8237943,94.1401651 16.0035112,94.339523 16.1354908,94.5669594 C16.2674705,94.791588 16.3460966,95.0471031 16.3460966,95.2801553 C16.3460966,95.5103996 16.2674705,95.6732553 16.1354908,95.7490675 C16.0035112,95.8248796 15.8237943,95.8136482 15.6244208,95.6985261 C15.4250474,95.5834039 15.2425224,95.384046 15.1133508,95.1566095 C14.9813712,94.9291731 14.899937,94.673658 14.899937,94.4434137 C14.899937,94.2131694 14.9813712,94.0531215 15.1105428,93.9745015 C15.2425224,93.8986893 15.4250474,93.9099208 15.6244208,94.0250429" id="Fill-97" fill="#FFE029"></path>
                                        <path d="M16.278422,94.8859321 C16.2699977,94.9561285 16.2391089,95.0094778 16.1913716,95.0347485 C16.1380181,95.0656349 16.059392,95.0600192 15.9751497,95.0122857 C15.8909073,94.9645521 15.8122812,94.8803163 15.7589277,94.7848492 C15.7027662,94.689382 15.6690693,94.5798756 15.6690693,94.4816006 C15.6690693,94.3833255 15.7027662,94.315937 15.7589277,94.2822427 C15.803857,94.256972 15.8656347,94.2541641 15.9302204,94.2822427 C16.0088466,94.3664784 16.0762404,94.4647534 16.13521,94.5686442 C16.1941797,94.669727 16.241917,94.7764256 16.278422,94.8859321" id="Fill-99" fill="#4F4F4F"></path>
                                        <path d="M13.965409,93.0678443 C14.1647825,93.1829664 14.3473075,93.3823243 14.4792871,93.6069529 C14.6084586,93.8343894 14.6898928,94.0899044 14.6898928,94.3201488 C14.6898928,94.5532009 14.6084586,94.7160567 14.4792871,94.789061 C14.3473075,94.867681 14.1647825,94.8564496 13.965409,94.7413274 C13.7660355,94.6262052 13.5835105,94.4240395 13.454339,94.1994109 C13.3223594,93.9719744 13.2409251,93.7164594 13.2409251,93.486215 C13.2409251,93.2559707 13.3223594,93.093115 13.454339,93.0173028 C13.5835105,92.9414907 13.7660355,92.9527221 13.965409,93.0678443" id="Fill-101" fill="#FFE029"></path>
                                        <path d="M14.6208142,93.9262063 C14.6123899,93.9992106 14.578693,94.0525599 14.5337638,94.0778306 C14.4776022,94.1087171 14.4017842,94.1031014 14.3175418,94.0553678 C14.2332995,94.0048263 14.1546734,93.9233985 14.0985118,93.8279313 C14.0451584,93.7324642 14.0114615,93.6229577 14.0114615,93.5218748 C14.0114615,93.4264077 14.0451584,93.3590191 14.0985118,93.3253248 C14.1462492,93.2972462 14.2080268,93.2972462 14.2726126,93.3253248 C14.3512388,93.4095605 14.4186326,93.5078355 14.4776022,93.6089184 C14.5365718,93.7100013 14.5843092,93.8195077 14.6208142,93.9262063" id="Fill-103" fill="#4F4F4F"></path>
                                        <path d="M3.81898462,87.2109341 C4.01835809,87.3260562 4.20088309,87.5254141 4.3328627,87.7500427 C4.46203424,87.9774792 4.54346847,88.2329942 4.54346847,88.4632386 C4.54346847,88.6962908 4.46203424,88.8591465 4.3328627,88.9321508 C4.20088309,89.0107708 4.01835809,88.9995394 3.81898462,88.8844172 C3.61961116,88.7692951 3.43708616,88.5671293 3.30791462,88.3425007 C3.17593501,88.1150642 3.09450078,87.8595492 3.09450078,87.6293049 C3.09450078,87.3990605 3.17593501,87.2362048 3.30791462,87.1603926 C3.43708616,87.0845805 3.61961116,87.0958119 3.81898462,87.2109341" id="Fill-105" fill="#FFE029"></path>
                                        <path d="M4.47438978,88.0692962 C4.46596555,88.1423004 4.43226863,88.1956497 4.3873394,88.2209205 C4.33117786,88.2518069 4.25535978,88.2461912 4.17111747,88.1984576 C4.08687516,88.1479162 4.00824901,88.0664883 3.95208747,87.9710211 C3.89873401,87.875554 3.86503709,87.7660475 3.86503709,87.6649647 C3.86503709,87.5694975 3.89873401,87.5021089 3.95208747,87.4684146 C3.99982478,87.440336 4.05879439,87.440336 4.12618824,87.4684146 C4.20200632,87.5526504 4.27220824,87.6509254 4.33117786,87.7520082 C4.39014747,87.8530911 4.43788478,87.9625976 4.47438978,88.0692962" id="Fill-107" fill="#4F4F4F"></path>
                                        <path d="M2.16137681,86.2540162 C2.36075028,86.3691384 2.54327528,86.5656884 2.67244681,86.7931249 C2.80442643,87.0205613 2.88586066,87.2760764 2.88586066,87.5063207 C2.88586066,87.736565 2.80442643,87.9022286 2.67244681,87.9752329 C2.54327528,88.0538529 2.36075028,88.0426215 2.16137681,87.9274993 C1.96200335,87.8095693 1.77947835,87.6102114 1.65030681,87.3855828 C1.5183272,87.1581464 1.43689297,86.9026313 1.43689297,86.672387 C1.43689297,86.4393348 1.5183272,86.2792869 1.64749873,86.2034748 C1.77947835,86.1276626 1.96200335,86.138894 2.16137681,86.2540162" id="Fill-109" fill="#FFE029"></path>
                                        <path d="M2.81678197,87.1120975 C2.80835774,87.1851018 2.77466081,87.2356432 2.72973158,87.2637218 C2.67357005,87.2946082 2.59775197,87.2889925 2.51350966,87.2412589 C2.42645928,87.1907175 2.3506412,87.1092896 2.29447966,87.0138225 C2.2411262,86.9155475 2.2046212,86.8088489 2.2046212,86.707766 C2.2046212,86.6122988 2.2411262,86.5421024 2.29447966,86.511216 C2.34221697,86.4831374 2.40118658,86.4831374 2.46858043,86.511216 C2.54439851,86.5954517 2.61460043,86.6937267 2.67357005,86.7948096 C2.73253966,86.8958925 2.78027697,87.0053989 2.81678197,87.1120975" id="Fill-111" fill="#4F4F4F"></path>
                                        <polygon id="Fill-113" fill="#5B5E74" points="1.7704925 69.8783099 1.7704925 66.6240029 16.0130587 74.8482178 16.0130587 78.1025248"></polygon>
                                    </g>
                                    <polygon id="Fill-116" points="1.98531039 151.273465 14.8659593 158.708672 14.8659593 155.909238 1.98531039 148.474031"></polygon>
                                    <g id="Group-167" transform="translate(0.000000, 0.225190)">
                                        <polygon id="Fill-118" fill="#9B8105" points="14.3534852 158.188095 14.0726775 158.350951 14.0726775 156.141167 14.3534852 155.978311"></polygon>
                                        <polygon id="Fill-120" fill="#FFE36E" points="2.49722281 149.133877 2.21641512 149.299541 14.0721159 156.14229 14.3529236 155.979434"></polygon>
                                        <polygon id="Fill-122" fill="#9B8105" points="1.985872 151.047713 1.70506431 151.210569 1.70506431 148.411135 1.985872 148.57399"></polygon>
                                        <path d="M2.21613431,151.505674 L2.21613431,149.298698 L14.0718351,156.141447 L14.0718351,158.351231 L2.21613431,151.505674 Z M0.000561615386,150.225291 L1.70506431,151.210849 L1.70506431,148.408608 L14.5829051,155.846622 L14.5829051,158.646056 L16.2874078,159.628807 L16.2874078,153.266201 L0.000561615386,143.862686 L0.000561615386,150.225291 Z" id="Fill-124" fill="#FFDD00"></path>
                                        <path d="M77.6023292,69.3017121 L71.0735503,65.5335671 L70.2395515,66.0165187 L76.7683303,69.7846636 L77.6023292,69.3017121 Z M75.9315234,70.2676151 L69.4055526,66.4994702 L68.5715538,66.9824217 L75.0975246,70.7505666 L75.9315234,70.2676151 Z M74.2635257,71.2307102 L67.7375549,67.4653732 L66.900748,67.9483247 L73.4267188,71.7136617 L74.2635257,71.2307102 Z M72.5927199,72.1966132 L71.7587211,72.6795648 L65.2327503,68.9114198 L66.0667492,68.4284683 L72.5927199,72.1966132 Z M70.9247223,73.1625163 L70.0907234,73.6454678 L63.5619445,69.8773229 L64.3959434,69.3943714 L70.9247223,73.1625163 Z M69.2539165,74.1256114 L68.4199176,74.6113708 L61.8939468,70.8432259 L62.7279457,70.3602744 L69.2539165,74.1256114 Z M67.5859188,75.0915144 L66.7491119,75.5716581 L60.2231411,71.8091289 L61.0571399,71.3261774 L67.5859188,75.0915144 Z M65.915113,76.0546096 L59.3891422,72.2892725 L58.5551434,72.7722241 L65.0811142,76.5375611 L65.915113,76.0546096 Z M85.4509042,73.8307864 L78.9221253,70.0626415 L78.0881265,70.5484008 L84.6169054,74.3137379 L85.4509042,73.8307864 Z M83.7800984,74.7966894 L77.2541277,71.0313523 L76.4201288,71.511496 L82.9460996,75.2796409 L83.7800984,74.7966894 Z M82.1092927,75.7625924 L75.58613,71.9944475 L74.749323,72.477399 L81.2752938,76.2455439 L82.1092927,75.7625924 Z M80.441295,76.7284954 L79.6072961,77.2086391 L73.0813253,73.443302 L73.9153242,72.9603505 L80.441295,76.7284954 Z M78.7732973,77.6915906 L77.9364903,78.1745421 L71.4105196,74.4063972 L72.2445184,73.9234457 L78.7732973,77.6915906 Z M77.1024915,78.6574936 L76.2684926,79.1404451 L69.7425219,75.3723002 L70.5765207,74.8893487 L77.1024915,78.6574936 Z M75.4344938,79.6233966 L74.5976869,80.1063481 L68.0717161,76.3382032 L68.9057149,75.8552517 L75.4344938,79.6233966 Z M73.763688,80.5892996 L67.2377172,76.8211547 L66.4037184,77.3041062 L72.9268811,81.0694433 L73.763688,80.5892996 Z M61.1161095,87.8813058 L54.5901387,84.1131609 L53.7533318,84.5961124 L60.2821107,88.3642573 L61.1161095,87.8813058 Z M59.4453038,88.8472088 L52.919333,85.0790639 L52.0853341,85.5620154 L58.6113049,89.3301604 L59.4453038,88.8472088 Z M57.774498,89.810304 L51.2513353,86.0421591 L50.4145284,86.5279185 L56.9433072,90.2932555 L57.774498,89.810304 Z M56.1065003,90.7733992 L55.2725014,91.2563507 L48.7465307,87.4910136 L49.5805295,87.0080621 L56.1065003,90.7733992 Z M54.4385026,91.7393022 L53.6045037,92.2222537 L47.0757249,88.4569166 L47.9125318,87.9711573 L54.4385026,91.7393022 Z M52.7676968,92.7052052 L51.933698,93.1881567 L45.4077272,89.4228197 L46.241726,88.9370603 L52.7676968,92.7052052 Z M51.0996991,93.6711082 L50.2628922,94.1540597 L43.7369214,90.3859148 L44.5709203,89.9029633 L51.0996991,93.6711082 Z M49.4288934,94.6342034 L42.9029226,90.8688663 L42.0689237,91.3518178 L48.5948945,95.1171549 L49.4288934,94.6342034 Z M53.2675345,83.3494237 L46.7415637,79.5812787 L45.9047568,80.0642303 L52.4335357,83.8323752 L53.2675345,83.3494237 Z M51.5967287,84.3153267 L45.073566,80.5471818 L44.2367591,81.0301333 L50.7627299,84.7982782 L51.5967287,84.3153267 Z M49.928731,85.2784218 L43.4027603,81.5130848 L42.5659533,81.9960363 L49.0947322,85.7613733 L49.928731,85.2784218 Z M48.2579253,86.2443248 L47.4239264,86.7272764 L40.8979556,82.9591314 L41.7319545,82.4761799 L48.2579253,86.2443248 Z M46.5899276,87.2102279 L45.7559287,87.6931794 L39.2271499,83.9250345 L40.0639568,83.442083 L46.5899276,87.2102279 Z M44.9191218,88.1761309 L44.085123,88.6590824 L37.5591522,84.8909375 L38.393151,84.407986 L44.9191218,88.1761309 Z M43.2511241,89.139226 L42.4143172,89.6221775 L35.8883464,85.8568405 L36.7223452,85.373889 L43.2511241,89.139226 Z M41.5803183,90.1051291 L35.0543475,86.3369841 L34.2203487,86.8199357 L40.7463195,90.5880806 L41.5803183,90.1051291 Z" id="Fill-126" fill="#30272B"></path>
                                        <polygon id="Fill-130" fill="#30272B" points="157.956012 8.94653204 159.969403 7.78407899 145.030434 31.7014101 143.017043 32.8694788"></polygon>
                                        <polygon id="Fill-132" fill="#30272B" points="157.956012 8.94653204 156.678337 8.20806549 141.739368 32.1310123 143.017043 32.8694788"></polygon>
                                        <polygon id="Fill-134" fill="#30272B" points="162.327346 9.14392443 162.327346 7.9140828 160.313954 9.07653585 160.313954 10.3063775"></polygon>
                                        <polygon id="Fill-136" fill="#443A3E" points="154.321237 5.61781685 154.321237 6.84765848 160.313674 10.3069391 160.310865 9.07428956"></polygon>
                                        <polygon id="Fill-138" fill="#443A3E" points="162.327346 7.91267887 156.334909 4.45620616 154.321518 5.61865921 160.313954 9.07513192"></polygon>
                                        <polygon id="Fill-140" fill="#443A3E" points="162.327346 7.91267887 156.334909 4.45620616 154.321518 5.61865921 160.313954 9.07513192"></polygon>
                                        <polygon id="Fill-142" fill="#30272B" points="157.835546 5.31878001 156.819022 5.90562225 135.584344 3.54982972 136.600868 2.96298748"></polygon>
                                        <polygon id="Fill-144" fill="#30272B" points="161.580116 7.47942644 160.563592 8.06626868 144.144767 8.49025518 145.16129 7.90341294"></polygon>
                                        <polygon id="Fill-146" fill="#443A3E" points="157.085508 4.88552759 135.850831 2.52973506 136.603395 2.96214513 157.835265 5.31793766"></polygon>
                                        <polygon id="Fill-148" fill="#443A3E" points="160.830079 7.04617401 144.411253 7.47016051 145.16101 7.90537844 161.579835 7.47858408"></polygon>
                                        <polygon id="Fill-150" fill="#443A3E" points="147.207817 10.2600478 132.886625 1.99371504 132.886625 0.943576294 147.207817 9.20990908"></polygon>
                                        <polygon id="Fill-152" fill="#30272B" points="129.85334 2.00101547 132.886063 1.9925919 132.886063 0.942453151 129.85334 0.950876724"></polygon>
                                        <polygon id="Fill-154" fill="#30272B" points="129.85334 2.00101547 129.221523 1.63880184 129.221523 0.588663093 129.85334 0.950876724"></polygon>
                                        <g id="Group-158" transform="translate(129.171539, -0.000000)">
                                            <mask id="mask-6" fill="white">
                                                <use xlink:href="#path-5"></use>
                                            </mask>
                                            <g id="Clip-157"></g>
                                            <polygon id="Fill-156" fill="#443A3E" mask="url(#mask-6)" points="3.71480497 0.942453151 10.8754011 5.0784274 18.0359973 9.20878594 17.4687658 9.76474175 16.9043423 10.3178897 17.221655 10.5004004 17.5361596 10.6829112 18.4740573 9.76193389 19.411955 8.84095659 12.2541669 4.7077902 5.09076267 0.574623805 2.57191766 0.58023952 0.050264577 0.588663093 0.364769193 0.768365979 0.682081886 0.950876724 2.19844343 0.948068866"></polygon>
                                        </g>
                                        <polygon id="Fill-159" fill="#30272B" points="146.707418 11.7324884 148.583213 9.89334163 148.583213 8.84320288 146.707418 10.6823496"></polygon>
                                        <polygon id="Fill-161" fill="#30272B" points="146.707418 11.7324884 146.0756 11.3674669 146.0756 10.3173281 146.707418 10.6823496"></polygon>
                                        <polygon id="Fill-163" fill="#443A3E" points="157.085508 4.88552759 135.850831 2.52973506 136.603395 2.96214513 157.835265 5.31793766"></polygon>
                                        <polygon id="Fill-165" fill="#443A3E" points="160.830079 7.04617401 144.411253 7.47016051 145.16101 7.90537844 161.579835 7.47858408"></polygon>
                                    </g>
                                </g>
                            </g>
                        </g>
                    </g>
                    <g id="Group-15" transform="translate(778.000000, 203.000000)">
                        <g id="Page-1">
                            <g id="Group-12" transform="translate(2.303516, 36.885274)">
                                <path d="M77.1039141,51.4720573 C69.5162087,54.4020044 61.9285034,57.3319516 54.340798,60.2618988 L44.7106416,60.2618988 L5.05645595,38.4381727 L73.4377146,0.825827805 L85.8558166,7.6591265 L94.0664695,3.14253021 L107.230066,9.32364797 L141.001993,27.8962034 L113.622938,42.9742371 L77.1039141,51.4720573 Z" id="Fill-1" fill="#E9EBF2"></path>
                                <g id="Group-5" transform="translate(0.000000, 1.100370)">
                                    <mask id="mask-8" fill="white">
                                        <use xlink:href="#path-7"></use>
                                    </mask>
                                    <g id="Clip-4"></g>
                                </g>
                                <polygon id="Fill-6" fill="#5D5D5D" points="19.0523513 13.9716539 58.706537 35.7856458 58.706537 47.5735728 19.0523513 25.7498468"></polygon>
                                <path d="M48.3421195,54.2384725 C49.3735572,54.803047 50.7726361,54.7251747 52.3453234,53.8588448 C53.9077984,53.002249 55.3273018,51.5324084 56.3383151,49.8386847 C57.3697528,48.1449611 57.9927003,46.2468226 57.9927003,44.5238969 C57.9927003,42.8009711 57.3697528,41.5939497 56.3383151,41.0293752 C54.8371136,40.2019815 53.8363126,39.647141 52.3248989,38.8197473 C51.3036734,38.2454387 49.88417,38.3330451 48.321695,39.1896409 C46.7694322,40.0559708 45.3499288,41.5258114 44.3184911,43.219535 C43.2972656,44.9132586 42.6641058,46.8113972 42.6641058,48.5343229 C42.6641058,50.2572486 43.2972656,51.4642701 44.3184911,52.0288446 C45.8503293,52.8659723 46.840918,53.4110788 48.3421195,54.2384725" id="Fill-8" fill="#090E06"></path>
                                <path d="M52.3412385,41.4051093 C49.2162885,43.128035 46.6836493,47.3039398 46.6836493,50.7497912 C46.6836493,54.1859087 49.2162885,55.5778769 52.3412385,53.8549512 C55.4661885,52.1417595 57.9988277,47.9561207 57.9988277,44.5200033 C57.9988277,41.0838858 55.4661885,39.6821835 52.3412385,41.4051093" id="Fill-10" fill="#232323"></path>
                            </g>
                            <polygon id="Fill-13" fill="#FFFFFF" points="68.8203856 37.2720968 106.575092 58.0445461 112.641171 54.7057691 74.8966773 33.9333198"></polygon>
                            <g id="Group-20" transform="translate(0.000000, 66.087406)">
                                <polygon id="Fill-15" fill="#FFFFFF" points="7.48354037 0.310896892 0.0081698039 4.42839739 41.9601128 27.5175491 49.4456957 23.4000486"></polygon>
                                <g id="Group-19" transform="translate(35.243797, 22.599910)">
                                    <mask id="mask-10" fill="white">
                                        <use xlink:href="#path-9"></use>
                                    </mask>
                                    <g id="Clip-18"></g>
                                    <polygon id="Fill-17" fill="#A2A2A2" mask="url(#mask-10)" points="0.482755555 0.212202153 6.51819819 3.53151106 6.51819819 2.29528751 11.3077457 2.29528751 11.3077457 2.40236199 8.87722907 3.72619194 6.51819819 3.72619194 0.298934968 0.30954259"></polygon>
                                </g>
                            </g>
                            <g id="Group-23" transform="translate(41.842123, 84.455123)">
                                <mask id="mask-12" fill="white">
                                    <use xlink:href="#path-11"></use>
                                </mask>
                                <g id="Clip-22"></g>
                                <polygon id="Fill-21" mask="url(#mask-12)" points="0.120032333 7.87272527 2.43821419 7.87272527 7.60561516 5.03038451 0.120032333 0.922618057"></polygon>
                            </g>
                            <g id="Group-49" transform="translate(0.000000, 0.039666)">
                                <polygon id="Fill-24" fill="#5D5D5D" points="69.9835615 28.6966481 105.420086 48.1939377 105.420086 59.9818647 69.9835615 40.4845751"></polygon>
                                <path d="M95.0556684,66.0646686 C96.0871062,66.6292431 97.4963973,66.5416367 99.0588723,65.6850409 C100.621347,64.818711 102.040851,63.3488704 103.051864,61.6551468 C104.083302,59.9711572 104.716462,58.0632846 104.716462,56.3403589 C104.716462,54.6174332 104.083302,53.4104117 103.051864,52.8555713 C101.560875,52.0281775 100.549862,51.463603 99.0486601,50.6362093 C98.0172223,50.0716347 96.5977189,50.1495071 95.0352439,51.015837 C93.4829812,51.8724328 92.0634777,53.3520075 91.03204,55.0457311 C90.0108145,56.7297207 89.3776547,58.6375932 89.3776547,60.360519 C89.3776547,62.0834447 90.0108145,63.2904661 91.03204,63.8453066 C92.5638782,64.6824344 93.5544669,65.2275408 95.0556684,66.0646686" id="Fill-26" fill="#090E06"></path>
                                <path d="M99.0547874,53.2215713 C95.9298374,54.944497 93.3971982,59.1301358 93.3971982,62.5662533 C93.3971982,66.0023707 95.9298374,67.404073 99.0547874,65.6811473 C102.179737,63.9679556 104.722589,59.7823168 104.722589,56.3364653 C104.722589,52.9003479 102.179737,51.5083796 99.0547874,53.2215713" id="Fill-28" fill="#2B2B2B"></path>
                                <path d="M110.324011,39.0108409 L57.9351432,67.8528124 L41.9631765,83.1060589 L41.9631765,92.2949962 L48.2947745,88.8102085 L48.2947745,87.3987722 C48.2947745,83.5343568 51.1337814,78.8328137 54.6467971,76.9054731 C58.1598128,74.9683984 61.0090319,76.5355794 61.0090319,80.3999948 L61.0090319,84.4201548 L92.6976588,66.9767485 L92.6976588,62.9565884 C92.6976588,59.0921731 95.5468779,54.3906299 99.0496813,52.4632893 C102.562697,50.5262146 105.422128,52.1031297 105.422128,55.957811 L105.422128,57.3692473 L110.324011,54.6631832 L110.324011,39.0108409 Z" id="Fill-30" fill="#B5B5B5"></path>
                                <polygon id="Fill-32" fill="#EDEBEB" points="2.31716063 61.2920669 41.9611341 83.1060589 41.9611341 92.2949962 2.31716063 70.4712702"></polygon>
                                <path d="M10.67487,75.0667122 L4.30242298,71.5721905 L3.32204651,69.1581477 L3.32204651,63.7168172 L9.54130973,67.1432006 L10.67487,69.9271371 L10.67487,75.0667122 Z M41.9550067,86.8935753 L41.9550067,92.2959696 L35.7255312,88.8598522 L34.7349425,86.4458093 L34.7349425,81.0044789 L40.964418,84.4308623 L41.9550067,86.8935753 Z" id="Fill-34" fill="#A2A2A2"></path>
                                <polygon id="Fill-36" fill="#D2D2D2" points="94.886145 18.5917374 67.4968774 33.660037 57.9382068 67.8557326 110.327074 39.0137611"></polygon>
                                <polygon id="Fill-38" fill="#09A5CB" points="91.4252118 22.7082644 101.586405 43.8214053 60.3901692 66.5017271 69.2237697 34.9244893"></polygon>
                                <polygon id="Fill-40" fill="#FFFFFF" points="2.31716063 61.2920669 41.9611341 83.1060589 57.9331007 67.8528124 18.278915 46.0290864"></polygon>
                                <polygon id="Fill-42" fill="#EDEBEB" points="33.7320991 15.0748274 67.504026 33.6571168 57.9351432 67.8528124 18.2809575 46.0290864"></polygon>
                                <g id="Group-46" transform="translate(32.940281, 0.000000)">
                                    <mask id="mask-14" fill="white">
                                        <use xlink:href="#path-13"></use>
                                    </mask>
                                    <g id="Clip-45"></g>
                                    <polygon id="Fill-44" fill="#C5E6F1" mask="url(#mask-14)" points="0.791818316 15.0748274 34.5637452 33.6571168 61.9428005 18.5888171 28.1810859 0.00652767668"></polygon>
                                </g>
                                <polygon id="Fill-47" fill="#C3D6E6" points="0.00408490195 70.4751638 41.9560279 93.5643155 41.9560279 96.1730392 0.00408490195 73.0838875"></polygon>
                            </g>
                            <path d="M106.575092,58.0542802 L106.575092,60.6532698 L112.641171,57.3047588 L112.641171,54.7057691 L106.575092,58.0542802 Z M62.1722077,82.496464 L62.1722077,85.0954536 L93.8608346,67.6520473 L93.8608346,65.0530576 L62.1722077,82.496464 Z M41.9621553,93.6030078 L41.9621553,96.2019975 L49.4477381,92.0942311 L49.4477381,89.4855073 L41.9621553,93.6030078 Z" id="Fill-50" fill="#B0BDC7"></path>
                            <g id="Group-54" transform="translate(105.419168, 57.343558)">
                                <mask id="mask-16" fill="white">
                                    <use xlink:href="#path-15"></use>
                                </mask>
                                <g id="Clip-53"></g>
                                <polygon id="Fill-52" fill="#F7F2EC" mask="url(#mask-16)" points="0.00193873946 2.67699909 1.15592354 3.30971193 1.15592354 0.710722257 0.00193873946 0.0585413277"></polygon>
                            </g>
                            <g id="Group-57" transform="translate(60.275339, 81.154012)">
                                <mask id="mask-18" fill="white">
                                    <use xlink:href="#path-17"></use>
                                </mask>
                                <g id="Clip-56"></g>
                                <polygon id="Fill-55" fill="#F7F2EC" mask="url(#mask-18)" points="0.7326717 3.29899438 1.89686876 3.94144127 1.89686876 1.34245159 0.7326717 0.690270666"></polygon>
                            </g>
                            <polygon id="Fill-58" fill="#FFFFFF" points="61.0080106 81.844283 62.1722077 82.496464 93.8608346 65.0530576 92.6966375 64.4106107"></polygon>
                            <g id="Group-68" transform="translate(9.214065, 22.749750)">
                                <polygon id="Fill-60" fill="#FFFFFF" points="51.5948071 42.2799459 51.5948071 42.2799459 51.3803498 43.0294672 51.1761047 43.7789886 92.3723409 21.1084008 91.8004546 20.7871773 91.218356 20.4756879 90.6362575 20.1544645 51.8092645 41.5206905"></polygon>
                                <polygon id="Fill-62" fill="#A4A4A4" points="90.6383 20.1505709 81.2021765 0.546206819 82.2131897 0.00110037016 92.3743833 21.1142412"></polygon>
                                <polygon id="Fill-64" fill="#727272" points="0.323160279 44.4282493 25.5270053 58.2992616 25.5270053 63.730858 0.323160279 49.8695798"></polygon>
                                <polygon id="Fill-66" fill="#F2F8F7" points="24.3679144 58.9339213 30.5871776 62.3603047 30.5871776 67.7919011 24.3679144 64.3752517"></polygon>
                            </g>
                            <g id="Group-71" transform="translate(39.692175, 84.455123)">
                                <mask id="mask-20" fill="white">
                                    <use xlink:href="#path-19"></use>
                                </mask>
                                <g id="Clip-70"></g>
                                <polygon id="Fill-69" fill="url(#linearGradient-21)" mask="url(#mask-20)" points="0.11519495 0.650064833 0.11519495 6.09139527 1.26917975 5.44894839 1.26917975 0.00761794726"></polygon>
                            </g>
                            <g id="Group-76" transform="translate(2.144862, 63.886665)">
                                <polygon id="Fill-72" fill="#FFFFFF" points="32.5941659 17.1603996 38.8134291 20.586783 37.6594443 21.2194958 31.4401811 17.7931124"></polygon>
                                <polygon id="Fill-74" fill="#F2F8F7" points="0.0232001934 0.506424205 6.23225116 3.93280759 6.23225116 9.36440399 0.0232001934 5.94775465"></polygon>
                            </g>
                            <g id="Group-79" transform="translate(8.062306, 67.169073)">
                                <mask id="mask-23" fill="white">
                                    <use xlink:href="#path-22"></use>
                                </mask>
                                <g id="Clip-78"></g>
                                <polygon id="Fill-77" fill="url(#linearGradient-21)" mask="url(#mask-23)" points="0.321954772 0.638718648 0.321954772 6.08004909 1.47593957 5.44733625 1.47593957 0.0157398497"></polygon>
                            </g>
                            <polygon id="Fill-80" fill="#FFFFFF" points="3.32408896 63.756483 9.53313993 67.1828664 8.37915513 67.8155792 2.15989191 64.3891958"></polygon>
                            <g id="Group-84" transform="translate(86.305071, 56.353362)">
                                <mask id="mask-25" fill="white">
                                    <use xlink:href="#path-24"></use>
                                </mask>
                                <g id="Clip-83"></g>
                                <polygon id="Fill-82" mask="url(#mask-25)" points="0.866736339 1.1363438 1.72456575 1.62304599 1.72456575 0.503630958 0.866736339 0.0169287717"></polygon>
                            </g>
                            <g id="Group-87" transform="translate(84.001555, 55.252992)">
                                <mask id="mask-27" fill="white">
                                    <use xlink:href="#path-26"></use>
                                </mask>
                                <g id="Clip-86"></g>
                                <polygon id="Fill-85" mask="url(#mask-27)" points="0.239335327 2.56767145 0.239335327 3.68708647 4.02808189 1.60400112 4.02808189 2.72341615 4.90633581 2.23671396 4.90633581 0.640330789 4.90633581 0.00761794726"></polygon>
                            </g>
                            <g id="Group-90" transform="translate(82.849797, 57.343558)">
                                <mask id="mask-29" fill="white">
                                    <use xlink:href="#path-28"></use>
                                </mask>
                                <g id="Clip-89"></g>
                                <polygon id="Fill-88" mask="url(#mask-29)" points="0.512839476 1.11955209 1.3910934 1.59652024 1.3910934 0.477105208 0.512839476 0.00013706537"></polygon>
                            </g>
                            <g id="Group-93" transform="translate(82.849797, 54.152622)">
                                <mask id="mask-31" fill="white">
                                    <use xlink:href="#path-30"></use>
                                </mask>
                                <g id="Clip-92"></g>
                                <polygon id="Fill-91" mask="url(#mask-31)" points="0.512839476 3.19107346 1.3910934 3.66804161 6.05809388 1.10798811 5.17983996 0.621285921"></polygon>
                            </g>
                            <g id="Group-96" transform="translate(32.940281, 0.039666)">
                                <mask id="mask-33" fill="white">
                                    <use xlink:href="#path-32"></use>
                                </mask>
                                <g id="Clip-95"></g>
                                <polygon id="Fill-94" fill="#FFFFFF" mask="url(#mask-33)" points="0.791818316 15.0748274 34.5637452 33.6571168 61.9428005 18.5888171 28.1810859 0.00652767668"></polygon>
                            </g>
                            <g id="Group-119" transform="translate(3.455274, 17.417187)">
                                <polygon id="Fill-115" fill="#BDABA1" points="0.846127548 54.1810417 7.21857459 57.6852974 6.88157018 57.6950314 0.66230696 54.2881161"></polygon>
                                <polygon id="Fill-117" fill="#0FC0EA" points="31.1540576 0.396556477 61.7091242 17.216984 53.2125281 47.5677323 46.8400811 44.0634766 40.9986713 33.686986 40.2327522 34.0860818 45.4103654 43.2750191 29.3975497 34.4559755 23.9850547 24.8776764 23.2293478 25.2670382 27.9678341 33.677252 17.4389993 27.8757619"></polygon>
                            </g>
                        </g>
                    </g>
                    <g id="Group-5-Copy" transform="translate(585.000000, 402.000000)">
                        <g id="Group-6-Copy-2">
                            <g id="Page-1" transform="translate(34.000000, 34.500000) scale(-1, 1) translate(-34.000000, -34.500000) ">
                                <polygon id="Fill-1" fill="#F4F4F4" points="12.6228743 54.0969626 0 61.3809281 12.6228743 68.6695839 42.3836802 68.6695839 51.7839924 63.2429592 54.809542 63.2429592 58.0321041 61.3809281 54.809542 59.518897 51.7839924 59.518897 42.3836802 54.0969626"></polygon>
                                <polygon id="Fill-2" fill="#AAAAAA" points="51.5860417 61.3828042 54.8086038 63.2448353 54.8086038 50.8203507 51.5860417 48.9583196"></polygon>
                                <polygon id="Fill-3" fill="#D2D2D2" points="54.8071966 50.8212887 54.8071966 63.2457734 58.0344495 61.3837423 58.0344495 48.9592576"></polygon>
                                <polygon id="Fill-5" fill="#2DFC9D" points="42.1861985 7.28584162 54.8090729 14.5744974 67.4319472 7.29053187 54.8137636 0.00187610187"></polygon>
                                <polygon id="Fill-6" fill="#2DC689" points="54.8071966 14.5735593 54.8071966 56.2483824 67.4300709 48.9644169 67.4300709 7.28959382"></polygon>
                                <polygon id="Fill-7" fill="#1CAC7A" points="42.1852604 7.28631064 54.8081347 14.5749664 54.8081347 56.2497895 42.1852604 48.9611337"></polygon>
                            </g>
                        </g>
                    </g>
                    <g id="Group-5-Copy" transform="translate(975.000000, 477.000000)">
                        <g id="Group-6-Copy-2">
                            <g id="Page-1" transform="translate(34.000000, 39.500000) scale(-1, 1) translate(-34.000000, -39.500000) ">
                                <polygon id="Fill-1" fill="#F4F4F4" points="12.6228743 64.0969626 0 71.3809281 12.6228743 78.6695839 42.3836802 78.6695839 51.7839924 73.2429592 54.809542 73.2429592 58.0321041 71.3809281 54.809542 69.518897 51.7839924 69.518897 42.3836802 64.0969626"></polygon>
                                <polygon id="Fill-2" fill="#AAAAAA" points="51.5860417 71.3828042 54.8086038 73.2448353 54.8086038 60.8203507 51.5860417 58.9583196"></polygon>
                                <polygon id="Fill-3" fill="#D2D2D2" points="54.8071966 60.8212887 54.8071966 73.2457734 58.0344495 71.3837423 58.0344495 58.9592576"></polygon>
                                <polygon id="Fill-5" fill="#2DFC9D" points="42.1861985 7.28584162 54.8090729 14.5744974 67.4319472 7.29053187 54.8137636 0.00187610187"></polygon>
                                <polygon id="Fill-6" fill="#2DC689" points="54.8071966 14.5735593 54.8071966 66.2483824 67.4300709 58.9644169 67.4300709 7.28959382"></polygon>
                                <polygon id="Fill-7" fill="#1CAC7A" points="42.1852604 7.28631064 54.8081347 14.5749664 54.8081347 66.2497895 42.1852604 58.9611337"></polygon>
                            </g>
                        </g>
                    </g>
                    <g id="Group-5" transform="translate(390.000000, 191.000000)">
                        <g id="Group-6-Copy-2">
                            <g id="Page-1" transform="translate(26.500000, 27.000000) scale(-1, 1) translate(-26.500000, -27.000000) ">
                                <polygon id="Fill-1" fill="#F4F4F4" points="9.83841676 42.3367534 0 48.0372481 9.83841676 53.7414135 33.0343389 53.7414135 40.3610529 49.4944898 42.7192018 49.4944898 45.2309046 48.0372481 42.7192018 46.5800064 40.3610529 46.5800064 33.0343389 42.3367534"></polygon>
                                <polygon id="Fill-2" fill="#AAAAAA" points="40.2067678 48.0387164 42.7184706 49.4959581 42.7184706 39.7724484 40.2067678 38.3152066"></polygon>
                                <polygon id="Fill-3" fill="#D2D2D2" points="42.7173738 39.7731825 42.7173738 49.4966922 45.2327327 48.0394505 45.2327327 38.3159408"></polygon>
                                <polygon id="Fill-5" fill="#2DFC9D" points="32.8804195 5.701963 42.7188362 11.4061284 52.557253 5.70563364 42.7224923 0.00146825364"></polygon>
                                <polygon id="Fill-6" fill="#2DC689" points="42.7173738 11.4053943 42.7173738 44.0204732 52.5557905 38.3199785 52.5557905 5.70489951"></polygon>
                                <polygon id="Fill-7" fill="#1CAC7A" points="32.8796882 5.70233007 42.718105 11.4064955 42.718105 44.0215744 32.8796882 38.317409"></polygon>
                            </g>
                        </g>
                    </g>
                </g>
            </g>
        </g>
    </g>
</svg>