<?xml version="1.0" encoding="UTF-8"?>
<svg width="977px" height="901px" viewBox="0 0 977 901" version="1.1" xmlns="http://www.w3.org/2000/svg" xmlns:xlink="http://www.w3.org/1999/xlink">
    <!-- Generator: Sketch 50.2 (55047) - http://www.bohemiancoding.com/sketch -->
    <title>Group 27</title>
    <desc>Created with Sketch.</desc>
    <defs>
        <polygon id="path-1" points="52.7236589 47.3958167 52.7236589 66.9457304 57.7294908 64.0158264 57.7294908 44.4659126"></polygon>
    </defs>
    <g id="Page-1" stroke="none" stroke-width="1" fill="none" fill-rule="evenodd">
        <g id="Головна" transform="translate(-327.000000, -772.000000)">
            <g id="Group-27" transform="translate(326.000000, 772.000000)">
                <g id="Kachelia" transform="translate(766.500000, 835.000000) scale(-1, 1) translate(-766.500000, -835.000000) translate(684.000000, 769.000000)">
                    <g id="All_images-08">
                        <path d="M103.967325,79.7953289 L64.78065,79.7953289 L78.0384,71.5758926 L108.783675,76.8098255 L103.967325,79.7953289 Z M97.474575,86.3864698 L54.1497,86.3864698 L63.3336,80.6918658 L102.520275,80.6918658 L95.438475,85.0824161 L97.482,86.3501477 L97.474575,86.3864698 Z M74.1741,98.2655839 L67.09395,102.655248 L69.137475,103.92298 L69.130875,103.958416 L36.201,103.958416 L41.747475,101.863248 L44.0946,100.406819 L41.74335,98.9503893 L28.473225,103.958416 L25.80765,103.958416 L34.989075,98.2655839 L74.1741,98.2655839 Z M22.209,106.322899 L21.6579,106.530201 L24.359775,104.855839 L26.0964,104.855839 L22.209,106.322899 Z M164.882025,84.5048054 L162.530775,83.046604 L81.223725,69.2069799 L96.39795,63.4831409 L114.962925,56.4685369 L117.309225,55.0138792 L114.957975,53.5565638 L95.42445,60.9299597 L75.9066,68.3015839 L73.559475,69.7571275 L73.561125,69.7588993 L2.691975,113.694523 L2.69115,113.695409 L0.68145,114.940993 L0.3465,115.149181 L0.34485,115.150953 L2.695275,116.607383 L89.320275,131.353289 L91.666575,129.897745 L89.315325,128.44043 L8.50575,114.684966 L9.62775,113.988644 L23.18415,108.876081 L33.82665,104.855839 L69.40725,104.855839 L71.86245,105.612403 L76.6986,108.611195 L78.31065,108.611195 L92.4825,99.8230067 L82.87785,93.8688322 L81.2658,93.8688322 L75.62115,97.369047 L36.436125,97.369047 L52.7043,87.2830067 L97.751775,87.2830067 L100.20615,88.0386846 L105.043125,91.0383624 L106.656,91.0383624 L120.827025,82.2510604 L113.28735,77.5761342 L162.535725,85.9594631 L164.882025,84.5048054 Z" id="Fill-1" fill="#9AD8EF"></path>
                        <polyline id="Fill-2" fill="#AAAAAA" points="117.309225 55.0129933 139.920825 4.88665772 137.571225 6.34308725 114.96045 56.4703087 117.309225 55.0129933"></polyline>
                        <polyline id="Fill-3" fill="#DFD9D9" points="138.746025 3.73852349 136.396425 2.28120805 112.610025 55.0138792 114.96045 56.4703087 137.571225 6.34308725 160.182 84.5056913 162.5316 85.9638926 138.746025 3.73852349"></polyline>
                        <polyline id="Fill-4" fill="#F1F1F1" points="164.882025 84.5056913 141.095625 2.28120805 138.746025 3.73852349 162.5316 85.9638926 164.882025 84.5056913"></polyline>
                        <polyline id="Fill-5" fill="#CDB200" points="85.6845 98.9610201 76.07985 93.0068456 76.07985 94.7396779 85.6845 100.692966 85.6845 98.9610201"></polyline>
                        <polyline id="Fill-6" fill="#CDB200" points="114.029025 81.3881879 104.424375 75.4348993 104.424375 77.1659597 114.029025 83.1210201 114.029025 81.3881879"></polyline>
                        <polyline id="Fill-7" fill="#FFDD00" points="99.85635 90.1737181 85.6845 98.9610201 76.07985 93.0068456 90.2517 84.2204295 99.85635 90.1737181"></polyline>
                        <path d="M89.0208,88.6171812 L96.910275,91.0481074 L97.139625,90.1870067 L89.569425,87.8535302 L89.94315,86.0728591 L89.13135,85.8779597 L88.744425,87.7197584 L84.607875,87.7197584 L83.16,88.6171812 L89.0208,88.6171812 Z M80.849175,95.964 L86.282625,97.6374765 L86.51115,96.7772617 L78.941775,94.4437852 L79.3155,92.6631141 L78.502875,92.4673289 L78.123375,94.2728054 L80.849175,95.964 Z" id="Fill-8" fill="#CAAF00"></path>
                        <polyline id="Fill-9" fill="#FFDD00" points="128.200875 72.6017718 114.029025 81.3881879 104.424375 75.4340134 118.596225 66.6475973 128.200875 72.6017718"></polyline>
                        <path d="M117.365325,71.044349 L125.255625,73.4743893 L125.484975,72.6132886 L117.91395,70.280698 L118.2885,68.5000268 L117.475875,68.3042416 L117.08895,70.1460403 L112.9524,70.1460403 L111.504525,71.044349 L117.365325,71.044349 Z M109.1937,78.3911678 L114.627975,80.0646443 L114.8565,79.2035436 L107.287125,76.870953 L107.660025,75.089396 L106.8474,74.8936107 L106.468725,76.6999732 L109.1937,78.3911678 Z" id="Fill-10" fill="#CAAF00"></path>
                        <polyline id="Fill-11" fill="#FFEE7E" points="99.85635 90.174604 85.6845 98.961906 85.6845 100.692966 99.85635 91.9074362 99.85635 90.174604"></polyline>
                        <polyline id="Fill-12" fill="#FFEE7E" points="128.200875 72.6017718 114.029025 81.3890738 114.029025 83.1210201 128.200875 74.3354899 128.200875 72.6017718"></polyline>
                        <polyline id="Fill-13" fill="#52535A" points="86.036775 97.4328322 86.75865 96.981906 82.8069 89.6306577 78.700875 92.174094 79.1175 92.9536913 82.50165 90.8549799 86.036775 97.4328322"></polyline>
                        <polyline id="Fill-14" fill="#52535A" points="114.3813 79.8608859 115.103175 79.4081879 111.151425 72.0578255 107.0454 74.6021477 107.462025 75.381745 110.846175 73.2821477 114.3813 79.8608859"></polyline>
                        <polyline id="Fill-15" fill="#52535A" points="96.6636 90.8425772 97.3863 90.391651 93.43455 83.0412886 89.3277 85.5847248 89.74515 86.3643221 93.128475 84.2647248 96.6636 90.8425772"></polyline>
                        <polyline id="Fill-16" fill="#52535A" points="125.00895 73.269745 125.730825 72.8188188 121.77825 65.4684564 117.67305 68.0127785 118.091325 68.7923758 121.473825 66.6927785 125.00895 73.269745"></polyline>
                        <path d="M88.8459,86.1747383 C89.067825,86.413047 89.55705,86.5175839 89.940675,86.4077315 C90.32265,86.2969933 90.452175,86.0143893 90.229425,85.7760805 C90.006675,85.5368859 89.51745,85.4332349 89.13465,85.5430872 C88.752675,85.6529396 88.622325,85.9355436 88.8459,86.1747383" id="Fill-17" fill="#52535A"></path>
                        <path d="M117.1896,68.6010201 C117.41235,68.8393289 117.901575,68.9438658 118.284375,68.8348993 C118.667175,68.725047 118.797525,68.441557 118.57395,68.2032483 C118.3512,67.9640537 117.861975,67.8604027 117.48,67.9693691 C117.0972,68.0792215 116.96685,68.3627114 117.1896,68.6010201" id="Fill-18" fill="#52535A"></path>
                        <path d="M78.21825,92.7641074 C78.43935,93.003302 78.9294,93.106953 79.3122,92.9971007 C79.694175,92.8863624 79.824525,92.6055302 79.60095,92.3663356 C79.379025,92.1271409 78.888975,92.0234899 78.507,92.1324564 C78.125025,92.2423087 77.994675,92.5257987 78.21825,92.7641074" id="Fill-19" fill="#060905"></path>
                        <path d="M106.56195,75.1912752 C106.7847,75.4304698 107.2731,75.5341208 107.656725,75.4242685 C108.0387,75.3144161 108.16905,75.0318121 107.945475,74.7926174 C107.722725,74.5543087 107.234325,74.4497718 106.851525,74.5587383 C106.468725,74.6694765 106.3392,74.9529664 106.56195,75.1912752" id="Fill-20" fill="#52535A"></path>
                        <path d="M96.3336,90.8168859 C96.555525,91.0551946 97.045575,91.1597315 97.42755,91.0498792 C97.809525,90.9391409 97.939875,90.6565369 97.717125,90.4182282 C97.4952,90.1790336 97.00515,90.0753826 96.62235,90.1852349 C96.240375,90.2950872 96.11085,90.5776913 96.3336,90.8168859" id="Fill-21" fill="#52535A"></path>
                        <path d="M124.678125,73.2431678 C124.90005,73.4832483 125.3901,73.5860134 125.7729,73.477047 C126.15405,73.3663087 126.2844,73.0837047 126.06165,72.8445101 C125.839725,72.6062013 125.349675,72.5016644 124.966875,72.6115168 C124.585725,72.722255 124.455375,73.0048591 124.678125,73.2431678" id="Fill-22" fill="#52535A"></path>
                        <path d="M85.705125,97.4071409 C85.927875,97.6454497 86.4171,97.7491007 86.7999,97.6401342 C87.18105,97.529396 87.31305,97.2467919 87.089475,97.0075973 C86.866725,96.7701745 86.3775,96.6656376 85.993875,96.7754899 C85.612725,96.8853423 85.482375,97.1679463 85.705125,97.4071409" id="Fill-23" fill="#52535A"></path>
                        <path d="M114.04965,79.8334228 C114.2724,80.0726174 114.76245,80.1762685 115.14525,80.0664161 C115.5264,79.9565638 115.65675,79.6739597 115.434,79.4347651 C115.212075,79.1964564 114.722025,79.0928054 114.339225,79.2026577 C113.95725,79.3125101 113.8269,79.5942282 114.04965,79.8334228" id="Fill-24" fill="#52535A"></path>
                        <polygon id="Fill-25" fill="#52535A" points="82.236825 90.2437047 83.0709 90.2437047 83.0709 36.998094 82.236825 36.998094"></polygon>
                        <polygon id="Fill-26" fill="#52535A" points="110.580525 72.6708725 111.415425 72.6708725 111.415425 19.4252617 110.580525 19.4252617"></polygon>
                        <polygon id="Fill-27" fill="#52535A" points="92.86365 83.6525638 93.69855 83.6525638 93.69855 30.4078389 92.86365 30.4078389"></polygon>
                        <polygon id="Fill-28" fill="#52535A" points="121.208175 66.0806174 122.043075 66.0806174 122.043075 12.8350067 121.208175 12.8350067"></polygon>
                        <polyline id="Fill-29" fill="#BDC4C8" points="44.0979 100.403275 66.708675 50.2769396 64.359075 51.734255 41.7483 101.859705 44.0979 100.403275"></polyline>
                        <polyline id="Fill-30" fill="#DFD9D9" points="65.5347 49.1288054 63.1851 47.6723758 39.397875 100.404161 41.7483 101.859705 64.359075 51.734255 86.970675 129.895973 89.320275 131.353289 65.5347 49.1288054"></polyline>
                        <polyline id="Fill-31" fill="#F1F1F1" points="67.883475 47.6714899 67.883475 50.584349 138.744375 6.65226846 138.746025 3.73852349 67.883475 47.6714899"></polyline>
                        <polyline id="Fill-33" fill="#F1F1F1" points="91.66905 129.895973 67.883475 47.6723758 65.5347 49.1288054 89.320275 131.353289 91.66905 129.895973"></polyline>
                        <polyline id="Fill-34" fill="#E9CDB4" points="65.5347 46.2141745 67.883475 47.6723758 65.5347 49.1288054 63.1851 47.6723758 65.5347 46.2141745"></polyline>
                        <polyline id="Fill-35" fill="#FFFFFF" points="65.5347 49.1279195 141.095625 2.28120805 138.74685 0.82566443 63.1851 47.6723758 65.5347 49.1279195"></polyline>
                        <path d="M120.934275,13.0343356 C121.157025,13.2735302 121.64625,13.3771812 122.028225,13.2682148 C122.411025,13.1574765 122.54055,12.8748725 122.3178,12.6365638 C122.095875,12.3973691 121.605825,12.2937181 121.223025,12.4035705 C120.84105,12.5134228 120.7107,12.7969128 120.934275,13.0343356" id="Fill-36" fill="#060905"></path>
                        <path d="M92.58975,30.6080537 C92.811675,30.8463624 93.3009,30.9500134 93.6837,30.841047 C94.065675,30.7303087 94.196025,30.4477047 93.97245,30.209396 C93.750525,29.9710872 93.2613,29.8665503 92.8785,29.9764027 C92.496525,30.086255 92.366175,30.3688591 92.58975,30.6080537" id="Fill-37" fill="#060905"></path>
                        <path d="M110.3058,19.6254765 C110.52855,19.8637852 111.017775,19.9674362 111.400575,19.8575839 C111.78255,19.7477315 111.9129,19.4651275 111.689325,19.2268188 C111.4674,18.9876242 110.978175,18.8839732 110.595375,18.9929396 C110.2134,19.1036779 110.08305,19.3862819 110.3058,19.6254765" id="Fill-38" fill="#060905"></path>
                        <path d="M81.961275,37.1974228 C82.184025,37.4366174 82.67325,37.5402685 83.05605,37.431302 C83.438025,37.3196779 83.568375,37.0379597 83.345625,36.799651 C83.122875,36.5604564 82.63365,36.4559195 82.250025,36.5666577 C81.86805,36.6765101 81.738525,36.96 81.961275,37.1974228" id="Fill-39" fill="#060905"></path>
                    </g>
                </g>
                <g id="Group-6" transform="translate(884.000000, 622.000000)">
                    <g id="Page-1" transform="translate(47.000000, 49.000000) scale(-1, 1) translate(-47.000000, -49.000000) ">
                        <polygon id="Fill-1" fill="#9AD8EF" points="25.415 67.7619531 0 82.5410136 25.415 97.3295905 43.4238889 97.3295905 62.3505556 86.3190477 68.4422222 86.3190477 74.9305556 82.5410136 68.4422222 78.7629795 62.3505556 78.7629795 43.4238889 67.7619531"></polygon>
                        <polygon id="Fill-2" fill="#AAAAAA" points="61.952 82.5448202 68.4403333 86.3228543 68.4403333 61.113755 61.952 57.3357209"></polygon>
                        <polygon id="Fill-3" fill="#D2D2D2" points="68.4375 61.1156583 68.4375 86.3247576 74.9352778 82.5467235 74.9352778 57.3376242"></polygon>
                        <polygon id="Fill-5" fill="#2DFC9D" points="43.0262778 14.782867 68.4412778 29.571444 93.8562778 14.7923835 68.4507222 0.0038065835"></polygon>
                        <polygon id="Fill-6" fill="#2DC689" points="68.4375 29.5695407 68.4375 72.1271528 93.8525 57.3480923 93.8525 14.7904802"></polygon>
                        <polygon id="Fill-7" fill="#1CAC7A" points="43.0243889 14.7838187 68.4393889 29.5723956 68.4393889 72.1300077 43.0243889 57.3414308"></polygon>
                    </g>
                </g>
                <g id="Group-8" transform="translate(0.000000, 520.000000)">
                    <g id="Tree-Copy" transform="translate(69.853846, 64.000000) scale(-1, 1) translate(-69.853846, -64.000000) translate(0.353846, 6.000000)">
                        <g id="Group-32-Copy">
                            <g id="Page-1">
                                <polygon id="Fill-1" fill="#9AD8EF" points="25.411535 86.1148193 0 100.721414 25.411535 115.337414 87.8885124 115.337414 106.812599 104.45536 112.903435 104.45536 119.390884 100.721414 112.903435 96.987468 106.812599 96.987468 87.8885124 86.1148193"></polygon>
                                <polygon id="Fill-2" fill="#595959" points="106.414097 100.725176 112.901546 104.459122 112.901546 79.5442031 106.414097 75.8102572"></polygon>
                                <polygon id="Fill-3" fill="#888888" points="112.898713 79.5460842 112.898713 104.461003 119.395605 100.727057 119.395605 75.8121383"></polygon>
                                <polygon id="Fill-5" fill="#2DFC9D" points="112.883604 0.00376216216 87.4909555 14.6103568 112.90249 29.2263568 138.314025 14.6197622 138.314025 14.6103568 112.911934 0.00376216216"></polygon>
                                <polygon id="Fill-6" fill="#2DC689" points="112.898713 29.2244757 112.898713 90.4290788 138.310248 75.8224842 138.310248 14.6178811"></polygon>
                                <polygon id="Fill-7" fill="#1CAC7A" points="87.4890669 14.6112973 112.900602 29.2272973 112.900602 90.4319004 87.4890669 75.8159004"></polygon>
                            </g>
                        </g>
                    </g>
                    <g id="Skameika" transform="translate(153.558974, 99.500000) scale(-1, 1) translate(-153.558974, -99.500000) translate(87.558974, 54.000000)">
                        <g id="All_images-13">
                            <path d="M20.4696936,79.4244779 L19.9629341,79.1353717 L21.8172865,79.1353717 L20.8965659,79.6668761 L20.4696936,79.4244779 Z M25.3928458,82.2269558 L25.3315182,82.1907168 L24.5261902,81.7333009 L24.2130968,81.5537168 L25.4549803,80.8402124 L26.6298876,81.5142566 L25.3928458,82.2269558 Z M29.8495856,84.7612655 L29.3420191,84.4721593 L28.6827477,84.0976903 L29.9044576,83.3954602 L31.0656469,84.0614513 L29.8495856,84.7612655 Z M81.344579,53.7544248 L82.5138377,54.418 L35.1358615,81.7171947 L34.3644251,81.273469 L33.9754792,81.0479823 L81.344579,53.7544248 Z M86.6179439,50.7159912 L88.6457887,51.8812743 L86.9181263,51.8812743 L86.602612,52.0632743 L86.5307942,52.0632743 L85.7311148,51.607469 L85.3994617,51.4190265 L86.6179439,50.7159912 Z M76.8684726,51.2168938 L76.9451321,51.2587699 L78.0506424,51.8869115 L30.7065578,79.1667788 L29.9617505,78.7359381 L29.5332644,78.4903186 L76.8684726,51.2168938 Z M82.1716944,48.1615487 L84.2318169,49.3461593 L82.4597726,49.3461593 L82.1103668,49.548292 L81.7198069,49.3260265 L80.9306178,48.8766637 L82.1716944,48.1615487 Z M72.3439497,48.6487611 L73.5462931,49.3308584 L26.2369069,76.5897876 L25.5267981,76.1823009 L24.5600818,76.1823009 L72.3439497,48.6487611 Z M76.4714572,46.272292 L78.8809856,46.272292 L79.7807257,46.7893009 L77.9570371,46.7893009 L77.612473,46.989823 L76.8587893,46.5589823 L76.4125505,46.3053097 L76.4714572,46.272292 Z M67.4579169,46.272292 L68.1543077,46.272292 L68.9902994,46.7466195 L17.9036186,76.1823009 L15.5457345,76.1823009 L67.4579169,46.272292 Z M66.5444587,43.3079469 L0.283236585,81.4860708 L0.373614071,81.5368053 L0.584225891,81.6559912 L6.04399437,81.6559912 L10.4176191,79.1353717 L11.765212,79.1353717 L12.2735854,79.4260885 L8.50032533,81.5988142 L8.80534934,81.7711504 L9.10633865,81.9434867 L9.40894184,82.1142124 L9.71073809,82.287354 L10.0133413,82.4580796 L10.3135236,82.628 L10.9171161,82.9710619 L12.7771171,82.9710619 L15.6272356,81.3282301 L16.8303859,82.0103274 L13.0538981,84.1862743 L13.3516597,84.3553894 L13.652649,84.526115 L13.9504105,84.6952301 L14.248979,84.8643451 L14.5483544,85.0350708 L14.845309,85.2057965 L15.1446844,85.3741062 L15.4408321,85.5432212 L17.2919567,85.5432212 L20.1525655,83.8955575 L20.5560364,84.1242655 L21.3355422,84.5663805 L17.5550197,86.7431327 L17.8519743,86.9114425 L18.148122,87.0805575 L18.4442696,87.2480619 L18.7396103,87.4163717 L19.0341441,87.5830708 L19.3294848,87.7513805 L19.6240186,87.9196903 L19.9185523,88.0871947 L21.7599936,88.0871947 L24.6278649,86.4338938 L25.7963167,87.0966637 L22.0141803,89.2758319 L22.3071002,89.4417257 L22.5992131,89.6100354 L22.8905191,89.7759292 L23.1826321,89.9426283 L23.474745,90.1085221 L23.7676649,90.2752212 L24.0589709,90.4403097 L24.3502769,90.6062035 L26.1836488,90.6062035 L29.0595895,88.9496814 L29.1669128,89.0100796 C30.0497071,89.0100796 30.9341154,89.0100796 31.8193306,89.0100796 L33.866542,87.8311062 L35.018048,87.8311062 C36.7715326,87.8311062 38.5322797,87.8311062 40.2889921,87.8311062 L43.0204902,86.2591416 L41.9448368,85.6406637 L40.8667625,85.0181593 L39.7878812,84.3980708 L38.7057722,83.7747611 L38.3733122,83.582292 L85.9909501,56.147 L88.2084263,56.147 L90.2548308,54.9680265 L91.4063368,54.9680265 C93.1606283,54.9680265 94.9213754,54.9680265 96.6780878,54.9680265 L99.408779,53.3944513 L97.2558582,52.1550796 L96.1769769,51.5325752 L95.0956749,50.9100708 L92.9282291,49.6602301 L91.8404715,49.0345044 L90.7527139,48.4079735 L89.6560799,47.775 L88.5562182,47.1420265 L87.4547426,46.5074425 L86.3508462,45.8712478 L85.2445289,45.2358584 L84.1374047,44.5964425 L83.0286666,43.9570265 L81.9158938,43.3168053 L69.2807985,43.3168053 L69.2662735,43.3079469 L66.5444587,43.3079469 Z" id="Fill-1" fill="#9AD8EF"></path>
                            <polyline id="Fill-2" fill="#9AD8EF" points="119.36203 33.6619469 131.675155 26.5655575 119.36203 19.4707788 107.91556 19.4707788 91.8146493 28.7479469 100.338376 33.6619469 119.36203 33.6619469"></polyline>
                            <polyline id="Fill-3" fill="#EB53C0" points="119.36203 14.6767699 119.36203 33.6619469 131.675155 26.5655575 131.675155 7.58038053 119.36203 14.6767699"></polyline>
                            <polyline id="Fill-4" fill="#EA71C8" points="107.048097 7.58038053 119.36203 14.6767699 131.675155 7.58038053 119.36203 0.48560177 107.048097 7.58038053"></polyline>
                            <polyline id="Fill-5" fill="#AA057C" points="107.048097 7.58038053 119.36203 14.6767699 119.36203 33.6603363 107.048097 26.5655575 107.048097 7.58038053"></polyline>
                            <polyline id="Fill-6" fill="#AA057C" points="111.119926 7.58038053 119.36203 12.3309027 127.603327 7.58038053 119.36203 2.83227434 111.119926 7.58038053"></polyline>
                            <polyline id="Fill-7" fill="#EB53C0" points="111.119926 7.58038053 116.344874 10.5922389 119.36203 2.83227434 111.119926 7.58038053"></polyline>
                            <polyline id="Fill-8" fill="#F8F4F5" points="25.1919173 49.2052301 27.9226084 47.6324602 25.5736008 46.2811504 22.8429096 47.8523097 25.1919173 49.2052301"></polyline>
                            <polyline id="Fill-9" fill="#848484" points="37.9424053 83.7723451 40.6722895 82.1987699 27.9226084 74.8527345 25.1919173 76.4246991 37.9424053 83.7723451"></polyline>
                            <polyline id="Fill-10" fill="#E6E6E6" points="40.2889921 87.8311062 43.0204902 86.2591416 43.0204902 75.5235575 40.2889921 77.0971327 40.2889921 87.8311062"></polyline>
                            <polyline id="Fill-11" fill="#AAAAAA" points="40.2889921 80.0985221 43.0204902 78.5265575 43.0204902 75.5235575 40.2889921 77.0971327 40.2889921 80.0985221"></polyline>
                            <path d="M42.3797784,75.5944248 L45.1088557,74.0216549 C39.3811826,70.7214956 33.6518955,67.4197257 27.9226084,64.1195664 L25.1919173,65.691531 C30.9212043,68.9924956 36.6504914,72.2934602 42.3797784,75.5944248" id="Fill-12" fill="#AAAAAA"></path>
                            <polyline id="Fill-13" fill="#848484" points="25.1919173 76.4246991 27.9226084 74.8527345 27.9226084 66.8246018 25.1919173 68.398177 25.1919173 76.4246991"></polyline>
                            <polyline id="Fill-14" fill="#E6E6E6" points="25.1919173 65.691531 27.9226084 64.1195664 27.9226084 47.6324602 25.1919173 49.2052301 25.1919173 65.691531"></polyline>
                            <polyline id="Fill-15" fill="#AAAAAA" points="25.1919173 63.9826637 27.9226084 62.4098938 27.9226084 47.6324602 25.1919173 49.2052301 25.1919173 63.9826637"></polyline>
                            <polyline id="Fill-16" fill="#AAAAAA" points="25.1919173 55.793469 27.9226084 54.2206991 27.9226084 47.6324602 25.1919173 49.2052301 25.1919173 55.793469"></polyline>
                            <polyline id="Fill-17" fill="#E6E6E6" points="42.3797784 78.3002655 45.1088557 76.7283009 45.1088557 74.0216549 42.3797784 75.5944248 42.3797784 78.3002655"></polyline>
                            <path d="M37.9424053,83.7723451 L37.9424053,75.7434071 L25.1919173,68.398177 L25.1919173,76.4246991 L37.9424053,83.7723451 Z M25.1919173,49.2052301 L25.1919173,65.691531 L42.3797784,75.5944248 L42.3797784,78.3002655 L40.2889921,77.0971327 L40.2889921,87.8311062 L22.8429096,77.7792301 C22.8429096,67.8038584 22.8429096,57.8284867 22.8429096,47.8523097 L25.1919173,49.2052301 Z" id="Fill-18" fill="#AAAAAA"></path>
                            <polyline id="Fill-19" fill="#F8F4F5" points="81.9054036 16.5265664 84.6344809 14.9546018 82.2870871 13.6024867 79.5572028 15.1752566 81.9054036 16.5265664"></polyline>
                            <polyline id="Fill-20" fill="#F8F4F5" points="94.3290801 50.9076549 97.0597713 49.334885 84.6344809 42.1748761 81.9054036 43.747646 94.3290801 50.9076549"></polyline>
                            <polyline id="Fill-21" fill="#AAAAAA" points="94.3290801 50.9076549 97.0597713 49.334885 91.6000028 49.334885 94.3290801 50.9076549"></polyline>
                            <polyline id="Fill-22" fill="#E6E6E6" points="96.6780878 54.9680265 99.408779 53.3944513 99.408779 42.6580619 96.6780878 44.2316372 96.6780878 54.9680265"></polyline>
                            <polyline id="Fill-23" fill="#AAAAAA" points="96.6780878 47.2330265 99.408779 45.6610619 99.408779 42.6580619 96.6780878 44.2316372 96.6780878 47.2330265"></polyline>
                            <path d="M98.7688741,42.7289292 L101.498758,41.1561593 C95.7686644,37.8568053 90.3637679,34.7418673 84.6344809,31.4400973 L81.9054036,33.0120619 C87.6338837,36.3154425 93.0379732,39.4287699 98.7688741,42.7289292" id="Fill-24" fill="#AAAAAA"></path>
                            <polyline id="Fill-25" fill="#AAAAAA" points="81.9054036 43.747646 84.6344809 42.1748761 84.6344809 34.1475487 81.9054036 35.7203186 81.9054036 43.747646"></polyline>
                            <polyline id="Fill-26" fill="#E6E6E6" points="81.9054036 33.0120619 84.6344809 31.4400973 84.6344809 14.9546018 81.9054036 16.5265664 81.9054036 33.0120619"></polyline>
                            <polyline id="Fill-27" fill="#AAAAAA" points="81.9054036 31.3031947 84.6344809 29.7304248 84.6344809 14.9546018 81.9054036 16.5265664 81.9054036 31.3031947"></polyline>
                            <polyline id="Fill-28" fill="#AAAAAA" points="81.9054036 23.1148053 84.6344809 21.5428407 84.6344809 14.9546018 81.9054036 16.5265664 81.9054036 23.1148053"></polyline>
                            <polyline id="Fill-29" fill="#E6E6E6" points="98.7688741 45.4363805 101.498758 43.8636106 101.498758 41.1561593 98.7688741 42.7289292 98.7688741 45.4363805"></polyline>
                            <path d="M94.3290801,50.9068496 L94.3290801,42.8787168 L81.9054036,35.7203186 L81.9054036,43.747646 L94.3290801,50.9068496 Z M81.9054036,16.5265664 L81.9054036,33.0136726 L98.7688741,42.7289292 L98.7688741,45.4363805 L96.6780878,44.2324425 L96.6780878,54.9656106 L79.5572028,45.1013717 C79.5572028,35.1251947 79.5572028,25.149823 79.5572028,15.1752566 L81.9054036,16.5265664 Z" id="Fill-30" fill="#AAAAAA"></path>
                            <path d="M88.9879321,26.3722832 L88.9879321,20.9058407 L24.0839861,58.3028142 L24.0839861,63.7692566 L88.9879321,26.3722832 Z M24.0839861,55.9569469 L24.0839861,50.4896991 L88.9879321,13.0943363 L88.9879321,18.5599735 L24.0839861,55.9569469 Z" id="Fill-31" fill="#D8D8D8"></path>
                            <polyline id="Fill-32" fill="#F9F9F9" points="24.0839861 50.4896991 88.9879321 13.0943363 87.3643651 12.1593717 22.462033 49.5547345 24.0839861 50.4896991"></polyline>
                            <polyline id="Fill-33" fill="#F9F9F9" points="24.0839861 58.3028142 88.9879321 20.9058407 87.3643651 19.9724867 22.462033 57.3678496 24.0839861 58.3028142"></polyline>
                            <polyline id="Fill-34" fill="#D2D2D1" points="86.1910717 20.6497522 22.462033 57.3678496 22.9082719 57.6247434 86.6381174 20.9058407 86.1910717 20.6497522"></polyline>
                            <polyline id="Fill-35" fill="#D8D8D8" points="39.6498942 77.1671947 104.553033 39.7710265 104.553033 37.9010973 39.6498942 75.2980708 39.6498942 77.1671947"></polyline>
                            <polyline id="Fill-36" fill="#D8D8D8" points="35.2117141 74.609531 100.114853 37.2141681 100.114853 35.3450442 35.2117141 72.7412124 35.2117141 74.609531"></polyline>
                            <polyline id="Fill-37" fill="#D8D8D8" points="30.773534 72.0534779 95.675866 34.6565044 95.675866 32.7881858 30.773534 70.1835487 30.773534 72.0534779"></polyline>
                            <polyline id="Fill-38" fill="#D8D8D8" points="26.33374 69.4958142 91.2376859 32.0980354 91.2376859 30.2305221 26.33374 67.6266903 26.33374 69.4958142"></polyline>
                            <path d="M100.114853,35.3450442 L97.7658454,33.9913186 L32.8627064,71.388292 L35.2117141,72.7412124 L100.114853,35.3450442 Z M30.773534,70.1835487 L95.675866,32.7881858 L93.3284722,31.4344602 L28.4245263,68.8322389 L30.773534,70.1835487 Z M26.33374,67.6266903 L91.2376859,30.2305221 L88.8886782,28.8759912 L23.9871531,66.2737699 L26.33374,67.6266903 Z M39.6498942,75.2980708 L37.3016934,73.9459558 L102.204026,36.5489823 L104.553033,37.9010973 L39.6498942,75.2980708 Z" id="Fill-39" fill="#F9F9F9"></path>
                            <path d="M22.462033,55.0219823 L22.462033,49.5547345 L24.0839861,50.4896991 L24.0839861,55.9569469 L22.462033,55.0219823 Z M24.0839861,63.7692566 L22.462033,62.8350973 L22.462033,57.3678496 L24.0839861,58.3028142 L24.0839861,63.7692566 Z M26.33374,67.6266903 L26.33374,69.4958142 L23.9871531,68.1412832 L23.9871531,66.2737699 L26.33374,67.6266903 Z M30.773534,70.1835487 L30.773534,72.0534779 L28.4245263,70.6997522 L28.4245263,68.8322389 L30.773534,70.1835487 Z M35.2117141,72.7412124 L35.2117141,74.609531 L32.8627064,73.2582212 L32.8627064,71.388292 L35.2117141,72.7412124 Z M39.6498942,75.2980708 L39.6498942,77.1671947 L37.3016934,75.8142743 L37.3016934,73.9459558 L39.6498942,75.2980708 Z" id="Fill-40" fill="#959595"></path>
                        </g>
                    </g>
                    <g id="Tree" transform="translate(302.500000, 78.000000) scale(-1, 1) translate(-302.500000, -78.000000) translate(213.000000, 0.000000)">
                        <g id="Group-32-Copy">
                            <g id="Page-1">
                                <polygon id="Fill-1" fill="#9AD8EF" points="26.8536074 124.182588 0 139.733574 26.8536074 155.294574 125.127233 155.294574 145.125237 143.708939 151.56172 143.708939 158.417324 139.733574 151.56172 135.758209 145.125237 135.758209 125.127233 124.182588"></polygon>
                                <polygon id="Fill-2" fill="#595959" points="144.704121 139.73758 151.559724 143.712945 151.559724 117.187147 144.704121 113.211782"></polygon>
                                <polygon id="Fill-3" fill="#888888" points="151.556731 117.18915 151.556731 143.714947 158.422313 139.739582 158.422313 113.213785"></polygon>
                                <polygon id="Fill-5" fill="#2DFC9D" points="151.540764 0.00400540541 124.707115 15.5549919 151.560722 31.1159919 178.41433 15.5650054 178.41433 15.5549919 151.570701 0.00400540541"></polygon>
                                <polygon id="Fill-6" fill="#2DC689" points="151.556731 31.1139892 151.556731 128.775786 178.410338 113.2248 178.410338 15.5630027"></polygon>
                                <polygon id="Fill-7" fill="#1CAC7A" points="124.705119 15.5559932 151.558727 31.1169932 151.558727 128.778791 124.705119 113.217791"></polygon>
                            </g>
                        </g>
                    </g>
                    <g id="Group-6-Copy" transform="translate(207.528205, 107.000000)">
                        <g id="Page-1" transform="translate(36.687179, 38.000000) scale(-1, 1) translate(-36.687179, -38.000000) translate(0.187179, 0.000000)">
                            <polygon id="Fill-1" fill="#9AD8EF" points="19.5794965 52.5500861 0 64.0113983 19.5794965 75.4800906 33.4533889 75.4800906 48.0343295 66.9413023 52.7272969 66.9413023 57.7258528 64.0113983 52.7272969 61.0814943 48.0343295 61.0814943 33.4533889 52.5500861"></polygon>
                            <polygon id="Fill-2" fill="#595959" points="47.7272857 64.0143503 52.7258417 66.9442544 52.7258417 47.3943406 47.7272857 44.4644366"></polygon>
                            <g id="Fill-3">
                                <use fill="#D2D2D2" xlink:href="#path-1"></use>
                                <use fill="#888888" xlink:href="#path-1"></use>
                            </g>
                            <polygon id="Fill-5" fill="#2DFC9D" points="33.1470728 11.4642642 52.7265693 22.9329565 72.3060658 11.4716444 52.7338452 0.00295204435"></polygon>
                            <polygon id="Fill-6" fill="#2DC689" points="52.7236589 22.9314805 52.7236589 55.935343 72.3031554 44.4740308 72.3031554 11.4701683"></polygon>
                            <polygon id="Fill-7" fill="#1CAC7A" points="33.1456176 11.4650023 52.7251141 22.9336946 52.7251141 55.937557 33.1456176 44.4688647"></polygon>
                        </g>
                    </g>
                </g>
                <g id="Group-5" transform="translate(784.000000, 0.000000)">
                    <g id="Group-6-Copy-2">
                        <g id="Page-1" transform="translate(49.000000, 50.000000) scale(-1, 1) translate(-49.000000, -50.000000) ">
                            <polygon id="Fill-1" fill="#F4F4F4" points="18.1917895 78.4013951 0 88.9578669 18.1917895 99.5211361 61.0823626 99.5211361 74.6298713 91.6564627 78.9902222 91.6564627 83.6345029 88.9578669 78.9902222 86.259271 74.6298713 86.259271 61.0823626 78.4013951"></polygon>
                            <polygon id="Fill-2" fill="#AAAAAA" points="74.3445895 88.9605858 78.9888702 91.6591817 78.9888702 73.6526822 74.3445895 70.9540864"></polygon>
                            <polygon id="Fill-3" fill="#D2D2D2" points="78.9868421 73.6540417 78.9868421 91.6605411 83.637883 88.9619453 83.637883 70.9554459"></polygon>
                            <polygon id="Fill-5" fill="#2DFC9D" points="60.7977567 10.5591907 78.9895462 21.12246 97.1813357 10.5659882 78.9963064 0.00271898822"></polygon>
                            <polygon id="Fill-6" fill="#2DC689" points="78.9868421 21.1211005 78.9868421 81.5193948 97.1786316 70.9629231 97.1786316 10.5646287"></polygon>
                            <polygon id="Fill-7" fill="#1CAC7A" points="60.7964047 10.5598705 78.9881942 21.1231397 78.9881942 81.5214341 60.7964047 70.9581648"></polygon>
                        </g>
                    </g>
                    <g id="Group-6-Copy-3" transform="translate(54.000000, 20.000000)">
                        <g id="Page-1" transform="translate(34.000000, 35.000000) scale(-1, 1) translate(-34.000000, -35.000000) ">
                            <polygon id="Fill-1" fill="#F4F4F4" points="18.1917895 48.4013951 0 58.9578669 18.1917895 69.5211361 31.0823626 69.5211361 44.6298713 61.6564627 48.9902222 61.6564627 53.6345029 58.9578669 48.9902222 56.259271 44.6298713 56.259271 31.0823626 48.4013951"></polygon>
                            <polygon id="Fill-2" fill="#AAAAAA" points="44.3445895 58.9605858 48.9888702 61.6591817 48.9888702 43.6526822 44.3445895 40.9540864"></polygon>
                            <polygon id="Fill-3" fill="#D2D2D2" points="48.9868421 43.6540417 48.9868421 61.6605411 53.637883 58.9619453 53.637883 40.9554459"></polygon>
                            <polygon id="Fill-5" fill="#2DFC9D" points="30.7977567 10.5591907 48.9895462 21.12246 67.1813357 10.5659882 48.9963064 0.00271898822"></polygon>
                            <polygon id="Fill-6" fill="#2DC689" points="48.9868421 21.1211005 48.9868421 51.5193948 67.1786316 40.9629231 67.1786316 10.5646287"></polygon>
                            <polygon id="Fill-7" fill="#1CAC7A" points="30.7964047 10.5598705 48.9881942 21.1231397 48.9881942 51.5214341 30.7964047 40.9581648"></polygon>
                        </g>
                    </g>
                </g>
            </g>
        </g>
    </g>
</svg>