<?xml version="1.0" encoding="UTF-8"?>
<svg width="126px" height="100px" viewBox="0 0 126 100" version="1.1" xmlns="http://www.w3.org/2000/svg" xmlns:xlink="http://www.w3.org/1999/xlink">
    <!-- Generator: Sketch 50.2 (55047) - http://www.bohemiancoding.com/sketch -->
    <title>Group 15</title>
    <desc>Created with Sketch.</desc>
    <defs></defs>
    <g id="Page-1" stroke="none" stroke-width="1" fill="none" fill-rule="evenodd">
        <g id="Про-комплекс" transform="translate(-326.000000, -2071.000000)">
            <g id="Group-15" transform="translate(326.000000, 2071.000000)">
                <g id="Group-5-Copy">
                    <g id="Group-6-Copy-2">
                        <g id="Page-1" transform="translate(49.000000, 50.000000) scale(-1, 1) translate(-49.000000, -50.000000) ">
                            <polygon id="Fill-1" fill="#F4F4F4" points="18.1917895 78.4013951 0 88.9578669 18.1917895 99.5211361 61.0823626 99.5211361 74.6298713 91.6564627 78.9902222 91.6564627 83.6345029 88.9578669 78.9902222 86.259271 74.6298713 86.259271 61.0823626 78.4013951"></polygon>
                            <polygon id="Fill-2" fill="#AAAAAA" points="74.3445895 88.9605858 78.9888702 91.6591817 78.9888702 73.6526822 74.3445895 70.9540864"></polygon>
                            <polygon id="Fill-3" fill="#D2D2D2" points="78.9868421 73.6540417 78.9868421 91.6605411 83.637883 88.9619453 83.637883 70.9554459"></polygon>
                            <polygon id="Fill-5" fill="#2DFC9D" points="60.7977567 10.5591907 78.9895462 21.12246 97.1813357 10.5659882 78.9963064 0.00271898822"></polygon>
                            <polygon id="Fill-6" fill="#2DC689" points="78.9868421 21.1211005 78.9868421 81.5193948 97.1786316 70.9629231 97.1786316 10.5646287"></polygon>
                            <polygon id="Fill-7" fill="#1CAC7A" points="60.7964047 10.5598705 78.9881942 21.1231397 78.9881942 81.5214341 60.7964047 70.9581648"></polygon>
                        </g>
                    </g>
                </g>
                <g id="Group-6-Copy-3" transform="translate(58.000000, 10.000000)">
                    <g id="Page-1" transform="translate(34.000000, 35.000000) scale(-1, 1) translate(-34.000000, -35.000000) ">
                        <polygon id="Fill-1" fill="#F4F4F4" points="18.1917895 48.4013951 0 58.9578669 18.1917895 69.5211361 31.0823626 69.5211361 44.6298713 61.6564627 48.9902222 61.6564627 53.6345029 58.9578669 48.9902222 56.259271 44.6298713 56.259271 31.0823626 48.4013951"></polygon>
                        <polygon id="Fill-2" fill="#AAAAAA" points="44.3445895 58.9605858 48.9888702 61.6591817 48.9888702 43.6526822 44.3445895 40.9540864"></polygon>
                        <polygon id="Fill-3" fill="#D2D2D2" points="48.9868421 43.6540417 48.9868421 61.6605411 53.637883 58.9619453 53.637883 40.9554459"></polygon>
                        <polygon id="Fill-5" fill="#2DFC9D" points="30.7977567 10.5591907 48.9895462 21.12246 67.1813357 10.5659882 48.9963064 0.00271898822"></polygon>
                        <polygon id="Fill-6" fill="#2DC689" points="48.9868421 21.1211005 48.9868421 51.5193948 67.1786316 40.9629231 67.1786316 10.5646287"></polygon>
                        <polygon id="Fill-7" fill="#1CAC7A" points="30.7964047 10.5598705 48.9881942 21.1231397 48.9881942 51.5214341 30.7964047 40.9581648"></polygon>
                    </g>
                </g>
            </g>
        </g>
    </g>
</svg>