<?xml version="1.0" encoding="UTF-8"?>
<svg width="555px" height="293px" viewBox="0 0 555 293" version="1.1" xmlns="http://www.w3.org/2000/svg" xmlns:xlink="http://www.w3.org/1999/xlink">
    <!-- Generator: Sketch 50.2 (55047) - http://www.bohemiancoding.com/sketch -->
    <title>Group 28</title>
    <desc>Created with Sketch.</desc>
    <defs></defs>
    <g id="Page-1" stroke="none" stroke-width="1" fill="none" fill-rule="evenodd">
        <g id="Розташування" transform="translate(-231.000000, -279.000000)">
            <g id="Group-28" transform="translate(231.000000, 279.000000)">
                <g id="Group-26" transform="translate(389.000000, 0.000000)">
                    <g id="Group-9-Copy-2">
                        <g id="All_images-22">
                            <polyline id="Fill-1" fill="#17A26A" points="151.293005 131.19659 59.7422359 117.045246 43.7970462 126.153443 24.7120821 126.153443 19.1629128 129.386754 24.7120821 132.620852 43.7970462 132.620852 62.5289026 143.539672 151.293005 131.19659"></polyline>
                            <polyline id="Fill-2" fill="#9C9C9C" points="24.7120821 132.620852 24.7120821 93.3639344 30.2596923 90.130623 30.2596923 129.386754 24.7120821 132.620852"></polyline>
                            <polyline id="Fill-3" fill="#B8B8B8" points="24.7120821 132.620852 24.7120821 111.035016 19.1629128 107.801705 19.1629128 129.387541 24.7120821 132.620852"></polyline>
                            <polyline id="Fill-4" fill="#9C9C9C" points="24.7120821 114.914361 24.7120821 93.3639344 19.1629128 90.130623 19.1629128 111.679475 24.7120821 114.914361"></polyline>
                            <polyline id="Fill-5" fill="#2DFC9D" points="24.7120821 0.773508197 24.7120821 106.753574 0.431835897 92.6006557 24.7120821 0.773508197"></polyline>
                            <polyline id="Fill-6" fill="#1CAC7A" points="24.7113026 0.773508197 24.7113026 106.754361 48.2596103 93.0279344 24.7113026 0.773508197"></polyline>
                        </g>
                    </g>
                    <g id="Group-9-Copy-3" transform="translate(70.000000, 129.000000)">
                        <g id="All_images-22">
                            <polyline id="Fill-1" fill="#17A26A" points="95.5534769 82.9089563 37.7319385 73.9660929 27.6612923 79.7219672 15.6076308 79.7219672 12.1028923 81.7652404 15.6076308 83.8090109 27.6612923 83.8090109 39.4919385 90.7090984 95.5534769 82.9089563"></polyline>
                            <polyline id="Fill-2" fill="#9C9C9C" points="15.6076308 83.8090109 15.6076308 59.0008197 19.1113846 56.9575464 19.1113846 81.7652404 15.6076308 83.8090109"></polyline>
                            <polyline id="Fill-3" fill="#B8B8B8" points="15.6076308 83.8090109 15.6076308 70.1679617 12.1028923 68.1246885 12.1028923 81.7657377 15.6076308 83.8090109"></polyline>
                            <polyline id="Fill-4" fill="#9C9C9C" points="15.6076308 72.6194918 15.6076308 59.0008197 12.1028923 56.9575464 12.1028923 70.575224 15.6076308 72.6194918"></polyline>
                            <polyline id="Fill-5" fill="#2DFC9D" points="15.6076308 0.488814208 15.6076308 67.4623279 0.272738462 58.5184699 15.6076308 0.488814208"></polyline>
                            <polyline id="Fill-6" fill="#1CAC7A" points="15.6071385 0.488814208 15.6071385 67.4628251 30.4797538 58.7884863 15.6071385 0.488814208"></polyline>
                        </g>
                    </g>
                </g>
                <g id="Group-27" transform="translate(0.000000, 159.000000)">
                    <g id="Group-9-Copy-4" transform="translate(0.000000, 3.000000)">
                        <g id="All_images-22">
                            <polyline id="Fill-1" fill="#17A26A" points="67.6837128 58.3095956 26.7267897 52.0201093 19.5934154 56.0681967 11.0554051 56.0681967 8.57288205 57.505224 11.0554051 58.9426011 19.5934154 58.9426011 27.9734564 63.7954098 67.6837128 58.3095956"></polyline>
                            <polyline id="Fill-2" fill="#9C9C9C" points="11.0554051 58.9426011 11.0554051 41.495082 13.5372308 40.0580546 13.5372308 57.505224 11.0554051 58.9426011"></polyline>
                            <polyline id="Fill-3" fill="#B8B8B8" points="11.0554051 58.9426011 11.0554051 49.3488962 8.57288205 47.9118689 8.57288205 57.5055738 11.0554051 58.9426011"></polyline>
                            <polyline id="Fill-4" fill="#9C9C9C" points="11.0554051 51.0730492 11.0554051 41.495082 8.57288205 40.0580546 8.57288205 49.6353224 11.0554051 51.0730492"></polyline>
                            <polyline id="Fill-5" fill="#2DFC9D" points="11.0554051 0.343781421 11.0554051 47.4460328 0.193189744 41.155847 11.0554051 0.343781421"></polyline>
                            <polyline id="Fill-6" fill="#1CAC7A" points="11.0550564 0.343781421 11.0550564 47.4463825 21.5898256 41.3457486 11.0550564 0.343781421"></polyline>
                        </g>
                    </g>
                    <g id="Group-9-Copy-5" transform="translate(122.000000, 0.000000)">
                        <g id="All_images-22">
                            <polyline id="Fill-1" fill="#F4F4F4" points="140.344169 122.085716 55.4187846 108.917104 40.6275231 117.392787 22.9237077 117.392787 17.7761231 120.401563 22.9237077 123.411071 40.6275231 123.411071 58.0037846 133.571639 140.344169 122.085716"></polyline>
                            <polyline id="Fill-2" fill="#9C9C9C" points="22.9237077 123.411071 22.9237077 86.8803279 28.0698462 83.8715519 28.0698462 120.401563 22.9237077 123.411071"></polyline>
                            <polyline id="Fill-3" fill="#B8B8B8" points="22.9237077 123.411071 22.9237077 103.324251 17.7761231 100.315475 17.7761231 120.402295 22.9237077 123.411071"></polyline>
                            <polyline id="Fill-4" fill="#9C9C9C" points="22.9237077 106.934197 22.9237077 86.8803279 17.7761231 83.8715519 17.7761231 103.923956 22.9237077 106.934197"></polyline>
                            <polyline id="Fill-5" fill="#2DFC9D" points="22.9237077 0.71979235 22.9237077 99.3401311 0.400584615 86.1700546 22.9237077 0.71979235"></polyline>
                            <polyline id="Fill-6" fill="#1CAC7A" points="22.9229846 0.71979235 22.9229846 99.3408634 44.7671385 86.5676612 22.9229846 0.71979235"></polyline>
                        </g>
                    </g>
                </g>
            </g>
        </g>
    </g>
</svg>