<?xml version="1.0" encoding="UTF-8"?>
<svg width="284px" height="168px" viewBox="0 0 284 168" version="1.1" xmlns="http://www.w3.org/2000/svg" xmlns:xlink="http://www.w3.org/1999/xlink">
    <!-- Generator: Sketch 50.2 (55047) - http://www.bohemiancoding.com/sketch -->
    <title>Group 5</title>
    <desc>Created with Sketch.</desc>
    <defs></defs>
    <g id="Page-1" stroke="none" stroke-width="1" fill="none" fill-rule="evenodd">
        <g id="Mobile-Головна" transform="translate(-15.000000, -705.000000)">
            <g id="Group-5" transform="translate(15.000000, 705.000000)">
                <g id="Group-6-Copy-2">
                    <g id="Page-1" transform="translate(32.000000, 32.500000) scale(-1, 1) translate(-32.000000, -32.500000) ">
                        <polygon id="Fill-1" fill="#F4F4F4" points="11.8803523 50.9609068 0 57.8226135 11.8803523 64.6887385 39.8905225 64.6887385 48.7378752 59.5767007 51.5854512 59.5767007 54.6184509 57.8226135 51.5854512 56.0685262 48.7378752 56.0685262 39.8905225 50.9609068"></polygon>
                        <polygon id="Fill-2" fill="#AAAAAA" points="48.5515686 57.8243808 51.5845683 59.5784681 51.5845683 47.8742434 48.5515686 46.1201561"></polygon>
                        <polygon id="Fill-3" fill="#D2D2D2" points="51.5832438 47.8751271 51.5832438 59.5793517 54.6206583 57.8252645 54.6206583 46.1210398"></polygon>
                        <polygon id="Fill-5" fill="#2DFC9D" points="39.7046575 6.86347399 51.5850098 13.729599 63.4653621 6.86789234 51.5894246 0.00176734234"></polygon>
                        <polygon id="Fill-6" fill="#2DC689" points="51.5832438 13.7287153 51.5832438 52.9876066 63.4635961 46.1259 63.4635961 6.86700867"></polygon>
                        <polygon id="Fill-7" fill="#1CAC7A" points="39.7037745 6.86391582 51.5841268 13.7300408 51.5841268 52.9889322 39.7037745 46.1228072"></polygon>
                    </g>
                </g>
                <g id="Group-6-Copy-3" transform="translate(36.000000, 13.000000)">
                    <g id="Page-1" transform="translate(22.000000, 23.000000) scale(-1, 1) translate(-22.000000, -23.000000) ">
                        <polygon id="Fill-1" fill="#F4F4F4" points="11.7711579 31.8066311 0 38.7437411 11.7711579 45.685318 20.112117 45.685318 28.878152 40.517104 31.6995556 40.517104 34.7046784 38.7437411 31.6995556 36.9703781 28.878152 36.9703781 20.112117 31.8066311"></polygon>
                        <polygon id="Fill-2" fill="#AAAAAA" points="28.6935579 38.7455278 31.6986807 40.5188908 31.6986807 28.6860483 28.6935579 26.9126853"></polygon>
                        <polygon id="Fill-3" fill="#D2D2D2" points="31.6973684 28.6869417 31.6973684 40.5197842 34.7068655 38.7464212 34.7068655 26.9135787"></polygon>
                        <polygon id="Fill-5" fill="#2DFC9D" points="19.9279602 6.93889678 31.6991181 13.8804737 43.470276 6.94336369 31.7034924 0.00178676369"></polygon>
                        <polygon id="Fill-6" fill="#2DC689" points="31.6973684 13.8795803 31.6973684 33.8556023 43.4685263 26.9184923 43.4685263 6.9424703"></polygon>
                        <polygon id="Fill-7" fill="#1CAC7A" points="19.9270854 6.93934347 31.6982433 13.8809204 31.6982433 33.8569424 19.9270854 26.9153655"></polygon>
                    </g>
                </g>
                <g id="Group-6-Copy-3" transform="translate(209.000000, 90.000000)">
                    <g id="Page-1" transform="translate(37.500000, 39.000000) scale(-1, 1) translate(-37.500000, -39.000000) ">
                        <polygon id="Fill-1" fill="#F4F4F4" points="20.0644737 53.9329831 0 65.6959088 20.0644737 77.4664088 34.2820175 77.4664088 49.2241228 68.7029155 54.0333333 68.7029155 59.1557018 65.6959088 54.0333333 62.688902 49.2241228 62.688902 34.2820175 53.9329831"></polygon>
                        <polygon id="Fill-2" fill="#AAAAAA" points="48.9094737 65.6989385 54.0318421 68.7059453 54.0318421 48.6415601 48.9094737 45.6345534"></polygon>
                        <polygon id="Fill-3" fill="#D2D2D2" points="54.0296053 48.643075 54.0296053 68.7074601 59.1594298 65.7004534 59.1594298 45.6360682"></polygon>
                        <polygon id="Fill-5" fill="#2DFC9D" points="33.968114 11.7659554 54.0325877 23.5364554 74.0970614 11.7735297 54.0400439 0.00302972973"></polygon>
                        <polygon id="Fill-6" fill="#2DC689" points="54.0296053 23.5349405 54.0296053 57.4073257 74.0940789 45.6444 74.0940789 11.7720149"></polygon>
                        <polygon id="Fill-7" fill="#1CAC7A" points="33.9666228 11.7667128 54.0310965 23.5372128 54.0310965 57.409598 33.9666228 45.639098"></polygon>
                    </g>
                </g>
            </g>
        </g>
    </g>
</svg>