<?xml version="1.0" encoding="UTF-8"?>
<svg width="156px" height="111px" viewBox="0 0 156 111" version="1.1" xmlns="http://www.w3.org/2000/svg" xmlns:xlink="http://www.w3.org/1999/xlink">
    <!-- Generator: Sketch 50.2 (55047) - http://www.bohemiancoding.com/sketch -->
    <title>Акция 2</title>
    <desc>Created with Sketch.</desc>
    <defs>
        <rect id="path-1" x="0" y="0" width="158" height="113"></rect>
        <polygon id="path-3" points="0.0114611625 68.3902358 124.9892 68.3902358 124.9892 0.859140364 0.0114611625 0.859140364"></polygon>
        <polygon id="path-5" points="0.32380695 11.0152341 12.2485726 11.0152341 12.2485726 0.240132102 0.32380695 0.240132102"></polygon>
        <polygon id="path-7" points="0.151696832 7.90892974 2.66275602 7.90892974 8.26009499 4.69248139 0.151696832 0.0440526195"></polygon>
        <polygon id="path-9" points="67.0965643 0.0751418792 0.857699169 0.0751418792 0.857699169 38.1515015 67.0965643 38.1515015"></polygon>
        <polygon id="path-11" points="0.0237776166 3.09379493 1.27377624 3.80978515 1.27377624 0.868717655 0.0237776166 0.130696973"></polygon>
        <polygon id="path-13" points="0.793631438 3.7332065 2.054692 4.46021195 2.054692 1.51914445 0.793631438 0.781123772"></polygon>
        <polygon id="path-15" points="0.146456968 3.81438399 0.146456968 0.735626066 1.39645559 0.00862061796 1.39645559 6.16613646 0.146456968 6.8931419 0.146456968 3.81438399 0.146456968 0.00862061796 11.2083917 0.00862061796 11.2083917 11.0238547 0.146456968 11.0238547 0.146456968 3.81438399"></polygon>
        <linearGradient x1="50%" y1="0%" x2="50%" y2="100%" id="linearGradient-17">
            <stop stop-color="#FFFFFF" offset="0%"></stop>
            <stop stop-color="#000000" offset="100%"></stop>
        </linearGradient>
        <polygon id="path-18" points="0.348742048 3.80154442 0.348742048 0.722786501 1.59874067 0.0178115215 1.59874067 6.16431213 0.348742048 6.88030234 0.348742048 3.80154442 0.348742048 0.0178115215 11.4106768 0.0178115215 11.4106768 11.0330456 0.348742048 11.0330456"></polygon>
        <polygon id="path-20" points="0.938850521 1.28590885 1.86805304 1.83667055 1.86805304 0.569918632 0.938850521 0.0191569288"></polygon>
        <polygon id="path-22" points="0.2592485 2.90562718 0.2592485 4.17237909 4.36322629 1.815119 4.36322629 3.08187092 5.31455267 2.53110922 5.31455267 0.724610832 5.31455267 0.00862061796"></polygon>
        <polygon id="path-24" points="0.555508737 1.33135749 1.50683512 1.87110395 1.50683512 0.604352037 0.555508737 0.0646055683"></polygon>
        <polygon id="path-26" points="0.555508737 3.61108108 1.50683512 4.15082755 6.5621393 1.25382099 5.61081291 0.703059287"></polygon>
        <polygon id="path-28" points="67.0965643 0.0751418792 0.857699169 0.0751418792 0.857699169 38.1515015 67.0965643 38.1515015"></polygon>
    </defs>
    <g id="Page-1" stroke="none" stroke-width="1" fill="none" fill-rule="evenodd">
        <g id="Головна" transform="translate(-257.000000, -548.000000)">
            <g id="Group-28" transform="translate(256.000000, 516.000000)">
                <g id="Акция-3">
                    <g id="Акция-2" transform="translate(0.000000, 30.000000)">
                        <mask id="mask-2" fill="white">
                            <use xlink:href="#path-1"></use>
                        </mask>
                        <g id="Mask"></g>
                        <g id="Group-15" mask="url(#mask-2)">
                            <g transform="translate(1.000000, 2.000000)" id="Page-1">
                                <g>
                                    <g id="Group-12" transform="translate(2.495173, 41.868998)">
                                        <path d="M83.5191126,58.2467857 C75.3000951,61.5623711 67.0810776,64.8779566 58.8620601,68.193542 L48.4306557,68.193542 L5.47716311,43.4973873 L79.5478781,0.934522879 L92.9991907,8.66721719 L101.892986,3.55614859 L116.15182,10.5508222 L152.733638,31.5678888 L123.076591,48.6304864 L83.5191126,58.2467857 Z" id="Fill-1" fill="#D0B716"></path>
                                        <g id="Group-5" transform="translate(0.000000, 1.245200)">
                                            <mask id="mask-4" fill="white">
                                                <use xlink:href="#path-3"></use>
                                            </mask>
                                            <g id="Clip-4"></g>
                                        </g>
                                        <polygon id="Fill-6" fill="#5D5D5D" points="20.6375447 15.8105965 63.5910372 40.495736 63.5910372 53.8351844 20.6375447 29.1390297"></polygon>
                                        <path d="M52.3642797,61.3773152 C53.4815351,62.0161988 54.9970201,61.9280769 56.7005581,60.9477211 C58.3930341,59.9783805 59.930643,58.3150801 61.0257746,56.3984294 C62.14303,54.4817787 62.817808,52.333808 62.817808,50.3841116 C62.817808,48.4344152 62.14303,47.0685262 61.0257746,46.4296426 C59.3996702,45.4933477 58.3156006,44.8654794 56.6784342,43.9291845 C55.5722407,43.2792856 54.0346318,43.3784228 52.3421558,44.3477634 C50.6607417,45.3281192 49.1231328,46.9914195 48.0058774,48.9080703 C46.8996839,50.824721 46.213844,52.9726916 46.213844,54.922388 C46.213844,56.8720845 46.8996839,58.2379735 48.0058774,58.8768571 C49.6651676,59.8241672 50.7381753,60.4410203 52.3642797,61.3773152" id="Fill-8" fill="#090E06"></path>
                                        <path d="M56.6961333,46.8548306 C53.3111813,48.8045271 50.5678215,53.5300625 50.5678215,57.4294553 C50.5678215,61.3178329 53.3111813,62.8930114 56.6961333,60.943315 C60.0810853,59.0046338 62.8244452,54.2680831 62.8244452,50.3797055 C62.8244452,46.4913279 60.0810853,44.9051342 56.6961333,46.8548306" id="Fill-10" fill="#232323"></path>
                                    </g>
                                    <polygon id="Fill-13" fill="#FFFFFF" points="74.5463782 42.3067339 115.442351 65.8132434 122.01314 62.0350181 81.1282293 38.5285086"></polygon>
                                    <g id="Group-20" transform="translate(0.000000, 74.914700)">
                                        <polygon id="Fill-15" fill="#FFFFFF" points="8.10618577 0.351816997 0.00884954779 5.011261 45.4512774 31.1393962 53.5596756 26.4799522"></polygon>
                                        <g id="Group-19" transform="translate(38.176151, 25.574500)">
                                            <mask id="mask-6" fill="white">
                                                <use xlink:href="#path-5"></use>
                                            </mask>
                                            <g id="Clip-18"></g>
                                            <polygon id="Fill-17" fill="#A2A2A2" mask="url(#mask-6)" points="0.522921775 0.240132102 7.0605252 3.99632692 7.0605252 2.59739219 12.2485726 2.59739219 12.2485726 2.71855977 9.61583212 4.2166316 7.0605252 4.2166316 0.32380695 0.350284443"></polygon>
                                        </g>
                                    </g>
                                    <g id="Group-23" transform="translate(45.301793, 96.699968)">
                                        <mask id="mask-8" fill="white">
                                            <use xlink:href="#path-7"></use>
                                        </mask>
                                        <g id="Clip-22"></g>
                                        <polygon id="Fill-21" mask="url(#mask-8)" points="0.151696832 7.90892974 2.66275602 7.90892974 8.26009499 4.69248139 0.151696832 0.0440526195"></polygon>
                                    </g>
                                    <g id="Group-49" transform="translate(0.000000, 0.109337)">
                                        <polygon id="Fill-24" fill="#5D5D5D" points="75.8063325 32.5381382 114.191246 54.601652 114.191246 67.9411004 75.8063325 45.8775866"></polygon>
                                        <path d="M102.964488,74.8245202 C104.081744,75.4634038 105.608291,75.3642667 107.300767,74.3949261 C108.993243,73.4145702 110.530852,71.7512699 111.625983,69.8346192 C112.743239,67.9289837 113.429079,65.7699978 113.429079,63.8203014 C113.429079,61.8706049 112.743239,60.5047159 111.625983,59.8768476 C110.010941,58.9405527 108.915809,58.3016691 107.289705,57.3653742 C106.17245,56.7264906 104.634841,56.8146125 102.942365,57.7949683 C101.260951,58.7643089 99.7233416,60.4386245 98.6060862,62.3552752 C97.4998927,64.2609107 96.8140528,66.4198966 96.8140528,68.369593 C96.8140528,70.3192895 97.4998927,71.6851785 98.6060862,72.3130468 C100.265376,73.260357 101.338384,73.8772101 102.964488,74.8245202" id="Fill-26" fill="#090E06"></path>
                                        <path d="M107.296342,60.2910204 C103.91139,62.2407168 101.16803,66.9772675 101.16803,70.8656451 C101.16803,74.7540227 103.91139,76.3402164 107.296342,74.39052 C110.681294,72.4518388 113.435716,67.7152881 113.435716,63.8158953 C113.435716,59.9275177 110.681294,58.3523392 107.296342,60.2910204" id="Fill-28" fill="#2B2B2B"></path>
                                        <path d="M119.503187,44.2098802 L62.7554619,76.8480187 L45.454596,94.1088905 L45.454596,104.507271 L52.3129955,100.563818 L52.3129955,98.9666087 C52.3129955,94.5935608 55.3882134,89.2732027 59.1935189,87.0921864 C62.9988245,84.9001548 66.0851043,86.6736075 66.0851043,91.0466554 L66.0851043,95.5959471 L100.410288,75.8566476 L100.410288,71.307356 C100.410288,66.934308 103.496568,61.61395 107.290811,59.4329337 C111.096117,57.2409021 114.193458,59.02537 114.193458,63.3874027 L114.193458,64.9846116 L119.503187,61.9223765 L119.503187,44.2098802 Z" id="Fill-30" fill="#B5B5B5"></path>
                                        <polygon id="Fill-32" fill="#EDEBEB" points="2.50995299 69.4237509 45.4523836 94.1088905 45.4523836 104.507271 2.50995299 79.8111167"></polygon>
                                        <path d="M11.5630404,85.0114087 L4.6603931,81.0569396 L3.59844737,78.3251616 L3.59844737,72.1676457 L10.3351656,76.0450081 L11.5630404,79.1953651 L11.5630404,85.0114087 Z M45.4457465,98.394918 L45.4457465,104.508373 L38.6979663,100.619995 L37.6249586,97.8882173 L37.6249586,91.7307014 L44.3727388,95.6080638 L45.4457465,98.394918 Z" id="Fill-34" fill="#A2A2A2"></path>
                                        <polygon id="Fill-36" fill="#D2D2D2" points="102.78086 21.1032237 73.1127514 38.154806 62.7587805 76.8513233 119.506506 44.2131848"></polygon>
                                        <polygon id="Fill-38" fill="#3BA9D1" points="99.0319707 25.7615662 110.038596 49.6536089 65.414751 75.3191042 74.9833246 39.5856849"></polygon>
                                        <polygon id="Fill-40" fill="#FFFFFF" points="2.50995299 69.4237509 45.4523836 94.1088905 62.7532495 76.8480187 19.799757 52.1518639"></polygon>
                                        <polygon id="Fill-42" fill="#EDEBEB" points="36.5386766 17.1234196 73.1204948 38.1515015 62.7554619 76.8480187 19.8019694 52.1518639"></polygon>
                                        <g id="Group-46" transform="translate(35.680977, 0.000000)">
                                            <mask id="mask-10" fill="white">
                                                <use xlink:href="#path-9"></use>
                                            </mask>
                                            <g id="Clip-45"></g>
                                            <polygon id="Fill-44" fill="#C5E6F1" mask="url(#mask-10)" points="0.857699169 17.1234196 37.4395173 38.1515015 67.0965643 21.0999191 30.5258081 0.0718373089"></polygon>
                                        </g>
                                        <polygon id="Fill-47" fill="#C3D6E6" points="0.00442477389 79.8155228 45.4468527 105.943658 45.4468527 108.895741 0.00442477389 82.7676055"></polygon>
                                    </g>
                                    <path d="M115.442351,65.8242586 L115.442351,68.7653261 L122.01314,64.9760856 L122.01314,62.0350181 L115.442351,65.8242586 Z M67.3450586,93.4835114 L67.3450586,96.4245788 L101.670242,76.6852794 L101.670242,73.7442119 L67.3450586,93.4835114 Z M45.4534898,106.051893 L45.4534898,108.992961 L53.561888,104.344532 L53.561888,101.392449 L45.4534898,106.051893 Z" id="Fill-50" fill="#B0BDC7"></path>
                                    <g id="Group-54" transform="translate(114.168575, 64.955541)">
                                        <mask id="mask-12" fill="white">
                                            <use xlink:href="#path-11"></use>
                                        </mask>
                                        <g id="Clip-53"></g>
                                        <polygon id="Fill-52" fill="#F7F2EC" mask="url(#mask-12)" points="0.0237776166 3.09379493 1.27377624 3.80978515 1.27377624 0.868717655 0.0237776166 0.130696973"></polygon>
                                    </g>
                                    <g id="Group-57" transform="translate(65.290367, 91.964367)">
                                        <mask id="mask-14" fill="white">
                                            <use xlink:href="#path-13"></use>
                                        </mask>
                                        <g id="Clip-56"></g>
                                        <polygon id="Fill-55" fill="#F7F2EC" mask="url(#mask-14)" points="0.793631438 3.7332065 2.054692 4.46021195 2.054692 1.51914445 0.793631438 0.781123772"></polygon>
                                    </g>
                                    <polygon id="Fill-58" fill="#FFFFFF" points="66.0839981 92.7454907 67.3450586 93.4835114 101.670242 73.7442119 100.409182 73.0172065"></polygon>
                                    <g id="Group-68" transform="translate(9.980693, 25.872963)">
                                        <polygon id="Fill-60" fill="#FFFFFF" points="55.8875974 47.8448128 55.8875974 47.8448128 55.6552967 48.6929858 55.434058 49.5411589 100.057903 23.8866787 99.4384344 23.523176 98.8079041 23.1706885 98.1773739 22.8071858 56.119898 46.9856246"></polygon>
                                        <polygon id="Fill-62" fill="#888888" points="98.1795862 22.8027797 87.9583585 0.618098308 89.0534901 0.00124520037 100.060115 23.8932879"></polygon>
                                        <polygon id="Fill-64" fill="#727272" points="0.350047855 50.275875 27.6509028 65.9725835 27.6509028 72.1190841 0.350047855 56.4333908"></polygon>
                                        <polygon id="Fill-66" fill="#F2F8F7" points="26.3953732 66.6907768 33.1320914 70.5681392 33.1320914 76.7146398 26.3953732 72.8482926"></polygon>
                                    </g>
                                    <g id="Group-71" transform="translate(42.972965, 95.699968)">
                                        <mask id="mask-16" fill="white">
                                            <use xlink:href="#path-15"></use>
                                        </mask>
                                        <g id="Clip-70"></g>
                                        <polygon id="Fill-69" fill="url(#linearGradient-17)" mask="url(#mask-16)" points="0.146456968 0.735626066 0.146456968 6.8931419 1.39645559 6.16613646 1.39645559 0.00862061796"></polygon>
                                    </g>
                                    <g id="Group-76" transform="translate(2.301641, 72.424300)">
                                        <polygon id="Fill-72" fill="#FFFFFF" points="35.3277427 19.4190435 42.064461 23.2964059 40.8144623 24.0123961 34.0777441 20.1350337"></polygon>
                                        <polygon id="Fill-74" fill="#F2F8F7" points="0.0468080656 0.573079525 6.77246438 4.45044191 6.77246438 10.5969425 0.0468080656 6.73059536"></polygon>
                                    </g>
                                    <g id="Group-79" transform="translate(8.733106, 76.138737)">
                                        <mask id="mask-19" fill="white">
                                            <use xlink:href="#path-18"></use>
                                        </mask>
                                        <g id="Clip-78"></g>
                                        <polygon id="Fill-77" fill="url(#linearGradient-17)" mask="url(#mask-19)" points="0.348742048 0.722786501 0.348742048 6.88030234 1.59874067 6.16431213 1.59874067 0.0178115215"></polygon>
                                    </g>
                                    <polygon id="Fill-80" fill="#FFFFFF" points="3.60065976 72.2769827 10.3263161 76.1543451 9.07631745 76.8703353 2.3395992 72.992973"></polygon>
                                    <g id="Group-84" transform="translate(93.485824, 63.899466)">
                                        <mask id="mask-21" fill="white">
                                            <use xlink:href="#path-20"></use>
                                        </mask>
                                        <g id="Clip-83"></g>
                                        <polygon id="Fill-82" mask="url(#mask-21)" points="0.938850521 1.28590885 1.86805304 1.83667055 1.86805304 0.569918632 0.938850521 0.0191569288"></polygon>
                                    </g>
                                    <g id="Group-87" transform="translate(90.990651, 62.654266)">
                                        <mask id="mask-23" fill="white">
                                            <use xlink:href="#path-22"></use>
                                        </mask>
                                        <g id="Clip-86"></g>
                                        <polygon id="Fill-85" mask="url(#mask-23)" points="0.2592485 2.90562718 0.2592485 4.17237909 4.36322629 1.815119 4.36322629 3.08187092 5.31455267 2.53110922 5.31455267 0.724610832 5.31455267 0.00862061796"></polygon>
                                    </g>
                                    <g id="Group-90" transform="translate(89.743064, 64.955541)">
                                        <mask id="mask-25" fill="white">
                                            <use xlink:href="#path-24"></use>
                                        </mask>
                                        <g id="Clip-89"></g>
                                        <polygon id="Fill-88" mask="url(#mask-25)" points="0.555508737 1.33135749 1.50683512 1.87110395 1.50683512 0.604352037 0.555508737 0.0646055683"></polygon>
                                    </g>
                                    <g id="Group-93" transform="translate(89.743064, 61.409065)">
                                        <mask id="mask-27" fill="white">
                                            <use xlink:href="#path-26"></use>
                                        </mask>
                                        <g id="Clip-92"></g>
                                        <polygon id="Fill-91" mask="url(#mask-27)" points="0.555508737 3.61108108 1.50683512 4.15082755 6.5621393 1.25382099 5.61081291 0.703059287"></polygon>
                                    </g>
                                    <g id="Group-96" transform="translate(35.680977, 0.109337)">
                                        <mask id="mask-29" fill="white">
                                            <use xlink:href="#path-28"></use>
                                        </mask>
                                        <g id="Clip-95"></g>
                                        <polygon id="Fill-94" fill="#FFFFFF" mask="url(#mask-29)" points="0.857699169 17.1234196 37.4395173 38.1515015 67.0965643 21.0999191 30.5258081 0.0718373089"></polygon>
                                    </g>
                                    <g id="Group-119" transform="translate(3.742760, 19.838530)">
                                        <polygon id="Fill-115" fill="#BDABA1" points="0.916527037 61.3123253 7.81917431 65.2778096 7.45413046 65.2888248 0.717412212 61.4334929"></polygon>
                                        <polygon id="Fill-117" fill="#4FC3EE" points="33.7461369 0.448751057 66.8434457 19.4830755 57.639916 53.8285753 50.7372687 49.863091 44.409842 38.1208515 43.5801969 38.5724761 49.1885978 48.9708571 31.8434842 38.991055 25.9806588 28.1520647 25.1620756 28.5926741 30.2948133 38.1098363 18.8899586 31.5447568"></polygon>
                                    </g>
                                </g>
                            </g>
                        </g>
                    </g>
                </g>
            </g>
        </g>
    </g>
</svg>