<?xml version="1.0" encoding="UTF-8"?>
<svg width="264px" height="273px" viewBox="0 0 264 273" version="1.1" xmlns="http://www.w3.org/2000/svg" xmlns:xlink="http://www.w3.org/1999/xlink">
    <!-- Generator: Sketch 50.2 (55047) - http://www.bohemiancoding.com/sketch -->
    <title>Group 19</title>
    <desc>Created with Sketch.</desc>
    <defs></defs>
    <g id="Page-1" stroke="none" stroke-width="1" fill="none" fill-rule="evenodd">
        <g id="Про-комплекс" transform="translate(-522.000000, -5085.000000)">
            <g id="Group-26" transform="translate(327.000000, 5085.000000)">
                <g id="Group-28" transform="translate(195.000000, 0.000000)">
                    <g id="Group-19">
                        <g id="Group-6-Copy-4" transform="translate(214.000000, 166.000000)">
                            <g id="Page-1" transform="translate(24.884615, 21.000000) scale(-1, 1) translate(-24.884615, -21.000000) translate(0.384615, 0.000000)">
                                <polygon id="Fill-1" fill="#F4F4F4" points="18.0271579 20.5077718 0 31.0874446 18.0271579 41.6739298 30.8010742 41.6739298 44.2259811 33.7919714 44.2259811 28.3829178 30.8010742 20.5077718"></polygon>
                                <polygon id="Fill-5" fill="#FDED87" points="12.519044 10.5823978 30.5462019 21.168883 48.5733598 10.5892102 30.5529009 0.00272496402"></polygon>
                                <polygon id="Fill-6" fill="#FFDD00" points="30.5435223 21.1675205 30.5435223 41.6326243 48.5706802 31.0529515 48.5706802 10.5878477"></polygon>
                                <polygon id="Fill-7" fill="#A99305" points="12.5177042 10.583079 30.5448621 21.1695642 30.5448621 41.634668 12.5177042 31.0481828"></polygon>
                            </g>
                        </g>
                        <g id="Group-6-Copy-5" transform="translate(118.000000, 249.000000)">
                            <g id="Page-1" transform="translate(14.500000, 12.000000) scale(-1, 1) translate(-14.500000, -12.000000) ">
                                <polygon id="Fill-1" fill="#F4F4F4" points="10.6691343 11.7187267 0 17.764254 10.6691343 23.8136742 18.2292072 23.8136742 26.1745602 19.3096979 26.1745602 16.2188102 18.2292072 11.7187267"></polygon>
                                <polygon id="Fill-5" fill="#FDED87" points="7.40923012 6.04708443 18.0783644 12.0965046 28.7474986 6.05097724 18.0823291 0.00155712229"></polygon>
                                <polygon id="Fill-6" fill="#FFDD00" points="18.0767785 12.095726 18.0767785 23.790071 28.7459127 17.7445437 28.7459127 6.05019868"></polygon>
                                <polygon id="Fill-7" fill="#A99305" points="7.40843717 6.04747372 18.0775714 12.0968938 18.0775714 23.7912389 7.40843717 17.7418187"></polygon>
                            </g>
                        </g>
                        <g id="All_images-09" transform="translate(33.500000, 22.500000) scale(-1, 1) translate(-33.500000, -22.500000) ">
                            <polyline id="Fill-1" fill="#F4F4F4" points="54 45 38.1080243 45 0 23.1328781 12.4318387 16 28.3238144 16 54 45"></polyline>
                            <polyline id="Fill-2" fill="#FDED87" points="16 7.13364863 54.4547839 29 67 21.8678924 28.5444337 0 16 7.13364863"></polyline>
                            <polyline id="Fill-3" fill="#FFDD00" points="67 22 54 29.1544562 54 45 67 37.8447708 67 22"></polyline>
                            <polyline id="Fill-4" fill="#A99305" points="16.0007731 7 54 29.0623593 53.9992269 45 16 22.9368632 16.0007731 7"></polyline>
                        </g>
                    </g>
                </g>
            </g>
        </g>
    </g>
</svg>