<?xml version="1.0" encoding="UTF-8"?>
<svg width="425px" height="64px" viewBox="0 0 425 64" version="1.1" xmlns="http://www.w3.org/2000/svg" xmlns:xlink="http://www.w3.org/1999/xlink">
    <!-- Generator: Sketch 50.2 (55047) - http://www.bohemiancoding.com/sketch -->
    <title>fundlogoMEGAwhite</title>
    <desc>Created with Sketch.</desc>
    <defs></defs>
    <g id="Page-1" stroke="none" stroke-width="1" fill="none" fill-rule="evenodd">
        <g id="Про-комплекс" transform="translate(-327.000000, -5196.000000)" fill="#07714C" fill-rule="nonzero">
            <g id="Group-26" transform="translate(327.000000, 5085.000000)">
                <g id="Group-4" transform="translate(0.000000, 103.000000)">
                    <g id="fundlogoMEGAwhite" transform="translate(0.000000, 8.000000)">
                        <g id="Group">
                            <path d="M114.460741,38.4353459 L114.460741,23.3812328 L142.344279,23.3812328 L142.344279,0.772491348 L131.06987,0.772491348 L131.06987,14.7513107 L103.213831,14.7513107 L103.213831,38.4077743 L114.460741,38.4077743 L114.460741,38.4353459 Z M142.371777,38.4353459 L142.371777,25.8075367 L131.097369,25.8075367 L131.097369,38.4353459 L142.371777,38.4353459 Z M114.460741,0.772491348 L103.186333,0.772491348 L103.186333,12.3525784 L114.460741,12.3525784 L114.460741,0.772491348 Z" id="Shape"></path>
                            <path d="M189.091827,27.4066916 L177.817418,27.4066916 L177.817418,0.772491348 L189.091827,0.772491348 L189.091827,27.4066916 Z M160.658318,38.4353459 L149.988878,38.4353459 L157.38599,11.8011457 L168.05543,11.8011457 L160.658318,38.4353459 Z M189.091827,9.37484174 L155.131108,9.37484174 L155.131108,0.772491348 L189.091827,0.772491348 L189.091827,9.37484174 Z M193.60159,38.4353459 L146.881541,38.4353459 L146.881541,29.8329956 L193.60159,29.8329956 L193.60159,38.4353459 Z" id="Shape"></path>
                            <path d="M207.543359,38.4353459 L210.018229,30.3017134 L226.764851,30.3017134 L229.239721,38.4353459 L240.624124,38.4353459 L235.536891,22.2507957 L212.465601,22.2507957 L215.627935,11.8287173 L205.123486,11.8287173 L196.708927,38.4629176 L207.543359,38.4353459 Z M228.662252,0.772491348 L208.533307,0.772491348 L205.81095,9.37484174 L220.467681,9.37484174 L223.630015,19.7969201 L234.574441,19.7969201 L228.662252,0.772491348 Z" id="Shape"></path>
                            <path d="M254.895876,38.4353459 L254.895876,11.8011457 L243.896452,11.8011457 L243.896452,38.4353459 L254.895876,38.4353459 Z M268.370169,30.3017134 L273.292411,30.3017134 L280.057056,9.37484174 L292.816387,9.37484174 L292.816387,0.772491348 L273.402405,0.772491348 L267.242728,20.5137826 L268.370169,20.5137826 L269.49761,20.5137826 L263.337933,0.772491348 L243.923951,0.772491348 L243.923951,9.37484174 L256.683282,9.37484174 L263.447927,30.3017134 L268.370169,30.3017134 Z M292.843885,38.4353459 L292.843885,11.8011457 L281.844462,11.8011457 L281.844462,38.4353459 L292.843885,38.4353459 Z" id="Shape"></path>
                            <path d="M353.560701,38.4353459 L353.560701,23.3812328 L381.444238,23.3812328 L381.444238,0.772491348 L370.16983,0.772491348 L370.16983,14.7513107 L342.286292,14.7513107 L342.286292,38.4077743 L353.560701,38.4077743 L353.560701,38.4353459 Z M381.444238,38.4353459 L381.444238,25.8075367 L370.16983,25.8075367 L370.16983,38.4353459 L381.444238,38.4353459 Z M353.560701,0.772491348 L342.286292,0.772491348 L342.286292,12.3525784 L353.560701,12.3525784 L353.560701,0.772491348 Z" id="Shape"></path>
                            <path d="M424.89196,9.37484174 L424.89196,0.772491348 L385.954002,0.772491348 L385.954002,9.37484174 L424.89196,9.37484174 Z M411.060185,38.4353459 L411.060185,11.8011457 L399.785776,11.8011457 L399.785776,38.4353459 L411.060185,38.4353459 Z" id="Shape"></path>
                            <rect id="Rectangle-path" x="1.88164583" y="46.8171232" width="208.136584" height="8.60235039"></rect>
                            <path d="M301.313441,0.772491348 L301.313441,23.3812328 L328.289526,23.3812328 L328.289526,15.3027435 L312.560351,15.3027435 L312.560351,9.37484174 L335.08167,9.37484174 L335.08167,0.772491348 L301.313441,0.772491348 Z M312.560351,29.8329956 L312.560351,25.8075367 L301.285942,25.8075367 L301.285942,38.4353459 L335.109169,38.4353459 L335.109169,29.8329956 L312.560351,29.8329956 Z" id="Shape"></path>
                            <path d="M38.0697478,12.3525784 C41.9195459,12.3525784 44.2844219,14.7788824 44.7793959,17.8944772 L56.6312743,17.8944772 C56.0813031,10.3122774 50.5815916,4.2740891 41.0670906,4.2740891 L33.9999613,4.2740891 L33.9999613,0.248630266 L22.7255526,0.248630266 L22.7255526,4.2740891 L15.6309247,4.2740891 C6.14392228,4.2740891 0.561715063,10.2847057 0.0667410233,17.8944772 L11.9186194,17.8944772 C12.4135934,14.7788824 14.7509709,12.3525784 18.6282675,12.3525784 L22.7255526,12.3525784 L22.7255526,25.8075367 L18.6557661,25.8075367 C14.805968,25.8075367 12.441092,23.436376 11.946118,20.3207812 L0.0942395811,20.3207812 C0.644210736,27.902981 6.06142661,33.886026 15.6584233,33.886026 L22.7255526,33.886026 L22.7255526,38.4629176 L33.9999613,38.4629176 L33.9999613,33.8584544 L41.0945892,33.8584544 C50.6365887,33.8584544 56.1088017,27.8754094 56.6587728,20.2932095 L44.8068945,20.2932095 C44.2569233,23.4088044 41.974543,25.7799651 38.0972464,25.7799651 L33.9999613,25.7799651 L33.9999613,12.3525784 L38.0697478,12.3525784 Z" id="Shape"></path>
                            <path d="M65.1283286,24.1808102 L91.03197,24.1808102 L98.7590647,0.772491348 L87.8146388,0.772491348 L83.0848868,15.5508882 L72.690432,15.5508882 L66.8882363,0.772491348 L55.6138277,0.772491348 L65.1283286,24.1808102 Z M66.2007724,29.8329956 L66.2007724,38.4353459 L79.0700974,38.4353459 C83.0848868,38.4353459 86.5772037,37.4151954 88.7220912,31.0737192 L90.2345118,26.6071142 L79.6200686,26.6071142 L79.1250945,28.2338407 C78.7951118,29.419421 77.8326623,29.8605672 76.485233,29.8605672 L66.2007724,29.8329956 Z" id="Shape"></path>
                        </g>
                        <g id="Group" transform="translate(264.000000, 49.000000)">
                            <path d="M0.0217208029,0.199601801 L6.42935764,0.199601801 L6.42935764,1.50810249 L1.56389781,1.50810249 L1.56389781,4.41341759 L3.08435401,4.41341759 C5.38675911,4.41341759 7.10270253,5.41142659 7.10270253,7.6070464 C7.10270253,9.86920014 5.51708392,11.044633 2.91058758,11.044633 L0.0217208029,11.044633 L0.0217208029,0.199601801 Z M2.91058758,9.75831025 C4.73513502,9.75831025 5.53880473,9.11514889 5.53880473,7.67358033 C5.53880473,6.36507964 4.82201823,5.67756233 2.93230839,5.67756233 L1.56389781,5.67756233 L1.56389781,9.75831025 L2.91058758,9.75831025 Z" id="Shape"></path>
                            <path d="M10.0132901,11.000277 L10.2304981,9.71395429 C10.4042646,9.75831025 10.6214726,9.78048823 10.8604014,9.78048823 C11.903,9.78048823 12.4242992,8.98208102 13.0107609,7.69575831 L13.0324817,7.62922438 L9.38338683,0.177423823 L10.9255638,0.177423823 L13.770989,6.14329986 L13.7927098,6.14329986 L16.5946934,0.177423823 L18.1368704,0.177423823 L14.1619635,8.47198753 C13.3582938,10.1575139 12.3808576,11.1111669 10.8386806,11.1111669 C10.4911478,11.1111669 10.1870565,11.0668109 10.0132901,11.000277 Z" id="Shape"></path>
                            <path d="M18.506124,9.71395429 L19.3749561,9.71395429 C20.0048594,9.2038608 20.3958339,8.00625 20.5696003,6.12112188 L21.1343412,0.177423823 L27.759186,0.177423823 L27.759186,9.69177632 L29.1058758,9.69177632 L28.6714598,14.0830159 L27.5636988,14.0830159 L27.4116532,11.022455 L20.0917426,11.022455 L19.7876514,14.0830159 L18.6798905,14.0830159 L18.506124,9.71395429 Z M26.217009,9.71395429 L26.217009,1.53028047 L22.5244726,1.53028047 L22.0466149,6.34290166 C21.8945693,7.76229224 21.5253156,9.04861496 20.938854,9.71395429 L26.217009,9.71395429 Z" id="Shape"></path>
                            <polygon id="Shape" points="32.6898083 0.199601801 34.2537061 0.199601801 34.2537061 11.0668109 32.6898083 11.0668109"></polygon>
                            <path d="M38.5761459,0.199601801 L41.6822207,0.199601801 C43.7891386,0.199601801 45.396478,0.931475069 45.396478,2.9053151 C45.396478,4.19163781 44.6362499,5.01222299 43.4198849,5.32271468 L43.4198849,5.34489266 C44.7665747,5.56667244 45.8743356,6.49814751 45.8743356,8.00625 C45.8743356,10.2018698 44.180113,11.044633 41.6387791,11.044633 L38.5544251,11.044633 L38.5761459,0.199601801 Z M41.5084543,4.79044321 C43.1375145,4.79044321 43.8108594,4.21381579 43.8108594,3.01620499 C43.8108594,1.88512812 43.0289105,1.46374654 41.5518959,1.46374654 L40.0966021,1.46374654 L40.0966021,4.79044321 L41.5084543,4.79044321 Z M41.5953375,9.75831025 C43.4416057,9.75831025 44.2669962,9.33692867 44.2669962,8.00625 C44.2669962,6.76428324 43.5502097,6.03240997 41.6822207,6.03240997 L40.0748813,6.03240997 L40.0748813,9.75831025 L41.5953375,9.75831025 Z" id="Shape"></path>
                            <polygon id="Shape" points="49.0021312 0.199601801 55.3880473 0.199601801 55.3880473 1.50810249 50.566029 1.50810249 50.566029 4.67955332 54.866748 4.67955332 54.866748 5.96587604 50.566029 5.96587604 50.566029 9.71395429 55.4966513 9.71395429 55.4966513 11.022455 49.023852 11.022455"></polygon>
                            <path d="M57.8207772,10.002268 C58.9502589,9.95791205 59.5149998,8.69376731 59.7322078,6.12112188 L60.1883447,0.177423823 L67.09556,0.177423823 L67.09556,11.044633 L65.5316622,11.044633 L65.5316622,1.53028047 L61.5350345,1.53028047 L61.1657808,6.34290166 C60.926852,9.46999654 59.9711367,11.2220568 58.0814268,11.2220568 L57.8207772,10.002268 Z" id="Shape"></path>
                            <path d="M70.8315381,0.199601801 L72.3954359,0.199601801 L72.3954359,4.41341759 L73.9158921,4.41341759 C76.2182972,4.41341759 77.9342406,5.41142659 77.9342406,7.6070464 C77.9342406,9.86920014 76.348622,11.044633 73.7421257,11.044633 L70.8532589,11.044633 L70.8315381,0.199601801 Z M73.7204049,9.75831025 C75.5449523,9.75831025 76.348622,9.11514889 76.348622,7.67358033 C76.348622,6.36507964 75.6318355,5.67756233 73.7421257,5.67756233 L72.3737151,5.67756233 L72.3737151,9.75831025 L73.7204049,9.75831025 Z" id="Shape"></path>
                            <polygon id="Shape" points="80.5841786 0.199601801 82.1480764 0.199601801 82.1480764 4.7017313 88.1647388 4.7017313 88.1647388 0.199601801 89.7069158 0.199601801 89.7069158 11.0668109 88.1647388 11.0668109 88.1647388 6.03240997 82.1480764 6.03240997 82.1480764 11.0668109 80.5841786 11.0668109"></polygon>
                            <path d="M96.4838063,0.199601801 L98.0042625,0.199601801 L102.326702,11.0668109 L100.697642,11.0668109 L99.7419267,8.58287742 L94.6592588,8.58287742 L93.7252643,11.0668109 L92.2048081,11.0668109 L96.4838063,0.199601801 Z M99.2423482,7.23002078 L97.8739377,3.63718837 C97.5264048,2.7057133 97.2005928,1.68552632 97.2005928,1.68552632 L97.1571512,1.68552632 C97.1571512,1.68552632 96.8313391,2.75006925 96.4838063,3.63718837 L95.1371165,7.23002078 L99.2423482,7.23002078 Z" id="Shape"></path>
                            <polygon id="Shape" points="109.885542 0.199601801 116.162854 0.199601801 116.162854 1.50810249 111.427719 1.50810249 111.427719 11.044633 109.863821 11.044633"></polygon>
                            <path d="M118.617304,0.199601801 L121.701658,0.199601801 C124.004063,0.199601801 125.720007,1.1976108 125.720007,3.39323061 C125.720007,5.65538435 124.134388,6.83081717 121.527892,6.83081717 L120.202923,6.83081717 L120.202923,11.044633 L118.639025,11.044633 L118.617304,0.199601801 Z M121.506171,5.54449446 C123.330719,5.54449446 124.134388,4.9013331 124.134388,3.45976454 C124.134388,2.15126385 123.417602,1.46374654 121.527892,1.46374654 L120.159481,1.46374654 L120.159481,5.54449446 L121.506171,5.54449446 Z" id="Shape"></path>
                            <path d="M127.826925,11.000277 L128.044133,9.71395429 C128.217899,9.75831025 128.435107,9.78048823 128.674036,9.78048823 C129.716635,9.78048823 130.237934,8.98208102 130.824396,7.69575831 L130.846116,7.62922438 L127.197022,0.177423823 L128.739199,0.177423823 L131.584624,6.14329986 L131.606344,6.14329986 L134.408328,0.177423823 L135.950505,0.177423823 L131.975598,8.47198753 C131.171928,10.1575139 130.194492,11.1111669 128.652315,11.1111669 C128.304782,11.1111669 128.000691,11.0668109 127.826925,11.000277 Z" id="Shape"></path>
                            <polygon id="Shape" points="138.339793 0.199601801 147.201881 0.199601801 147.201881 11.0668109 145.659704 11.0668109 145.659704 1.55245845 139.88197 1.55245845 139.88197 11.0668109 138.318073 11.0668109"></polygon>
                            <path d="M153.978771,0.199601801 L155.499228,0.199601801 L159.821667,11.0668109 L158.192607,11.0668109 L157.236892,8.58287742 L152.154224,8.58287742 L151.220229,11.0668109 L149.699773,11.0668109 L153.978771,0.199601801 Z M156.759034,7.23002078 L155.390624,3.63718837 C155.043091,2.7057133 154.717279,1.68552632 154.717279,1.68552632 L154.673837,1.68552632 C154.673837,1.68552632 154.348025,2.75006925 154.000492,3.63718837 L152.653802,7.23002078 L156.759034,7.23002078 Z" id="Shape"></path>
                        </g>
                    </g>
                </g>
            </g>
        </g>
    </g>
</svg>